<?xml version="1.0" encoding="utf-8" standalone="no"?>
<!DOCTYPE svg PUBLIC "-//W3C//DTD SVG 1.1//EN"
  "http://www.w3.org/Graphics/SVG/1.1/DTD/svg11.dtd">
<!-- Created with matplotlib (http://matplotlib.org/) -->
<svg height="163pt" version="1.1" viewBox="0 0 272 163" width="272pt" xmlns="http://www.w3.org/2000/svg" xmlns:xlink="http://www.w3.org/1999/xlink">
 <defs>
  <style type="text/css">
*{stroke-linecap:butt;stroke-linejoin:round;}
  </style>
 </defs>
 <g id="figure_1">
  <g id="patch_1">
   <path d="M 0 163.13925 
L 272.80675 163.13925 
L 272.80675 0 
L 0 0 
z
" style="fill:#ffffff;"/>
  </g>
  <g id="axes_1">
   <g id="patch_2">
    <path d="M 36.40675 124.08 
L 259.60675 124.08 
L 259.60675 13.2 
L 36.40675 13.2 
z
" style="fill:#ffffff;"/>
   </g>
   <g id="matplotlib.axis_1">
    <g id="xtick_1">
     <g id="line2d_1">
      <defs>
       <path d="M 0 0 
L 0 6 
" id="m983ce1003b" style="stroke:#262626;stroke-width:0.8;"/>
      </defs>
      <g>
       <use style="fill:#262626;stroke:#262626;stroke-width:0.8;" x="58.72675" xlink:href="#m983ce1003b" y="124.08"/>
      </g>
     </g>
     <g id="text_1">
      <!-- Other -->
      <defs>
       <path d="M 39.40625 66.21875 
Q 28.65625 66.21875 22.328125 58.203125 
Q 16.015625 50.203125 16.015625 36.375 
Q 16.015625 22.609375 22.328125 14.59375 
Q 28.65625 6.59375 39.40625 6.59375 
Q 50.140625 6.59375 56.421875 14.59375 
Q 62.703125 22.609375 62.703125 36.375 
Q 62.703125 50.203125 56.421875 58.203125 
Q 50.140625 66.21875 39.40625 66.21875 
z
M 39.40625 74.21875 
Q 54.734375 74.21875 63.90625 63.9375 
Q 73.09375 53.65625 73.09375 36.375 
Q 73.09375 19.140625 63.90625 8.859375 
Q 54.734375 -1.421875 39.40625 -1.421875 
Q 24.03125 -1.421875 14.8125 8.828125 
Q 5.609375 19.09375 5.609375 36.375 
Q 5.609375 53.65625 14.8125 63.9375 
Q 24.03125 74.21875 39.40625 74.21875 
z
" id="DejaVuSans-4f"/>
       <path d="M 18.3125 70.21875 
L 18.3125 54.6875 
L 36.8125 54.6875 
L 36.8125 47.703125 
L 18.3125 47.703125 
L 18.3125 18.015625 
Q 18.3125 11.328125 20.140625 9.421875 
Q 21.96875 7.515625 27.59375 7.515625 
L 36.8125 7.515625 
L 36.8125 0 
L 27.59375 0 
Q 17.1875 0 13.234375 3.875 
Q 9.28125 7.765625 9.28125 18.015625 
L 9.28125 47.703125 
L 2.6875 47.703125 
L 2.6875 54.6875 
L 9.28125 54.6875 
L 9.28125 70.21875 
z
" id="DejaVuSans-74"/>
       <path d="M 54.890625 33.015625 
L 54.890625 0 
L 45.90625 0 
L 45.90625 32.71875 
Q 45.90625 40.484375 42.875 44.328125 
Q 39.84375 48.1875 33.796875 48.1875 
Q 26.515625 48.1875 22.3125 43.546875 
Q 18.109375 38.921875 18.109375 30.90625 
L 18.109375 0 
L 9.078125 0 
L 9.078125 75.984375 
L 18.109375 75.984375 
L 18.109375 46.1875 
Q 21.34375 51.125 25.703125 53.5625 
Q 30.078125 56 35.796875 56 
Q 45.21875 56 50.046875 50.171875 
Q 54.890625 44.34375 54.890625 33.015625 
z
" id="DejaVuSans-68"/>
       <path d="M 56.203125 29.59375 
L 56.203125 25.203125 
L 14.890625 25.203125 
Q 15.484375 15.921875 20.484375 11.0625 
Q 25.484375 6.203125 34.421875 6.203125 
Q 39.59375 6.203125 44.453125 7.46875 
Q 49.3125 8.734375 54.109375 11.28125 
L 54.109375 2.78125 
Q 49.265625 0.734375 44.1875 -0.34375 
Q 39.109375 -1.421875 33.890625 -1.421875 
Q 20.796875 -1.421875 13.15625 6.1875 
Q 5.515625 13.8125 5.515625 26.8125 
Q 5.515625 40.234375 12.765625 48.109375 
Q 20.015625 56 32.328125 56 
Q 43.359375 56 49.78125 48.890625 
Q 56.203125 41.796875 56.203125 29.59375 
z
M 47.21875 32.234375 
Q 47.125 39.59375 43.09375 43.984375 
Q 39.0625 48.390625 32.421875 48.390625 
Q 24.90625 48.390625 20.390625 44.140625 
Q 15.875 39.890625 15.1875 32.171875 
z
" id="DejaVuSans-65"/>
       <path d="M 41.109375 46.296875 
Q 39.59375 47.171875 37.8125 47.578125 
Q 36.03125 48 33.890625 48 
Q 26.265625 48 22.1875 43.046875 
Q 18.109375 38.09375 18.109375 28.8125 
L 18.109375 0 
L 9.078125 0 
L 9.078125 54.6875 
L 18.109375 54.6875 
L 18.109375 46.1875 
Q 20.953125 51.171875 25.484375 53.578125 
Q 30.03125 56 36.53125 56 
Q 37.453125 56 38.578125 55.875 
Q 39.703125 55.765625 41.0625 55.515625 
z
" id="DejaVuSans-72"/>
      </defs>
      <g style="fill:#262626;" transform="translate(47.36925 141.75875)scale(0.08 -0.08)">
       <use xlink:href="#DejaVuSans-4f"/>
       <use x="78.710938" xlink:href="#DejaVuSans-74"/>
       <use x="117.919922" xlink:href="#DejaVuSans-68"/>
       <use x="181.298828" xlink:href="#DejaVuSans-65"/>
       <use x="242.822266" xlink:href="#DejaVuSans-72"/>
      </g>
     </g>
    </g>
    <g id="xtick_2">
     <g id="line2d_2">
      <g>
       <use style="fill:#262626;stroke:#262626;stroke-width:0.8;" x="103.36675" xlink:href="#m983ce1003b" y="124.08"/>
      </g>
     </g>
     <g id="text_2">
      <!-- Python -->
      <defs>
       <path d="M 19.671875 64.796875 
L 19.671875 37.40625 
L 32.078125 37.40625 
Q 38.96875 37.40625 42.71875 40.96875 
Q 46.484375 44.53125 46.484375 51.125 
Q 46.484375 57.671875 42.71875 61.234375 
Q 38.96875 64.796875 32.078125 64.796875 
z
M 9.8125 72.90625 
L 32.078125 72.90625 
Q 44.34375 72.90625 50.609375 67.359375 
Q 56.890625 61.8125 56.890625 51.125 
Q 56.890625 40.328125 50.609375 34.8125 
Q 44.34375 29.296875 32.078125 29.296875 
L 19.671875 29.296875 
L 19.671875 0 
L 9.8125 0 
z
" id="DejaVuSans-50"/>
       <path d="M 32.171875 -5.078125 
Q 28.375 -14.84375 24.75 -17.8125 
Q 21.140625 -20.796875 15.09375 -20.796875 
L 7.90625 -20.796875 
L 7.90625 -13.28125 
L 13.1875 -13.28125 
Q 16.890625 -13.28125 18.9375 -11.515625 
Q 21 -9.765625 23.484375 -3.21875 
L 25.09375 0.875 
L 2.984375 54.6875 
L 12.5 54.6875 
L 29.59375 11.921875 
L 46.6875 54.6875 
L 56.203125 54.6875 
z
" id="DejaVuSans-79"/>
       <path d="M 30.609375 48.390625 
Q 23.390625 48.390625 19.1875 42.75 
Q 14.984375 37.109375 14.984375 27.296875 
Q 14.984375 17.484375 19.15625 11.84375 
Q 23.34375 6.203125 30.609375 6.203125 
Q 37.796875 6.203125 41.984375 11.859375 
Q 46.1875 17.53125 46.1875 27.296875 
Q 46.1875 37.015625 41.984375 42.703125 
Q 37.796875 48.390625 30.609375 48.390625 
z
M 30.609375 56 
Q 42.328125 56 49.015625 48.375 
Q 55.71875 40.765625 55.71875 27.296875 
Q 55.71875 13.875 49.015625 6.21875 
Q 42.328125 -1.421875 30.609375 -1.421875 
Q 18.84375 -1.421875 12.171875 6.21875 
Q 5.515625 13.875 5.515625 27.296875 
Q 5.515625 40.765625 12.171875 48.375 
Q 18.84375 56 30.609375 56 
z
" id="DejaVuSans-6f"/>
       <path d="M 54.890625 33.015625 
L 54.890625 0 
L 45.90625 0 
L 45.90625 32.71875 
Q 45.90625 40.484375 42.875 44.328125 
Q 39.84375 48.1875 33.796875 48.1875 
Q 26.515625 48.1875 22.3125 43.546875 
Q 18.109375 38.921875 18.109375 30.90625 
L 18.109375 0 
L 9.078125 0 
L 9.078125 54.6875 
L 18.109375 54.6875 
L 18.109375 46.1875 
Q 21.34375 51.125 25.703125 53.5625 
Q 30.078125 56 35.796875 56 
Q 45.21875 56 50.046875 50.171875 
Q 54.890625 44.34375 54.890625 33.015625 
z
" id="DejaVuSans-6e"/>
      </defs>
      <g style="fill:#262626;" transform="translate(89.50175 141.75875)scale(0.08 -0.08)">
       <use xlink:href="#DejaVuSans-50"/>
       <use x="60.302734" xlink:href="#DejaVuSans-79"/>
       <use x="119.482422" xlink:href="#DejaVuSans-74"/>
       <use x="158.691406" xlink:href="#DejaVuSans-68"/>
       <use x="222.070312" xlink:href="#DejaVuSans-6f"/>
       <use x="283.251953" xlink:href="#DejaVuSans-6e"/>
      </g>
     </g>
    </g>
    <g id="xtick_3">
     <g id="line2d_3">
      <g>
       <use style="fill:#262626;stroke:#262626;stroke-width:0.8;" x="148.00675" xlink:href="#m983ce1003b" y="124.08"/>
      </g>
     </g>
     <g id="text_3">
      <!-- Perl -->
      <defs>
       <path d="M 9.421875 75.984375 
L 18.40625 75.984375 
L 18.40625 0 
L 9.421875 0 
z
" id="DejaVuSans-6c"/>
      </defs>
      <g style="fill:#262626;" transform="translate(140.379875 141.75875)scale(0.08 -0.08)">
       <use xlink:href="#DejaVuSans-50"/>
       <use x="60.255859" xlink:href="#DejaVuSans-65"/>
       <use x="121.779297" xlink:href="#DejaVuSans-72"/>
       <use x="162.892578" xlink:href="#DejaVuSans-6c"/>
      </g>
     </g>
    </g>
    <g id="xtick_4">
     <g id="line2d_4">
      <g>
       <use style="fill:#262626;stroke:#262626;stroke-width:0.8;" x="192.64675" xlink:href="#m983ce1003b" y="124.08"/>
      </g>
     </g>
     <g id="text_4">
      <!-- Bioconductor -->
      <defs>
       <path d="M 19.671875 34.8125 
L 19.671875 8.109375 
L 35.5 8.109375 
Q 43.453125 8.109375 47.28125 11.40625 
Q 51.125 14.703125 51.125 21.484375 
Q 51.125 28.328125 47.28125 31.5625 
Q 43.453125 34.8125 35.5 34.8125 
z
M 19.671875 64.796875 
L 19.671875 42.828125 
L 34.28125 42.828125 
Q 41.5 42.828125 45.03125 45.53125 
Q 48.578125 48.25 48.578125 53.8125 
Q 48.578125 59.328125 45.03125 62.0625 
Q 41.5 64.796875 34.28125 64.796875 
z
M 9.8125 72.90625 
L 35.015625 72.90625 
Q 46.296875 72.90625 52.390625 68.21875 
Q 58.5 63.53125 58.5 54.890625 
Q 58.5 48.1875 55.375 44.234375 
Q 52.25 40.28125 46.1875 39.3125 
Q 53.46875 37.75 57.5 32.78125 
Q 61.53125 27.828125 61.53125 20.40625 
Q 61.53125 10.640625 54.890625 5.3125 
Q 48.25 0 35.984375 0 
L 9.8125 0 
z
" id="DejaVuSans-42"/>
       <path d="M 9.421875 54.6875 
L 18.40625 54.6875 
L 18.40625 0 
L 9.421875 0 
z
M 9.421875 75.984375 
L 18.40625 75.984375 
L 18.40625 64.59375 
L 9.421875 64.59375 
z
" id="DejaVuSans-69"/>
       <path d="M 48.78125 52.59375 
L 48.78125 44.1875 
Q 44.96875 46.296875 41.140625 47.34375 
Q 37.3125 48.390625 33.40625 48.390625 
Q 24.65625 48.390625 19.8125 42.84375 
Q 14.984375 37.3125 14.984375 27.296875 
Q 14.984375 17.28125 19.8125 11.734375 
Q 24.65625 6.203125 33.40625 6.203125 
Q 37.3125 6.203125 41.140625 7.25 
Q 44.96875 8.296875 48.78125 10.40625 
L 48.78125 2.09375 
Q 45.015625 0.34375 40.984375 -0.53125 
Q 36.96875 -1.421875 32.421875 -1.421875 
Q 20.0625 -1.421875 12.78125 6.34375 
Q 5.515625 14.109375 5.515625 27.296875 
Q 5.515625 40.671875 12.859375 48.328125 
Q 20.21875 56 33.015625 56 
Q 37.15625 56 41.109375 55.140625 
Q 45.0625 54.296875 48.78125 52.59375 
z
" id="DejaVuSans-63"/>
       <path d="M 45.40625 46.390625 
L 45.40625 75.984375 
L 54.390625 75.984375 
L 54.390625 0 
L 45.40625 0 
L 45.40625 8.203125 
Q 42.578125 3.328125 38.25 0.953125 
Q 33.9375 -1.421875 27.875 -1.421875 
Q 17.96875 -1.421875 11.734375 6.484375 
Q 5.515625 14.40625 5.515625 27.296875 
Q 5.515625 40.1875 11.734375 48.09375 
Q 17.96875 56 27.875 56 
Q 33.9375 56 38.25 53.625 
Q 42.578125 51.265625 45.40625 46.390625 
z
M 14.796875 27.296875 
Q 14.796875 17.390625 18.875 11.75 
Q 22.953125 6.109375 30.078125 6.109375 
Q 37.203125 6.109375 41.296875 11.75 
Q 45.40625 17.390625 45.40625 27.296875 
Q 45.40625 37.203125 41.296875 42.84375 
Q 37.203125 48.484375 30.078125 48.484375 
Q 22.953125 48.484375 18.875 42.84375 
Q 14.796875 37.203125 14.796875 27.296875 
z
" id="DejaVuSans-64"/>
       <path d="M 8.5 21.578125 
L 8.5 54.6875 
L 17.484375 54.6875 
L 17.484375 21.921875 
Q 17.484375 14.15625 20.5 10.265625 
Q 23.53125 6.390625 29.59375 6.390625 
Q 36.859375 6.390625 41.078125 11.03125 
Q 45.3125 15.671875 45.3125 23.6875 
L 45.3125 54.6875 
L 54.296875 54.6875 
L 54.296875 0 
L 45.3125 0 
L 45.3125 8.40625 
Q 42.046875 3.421875 37.71875 1 
Q 33.40625 -1.421875 27.6875 -1.421875 
Q 18.265625 -1.421875 13.375 4.4375 
Q 8.5 10.296875 8.5 21.578125 
z
M 31.109375 56 
z
" id="DejaVuSans-75"/>
      </defs>
      <g style="fill:#262626;" transform="translate(166.228 141.75875)scale(0.08 -0.08)">
       <use xlink:href="#DejaVuSans-42"/>
       <use x="68.603516" xlink:href="#DejaVuSans-69"/>
       <use x="96.386719" xlink:href="#DejaVuSans-6f"/>
       <use x="157.568359" xlink:href="#DejaVuSans-63"/>
       <use x="212.548828" xlink:href="#DejaVuSans-6f"/>
       <use x="273.730469" xlink:href="#DejaVuSans-6e"/>
       <use x="337.109375" xlink:href="#DejaVuSans-64"/>
       <use x="400.585938" xlink:href="#DejaVuSans-75"/>
       <use x="463.964844" xlink:href="#DejaVuSans-63"/>
       <use x="518.945312" xlink:href="#DejaVuSans-74"/>
       <use x="558.154297" xlink:href="#DejaVuSans-6f"/>
       <use x="619.335938" xlink:href="#DejaVuSans-72"/>
      </g>
     </g>
    </g>
    <g id="xtick_5">
     <g id="line2d_5">
      <g>
       <use style="fill:#262626;stroke:#262626;stroke-width:0.8;" x="237.28675" xlink:href="#m983ce1003b" y="124.08"/>
      </g>
     </g>
     <g id="text_5">
      <!-- R -->
      <defs>
       <path d="M 44.390625 34.1875 
Q 47.5625 33.109375 50.5625 29.59375 
Q 53.5625 26.078125 56.59375 19.921875 
L 66.609375 0 
L 56 0 
L 46.6875 18.703125 
Q 43.0625 26.03125 39.671875 28.421875 
Q 36.28125 30.8125 30.421875 30.8125 
L 19.671875 30.8125 
L 19.671875 0 
L 9.8125 0 
L 9.8125 72.90625 
L 32.078125 72.90625 
Q 44.578125 72.90625 50.734375 67.671875 
Q 56.890625 62.453125 56.890625 51.90625 
Q 56.890625 45.015625 53.6875 40.46875 
Q 50.484375 35.9375 44.390625 34.1875 
z
M 19.671875 64.796875 
L 19.671875 38.921875 
L 32.078125 38.921875 
Q 39.203125 38.921875 42.84375 42.21875 
Q 46.484375 45.515625 46.484375 51.90625 
Q 46.484375 58.296875 42.84375 61.546875 
Q 39.203125 64.796875 32.078125 64.796875 
z
" id="DejaVuSans-52"/>
      </defs>
      <g style="fill:#262626;" transform="translate(234.507375 141.75875)scale(0.08 -0.08)">
       <use xlink:href="#DejaVuSans-52"/>
      </g>
     </g>
    </g>
    <g id="text_6">
     <!-- ecosystem -->
     <defs>
      <path d="M 44.28125 53.078125 
L 44.28125 44.578125 
Q 40.484375 46.53125 36.375 47.5 
Q 32.28125 48.484375 27.875 48.484375 
Q 21.1875 48.484375 17.84375 46.4375 
Q 14.5 44.390625 14.5 40.28125 
Q 14.5 37.15625 16.890625 35.375 
Q 19.28125 33.59375 26.515625 31.984375 
L 29.59375 31.296875 
Q 39.15625 29.25 43.1875 25.515625 
Q 47.21875 21.78125 47.21875 15.09375 
Q 47.21875 7.46875 41.1875 3.015625 
Q 35.15625 -1.421875 24.609375 -1.421875 
Q 20.21875 -1.421875 15.453125 -0.5625 
Q 10.6875 0.296875 5.421875 2 
L 5.421875 11.28125 
Q 10.40625 8.6875 15.234375 7.390625 
Q 20.0625 6.109375 24.8125 6.109375 
Q 31.15625 6.109375 34.5625 8.28125 
Q 37.984375 10.453125 37.984375 14.40625 
Q 37.984375 18.0625 35.515625 20.015625 
Q 33.0625 21.96875 24.703125 23.78125 
L 21.578125 24.515625 
Q 13.234375 26.265625 9.515625 29.90625 
Q 5.8125 33.546875 5.8125 39.890625 
Q 5.8125 47.609375 11.28125 51.796875 
Q 16.75 56 26.8125 56 
Q 31.78125 56 36.171875 55.265625 
Q 40.578125 54.546875 44.28125 53.078125 
z
" id="DejaVuSans-73"/>
      <path d="M 52 44.1875 
Q 55.375 50.25 60.0625 53.125 
Q 64.75 56 71.09375 56 
Q 79.640625 56 84.28125 50.015625 
Q 88.921875 44.046875 88.921875 33.015625 
L 88.921875 0 
L 79.890625 0 
L 79.890625 32.71875 
Q 79.890625 40.578125 77.09375 44.375 
Q 74.3125 48.1875 68.609375 48.1875 
Q 61.625 48.1875 57.5625 43.546875 
Q 53.515625 38.921875 53.515625 30.90625 
L 53.515625 0 
L 44.484375 0 
L 44.484375 32.71875 
Q 44.484375 40.625 41.703125 44.40625 
Q 38.921875 48.1875 33.109375 48.1875 
Q 26.21875 48.1875 22.15625 43.53125 
Q 18.109375 38.875 18.109375 30.90625 
L 18.109375 0 
L 9.078125 0 
L 9.078125 54.6875 
L 18.109375 54.6875 
L 18.109375 46.1875 
Q 21.1875 51.21875 25.484375 53.609375 
Q 29.78125 56 35.6875 56 
Q 41.65625 56 45.828125 52.96875 
Q 50 49.953125 52 44.1875 
z
" id="DejaVuSans-6d"/>
     </defs>
     <g style="fill:#262626;" transform="translate(124.281125 154.109125)scale(0.088 -0.088)">
      <use xlink:href="#DejaVuSans-65"/>
      <use x="61.523438" xlink:href="#DejaVuSans-63"/>
      <use x="116.503906" xlink:href="#DejaVuSans-6f"/>
      <use x="177.685547" xlink:href="#DejaVuSans-73"/>
      <use x="229.785156" xlink:href="#DejaVuSans-79"/>
      <use x="288.964844" xlink:href="#DejaVuSans-73"/>
      <use x="341.064453" xlink:href="#DejaVuSans-74"/>
      <use x="380.273438" xlink:href="#DejaVuSans-65"/>
      <use x="441.796875" xlink:href="#DejaVuSans-6d"/>
     </g>
    </g>
   </g>
   <g id="matplotlib.axis_2">
    <g id="ytick_1">
     <g id="line2d_6">
      <defs>
       <path d="M 0 0 
L -6 0 
" id="mea9946fb45" style="stroke:#262626;stroke-width:0.8;"/>
      </defs>
      <g>
       <use style="fill:#262626;stroke:#262626;stroke-width:0.8;" x="36.40675" xlink:href="#mea9946fb45" y="119.04"/>
      </g>
     </g>
     <g id="text_7">
      <!-- 0 -->
      <defs>
       <path d="M 31.78125 66.40625 
Q 24.171875 66.40625 20.328125 58.90625 
Q 16.5 51.421875 16.5 36.375 
Q 16.5 21.390625 20.328125 13.890625 
Q 24.171875 6.390625 31.78125 6.390625 
Q 39.453125 6.390625 43.28125 13.890625 
Q 47.125 21.390625 47.125 36.375 
Q 47.125 51.421875 43.28125 58.90625 
Q 39.453125 66.40625 31.78125 66.40625 
z
M 31.78125 74.21875 
Q 44.046875 74.21875 50.515625 64.515625 
Q 56.984375 54.828125 56.984375 36.375 
Q 56.984375 17.96875 50.515625 8.265625 
Q 44.046875 -1.421875 31.78125 -1.421875 
Q 19.53125 -1.421875 13.0625 8.265625 
Q 6.59375 17.96875 6.59375 36.375 
Q 6.59375 54.828125 13.0625 64.515625 
Q 19.53125 74.21875 31.78125 74.21875 
z
" id="DejaVuSans-30"/>
      </defs>
      <g style="fill:#262626;" transform="translate(19.71675 122.079375)scale(0.08 -0.08)">
       <use xlink:href="#DejaVuSans-30"/>
      </g>
     </g>
    </g>
    <g id="ytick_2">
     <g id="line2d_7">
      <g>
       <use style="fill:#262626;stroke:#262626;stroke-width:0.8;" x="36.40675" xlink:href="#mea9946fb45" y="99.487236"/>
      </g>
     </g>
     <g id="text_8">
      <!-- 1 -->
      <defs>
       <path d="M 12.40625 8.296875 
L 28.515625 8.296875 
L 28.515625 63.921875 
L 10.984375 60.40625 
L 10.984375 69.390625 
L 28.421875 72.90625 
L 38.28125 72.90625 
L 38.28125 8.296875 
L 54.390625 8.296875 
L 54.390625 0 
L 12.40625 0 
z
" id="DejaVuSans-31"/>
      </defs>
      <g style="fill:#262626;" transform="translate(19.71675 102.526611)scale(0.08 -0.08)">
       <use xlink:href="#DejaVuSans-31"/>
      </g>
     </g>
    </g>
    <g id="ytick_3">
     <g id="line2d_8">
      <g>
       <use style="fill:#262626;stroke:#262626;stroke-width:0.8;" x="36.40675" xlink:href="#mea9946fb45" y="79.934472"/>
      </g>
     </g>
     <g id="text_9">
      <!-- 2 -->
      <defs>
       <path d="M 19.1875 8.296875 
L 53.609375 8.296875 
L 53.609375 0 
L 7.328125 0 
L 7.328125 8.296875 
Q 12.9375 14.109375 22.625 23.890625 
Q 32.328125 33.6875 34.8125 36.53125 
Q 39.546875 41.84375 41.421875 45.53125 
Q 43.3125 49.21875 43.3125 52.78125 
Q 43.3125 58.59375 39.234375 62.25 
Q 35.15625 65.921875 28.609375 65.921875 
Q 23.96875 65.921875 18.8125 64.3125 
Q 13.671875 62.703125 7.8125 59.421875 
L 7.8125 69.390625 
Q 13.765625 71.78125 18.9375 73 
Q 24.125 74.21875 28.421875 74.21875 
Q 39.75 74.21875 46.484375 68.546875 
Q 53.21875 62.890625 53.21875 53.421875 
Q 53.21875 48.921875 51.53125 44.890625 
Q 49.859375 40.875 45.40625 35.40625 
Q 44.1875 33.984375 37.640625 27.21875 
Q 31.109375 20.453125 19.1875 8.296875 
z
" id="DejaVuSans-32"/>
      </defs>
      <g style="fill:#262626;" transform="translate(19.71675 82.973847)scale(0.08 -0.08)">
       <use xlink:href="#DejaVuSans-32"/>
      </g>
     </g>
    </g>
    <g id="ytick_4">
     <g id="line2d_9">
      <g>
       <use style="fill:#262626;stroke:#262626;stroke-width:0.8;" x="36.40675" xlink:href="#mea9946fb45" y="60.381708"/>
      </g>
     </g>
     <g id="text_10">
      <!-- 3 -->
      <defs>
       <path d="M 40.578125 39.3125 
Q 47.65625 37.796875 51.625 33 
Q 55.609375 28.21875 55.609375 21.1875 
Q 55.609375 10.40625 48.1875 4.484375 
Q 40.765625 -1.421875 27.09375 -1.421875 
Q 22.515625 -1.421875 17.65625 -0.515625 
Q 12.796875 0.390625 7.625 2.203125 
L 7.625 11.71875 
Q 11.71875 9.328125 16.59375 8.109375 
Q 21.484375 6.890625 26.8125 6.890625 
Q 36.078125 6.890625 40.9375 10.546875 
Q 45.796875 14.203125 45.796875 21.1875 
Q 45.796875 27.640625 41.28125 31.265625 
Q 36.765625 34.90625 28.71875 34.90625 
L 20.21875 34.90625 
L 20.21875 43.015625 
L 29.109375 43.015625 
Q 36.375 43.015625 40.234375 45.921875 
Q 44.09375 48.828125 44.09375 54.296875 
Q 44.09375 59.90625 40.109375 62.90625 
Q 36.140625 65.921875 28.71875 65.921875 
Q 24.65625 65.921875 20.015625 65.03125 
Q 15.375 64.15625 9.8125 62.3125 
L 9.8125 71.09375 
Q 15.4375 72.65625 20.34375 73.4375 
Q 25.25 74.21875 29.59375 74.21875 
Q 40.828125 74.21875 47.359375 69.109375 
Q 53.90625 64.015625 53.90625 55.328125 
Q 53.90625 49.265625 50.4375 45.09375 
Q 46.96875 40.921875 40.578125 39.3125 
z
" id="DejaVuSans-33"/>
      </defs>
      <g style="fill:#262626;" transform="translate(19.71675 63.421083)scale(0.08 -0.08)">
       <use xlink:href="#DejaVuSans-33"/>
      </g>
     </g>
    </g>
    <g id="ytick_5">
     <g id="line2d_10">
      <g>
       <use style="fill:#262626;stroke:#262626;stroke-width:0.8;" x="36.40675" xlink:href="#mea9946fb45" y="40.828944"/>
      </g>
     </g>
     <g id="text_11">
      <!-- 4 -->
      <defs>
       <path d="M 37.796875 64.3125 
L 12.890625 25.390625 
L 37.796875 25.390625 
z
M 35.203125 72.90625 
L 47.609375 72.90625 
L 47.609375 25.390625 
L 58.015625 25.390625 
L 58.015625 17.1875 
L 47.609375 17.1875 
L 47.609375 0 
L 37.796875 0 
L 37.796875 17.1875 
L 4.890625 17.1875 
L 4.890625 26.703125 
z
" id="DejaVuSans-34"/>
      </defs>
      <g style="fill:#262626;" transform="translate(19.71675 43.868319)scale(0.08 -0.08)">
       <use xlink:href="#DejaVuSans-34"/>
      </g>
     </g>
    </g>
    <g id="ytick_6">
     <g id="line2d_11">
      <g>
       <use style="fill:#262626;stroke:#262626;stroke-width:0.8;" x="36.40675" xlink:href="#mea9946fb45" y="21.27618"/>
      </g>
     </g>
     <g id="text_12">
      <!-- 5 -->
      <defs>
       <path d="M 10.796875 72.90625 
L 49.515625 72.90625 
L 49.515625 64.59375 
L 19.828125 64.59375 
L 19.828125 46.734375 
Q 21.96875 47.46875 24.109375 47.828125 
Q 26.265625 48.1875 28.421875 48.1875 
Q 40.625 48.1875 47.75 41.5 
Q 54.890625 34.8125 54.890625 23.390625 
Q 54.890625 11.625 47.5625 5.09375 
Q 40.234375 -1.421875 26.90625 -1.421875 
Q 22.3125 -1.421875 17.546875 -0.640625 
Q 12.796875 0.140625 7.71875 1.703125 
L 7.71875 11.625 
Q 12.109375 9.234375 16.796875 8.0625 
Q 21.484375 6.890625 26.703125 6.890625 
Q 35.15625 6.890625 40.078125 11.328125 
Q 45.015625 15.765625 45.015625 23.390625 
Q 45.015625 31 40.078125 35.4375 
Q 35.15625 39.890625 26.703125 39.890625 
Q 22.75 39.890625 18.8125 39.015625 
Q 14.890625 38.140625 10.796875 36.28125 
z
" id="DejaVuSans-35"/>
      </defs>
      <g style="fill:#262626;" transform="translate(19.71675 24.315555)scale(0.08 -0.08)">
       <use xlink:href="#DejaVuSans-35"/>
      </g>
     </g>
    </g>
    <g id="text_13">
     <!-- log10 downloads -->
     <defs>
      <path d="M 45.40625 27.984375 
Q 45.40625 37.75 41.375 43.109375 
Q 37.359375 48.484375 30.078125 48.484375 
Q 22.859375 48.484375 18.828125 43.109375 
Q 14.796875 37.75 14.796875 27.984375 
Q 14.796875 18.265625 18.828125 12.890625 
Q 22.859375 7.515625 30.078125 7.515625 
Q 37.359375 7.515625 41.375 12.890625 
Q 45.40625 18.265625 45.40625 27.984375 
z
M 54.390625 6.78125 
Q 54.390625 -7.171875 48.1875 -13.984375 
Q 42 -20.796875 29.203125 -20.796875 
Q 24.46875 -20.796875 20.265625 -20.09375 
Q 16.0625 -19.390625 12.109375 -17.921875 
L 12.109375 -9.1875 
Q 16.0625 -11.328125 19.921875 -12.34375 
Q 23.78125 -13.375 27.78125 -13.375 
Q 36.625 -13.375 41.015625 -8.765625 
Q 45.40625 -4.15625 45.40625 5.171875 
L 45.40625 9.625 
Q 42.625 4.78125 38.28125 2.390625 
Q 33.9375 0 27.875 0 
Q 17.828125 0 11.671875 7.65625 
Q 5.515625 15.328125 5.515625 27.984375 
Q 5.515625 40.671875 11.671875 48.328125 
Q 17.828125 56 27.875 56 
Q 33.9375 56 38.28125 53.609375 
Q 42.625 51.21875 45.40625 46.390625 
L 45.40625 54.6875 
L 54.390625 54.6875 
z
" id="DejaVuSans-67"/>
      <path id="DejaVuSans-20"/>
      <path d="M 4.203125 54.6875 
L 13.1875 54.6875 
L 24.421875 12.015625 
L 35.59375 54.6875 
L 46.1875 54.6875 
L 57.421875 12.015625 
L 68.609375 54.6875 
L 77.59375 54.6875 
L 63.28125 0 
L 52.6875 0 
L 40.921875 44.828125 
L 29.109375 0 
L 18.5 0 
z
" id="DejaVuSans-77"/>
      <path d="M 34.28125 27.484375 
Q 23.390625 27.484375 19.1875 25 
Q 14.984375 22.515625 14.984375 16.5 
Q 14.984375 11.71875 18.140625 8.90625 
Q 21.296875 6.109375 26.703125 6.109375 
Q 34.1875 6.109375 38.703125 11.40625 
Q 43.21875 16.703125 43.21875 25.484375 
L 43.21875 27.484375 
z
M 52.203125 31.203125 
L 52.203125 0 
L 43.21875 0 
L 43.21875 8.296875 
Q 40.140625 3.328125 35.546875 0.953125 
Q 30.953125 -1.421875 24.3125 -1.421875 
Q 15.921875 -1.421875 10.953125 3.296875 
Q 6 8.015625 6 15.921875 
Q 6 25.140625 12.171875 29.828125 
Q 18.359375 34.515625 30.609375 34.515625 
L 43.21875 34.515625 
L 43.21875 35.40625 
Q 43.21875 41.609375 39.140625 45 
Q 35.0625 48.390625 27.6875 48.390625 
Q 23 48.390625 18.546875 47.265625 
Q 14.109375 46.140625 10.015625 43.890625 
L 10.015625 52.203125 
Q 14.9375 54.109375 19.578125 55.046875 
Q 24.21875 56 28.609375 56 
Q 40.484375 56 46.34375 49.84375 
Q 52.203125 43.703125 52.203125 31.203125 
z
" id="DejaVuSans-61"/>
     </defs>
     <g style="fill:#262626;" transform="translate(13.886625 105.914188)rotate(-90)scale(0.088 -0.088)">
      <use xlink:href="#DejaVuSans-6c"/>
      <use x="27.783203" xlink:href="#DejaVuSans-6f"/>
      <use x="88.964844" xlink:href="#DejaVuSans-67"/>
      <use x="152.441406" xlink:href="#DejaVuSans-31"/>
      <use x="216.064453" xlink:href="#DejaVuSans-30"/>
      <use x="279.6875" xlink:href="#DejaVuSans-20"/>
      <use x="311.474609" xlink:href="#DejaVuSans-64"/>
      <use x="374.951172" xlink:href="#DejaVuSans-6f"/>
      <use x="436.132812" xlink:href="#DejaVuSans-77"/>
      <use x="517.919922" xlink:href="#DejaVuSans-6e"/>
      <use x="581.298828" xlink:href="#DejaVuSans-6c"/>
      <use x="609.082031" xlink:href="#DejaVuSans-6f"/>
      <use x="670.263672" xlink:href="#DejaVuSans-61"/>
      <use x="731.542969" xlink:href="#DejaVuSans-64"/>
      <use x="795.019531" xlink:href="#DejaVuSans-73"/>
     </g>
    </g>
   </g>
   <g id="PolyCollection_1">
    <defs>
     <path d="M 58.997822 -44.09925 
L 58.455678 -44.09925 
L 58.405887 -45.117432 
L 58.351258 -46.135614 
L 58.290274 -47.153795 
L 58.220438 -48.171977 
L 58.137985 -49.190159 
L 58.037687 -50.208341 
L 57.912997 -51.226523 
L 57.756734 -52.244705 
L 57.562365 -53.262886 
L 57.32574 -54.281068 
L 57.046861 -55.29925 
L 56.731168 -56.317432 
L 56.389821 -57.335614 
L 56.038659 -58.353795 
L 55.695864 -59.371977 
L 55.378705 -60.390159 
L 55.100088 -61.408341 
L 54.865751 -62.426523 
L 54.67288 -63.444705 
L 54.510495 -64.462886 
L 54.361494 -65.481068 
L 54.205746 -66.49925 
L 54.023462 -67.517432 
L 53.79818 -68.535614 
L 53.519077 -69.553795 
L 53.182688 -70.571977 
L 52.794126 -71.590159 
L 52.367668 -72.608341 
L 51.92612 -73.626523 
L 51.498193 -74.644705 
L 51.113383 -75.662886 
L 50.794727 -76.681068 
L 50.550821 -77.69925 
L 50.369269 -78.717432 
L 50.213805 -79.735614 
L 50.026701 -80.753795 
L 49.736904 -81.771977 
L 49.273078 -82.790159 
L 48.579651 -83.808341 
L 47.633068 -84.826523 
L 46.454862 -85.844705 
L 45.117914 -86.862886 
L 43.742833 -87.881068 
L 42.483032 -88.89925 
L 41.499919 -89.917432 
L 40.932815 -90.935614 
L 40.87075 -91.953795 
L 41.333708 -92.971977 
L 42.268816 -93.990159 
L 43.562709 -95.008341 
L 45.0665 -96.026523 
L 46.626143 -97.044705 
L 48.109862 -98.062886 
L 49.426041 -99.081068 
L 50.528553 -100.09925 
L 51.410633 -101.117432 
L 52.091491 -102.135614 
L 52.601104 -103.153795 
L 52.968031 -104.171977 
L 53.213116 -105.190159 
L 53.349555 -106.208341 
L 53.38769 -107.226523 
L 53.341637 -108.244705 
L 53.234634 -109.262886 
L 53.100726 -110.281068 
L 52.981867 -111.29925 
L 52.921175 -112.317432 
L 52.954482 -113.335614 
L 53.102927 -114.353795 
L 53.368977 -115.371977 
L 53.737058 -116.390159 
L 54.178369 -117.408341 
L 54.658161 -118.426523 
L 55.14317 -119.444705 
L 55.607192 -120.462886 
L 56.033702 -121.481068 
L 56.415539 -122.49925 
L 56.752505 -123.517432 
L 57.048152 -124.535614 
L 57.306898 -125.553795 
L 57.532205 -126.571977 
L 57.726036 -127.590159 
L 57.889333 -128.608341 
L 58.022987 -129.626523 
L 58.128759 -130.644705 
L 58.209724 -131.662886 
L 58.270138 -132.681068 
L 58.314826 -133.69925 
L 58.348422 -134.717432 
L 58.374765 -135.735614 
L 58.39663 -136.753795 
L 58.415837 -137.771977 
L 58.433579 -138.790159 
L 58.450782 -139.808341 
L 58.468325 -140.826523 
L 58.487056 -141.844705 
L 58.507649 -142.862886 
L 58.530403 -143.881068 
L 58.555105 -144.89925 
L 58.898395 -144.89925 
L 58.898395 -144.89925 
L 58.923097 -143.881068 
L 58.945851 -142.862886 
L 58.966444 -141.844705 
L 58.985175 -140.826523 
L 59.002718 -139.808341 
L 59.019921 -138.790159 
L 59.037663 -137.771977 
L 59.05687 -136.753795 
L 59.078735 -135.735614 
L 59.105078 -134.717432 
L 59.138674 -133.69925 
L 59.183362 -132.681068 
L 59.243776 -131.662886 
L 59.324741 -130.644705 
L 59.430513 -129.626523 
L 59.564167 -128.608341 
L 59.727464 -127.590159 
L 59.921295 -126.571977 
L 60.146602 -125.553795 
L 60.405348 -124.535614 
L 60.700995 -123.517432 
L 61.037961 -122.49925 
L 61.419798 -121.481068 
L 61.846308 -120.462886 
L 62.31033 -119.444705 
L 62.795339 -118.426523 
L 63.275131 -117.408341 
L 63.716442 -116.390159 
L 64.084523 -115.371977 
L 64.350573 -114.353795 
L 64.499018 -113.335614 
L 64.532325 -112.317432 
L 64.471633 -111.29925 
L 64.352774 -110.281068 
L 64.218866 -109.262886 
L 64.111863 -108.244705 
L 64.06581 -107.226523 
L 64.103945 -106.208341 
L 64.240384 -105.190159 
L 64.485469 -104.171977 
L 64.852396 -103.153795 
L 65.362009 -102.135614 
L 66.042867 -101.117432 
L 66.924947 -100.09925 
L 68.027459 -99.081068 
L 69.343638 -98.062886 
L 70.827357 -97.044705 
L 72.387 -96.026523 
L 73.890791 -95.008341 
L 75.184684 -93.990159 
L 76.119792 -92.971977 
L 76.58275 -91.953795 
L 76.520685 -90.935614 
L 75.953581 -89.917432 
L 74.970468 -88.89925 
L 73.710667 -87.881068 
L 72.335586 -86.862886 
L 70.998638 -85.844705 
L 69.820432 -84.826523 
L 68.873849 -83.808341 
L 68.180422 -82.790159 
L 67.716596 -81.771977 
L 67.426799 -80.753795 
L 67.239695 -79.735614 
L 67.084231 -78.717432 
L 66.902679 -77.69925 
L 66.658773 -76.681068 
L 66.340117 -75.662886 
L 65.955307 -74.644705 
L 65.52738 -73.626523 
L 65.085832 -72.608341 
L 64.659374 -71.590159 
L 64.270812 -70.571977 
L 63.934423 -69.553795 
L 63.65532 -68.535614 
L 63.430038 -67.517432 
L 63.247754 -66.49925 
L 63.092006 -65.481068 
L 62.943005 -64.462886 
L 62.78062 -63.444705 
L 62.587749 -62.426523 
L 62.353412 -61.408341 
L 62.074795 -60.390159 
L 61.757636 -59.371977 
L 61.414841 -58.353795 
L 61.063679 -57.335614 
L 60.722332 -56.317432 
L 60.406639 -55.29925 
L 60.12776 -54.281068 
L 59.891135 -53.262886 
L 59.696766 -52.244705 
L 59.540503 -51.226523 
L 59.415813 -50.208341 
L 59.315515 -49.190159 
L 59.233062 -48.171977 
L 59.163226 -47.153795 
L 59.102242 -46.135614 
L 59.047613 -45.117432 
L 58.997822 -44.09925 
z
" id="m47b6c8458f" style="stroke:#3d3d3d;stroke-width:1.4;"/>
    </defs>
    <g clip-path="url(#pdc8b4001e3)">
     <use style="fill:#3274a1;stroke:#3d3d3d;stroke-width:1.4;" x="0" xlink:href="#m47b6c8458f" y="163.13925"/>
    </g>
   </g>
   <g id="PolyCollection_2">
    <defs>
     <path d="M 103.769521 -44.09925 
L 102.963979 -44.09925 
L 102.871341 -45.068509 
L 102.762178 -46.037767 
L 102.63502 -47.007026 
L 102.489006 -47.976285 
L 102.324124 -48.945543 
L 102.14137 -49.914802 
L 101.942787 -50.884061 
L 101.73136 -51.853319 
L 101.510726 -52.822578 
L 101.284739 -53.791837 
L 101.056894 -54.761095 
L 100.829692 -55.730354 
L 100.60404 -56.699613 
L 100.378802 -57.668871 
L 100.150625 -58.63813 
L 99.914136 -59.607389 
L 99.662553 -60.576647 
L 99.388659 -61.545906 
L 99.086018 -62.515165 
L 98.75023 -63.484423 
L 98.379985 -64.453682 
L 97.977713 -65.422941 
L 97.549666 -66.392199 
L 97.105413 -67.361458 
L 96.656822 -68.330717 
L 96.216706 -69.299975 
L 95.79739 -70.269234 
L 95.40944 -71.238493 
L 95.060735 -72.207751 
L 94.75599 -73.17701 
L 94.496707 -74.146269 
L 94.281478 -75.115527 
L 94.106494 -76.084786 
L 93.966141 -77.054045 
L 93.853627 -78.023304 
L 93.761604 -78.992562 
L 93.682819 -79.961821 
L 93.610813 -80.93108 
L 93.540638 -81.900338 
L 93.469502 -82.869597 
L 93.397218 -83.838856 
L 93.326316 -84.808114 
L 93.26175 -85.777373 
L 93.210215 -86.746632 
L 93.179193 -87.71589 
L 93.175925 -88.685149 
L 93.206511 -89.654408 
L 93.275277 -90.623666 
L 93.384474 -91.592925 
L 93.534272 -92.562184 
L 93.722929 -93.531442 
L 93.947032 -94.500701 
L 94.201708 -95.46996 
L 94.48078 -96.439218 
L 94.776892 -97.408477 
L 95.081665 -98.377736 
L 95.385942 -99.346994 
L 95.680187 -100.316253 
L 95.955038 -101.285512 
L 96.202004 -102.25477 
L 96.414259 -103.224029 
L 96.587439 -104.193288 
L 96.720333 -105.162546 
L 96.815307 -106.131805 
L 96.878316 -107.101064 
L 96.918391 -108.070322 
L 96.94659 -109.039581 
L 96.974542 -110.00884 
L 97.01284 -110.978098 
L 97.069652 -111.947357 
L 97.149868 -112.916616 
L 97.255023 -113.885874 
L 97.38398 -114.855133 
L 97.53418 -115.824392 
L 97.703052 -116.79365 
L 97.889173 -117.762909 
L 98.092843 -118.732168 
L 98.315939 -119.701426 
L 98.561142 -120.670685 
L 98.83081 -121.639944 
L 99.125846 -122.609202 
L 99.44487 -123.578461 
L 99.783886 -124.54772 
L 100.136478 -125.516978 
L 100.494431 -126.486237 
L 100.848619 -127.455496 
L 101.18996 -128.424754 
L 101.510291 -129.394013 
L 101.803048 -130.363272 
L 102.063709 -131.33253 
L 102.289983 -132.301789 
L 102.481746 -133.271048 
L 102.640777 -134.240306 
L 102.77033 -135.209565 
L 102.874604 -136.178824 
L 102.958197 -137.148082 
L 103.025598 -138.117341 
L 103.080794 -139.0866 
L 103.127018 -140.055859 
L 103.606482 -140.055859 
L 103.606482 -140.055859 
L 103.652706 -139.0866 
L 103.707902 -138.117341 
L 103.775303 -137.148082 
L 103.858896 -136.178824 
L 103.96317 -135.209565 
L 104.092723 -134.240306 
L 104.251754 -133.271048 
L 104.443517 -132.301789 
L 104.669791 -131.33253 
L 104.930452 -130.363272 
L 105.223209 -129.394013 
L 105.54354 -128.424754 
L 105.884881 -127.455496 
L 106.239069 -126.486237 
L 106.597022 -125.516978 
L 106.949614 -124.54772 
L 107.28863 -123.578461 
L 107.607654 -122.609202 
L 107.90269 -121.639944 
L 108.172358 -120.670685 
L 108.417561 -119.701426 
L 108.640657 -118.732168 
L 108.844327 -117.762909 
L 109.030448 -116.79365 
L 109.19932 -115.824392 
L 109.34952 -114.855133 
L 109.478477 -113.885874 
L 109.583632 -112.916616 
L 109.663848 -111.947357 
L 109.72066 -110.978098 
L 109.758958 -110.00884 
L 109.78691 -109.039581 
L 109.815109 -108.070322 
L 109.855184 -107.101064 
L 109.918193 -106.131805 
L 110.013167 -105.162546 
L 110.146061 -104.193288 
L 110.319241 -103.224029 
L 110.531496 -102.25477 
L 110.778462 -101.285512 
L 111.053313 -100.316253 
L 111.347558 -99.346994 
L 111.651835 -98.377736 
L 111.956608 -97.408477 
L 112.25272 -96.439218 
L 112.531792 -95.46996 
L 112.786468 -94.500701 
L 113.010571 -93.531442 
L 113.199228 -92.562184 
L 113.349026 -91.592925 
L 113.458223 -90.623666 
L 113.526989 -89.654408 
L 113.557575 -88.685149 
L 113.554307 -87.71589 
L 113.523285 -86.746632 
L 113.47175 -85.777373 
L 113.407184 -84.808114 
L 113.336282 -83.838856 
L 113.263998 -82.869597 
L 113.192862 -81.900338 
L 113.122687 -80.93108 
L 113.050681 -79.961821 
L 112.971896 -78.992562 
L 112.879873 -78.023304 
L 112.767359 -77.054045 
L 112.627006 -76.084786 
L 112.452022 -75.115527 
L 112.236793 -74.146269 
L 111.97751 -73.17701 
L 111.672765 -72.207751 
L 111.32406 -71.238493 
L 110.93611 -70.269234 
L 110.516794 -69.299975 
L 110.076678 -68.330717 
L 109.628087 -67.361458 
L 109.183834 -66.392199 
L 108.755787 -65.422941 
L 108.353515 -64.453682 
L 107.98327 -63.484423 
L 107.647482 -62.515165 
L 107.344841 -61.545906 
L 107.070947 -60.576647 
L 106.819364 -59.607389 
L 106.582875 -58.63813 
L 106.354698 -57.668871 
L 106.12946 -56.699613 
L 105.903808 -55.730354 
L 105.676606 -54.761095 
L 105.448761 -53.791837 
L 105.222774 -52.822578 
L 105.00214 -51.853319 
L 104.790713 -50.884061 
L 104.59213 -49.914802 
L 104.409376 -48.945543 
L 104.244494 -47.976285 
L 104.09848 -47.007026 
L 103.971322 -46.037767 
L 103.862159 -45.068509 
L 103.769521 -44.09925 
z
" id="m2eb719db22" style="stroke:#3d3d3d;stroke-width:1.4;"/>
    </defs>
    <g clip-path="url(#pdc8b4001e3)">
     <use style="fill:#e1812c;stroke:#3d3d3d;stroke-width:1.4;" x="0" xlink:href="#m2eb719db22" y="163.13925"/>
    </g>
   </g>
   <g id="PolyCollection_3">
    <defs>
     <path d="M 148.306171 -44.09925 
L 147.707329 -44.09925 
L 147.634646 -45.027904 
L 147.538137 -45.956558 
L 147.410551 -46.885212 
L 147.244331 -47.813866 
L 147.032468 -48.74252 
L 146.769565 -49.671174 
L 146.452979 -50.599828 
L 146.083881 -51.528482 
L 145.668012 -52.457136 
L 145.215955 -53.38579 
L 144.742782 -54.314444 
L 144.267028 -55.243098 
L 143.809082 -56.171752 
L 143.389185 -57.100406 
L 143.025335 -58.02906 
L 142.73142 -58.957714 
L 142.515872 -59.886368 
L 142.381051 -60.815023 
L 142.323419 -61.743677 
L 142.33442 -62.672331 
L 142.401904 -63.600985 
L 142.511794 -64.529639 
L 142.649742 -65.458293 
L 142.802527 -66.386947 
L 142.959028 -67.315601 
L 143.110694 -68.244255 
L 143.25153 -69.172909 
L 143.377662 -70.101563 
L 143.486615 -71.030217 
L 143.576436 -71.958871 
L 143.644811 -72.887525 
L 143.688312 -73.816179 
L 143.70189 -74.744833 
L 143.678718 -75.673487 
L 143.610436 -76.602141 
L 143.487834 -77.530795 
L 143.301938 -78.459449 
L 143.045388 -79.388103 
L 142.713962 -80.316757 
L 142.308003 -81.245411 
L 141.833508 -82.174065 
L 141.302628 -83.102719 
L 140.733413 -84.031373 
L 140.148737 -84.960027 
L 139.57448 -85.888681 
L 139.0372 -86.817335 
L 138.561624 -87.745989 
L 138.168337 -88.674643 
L 137.872025 -89.603297 
L 137.680498 -90.531951 
L 137.594591 -91.460605 
L 137.608834 -92.389259 
L 137.712684 -93.317914 
L 137.892004 -94.246568 
L 138.130475 -95.175222 
L 138.41073 -96.103876 
L 138.715071 -97.03253 
L 139.025809 -97.961184 
L 139.325339 -98.889838 
L 139.596164 -99.818492 
L 139.821076 -100.747146 
L 139.983677 -101.6758 
L 140.069315 -102.604454 
L 140.066445 -103.533108 
L 139.968258 -104.461762 
L 139.774367 -105.390416 
L 139.492211 -106.31907 
L 139.137858 -107.247724 
L 138.7359 -108.176378 
L 138.318249 -109.105032 
L 137.921807 -110.033686 
L 137.585232 -110.96234 
L 137.345166 -111.890994 
L 137.232469 -112.819648 
L 137.269047 -113.748302 
L 137.465743 -114.676956 
L 137.821596 -115.60561 
L 138.324517 -116.534264 
L 138.953177 -117.462918 
L 139.679699 -118.391572 
L 140.47269 -119.320226 
L 141.300155 -120.24888 
L 142.131951 -121.177534 
L 142.941594 -122.106188 
L 143.707385 -123.034842 
L 144.412928 -123.963496 
L 145.04716 -124.89215 
L 145.604029 -125.820804 
L 146.081945 -126.749459 
L 146.483058 -127.678113 
L 146.812465 -128.606767 
L 147.077356 -129.535421 
L 147.286186 -130.464075 
L 147.44791 -131.392729 
L 147.57132 -132.321383 
L 147.664547 -133.250037 
L 147.734716 -134.178691 
L 147.787772 -135.107345 
L 147.828443 -136.035999 
L 148.185057 -136.035999 
L 148.185057 -136.035999 
L 148.225728 -135.107345 
L 148.278784 -134.178691 
L 148.348953 -133.250037 
L 148.44218 -132.321383 
L 148.56559 -131.392729 
L 148.727314 -130.464075 
L 148.936144 -129.535421 
L 149.201035 -128.606767 
L 149.530442 -127.678113 
L 149.931555 -126.749459 
L 150.409471 -125.820804 
L 150.96634 -124.89215 
L 151.600572 -123.963496 
L 152.306115 -123.034842 
L 153.071906 -122.106188 
L 153.881549 -121.177534 
L 154.713345 -120.24888 
L 155.54081 -119.320226 
L 156.333801 -118.391572 
L 157.060323 -117.462918 
L 157.688983 -116.534264 
L 158.191904 -115.60561 
L 158.547757 -114.676956 
L 158.744453 -113.748302 
L 158.781031 -112.819648 
L 158.668334 -111.890994 
L 158.428268 -110.96234 
L 158.091693 -110.033686 
L 157.695251 -109.105032 
L 157.2776 -108.176378 
L 156.875642 -107.247724 
L 156.521289 -106.31907 
L 156.239133 -105.390416 
L 156.045242 -104.461762 
L 155.947055 -103.533108 
L 155.944185 -102.604454 
L 156.029823 -101.6758 
L 156.192424 -100.747146 
L 156.417336 -99.818492 
L 156.688161 -98.889838 
L 156.987691 -97.961184 
L 157.298429 -97.03253 
L 157.60277 -96.103876 
L 157.883025 -95.175222 
L 158.121496 -94.246568 
L 158.300816 -93.317914 
L 158.404666 -92.389259 
L 158.418909 -91.460605 
L 158.333002 -90.531951 
L 158.141475 -89.603297 
L 157.845163 -88.674643 
L 157.451876 -87.745989 
L 156.9763 -86.817335 
L 156.43902 -85.888681 
L 155.864763 -84.960027 
L 155.280087 -84.031373 
L 154.710872 -83.102719 
L 154.179992 -82.174065 
L 153.705497 -81.245411 
L 153.299538 -80.316757 
L 152.968112 -79.388103 
L 152.711562 -78.459449 
L 152.525666 -77.530795 
L 152.403064 -76.602141 
L 152.334782 -75.673487 
L 152.31161 -74.744833 
L 152.325188 -73.816179 
L 152.368689 -72.887525 
L 152.437064 -71.958871 
L 152.526885 -71.030217 
L 152.635838 -70.101563 
L 152.76197 -69.172909 
L 152.902806 -68.244255 
L 153.054472 -67.315601 
L 153.210973 -66.386947 
L 153.363758 -65.458293 
L 153.501706 -64.529639 
L 153.611596 -63.600985 
L 153.67908 -62.672331 
L 153.690081 -61.743677 
L 153.632449 -60.815023 
L 153.497628 -59.886368 
L 153.28208 -58.957714 
L 152.988165 -58.02906 
L 152.624315 -57.100406 
L 152.204418 -56.171752 
L 151.746472 -55.243098 
L 151.270718 -54.314444 
L 150.797545 -53.38579 
L 150.345488 -52.457136 
L 149.929619 -51.528482 
L 149.560521 -50.599828 
L 149.243935 -49.671174 
L 148.981032 -48.74252 
L 148.769169 -47.813866 
L 148.602949 -46.885212 
L 148.475363 -45.956558 
L 148.378854 -45.027904 
L 148.306171 -44.09925 
z
" id="m41e24e2c6d" style="stroke:#3d3d3d;stroke-width:1.4;"/>
    </defs>
    <g clip-path="url(#pdc8b4001e3)">
     <use style="fill:#3a923a;stroke:#3d3d3d;stroke-width:1.4;" x="0" xlink:href="#m41e24e2c6d" y="163.13925"/>
    </g>
   </g>
   <g id="PolyCollection_4">
    <defs>
     <path d="M 194.015488 -49.985218 
L 191.278012 -49.985218 
L 191.250282 -50.812332 
L 191.237536 -51.639445 
L 191.238071 -52.466558 
L 191.249065 -53.293672 
L 191.266638 -54.120785 
L 191.285965 -54.947898 
L 191.301443 -55.775012 
L 191.30689 -56.602125 
L 191.295782 -57.429238 
L 191.261507 -58.256352 
L 191.197642 -59.083465 
L 191.098245 -59.910578 
L 190.958157 -60.737692 
L 190.773319 -61.564805 
L 190.541076 -62.391918 
L 190.260479 -63.219032 
L 189.932537 -64.046145 
L 189.560411 -64.873258 
L 189.149518 -65.700372 
L 188.707505 -66.527485 
L 188.24408 -67.354598 
L 187.770676 -68.181712 
L 187.299954 -69.008825 
L 186.845152 -69.835938 
L 186.419325 -70.663051 
L 186.034519 -71.490165 
L 185.700941 -72.317278 
L 185.426213 -73.144391 
L 185.214755 -73.971505 
L 185.067381 -74.798618 
L 184.98114 -75.625731 
L 184.949433 -76.452845 
L 184.962394 -77.279958 
L 185.007519 -78.107071 
L 185.07048 -78.934185 
L 185.136076 -79.761298 
L 185.189228 -80.588411 
L 185.215949 -81.415525 
L 185.204223 -82.242638 
L 185.14473 -83.069751 
L 185.031376 -83.896865 
L 184.861609 -84.723978 
L 184.636509 -85.551091 
L 184.360668 -86.378205 
L 184.041883 -87.205318 
L 183.690678 -88.032431 
L 183.319716 -88.859545 
L 182.943106 -89.686658 
L 182.575665 -90.513771 
L 182.232164 -91.340885 
L 181.926577 -92.167998 
L 181.671388 -92.995111 
L 181.476969 -93.822224 
L 181.351064 -94.649338 
L 181.298411 -95.476451 
L 181.320518 -96.303564 
L 181.415621 -97.130678 
L 181.578817 -97.957791 
L 181.802397 -98.784904 
L 182.076333 -99.612018 
L 182.38892 -100.439131 
L 182.727507 -101.266244 
L 183.079294 -102.093358 
L 183.432102 -102.920471 
L 183.775092 -103.747584 
L 184.099351 -104.574698 
L 184.398311 -105.401811 
L 184.66797 -106.228924 
L 184.906902 -107.056038 
L 185.116059 -107.883151 
L 185.298403 -108.710264 
L 185.458398 -109.537378 
L 185.601427 -110.364491 
L 185.733195 -111.191604 
L 185.859165 -112.018718 
L 185.984093 -112.845831 
L 186.111691 -113.672944 
L 186.244446 -114.500057 
L 186.383585 -115.327171 
L 186.529198 -116.154284 
L 186.680463 -116.981397 
L 186.835958 -117.808511 
L 186.994008 -118.635624 
L 187.153018 -119.462737 
L 187.311771 -120.289851 
L 187.469645 -121.116964 
L 187.626734 -121.944077 
L 187.783869 -122.771191 
L 187.942543 -123.598304 
L 188.10474 -124.425417 
L 188.272714 -125.252531 
L 188.448716 -126.079644 
L 188.634726 -126.906757 
L 188.832202 -127.733871 
L 189.041874 -128.560984 
L 189.263609 -129.388097 
L 189.496355 -130.215211 
L 189.738166 -131.042324 
L 189.986309 -131.869437 
L 195.307191 -131.869437 
L 195.307191 -131.869437 
L 195.555334 -131.042324 
L 195.797145 -130.215211 
L 196.029891 -129.388097 
L 196.251626 -128.560984 
L 196.461298 -127.733871 
L 196.658774 -126.906757 
L 196.844784 -126.079644 
L 197.020786 -125.252531 
L 197.18876 -124.425417 
L 197.350957 -123.598304 
L 197.509631 -122.771191 
L 197.666766 -121.944077 
L 197.823855 -121.116964 
L 197.981729 -120.289851 
L 198.140482 -119.462737 
L 198.299492 -118.635624 
L 198.457542 -117.808511 
L 198.613037 -116.981397 
L 198.764302 -116.154284 
L 198.909915 -115.327171 
L 199.049054 -114.500057 
L 199.181809 -113.672944 
L 199.309407 -112.845831 
L 199.434335 -112.018718 
L 199.560305 -111.191604 
L 199.692073 -110.364491 
L 199.835102 -109.537378 
L 199.995097 -108.710264 
L 200.177441 -107.883151 
L 200.386598 -107.056038 
L 200.62553 -106.228924 
L 200.895189 -105.401811 
L 201.194149 -104.574698 
L 201.518408 -103.747584 
L 201.861398 -102.920471 
L 202.214206 -102.093358 
L 202.565993 -101.266244 
L 202.90458 -100.439131 
L 203.217167 -99.612018 
L 203.491103 -98.784904 
L 203.714683 -97.957791 
L 203.877879 -97.130678 
L 203.972982 -96.303564 
L 203.995089 -95.476451 
L 203.942436 -94.649338 
L 203.816531 -93.822224 
L 203.622112 -92.995111 
L 203.366923 -92.167998 
L 203.061336 -91.340885 
L 202.717835 -90.513771 
L 202.350394 -89.686658 
L 201.973784 -88.859545 
L 201.602822 -88.032431 
L 201.251617 -87.205318 
L 200.932832 -86.378205 
L 200.656991 -85.551091 
L 200.431891 -84.723978 
L 200.262124 -83.896865 
L 200.14877 -83.069751 
L 200.089277 -82.242638 
L 200.077551 -81.415525 
L 200.104272 -80.588411 
L 200.157424 -79.761298 
L 200.22302 -78.934185 
L 200.285981 -78.107071 
L 200.331106 -77.279958 
L 200.344067 -76.452845 
L 200.31236 -75.625731 
L 200.226119 -74.798618 
L 200.078745 -73.971505 
L 199.867287 -73.144391 
L 199.592559 -72.317278 
L 199.258981 -71.490165 
L 198.874175 -70.663051 
L 198.448348 -69.835938 
L 197.993546 -69.008825 
L 197.522824 -68.181712 
L 197.04942 -67.354598 
L 196.585995 -66.527485 
L 196.143982 -65.700372 
L 195.733089 -64.873258 
L 195.360963 -64.046145 
L 195.033021 -63.219032 
L 194.752424 -62.391918 
L 194.520181 -61.564805 
L 194.335343 -60.737692 
L 194.195255 -59.910578 
L 194.095858 -59.083465 
L 194.031993 -58.256352 
L 193.997718 -57.429238 
L 193.98661 -56.602125 
L 193.992057 -55.775012 
L 194.007535 -54.947898 
L 194.026862 -54.120785 
L 194.044435 -53.293672 
L 194.055429 -52.466558 
L 194.055964 -51.639445 
L 194.043218 -50.812332 
L 194.015488 -49.985218 
z
" id="m6520db31d1" style="stroke:#3d3d3d;stroke-width:1.4;"/>
    </defs>
    <g clip-path="url(#pdc8b4001e3)">
     <use style="fill:#c03d3e;stroke:#3d3d3d;stroke-width:1.4;" x="0" xlink:href="#m6520db31d1" y="163.13925"/>
    </g>
   </g>
   <g id="PolyCollection_5">
    <defs>
     <path d="M 237.834839 -44.09925 
L 236.738661 -44.09925 
L 236.646614 -44.975464 
L 236.545858 -45.851677 
L 236.436441 -46.727891 
L 236.318379 -47.604105 
L 236.191602 -48.480318 
L 236.055893 -49.356532 
L 235.910852 -50.232745 
L 235.755878 -51.108959 
L 235.590188 -51.985173 
L 235.412862 -52.861386 
L 235.222924 -53.7376 
L 235.019432 -54.613814 
L 234.801583 -55.490027 
L 234.568798 -56.366241 
L 234.320794 -57.242454 
L 234.057611 -58.118668 
L 233.779615 -58.994882 
L 233.487467 -59.871095 
L 233.182074 -60.747309 
L 232.864553 -61.623523 
L 232.536213 -62.499736 
L 232.198574 -63.37595 
L 231.853446 -64.252163 
L 231.503049 -65.128377 
L 231.150172 -66.004591 
L 230.798341 -66.880804 
L 230.451959 -67.757018 
L 230.116374 -68.633232 
L 229.797844 -69.509445 
L 229.503355 -70.385659 
L 229.240283 -71.261872 
L 229.015894 -72.138086 
L 228.83672 -73.0143 
L 228.707855 -73.890513 
L 228.63224 -74.766727 
L 228.610035 -75.642941 
L 228.63816 -76.519154 
L 228.710085 -77.395368 
L 228.815935 -78.271582 
L 228.942938 -79.147795 
L 229.076193 -80.024009 
L 229.199732 -80.900222 
L 229.297748 -81.776436 
L 229.355914 -82.65265 
L 229.362631 -83.528863 
L 229.310089 -84.405077 
L 229.195029 -85.281291 
L 229.019123 -86.157504 
L 228.788931 -87.033718 
L 228.515452 -87.909931 
L 228.213301 -88.786145 
L 227.899608 -89.662359 
L 227.592753 -90.538572 
L 227.311037 -91.414786 
L 227.071419 -92.291 
L 226.888421 -93.167213 
L 226.773251 -94.043427 
L 226.733218 -94.91964 
L 226.771427 -95.795854 
L 226.886764 -96.672068 
L 227.07414 -97.548281 
L 227.324955 -98.424495 
L 227.627743 -99.300709 
L 227.968958 -100.176922 
L 228.333846 -101.053136 
L 228.707369 -101.929349 
L 229.075119 -102.805563 
L 229.424167 -103.681777 
L 229.743801 -104.55799 
L 230.026094 -105.434204 
L 230.26626 -106.310418 
L 230.462783 -107.186631 
L 230.617309 -108.062845 
L 230.734316 -108.939059 
L 230.820624 -109.815272 
L 230.884778 -110.691486 
L 230.936373 -111.567699 
L 230.985381 -112.443913 
L 231.04152 -113.320127 
L 231.113691 -114.19634 
L 231.209515 -115.072554 
L 231.334954 -115.948768 
L 231.494046 -116.824981 
L 231.688726 -117.701195 
L 231.918768 -118.577408 
L 232.181842 -119.453622 
L 232.473709 -120.329836 
L 232.788533 -121.206049 
L 233.119328 -122.082263 
L 233.458488 -122.958477 
L 233.798354 -123.83469 
L 234.131778 -124.710904 
L 234.452596 -125.587117 
L 234.75598 -126.463331 
L 235.038618 -127.339545 
L 235.298722 -128.215758 
L 235.535873 -129.091972 
L 235.750745 -129.968186 
L 235.944757 -130.844399 
L 238.628743 -130.844399 
L 238.628743 -130.844399 
L 238.822755 -129.968186 
L 239.037627 -129.091972 
L 239.274778 -128.215758 
L 239.534882 -127.339545 
L 239.81752 -126.463331 
L 240.120904 -125.587117 
L 240.441722 -124.710904 
L 240.775146 -123.83469 
L 241.115012 -122.958477 
L 241.454172 -122.082263 
L 241.784967 -121.206049 
L 242.099791 -120.329836 
L 242.391658 -119.453622 
L 242.654732 -118.577408 
L 242.884774 -117.701195 
L 243.079454 -116.824981 
L 243.238546 -115.948768 
L 243.363985 -115.072554 
L 243.459809 -114.19634 
L 243.53198 -113.320127 
L 243.588119 -112.443913 
L 243.637127 -111.567699 
L 243.688722 -110.691486 
L 243.752876 -109.815272 
L 243.839184 -108.939059 
L 243.956191 -108.062845 
L 244.110717 -107.186631 
L 244.30724 -106.310418 
L 244.547406 -105.434204 
L 244.829699 -104.55799 
L 245.149333 -103.681777 
L 245.498381 -102.805563 
L 245.866131 -101.929349 
L 246.239654 -101.053136 
L 246.604542 -100.176922 
L 246.945757 -99.300709 
L 247.248545 -98.424495 
L 247.49936 -97.548281 
L 247.686736 -96.672068 
L 247.802073 -95.795854 
L 247.840282 -94.91964 
L 247.800249 -94.043427 
L 247.685079 -93.167213 
L 247.502081 -92.291 
L 247.262463 -91.414786 
L 246.980747 -90.538572 
L 246.673892 -89.662359 
L 246.360199 -88.786145 
L 246.058048 -87.909931 
L 245.784569 -87.033718 
L 245.554377 -86.157504 
L 245.378471 -85.281291 
L 245.263411 -84.405077 
L 245.210869 -83.528863 
L 245.217586 -82.65265 
L 245.275752 -81.776436 
L 245.373768 -80.900222 
L 245.497307 -80.024009 
L 245.630562 -79.147795 
L 245.757565 -78.271582 
L 245.863415 -77.395368 
L 245.93534 -76.519154 
L 245.963465 -75.642941 
L 245.94126 -74.766727 
L 245.865645 -73.890513 
L 245.73678 -73.0143 
L 245.557606 -72.138086 
L 245.333217 -71.261872 
L 245.070145 -70.385659 
L 244.775656 -69.509445 
L 244.457126 -68.633232 
L 244.121541 -67.757018 
L 243.775159 -66.880804 
L 243.423328 -66.004591 
L 243.070451 -65.128377 
L 242.720054 -64.252163 
L 242.374926 -63.37595 
L 242.037287 -62.499736 
L 241.708947 -61.623523 
L 241.391426 -60.747309 
L 241.086033 -59.871095 
L 240.793885 -58.994882 
L 240.515889 -58.118668 
L 240.252706 -57.242454 
L 240.004702 -56.366241 
L 239.771917 -55.490027 
L 239.554068 -54.613814 
L 239.350576 -53.7376 
L 239.160638 -52.861386 
L 238.983312 -51.985173 
L 238.817622 -51.108959 
L 238.662648 -50.232745 
L 238.517607 -49.356532 
L 238.381898 -48.480318 
L 238.255121 -47.604105 
L 238.137059 -46.727891 
L 238.027642 -45.851677 
L 237.926886 -44.975464 
L 237.834839 -44.09925 
z
" id="mb3a084694d" style="stroke:#3d3d3d;stroke-width:1.4;"/>
    </defs>
    <g clip-path="url(#pdc8b4001e3)">
     <use style="fill:#9372b2;stroke:#3d3d3d;stroke-width:1.4;" x="0" xlink:href="#mb3a084694d" y="163.13925"/>
    </g>
   </g>
   <g id="line2d_12">
    <path clip-path="url(#pdc8b4001e3)" d="M 58.72675 113.154032 
L 58.72675 36.465582 
" style="fill:none;stroke:#3d3d3d;stroke-linecap:round;stroke-width:1.4;"/>
   </g>
   <g id="line2d_13">
    <path clip-path="url(#pdc8b4001e3)" d="M 58.72675 83.857919 
L 58.72675 63.833275 
" style="fill:none;stroke:#3d3d3d;stroke-linecap:round;stroke-width:4.2;"/>
   </g>
   <g id="line2d_14">
    <path clip-path="url(#pdc8b4001e3)" d="M 103.36675 119.04 
L 103.36675 23.083391 
" style="fill:none;stroke:#3d3d3d;stroke-linecap:round;stroke-width:1.4;"/>
   </g>
   <g id="line2d_15">
    <path clip-path="url(#pdc8b4001e3)" d="M 103.36675 86.905958 
L 103.36675 58.456367 
" style="fill:none;stroke:#3d3d3d;stroke-linecap:round;stroke-width:4.2;"/>
   </g>
   <g id="line2d_16">
    <path clip-path="url(#pdc8b4001e3)" d="M 148.00675 119.04 
L 148.00675 27.103251 
" style="fill:none;stroke:#3d3d3d;stroke-linecap:round;stroke-width:1.4;"/>
   </g>
   <g id="line2d_17">
    <path clip-path="url(#pdc8b4001e3)" d="M 148.00675 83.959821 
L 148.00675 50.707389 
" style="fill:none;stroke:#3d3d3d;stroke-linecap:round;stroke-width:4.2;"/>
   </g>
   <g id="line2d_18">
    <path clip-path="url(#pdc8b4001e3)" d="M 192.64675 113.154032 
L 192.64675 31.269813 
" style="fill:none;stroke:#3d3d3d;stroke-linecap:round;stroke-width:1.4;"/>
   </g>
   <g id="line2d_19">
    <path clip-path="url(#pdc8b4001e3)" d="M 192.64675 84.71181 
L 192.64675 52.951455 
" style="fill:none;stroke:#3d3d3d;stroke-linecap:round;stroke-width:4.2;"/>
   </g>
   <g id="line2d_20">
    <path clip-path="url(#pdc8b4001e3)" d="M 237.28675 119.04 
L 237.28675 32.294851 
" style="fill:none;stroke:#3d3d3d;stroke-linecap:round;stroke-width:1.4;"/>
   </g>
   <g id="line2d_21">
    <path clip-path="url(#pdc8b4001e3)" d="M 237.28675 87.610458 
L 237.28675 59.636586 
" style="fill:none;stroke:#3d3d3d;stroke-linecap:round;stroke-width:4.2;"/>
   </g>
   <g id="patch_3">
    <path d="M 36.40675 124.08 
L 36.40675 13.2 
" style="fill:none;stroke:#262626;stroke-linecap:square;stroke-linejoin:miter;stroke-width:1.25;"/>
   </g>
   <g id="patch_4">
    <path d="M 36.40675 124.08 
L 259.60675 124.08 
" style="fill:none;stroke:#262626;stroke-linecap:square;stroke-linejoin:miter;stroke-width:1.25;"/>
   </g>
   <g id="PathCollection_1">
    <defs>
     <path d="M 0 1.4 
C 0.371284 1.4 0.727412 1.252487 0.989949 0.989949 
C 1.252487 0.727412 1.4 0.371284 1.4 0 
C 1.4 -0.371284 1.252487 -0.727412 0.989949 -0.989949 
C 0.727412 -1.252487 0.371284 -1.4 0 -1.4 
C -0.371284 -1.4 -0.727412 -1.252487 -0.989949 -0.989949 
C -1.252487 -0.727412 -1.4 -0.371284 -1.4 0 
C -1.4 0.371284 -1.252487 0.727412 -0.989949 0.989949 
C -0.727412 1.252487 -0.371284 1.4 0 1.4 
z
" id="m6745404e89" style="stroke:#3d3d3d;stroke-width:0.24;"/>
    </defs>
    <g clip-path="url(#pdc8b4001e3)">
     <use style="fill:#ffffff;stroke:#3d3d3d;stroke-width:0.24;" x="58.72675" xlink:href="#m6745404e89" y="72.119746"/>
    </g>
   </g>
   <g id="PathCollection_2">
    <g clip-path="url(#pdc8b4001e3)">
     <use style="fill:#ffffff;stroke:#3d3d3d;stroke-width:0.24;" x="103.36675" xlink:href="#m6745404e89" y="73.964009"/>
    </g>
   </g>
   <g id="PathCollection_3">
    <g clip-path="url(#pdc8b4001e3)">
     <use style="fill:#ffffff;stroke:#3d3d3d;stroke-width:0.24;" x="148.00675" xlink:href="#m6745404e89" y="68.940602"/>
    </g>
   </g>
   <g id="PathCollection_4">
    <g clip-path="url(#pdc8b4001e3)">
     <use style="fill:#ffffff;stroke:#3d3d3d;stroke-width:0.24;" x="192.64675" xlink:href="#m6745404e89" y="67.788977"/>
    </g>
   </g>
   <g id="PathCollection_5">
    <g clip-path="url(#pdc8b4001e3)">
     <use style="fill:#ffffff;stroke:#3d3d3d;stroke-width:0.24;" x="237.28675" xlink:href="#m6745404e89" y="71.191297"/>
    </g>
   </g>
   <g id="text_14">
    <!-- total: 4657827 -->
    <defs>
     <path d="M 11.71875 12.40625 
L 22.015625 12.40625 
L 22.015625 0 
L 11.71875 0 
z
M 11.71875 51.703125 
L 22.015625 51.703125 
L 22.015625 39.3125 
L 11.71875 39.3125 
z
" id="DejaVuSans-3a"/>
     <path d="M 33.015625 40.375 
Q 26.375 40.375 22.484375 35.828125 
Q 18.609375 31.296875 18.609375 23.390625 
Q 18.609375 15.53125 22.484375 10.953125 
Q 26.375 6.390625 33.015625 6.390625 
Q 39.65625 6.390625 43.53125 10.953125 
Q 47.40625 15.53125 47.40625 23.390625 
Q 47.40625 31.296875 43.53125 35.828125 
Q 39.65625 40.375 33.015625 40.375 
z
M 52.59375 71.296875 
L 52.59375 62.3125 
Q 48.875 64.0625 45.09375 64.984375 
Q 41.3125 65.921875 37.59375 65.921875 
Q 27.828125 65.921875 22.671875 59.328125 
Q 17.53125 52.734375 16.796875 39.40625 
Q 19.671875 43.65625 24.015625 45.921875 
Q 28.375 48.1875 33.59375 48.1875 
Q 44.578125 48.1875 50.953125 41.515625 
Q 57.328125 34.859375 57.328125 23.390625 
Q 57.328125 12.15625 50.6875 5.359375 
Q 44.046875 -1.421875 33.015625 -1.421875 
Q 20.359375 -1.421875 13.671875 8.265625 
Q 6.984375 17.96875 6.984375 36.375 
Q 6.984375 53.65625 15.1875 63.9375 
Q 23.390625 74.21875 37.203125 74.21875 
Q 40.921875 74.21875 44.703125 73.484375 
Q 48.484375 72.75 52.59375 71.296875 
z
" id="DejaVuSans-36"/>
     <path d="M 8.203125 72.90625 
L 55.078125 72.90625 
L 55.078125 68.703125 
L 28.609375 0 
L 18.3125 0 
L 43.21875 64.59375 
L 8.203125 64.59375 
z
" id="DejaVuSans-37"/>
     <path d="M 31.78125 34.625 
Q 24.75 34.625 20.71875 30.859375 
Q 16.703125 27.09375 16.703125 20.515625 
Q 16.703125 13.921875 20.71875 10.15625 
Q 24.75 6.390625 31.78125 6.390625 
Q 38.8125 6.390625 42.859375 10.171875 
Q 46.921875 13.96875 46.921875 20.515625 
Q 46.921875 27.09375 42.890625 30.859375 
Q 38.875 34.625 31.78125 34.625 
z
M 21.921875 38.8125 
Q 15.578125 40.375 12.03125 44.71875 
Q 8.5 49.078125 8.5 55.328125 
Q 8.5 64.0625 14.71875 69.140625 
Q 20.953125 74.21875 31.78125 74.21875 
Q 42.671875 74.21875 48.875 69.140625 
Q 55.078125 64.0625 55.078125 55.328125 
Q 55.078125 49.078125 51.53125 44.71875 
Q 48 40.375 41.703125 38.8125 
Q 48.828125 37.15625 52.796875 32.3125 
Q 56.78125 27.484375 56.78125 20.515625 
Q 56.78125 9.90625 50.3125 4.234375 
Q 43.84375 -1.421875 31.78125 -1.421875 
Q 19.734375 -1.421875 13.25 4.234375 
Q 6.78125 9.90625 6.78125 20.515625 
Q 6.78125 27.484375 10.78125 32.3125 
Q 14.796875 37.15625 21.921875 38.8125 
z
M 18.3125 54.390625 
Q 18.3125 48.734375 21.84375 45.5625 
Q 25.390625 42.390625 31.78125 42.390625 
Q 38.140625 42.390625 41.71875 45.5625 
Q 45.3125 48.734375 45.3125 54.390625 
Q 45.3125 60.0625 41.71875 63.234375 
Q 38.140625 66.40625 31.78125 66.40625 
Q 25.390625 66.40625 21.84375 63.234375 
Q 18.3125 60.0625 18.3125 54.390625 
z
" id="DejaVuSans-38"/>
    </defs>
    <g style="fill:#262626;" transform="translate(188.61475 20.4945)scale(0.096 -0.096)">
     <use xlink:href="#DejaVuSans-74"/>
     <use x="39.208984" xlink:href="#DejaVuSans-6f"/>
     <use x="100.390625" xlink:href="#DejaVuSans-74"/>
     <use x="139.599609" xlink:href="#DejaVuSans-61"/>
     <use x="200.878906" xlink:href="#DejaVuSans-6c"/>
     <use x="228.662109" xlink:href="#DejaVuSans-3a"/>
     <use x="262.353516" xlink:href="#DejaVuSans-20"/>
     <use x="294.140625" xlink:href="#DejaVuSans-34"/>
     <use x="357.763672" xlink:href="#DejaVuSans-36"/>
     <use x="421.386719" xlink:href="#DejaVuSans-35"/>
     <use x="485.009766" xlink:href="#DejaVuSans-37"/>
     <use x="548.632812" xlink:href="#DejaVuSans-38"/>
     <use x="612.255859" xlink:href="#DejaVuSans-32"/>
     <use x="675.878906" xlink:href="#DejaVuSans-37"/>
    </g>
   </g>
  </g>
 </g>
 <defs>
  <clipPath id="pdc8b4001e3">
   <rect height="110.88" width="223.2" x="36.40675" y="13.2"/>
  </clipPath>
 </defs>
</svg>
