<?xml version="1.0" encoding="utf-8" standalone="no"?>
<!DOCTYPE svg PUBLIC "-//W3C//DTD SVG 1.1//EN"
  "http://www.w3.org/Graphics/SVG/1.1/DTD/svg11.dtd">
<!-- Created with matplotlib (http://matplotlib.org/) -->
<svg height="211pt" version="1.1" viewBox="0 0 282 211" width="282pt" xmlns="http://www.w3.org/2000/svg" xmlns:xlink="http://www.w3.org/1999/xlink">
 <defs>
  <style type="text/css">
*{stroke-linecap:butt;stroke-linejoin:round;}
  </style>
 </defs>
 <g id="figure_1">
  <g id="patch_1">
   <path d="M 0 211.8865 
L 282.46075 211.8865 
L 282.46075 0 
L 0 0 
z
" style="fill:#ffffff;"/>
  </g>
  <g id="axes_1">
   <g id="patch_2">
    <path d="M 36.40675 185.344 
L 269.26075 185.344 
L 269.26075 13.2 
L 36.40675 13.2 
z
" style="fill:#ffffff;"/>
   </g>
   <g id="matplotlib.axis_1">
    <g id="xtick_1">
     <g id="line2d_1">
      <defs>
       <path d="M 0 0 
L 0 6 
" id="mcb0557a144" style="stroke:#262626;stroke-width:0.8;"/>
      </defs>
      <g>
       <use style="fill:#262626;stroke:#262626;stroke-width:0.8;" x="65.5135" xlink:href="#mcb0557a144" y="185.344"/>
      </g>
     </g>
     <g id="text_1">
      <!-- Bioconductor/R -->
      <defs>
       <path d="M 19.671875 34.8125 
L 19.671875 8.109375 
L 35.5 8.109375 
Q 43.453125 8.109375 47.28125 11.40625 
Q 51.125 14.703125 51.125 21.484375 
Q 51.125 28.328125 47.28125 31.5625 
Q 43.453125 34.8125 35.5 34.8125 
z
M 19.671875 64.796875 
L 19.671875 42.828125 
L 34.28125 42.828125 
Q 41.5 42.828125 45.03125 45.53125 
Q 48.578125 48.25 48.578125 53.8125 
Q 48.578125 59.328125 45.03125 62.0625 
Q 41.5 64.796875 34.28125 64.796875 
z
M 9.8125 72.90625 
L 35.015625 72.90625 
Q 46.296875 72.90625 52.390625 68.21875 
Q 58.5 63.53125 58.5 54.890625 
Q 58.5 48.1875 55.375 44.234375 
Q 52.25 40.28125 46.1875 39.3125 
Q 53.46875 37.75 57.5 32.78125 
Q 61.53125 27.828125 61.53125 20.40625 
Q 61.53125 10.640625 54.890625 5.3125 
Q 48.25 0 35.984375 0 
L 9.8125 0 
z
" id="DejaVuSans-42"/>
       <path d="M 9.421875 54.6875 
L 18.40625 54.6875 
L 18.40625 0 
L 9.421875 0 
z
M 9.421875 75.984375 
L 18.40625 75.984375 
L 18.40625 64.59375 
L 9.421875 64.59375 
z
" id="DejaVuSans-69"/>
       <path d="M 30.609375 48.390625 
Q 23.390625 48.390625 19.1875 42.75 
Q 14.984375 37.109375 14.984375 27.296875 
Q 14.984375 17.484375 19.15625 11.84375 
Q 23.34375 6.203125 30.609375 6.203125 
Q 37.796875 6.203125 41.984375 11.859375 
Q 46.1875 17.53125 46.1875 27.296875 
Q 46.1875 37.015625 41.984375 42.703125 
Q 37.796875 48.390625 30.609375 48.390625 
z
M 30.609375 56 
Q 42.328125 56 49.015625 48.375 
Q 55.71875 40.765625 55.71875 27.296875 
Q 55.71875 13.875 49.015625 6.21875 
Q 42.328125 -1.421875 30.609375 -1.421875 
Q 18.84375 -1.421875 12.171875 6.21875 
Q 5.515625 13.875 5.515625 27.296875 
Q 5.515625 40.765625 12.171875 48.375 
Q 18.84375 56 30.609375 56 
z
" id="DejaVuSans-6f"/>
       <path d="M 48.78125 52.59375 
L 48.78125 44.1875 
Q 44.96875 46.296875 41.140625 47.34375 
Q 37.3125 48.390625 33.40625 48.390625 
Q 24.65625 48.390625 19.8125 42.84375 
Q 14.984375 37.3125 14.984375 27.296875 
Q 14.984375 17.28125 19.8125 11.734375 
Q 24.65625 6.203125 33.40625 6.203125 
Q 37.3125 6.203125 41.140625 7.25 
Q 44.96875 8.296875 48.78125 10.40625 
L 48.78125 2.09375 
Q 45.015625 0.34375 40.984375 -0.53125 
Q 36.96875 -1.421875 32.421875 -1.421875 
Q 20.0625 -1.421875 12.78125 6.34375 
Q 5.515625 14.109375 5.515625 27.296875 
Q 5.515625 40.671875 12.859375 48.328125 
Q 20.21875 56 33.015625 56 
Q 37.15625 56 41.109375 55.140625 
Q 45.0625 54.296875 48.78125 52.59375 
z
" id="DejaVuSans-63"/>
       <path d="M 54.890625 33.015625 
L 54.890625 0 
L 45.90625 0 
L 45.90625 32.71875 
Q 45.90625 40.484375 42.875 44.328125 
Q 39.84375 48.1875 33.796875 48.1875 
Q 26.515625 48.1875 22.3125 43.546875 
Q 18.109375 38.921875 18.109375 30.90625 
L 18.109375 0 
L 9.078125 0 
L 9.078125 54.6875 
L 18.109375 54.6875 
L 18.109375 46.1875 
Q 21.34375 51.125 25.703125 53.5625 
Q 30.078125 56 35.796875 56 
Q 45.21875 56 50.046875 50.171875 
Q 54.890625 44.34375 54.890625 33.015625 
z
" id="DejaVuSans-6e"/>
       <path d="M 45.40625 46.390625 
L 45.40625 75.984375 
L 54.390625 75.984375 
L 54.390625 0 
L 45.40625 0 
L 45.40625 8.203125 
Q 42.578125 3.328125 38.25 0.953125 
Q 33.9375 -1.421875 27.875 -1.421875 
Q 17.96875 -1.421875 11.734375 6.484375 
Q 5.515625 14.40625 5.515625 27.296875 
Q 5.515625 40.1875 11.734375 48.09375 
Q 17.96875 56 27.875 56 
Q 33.9375 56 38.25 53.625 
Q 42.578125 51.265625 45.40625 46.390625 
z
M 14.796875 27.296875 
Q 14.796875 17.390625 18.875 11.75 
Q 22.953125 6.109375 30.078125 6.109375 
Q 37.203125 6.109375 41.296875 11.75 
Q 45.40625 17.390625 45.40625 27.296875 
Q 45.40625 37.203125 41.296875 42.84375 
Q 37.203125 48.484375 30.078125 48.484375 
Q 22.953125 48.484375 18.875 42.84375 
Q 14.796875 37.203125 14.796875 27.296875 
z
" id="DejaVuSans-64"/>
       <path d="M 8.5 21.578125 
L 8.5 54.6875 
L 17.484375 54.6875 
L 17.484375 21.921875 
Q 17.484375 14.15625 20.5 10.265625 
Q 23.53125 6.390625 29.59375 6.390625 
Q 36.859375 6.390625 41.078125 11.03125 
Q 45.3125 15.671875 45.3125 23.6875 
L 45.3125 54.6875 
L 54.296875 54.6875 
L 54.296875 0 
L 45.3125 0 
L 45.3125 8.40625 
Q 42.046875 3.421875 37.71875 1 
Q 33.40625 -1.421875 27.6875 -1.421875 
Q 18.265625 -1.421875 13.375 4.4375 
Q 8.5 10.296875 8.5 21.578125 
z
M 31.109375 56 
z
" id="DejaVuSans-75"/>
       <path d="M 18.3125 70.21875 
L 18.3125 54.6875 
L 36.8125 54.6875 
L 36.8125 47.703125 
L 18.3125 47.703125 
L 18.3125 18.015625 
Q 18.3125 11.328125 20.140625 9.421875 
Q 21.96875 7.515625 27.59375 7.515625 
L 36.8125 7.515625 
L 36.8125 0 
L 27.59375 0 
Q 17.1875 0 13.234375 3.875 
Q 9.28125 7.765625 9.28125 18.015625 
L 9.28125 47.703125 
L 2.6875 47.703125 
L 2.6875 54.6875 
L 9.28125 54.6875 
L 9.28125 70.21875 
z
" id="DejaVuSans-74"/>
       <path d="M 41.109375 46.296875 
Q 39.59375 47.171875 37.8125 47.578125 
Q 36.03125 48 33.890625 48 
Q 26.265625 48 22.1875 43.046875 
Q 18.109375 38.09375 18.109375 28.8125 
L 18.109375 0 
L 9.078125 0 
L 9.078125 54.6875 
L 18.109375 54.6875 
L 18.109375 46.1875 
Q 20.953125 51.171875 25.484375 53.578125 
Q 30.03125 56 36.53125 56 
Q 37.453125 56 38.578125 55.875 
Q 39.703125 55.765625 41.0625 55.515625 
z
" id="DejaVuSans-72"/>
       <path d="M 25.390625 72.90625 
L 33.6875 72.90625 
L 8.296875 -9.28125 
L 0 -9.28125 
z
" id="DejaVuSans-2f"/>
       <path d="M 44.390625 34.1875 
Q 47.5625 33.109375 50.5625 29.59375 
Q 53.5625 26.078125 56.59375 19.921875 
L 66.609375 0 
L 56 0 
L 46.6875 18.703125 
Q 43.0625 26.03125 39.671875 28.421875 
Q 36.28125 30.8125 30.421875 30.8125 
L 19.671875 30.8125 
L 19.671875 0 
L 9.8125 0 
L 9.8125 72.90625 
L 32.078125 72.90625 
Q 44.578125 72.90625 50.734375 67.671875 
Q 56.890625 62.453125 56.890625 51.90625 
Q 56.890625 45.015625 53.6875 40.46875 
Q 50.484375 35.9375 44.390625 34.1875 
z
M 19.671875 64.796875 
L 19.671875 38.921875 
L 32.078125 38.921875 
Q 39.203125 38.921875 42.84375 42.21875 
Q 46.484375 45.515625 46.484375 51.90625 
Q 46.484375 58.296875 42.84375 61.546875 
Q 39.203125 64.796875 32.078125 64.796875 
z
" id="DejaVuSans-52"/>
      </defs>
      <g style="fill:#262626;" transform="translate(34.967875 203.02275)scale(0.08 -0.08)">
       <use xlink:href="#DejaVuSans-42"/>
       <use x="68.603516" xlink:href="#DejaVuSans-69"/>
       <use x="96.386719" xlink:href="#DejaVuSans-6f"/>
       <use x="157.568359" xlink:href="#DejaVuSans-63"/>
       <use x="212.548828" xlink:href="#DejaVuSans-6f"/>
       <use x="273.730469" xlink:href="#DejaVuSans-6e"/>
       <use x="337.109375" xlink:href="#DejaVuSans-64"/>
       <use x="400.585938" xlink:href="#DejaVuSans-75"/>
       <use x="463.964844" xlink:href="#DejaVuSans-63"/>
       <use x="518.945312" xlink:href="#DejaVuSans-74"/>
       <use x="558.154297" xlink:href="#DejaVuSans-6f"/>
       <use x="619.335938" xlink:href="#DejaVuSans-72"/>
       <use x="660.449219" xlink:href="#DejaVuSans-2f"/>
       <use x="694.140625" xlink:href="#DejaVuSans-52"/>
      </g>
     </g>
    </g>
    <g id="xtick_2">
     <g id="line2d_2">
      <g>
       <use style="fill:#262626;stroke:#262626;stroke-width:0.8;" x="123.727" xlink:href="#mcb0557a144" y="185.344"/>
      </g>
     </g>
     <g id="text_2">
      <!-- Other -->
      <defs>
       <path d="M 39.40625 66.21875 
Q 28.65625 66.21875 22.328125 58.203125 
Q 16.015625 50.203125 16.015625 36.375 
Q 16.015625 22.609375 22.328125 14.59375 
Q 28.65625 6.59375 39.40625 6.59375 
Q 50.140625 6.59375 56.421875 14.59375 
Q 62.703125 22.609375 62.703125 36.375 
Q 62.703125 50.203125 56.421875 58.203125 
Q 50.140625 66.21875 39.40625 66.21875 
z
M 39.40625 74.21875 
Q 54.734375 74.21875 63.90625 63.9375 
Q 73.09375 53.65625 73.09375 36.375 
Q 73.09375 19.140625 63.90625 8.859375 
Q 54.734375 -1.421875 39.40625 -1.421875 
Q 24.03125 -1.421875 14.8125 8.828125 
Q 5.609375 19.09375 5.609375 36.375 
Q 5.609375 53.65625 14.8125 63.9375 
Q 24.03125 74.21875 39.40625 74.21875 
z
" id="DejaVuSans-4f"/>
       <path d="M 54.890625 33.015625 
L 54.890625 0 
L 45.90625 0 
L 45.90625 32.71875 
Q 45.90625 40.484375 42.875 44.328125 
Q 39.84375 48.1875 33.796875 48.1875 
Q 26.515625 48.1875 22.3125 43.546875 
Q 18.109375 38.921875 18.109375 30.90625 
L 18.109375 0 
L 9.078125 0 
L 9.078125 75.984375 
L 18.109375 75.984375 
L 18.109375 46.1875 
Q 21.34375 51.125 25.703125 53.5625 
Q 30.078125 56 35.796875 56 
Q 45.21875 56 50.046875 50.171875 
Q 54.890625 44.34375 54.890625 33.015625 
z
" id="DejaVuSans-68"/>
       <path d="M 56.203125 29.59375 
L 56.203125 25.203125 
L 14.890625 25.203125 
Q 15.484375 15.921875 20.484375 11.0625 
Q 25.484375 6.203125 34.421875 6.203125 
Q 39.59375 6.203125 44.453125 7.46875 
Q 49.3125 8.734375 54.109375 11.28125 
L 54.109375 2.78125 
Q 49.265625 0.734375 44.1875 -0.34375 
Q 39.109375 -1.421875 33.890625 -1.421875 
Q 20.796875 -1.421875 13.15625 6.1875 
Q 5.515625 13.8125 5.515625 26.8125 
Q 5.515625 40.234375 12.765625 48.109375 
Q 20.015625 56 32.328125 56 
Q 43.359375 56 49.78125 48.890625 
Q 56.203125 41.796875 56.203125 29.59375 
z
M 47.21875 32.234375 
Q 47.125 39.59375 43.09375 43.984375 
Q 39.0625 48.390625 32.421875 48.390625 
Q 24.90625 48.390625 20.390625 44.140625 
Q 15.875 39.890625 15.1875 32.171875 
z
" id="DejaVuSans-65"/>
      </defs>
      <g style="fill:#262626;" transform="translate(112.3695 203.02275)scale(0.08 -0.08)">
       <use xlink:href="#DejaVuSans-4f"/>
       <use x="78.710938" xlink:href="#DejaVuSans-74"/>
       <use x="117.919922" xlink:href="#DejaVuSans-68"/>
       <use x="181.298828" xlink:href="#DejaVuSans-65"/>
       <use x="242.822266" xlink:href="#DejaVuSans-72"/>
      </g>
     </g>
    </g>
    <g id="xtick_3">
     <g id="line2d_3">
      <g>
       <use style="fill:#262626;stroke:#262626;stroke-width:0.8;" x="181.9405" xlink:href="#mcb0557a144" y="185.344"/>
      </g>
     </g>
     <g id="text_3">
      <!-- Python -->
      <defs>
       <path d="M 19.671875 64.796875 
L 19.671875 37.40625 
L 32.078125 37.40625 
Q 38.96875 37.40625 42.71875 40.96875 
Q 46.484375 44.53125 46.484375 51.125 
Q 46.484375 57.671875 42.71875 61.234375 
Q 38.96875 64.796875 32.078125 64.796875 
z
M 9.8125 72.90625 
L 32.078125 72.90625 
Q 44.34375 72.90625 50.609375 67.359375 
Q 56.890625 61.8125 56.890625 51.125 
Q 56.890625 40.328125 50.609375 34.8125 
Q 44.34375 29.296875 32.078125 29.296875 
L 19.671875 29.296875 
L 19.671875 0 
L 9.8125 0 
z
" id="DejaVuSans-50"/>
       <path d="M 32.171875 -5.078125 
Q 28.375 -14.84375 24.75 -17.8125 
Q 21.140625 -20.796875 15.09375 -20.796875 
L 7.90625 -20.796875 
L 7.90625 -13.28125 
L 13.1875 -13.28125 
Q 16.890625 -13.28125 18.9375 -11.515625 
Q 21 -9.765625 23.484375 -3.21875 
L 25.09375 0.875 
L 2.984375 54.6875 
L 12.5 54.6875 
L 29.59375 11.921875 
L 46.6875 54.6875 
L 56.203125 54.6875 
z
" id="DejaVuSans-79"/>
      </defs>
      <g style="fill:#262626;" transform="translate(168.0755 203.02275)scale(0.08 -0.08)">
       <use xlink:href="#DejaVuSans-50"/>
       <use x="60.302734" xlink:href="#DejaVuSans-79"/>
       <use x="119.482422" xlink:href="#DejaVuSans-74"/>
       <use x="158.691406" xlink:href="#DejaVuSans-68"/>
       <use x="222.070312" xlink:href="#DejaVuSans-6f"/>
       <use x="283.251953" xlink:href="#DejaVuSans-6e"/>
      </g>
     </g>
    </g>
    <g id="xtick_4">
     <g id="line2d_4">
      <g>
       <use style="fill:#262626;stroke:#262626;stroke-width:0.8;" x="240.154" xlink:href="#mcb0557a144" y="185.344"/>
      </g>
     </g>
     <g id="text_4">
      <!-- Perl -->
      <defs>
       <path d="M 9.421875 75.984375 
L 18.40625 75.984375 
L 18.40625 0 
L 9.421875 0 
z
" id="DejaVuSans-6c"/>
      </defs>
      <g style="fill:#262626;" transform="translate(232.527125 203.02275)scale(0.08 -0.08)">
       <use xlink:href="#DejaVuSans-50"/>
       <use x="60.255859" xlink:href="#DejaVuSans-65"/>
       <use x="121.779297" xlink:href="#DejaVuSans-72"/>
       <use x="162.892578" xlink:href="#DejaVuSans-6c"/>
      </g>
     </g>
    </g>
   </g>
   <g id="matplotlib.axis_2">
    <g id="ytick_1">
     <g id="line2d_5">
      <defs>
       <path d="M 0 0 
L -6 0 
" id="mda4db31509" style="stroke:#262626;stroke-width:0.8;"/>
      </defs>
      <g>
       <use style="fill:#262626;stroke:#262626;stroke-width:0.8;" x="36.40675" xlink:href="#mda4db31509" y="178.092857"/>
      </g>
     </g>
     <g id="text_5">
      <!-- 0 -->
      <defs>
       <path d="M 31.78125 66.40625 
Q 24.171875 66.40625 20.328125 58.90625 
Q 16.5 51.421875 16.5 36.375 
Q 16.5 21.390625 20.328125 13.890625 
Q 24.171875 6.390625 31.78125 6.390625 
Q 39.453125 6.390625 43.28125 13.890625 
Q 47.125 21.390625 47.125 36.375 
Q 47.125 51.421875 43.28125 58.90625 
Q 39.453125 66.40625 31.78125 66.40625 
z
M 31.78125 74.21875 
Q 44.046875 74.21875 50.515625 64.515625 
Q 56.984375 54.828125 56.984375 36.375 
Q 56.984375 17.96875 50.515625 8.265625 
Q 44.046875 -1.421875 31.78125 -1.421875 
Q 19.53125 -1.421875 13.0625 8.265625 
Q 6.59375 17.96875 6.59375 36.375 
Q 6.59375 54.828125 13.0625 64.515625 
Q 19.53125 74.21875 31.78125 74.21875 
z
" id="DejaVuSans-30"/>
      </defs>
      <g style="fill:#262626;" transform="translate(19.71675 181.132232)scale(0.08 -0.08)">
       <use xlink:href="#DejaVuSans-30"/>
      </g>
     </g>
    </g>
    <g id="ytick_2">
     <g id="line2d_6">
      <g>
       <use style="fill:#262626;stroke:#262626;stroke-width:0.8;" x="36.40675" xlink:href="#mda4db31509" y="150.610714"/>
      </g>
     </g>
     <g id="text_6">
      <!-- 1 -->
      <defs>
       <path d="M 12.40625 8.296875 
L 28.515625 8.296875 
L 28.515625 63.921875 
L 10.984375 60.40625 
L 10.984375 69.390625 
L 28.421875 72.90625 
L 38.28125 72.90625 
L 38.28125 8.296875 
L 54.390625 8.296875 
L 54.390625 0 
L 12.40625 0 
z
" id="DejaVuSans-31"/>
      </defs>
      <g style="fill:#262626;" transform="translate(19.71675 153.650089)scale(0.08 -0.08)">
       <use xlink:href="#DejaVuSans-31"/>
      </g>
     </g>
    </g>
    <g id="ytick_3">
     <g id="line2d_7">
      <g>
       <use style="fill:#262626;stroke:#262626;stroke-width:0.8;" x="36.40675" xlink:href="#mda4db31509" y="123.128571"/>
      </g>
     </g>
     <g id="text_7">
      <!-- 2 -->
      <defs>
       <path d="M 19.1875 8.296875 
L 53.609375 8.296875 
L 53.609375 0 
L 7.328125 0 
L 7.328125 8.296875 
Q 12.9375 14.109375 22.625 23.890625 
Q 32.328125 33.6875 34.8125 36.53125 
Q 39.546875 41.84375 41.421875 45.53125 
Q 43.3125 49.21875 43.3125 52.78125 
Q 43.3125 58.59375 39.234375 62.25 
Q 35.15625 65.921875 28.609375 65.921875 
Q 23.96875 65.921875 18.8125 64.3125 
Q 13.671875 62.703125 7.8125 59.421875 
L 7.8125 69.390625 
Q 13.765625 71.78125 18.9375 73 
Q 24.125 74.21875 28.421875 74.21875 
Q 39.75 74.21875 46.484375 68.546875 
Q 53.21875 62.890625 53.21875 53.421875 
Q 53.21875 48.921875 51.53125 44.890625 
Q 49.859375 40.875 45.40625 35.40625 
Q 44.1875 33.984375 37.640625 27.21875 
Q 31.109375 20.453125 19.1875 8.296875 
z
" id="DejaVuSans-32"/>
      </defs>
      <g style="fill:#262626;" transform="translate(19.71675 126.167946)scale(0.08 -0.08)">
       <use xlink:href="#DejaVuSans-32"/>
      </g>
     </g>
    </g>
    <g id="ytick_4">
     <g id="line2d_8">
      <g>
       <use style="fill:#262626;stroke:#262626;stroke-width:0.8;" x="36.40675" xlink:href="#mda4db31509" y="95.646428"/>
      </g>
     </g>
     <g id="text_8">
      <!-- 3 -->
      <defs>
       <path d="M 40.578125 39.3125 
Q 47.65625 37.796875 51.625 33 
Q 55.609375 28.21875 55.609375 21.1875 
Q 55.609375 10.40625 48.1875 4.484375 
Q 40.765625 -1.421875 27.09375 -1.421875 
Q 22.515625 -1.421875 17.65625 -0.515625 
Q 12.796875 0.390625 7.625 2.203125 
L 7.625 11.71875 
Q 11.71875 9.328125 16.59375 8.109375 
Q 21.484375 6.890625 26.8125 6.890625 
Q 36.078125 6.890625 40.9375 10.546875 
Q 45.796875 14.203125 45.796875 21.1875 
Q 45.796875 27.640625 41.28125 31.265625 
Q 36.765625 34.90625 28.71875 34.90625 
L 20.21875 34.90625 
L 20.21875 43.015625 
L 29.109375 43.015625 
Q 36.375 43.015625 40.234375 45.921875 
Q 44.09375 48.828125 44.09375 54.296875 
Q 44.09375 59.90625 40.109375 62.90625 
Q 36.140625 65.921875 28.71875 65.921875 
Q 24.65625 65.921875 20.015625 65.03125 
Q 15.375 64.15625 9.8125 62.3125 
L 9.8125 71.09375 
Q 15.4375 72.65625 20.34375 73.4375 
Q 25.25 74.21875 29.59375 74.21875 
Q 40.828125 74.21875 47.359375 69.109375 
Q 53.90625 64.015625 53.90625 55.328125 
Q 53.90625 49.265625 50.4375 45.09375 
Q 46.96875 40.921875 40.578125 39.3125 
z
" id="DejaVuSans-33"/>
      </defs>
      <g style="fill:#262626;" transform="translate(19.71675 98.685803)scale(0.08 -0.08)">
       <use xlink:href="#DejaVuSans-33"/>
      </g>
     </g>
    </g>
    <g id="ytick_5">
     <g id="line2d_9">
      <g>
       <use style="fill:#262626;stroke:#262626;stroke-width:0.8;" x="36.40675" xlink:href="#mda4db31509" y="68.164286"/>
      </g>
     </g>
     <g id="text_9">
      <!-- 4 -->
      <defs>
       <path d="M 37.796875 64.3125 
L 12.890625 25.390625 
L 37.796875 25.390625 
z
M 35.203125 72.90625 
L 47.609375 72.90625 
L 47.609375 25.390625 
L 58.015625 25.390625 
L 58.015625 17.1875 
L 47.609375 17.1875 
L 47.609375 0 
L 37.796875 0 
L 37.796875 17.1875 
L 4.890625 17.1875 
L 4.890625 26.703125 
z
" id="DejaVuSans-34"/>
      </defs>
      <g style="fill:#262626;" transform="translate(19.71675 71.203661)scale(0.08 -0.08)">
       <use xlink:href="#DejaVuSans-34"/>
      </g>
     </g>
    </g>
    <g id="ytick_6">
     <g id="line2d_10">
      <g>
       <use style="fill:#262626;stroke:#262626;stroke-width:0.8;" x="36.40675" xlink:href="#mda4db31509" y="40.682143"/>
      </g>
     </g>
     <g id="text_10">
      <!-- 5 -->
      <defs>
       <path d="M 10.796875 72.90625 
L 49.515625 72.90625 
L 49.515625 64.59375 
L 19.828125 64.59375 
L 19.828125 46.734375 
Q 21.96875 47.46875 24.109375 47.828125 
Q 26.265625 48.1875 28.421875 48.1875 
Q 40.625 48.1875 47.75 41.5 
Q 54.890625 34.8125 54.890625 23.390625 
Q 54.890625 11.625 47.5625 5.09375 
Q 40.234375 -1.421875 26.90625 -1.421875 
Q 22.3125 -1.421875 17.546875 -0.640625 
Q 12.796875 0.140625 7.71875 1.703125 
L 7.71875 11.625 
Q 12.109375 9.234375 16.796875 8.0625 
Q 21.484375 6.890625 26.703125 6.890625 
Q 35.15625 6.890625 40.078125 11.328125 
Q 45.015625 15.765625 45.015625 23.390625 
Q 45.015625 31 40.078125 35.4375 
Q 35.15625 39.890625 26.703125 39.890625 
Q 22.75 39.890625 18.8125 39.015625 
Q 14.890625 38.140625 10.796875 36.28125 
z
" id="DejaVuSans-35"/>
      </defs>
      <g style="fill:#262626;" transform="translate(19.71675 43.721518)scale(0.08 -0.08)">
       <use xlink:href="#DejaVuSans-35"/>
      </g>
     </g>
    </g>
    <g id="ytick_7">
     <g id="line2d_11">
      <g>
       <use style="fill:#262626;stroke:#262626;stroke-width:0.8;" x="36.40675" xlink:href="#mda4db31509" y="13.2"/>
      </g>
     </g>
     <g id="text_11">
      <!-- 6 -->
      <defs>
       <path d="M 33.015625 40.375 
Q 26.375 40.375 22.484375 35.828125 
Q 18.609375 31.296875 18.609375 23.390625 
Q 18.609375 15.53125 22.484375 10.953125 
Q 26.375 6.390625 33.015625 6.390625 
Q 39.65625 6.390625 43.53125 10.953125 
Q 47.40625 15.53125 47.40625 23.390625 
Q 47.40625 31.296875 43.53125 35.828125 
Q 39.65625 40.375 33.015625 40.375 
z
M 52.59375 71.296875 
L 52.59375 62.3125 
Q 48.875 64.0625 45.09375 64.984375 
Q 41.3125 65.921875 37.59375 65.921875 
Q 27.828125 65.921875 22.671875 59.328125 
Q 17.53125 52.734375 16.796875 39.40625 
Q 19.671875 43.65625 24.015625 45.921875 
Q 28.375 48.1875 33.59375 48.1875 
Q 44.578125 48.1875 50.953125 41.515625 
Q 57.328125 34.859375 57.328125 23.390625 
Q 57.328125 12.15625 50.6875 5.359375 
Q 44.046875 -1.421875 33.015625 -1.421875 
Q 20.359375 -1.421875 13.671875 8.265625 
Q 6.984375 17.96875 6.984375 36.375 
Q 6.984375 53.65625 15.1875 63.9375 
Q 23.390625 74.21875 37.203125 74.21875 
Q 40.921875 74.21875 44.703125 73.484375 
Q 48.484375 72.75 52.59375 71.296875 
z
" id="DejaVuSans-36"/>
      </defs>
      <g style="fill:#262626;" transform="translate(19.71675 16.239375)scale(0.08 -0.08)">
       <use xlink:href="#DejaVuSans-36"/>
      </g>
     </g>
    </g>
    <g id="text_12">
     <!-- log10 downloads -->
     <defs>
      <path d="M 45.40625 27.984375 
Q 45.40625 37.75 41.375 43.109375 
Q 37.359375 48.484375 30.078125 48.484375 
Q 22.859375 48.484375 18.828125 43.109375 
Q 14.796875 37.75 14.796875 27.984375 
Q 14.796875 18.265625 18.828125 12.890625 
Q 22.859375 7.515625 30.078125 7.515625 
Q 37.359375 7.515625 41.375 12.890625 
Q 45.40625 18.265625 45.40625 27.984375 
z
M 54.390625 6.78125 
Q 54.390625 -7.171875 48.1875 -13.984375 
Q 42 -20.796875 29.203125 -20.796875 
Q 24.46875 -20.796875 20.265625 -20.09375 
Q 16.0625 -19.390625 12.109375 -17.921875 
L 12.109375 -9.1875 
Q 16.0625 -11.328125 19.921875 -12.34375 
Q 23.78125 -13.375 27.78125 -13.375 
Q 36.625 -13.375 41.015625 -8.765625 
Q 45.40625 -4.15625 45.40625 5.171875 
L 45.40625 9.625 
Q 42.625 4.78125 38.28125 2.390625 
Q 33.9375 0 27.875 0 
Q 17.828125 0 11.671875 7.65625 
Q 5.515625 15.328125 5.515625 27.984375 
Q 5.515625 40.671875 11.671875 48.328125 
Q 17.828125 56 27.875 56 
Q 33.9375 56 38.28125 53.609375 
Q 42.625 51.21875 45.40625 46.390625 
L 45.40625 54.6875 
L 54.390625 54.6875 
z
" id="DejaVuSans-67"/>
      <path id="DejaVuSans-20"/>
      <path d="M 4.203125 54.6875 
L 13.1875 54.6875 
L 24.421875 12.015625 
L 35.59375 54.6875 
L 46.1875 54.6875 
L 57.421875 12.015625 
L 68.609375 54.6875 
L 77.59375 54.6875 
L 63.28125 0 
L 52.6875 0 
L 40.921875 44.828125 
L 29.109375 0 
L 18.5 0 
z
" id="DejaVuSans-77"/>
      <path d="M 34.28125 27.484375 
Q 23.390625 27.484375 19.1875 25 
Q 14.984375 22.515625 14.984375 16.5 
Q 14.984375 11.71875 18.140625 8.90625 
Q 21.296875 6.109375 26.703125 6.109375 
Q 34.1875 6.109375 38.703125 11.40625 
Q 43.21875 16.703125 43.21875 25.484375 
L 43.21875 27.484375 
z
M 52.203125 31.203125 
L 52.203125 0 
L 43.21875 0 
L 43.21875 8.296875 
Q 40.140625 3.328125 35.546875 0.953125 
Q 30.953125 -1.421875 24.3125 -1.421875 
Q 15.921875 -1.421875 10.953125 3.296875 
Q 6 8.015625 6 15.921875 
Q 6 25.140625 12.171875 29.828125 
Q 18.359375 34.515625 30.609375 34.515625 
L 43.21875 34.515625 
L 43.21875 35.40625 
Q 43.21875 41.609375 39.140625 45 
Q 35.0625 48.390625 27.6875 48.390625 
Q 23 48.390625 18.546875 47.265625 
Q 14.109375 46.140625 10.015625 43.890625 
L 10.015625 52.203125 
Q 14.9375 54.109375 19.578125 55.046875 
Q 24.21875 56 28.609375 56 
Q 40.484375 56 46.34375 49.84375 
Q 52.203125 43.703125 52.203125 31.203125 
z
" id="DejaVuSans-61"/>
      <path d="M 44.28125 53.078125 
L 44.28125 44.578125 
Q 40.484375 46.53125 36.375 47.5 
Q 32.28125 48.484375 27.875 48.484375 
Q 21.1875 48.484375 17.84375 46.4375 
Q 14.5 44.390625 14.5 40.28125 
Q 14.5 37.15625 16.890625 35.375 
Q 19.28125 33.59375 26.515625 31.984375 
L 29.59375 31.296875 
Q 39.15625 29.25 43.1875 25.515625 
Q 47.21875 21.78125 47.21875 15.09375 
Q 47.21875 7.46875 41.1875 3.015625 
Q 35.15625 -1.421875 24.609375 -1.421875 
Q 20.21875 -1.421875 15.453125 -0.5625 
Q 10.6875 0.296875 5.421875 2 
L 5.421875 11.28125 
Q 10.40625 8.6875 15.234375 7.390625 
Q 20.0625 6.109375 24.8125 6.109375 
Q 31.15625 6.109375 34.5625 8.28125 
Q 37.984375 10.453125 37.984375 14.40625 
Q 37.984375 18.0625 35.515625 20.015625 
Q 33.0625 21.96875 24.703125 23.78125 
L 21.578125 24.515625 
Q 13.234375 26.265625 9.515625 29.90625 
Q 5.8125 33.546875 5.8125 39.890625 
Q 5.8125 47.609375 11.28125 51.796875 
Q 16.75 56 26.8125 56 
Q 31.78125 56 36.171875 55.265625 
Q 40.578125 54.546875 44.28125 53.078125 
z
" id="DejaVuSans-73"/>
     </defs>
     <g style="fill:#262626;" transform="translate(13.886625 136.546187)rotate(-90)scale(0.088 -0.088)">
      <use xlink:href="#DejaVuSans-6c"/>
      <use x="27.783203" xlink:href="#DejaVuSans-6f"/>
      <use x="88.964844" xlink:href="#DejaVuSans-67"/>
      <use x="152.441406" xlink:href="#DejaVuSans-31"/>
      <use x="216.064453" xlink:href="#DejaVuSans-30"/>
      <use x="279.6875" xlink:href="#DejaVuSans-20"/>
      <use x="311.474609" xlink:href="#DejaVuSans-64"/>
      <use x="374.951172" xlink:href="#DejaVuSans-6f"/>
      <use x="436.132812" xlink:href="#DejaVuSans-77"/>
      <use x="517.919922" xlink:href="#DejaVuSans-6e"/>
      <use x="581.298828" xlink:href="#DejaVuSans-6c"/>
      <use x="609.082031" xlink:href="#DejaVuSans-6f"/>
      <use x="670.263672" xlink:href="#DejaVuSans-61"/>
      <use x="731.542969" xlink:href="#DejaVuSans-64"/>
      <use x="795.019531" xlink:href="#DejaVuSans-73"/>
     </g>
    </g>
   </g>
   <g id="PolyCollection_1">
    <defs>
     <path d="M 66.999487 -50.339542 
L 64.027513 -50.339542 
L 63.803051 -51.468465 
L 63.523562 -52.597388 
L 63.162588 -53.726311 
L 62.687998 -54.855234 
L 62.064099 -55.984157 
L 61.255149 -57.11308 
L 60.230158 -58.242003 
L 58.968615 -59.370926 
L 57.46644 -60.499849 
L 55.74116 -61.628772 
L 53.835187 -62.757695 
L 51.816136 -63.886618 
L 49.773457 -65.015542 
L 47.811278 -66.144465 
L 46.03809 -67.273388 
L 44.554651 -68.402311 
L 43.44202 -69.531234 
L 42.751781 -70.660157 
L 42.500224 -71.78908 
L 42.66754 -72.918003 
L 43.202124 -74.046926 
L 44.029087 -75.175849 
L 45.061307 -76.304772 
L 46.210979 -77.433695 
L 47.399664 -78.562618 
L 48.565383 -79.691541 
L 49.665974 -80.820464 
L 50.67879 -81.949387 
L 51.597441 -83.07831 
L 52.426734 -84.207233 
L 53.17708 -85.336156 
L 53.859459 -86.465079 
L 54.48176 -87.594002 
L 55.046828 -88.722925 
L 55.552231 -89.851849 
L 55.991403 -90.980772 
L 56.355687 -92.109695 
L 56.63672 -93.238618 
L 56.828683 -94.367541 
L 56.930035 -95.496464 
L 56.944525 -96.625387 
L 56.881386 -97.75431 
L 56.754802 -98.883233 
L 56.582774 -100.012156 
L 56.385614 -101.141079 
L 56.1843 -102.270002 
L 55.998908 -103.398925 
L 55.847298 -104.527848 
L 55.74417 -105.656771 
L 55.700506 -106.785694 
L 55.723388 -107.914617 
L 55.816073 -109.04354 
L 55.97823 -110.172463 
L 56.206237 -111.301386 
L 56.493473 -112.430309 
L 56.83059 -113.559232 
L 57.205826 -114.688155 
L 57.605421 -115.817079 
L 58.014217 -116.946002 
L 58.416487 -118.074925 
L 58.796969 -119.203848 
L 59.142045 -120.332771 
L 59.440895 -121.461694 
L 59.686474 -122.590617 
L 59.876142 -123.71954 
L 60.011816 -124.848463 
L 60.099598 -125.977386 
L 60.148925 -127.106309 
L 60.171363 -128.235232 
L 60.179243 -129.364155 
L 60.184354 -130.493078 
L 60.196878 -131.622001 
L 60.224715 -132.750924 
L 60.273243 -133.879847 
L 60.345453 -135.00877 
L 60.442361 -136.137693 
L 60.563536 -137.266616 
L 60.707586 -138.395539 
L 60.872514 -139.524462 
L 61.05588 -140.653386 
L 61.254806 -141.782309 
L 61.465894 -142.911232 
L 61.685154 -144.040155 
L 61.908033 -145.169078 
L 62.129611 -146.298001 
L 62.344956 -147.426924 
L 62.549624 -148.555847 
L 62.740192 -149.68477 
L 62.914734 -150.813693 
L 63.073131 -151.942616 
L 63.217125 -153.071539 
L 63.350078 -154.200462 
L 63.476465 -155.329385 
L 63.601161 -156.458308 
L 63.728653 -157.587231 
L 63.862315 -158.716154 
L 64.003876 -159.845077 
L 64.153177 -160.974 
L 64.30824 -162.102923 
L 66.71876 -162.102923 
L 66.71876 -162.102923 
L 66.873823 -160.974 
L 67.023124 -159.845077 
L 67.164685 -158.716154 
L 67.298347 -157.587231 
L 67.425839 -156.458308 
L 67.550535 -155.329385 
L 67.676922 -154.200462 
L 67.809875 -153.071539 
L 67.953869 -151.942616 
L 68.112266 -150.813693 
L 68.286808 -149.68477 
L 68.477376 -148.555847 
L 68.682044 -147.426924 
L 68.897389 -146.298001 
L 69.118967 -145.169078 
L 69.341846 -144.040155 
L 69.561106 -142.911232 
L 69.772194 -141.782309 
L 69.97112 -140.653386 
L 70.154486 -139.524462 
L 70.319414 -138.395539 
L 70.463464 -137.266616 
L 70.584639 -136.137693 
L 70.681547 -135.00877 
L 70.753757 -133.879847 
L 70.802285 -132.750924 
L 70.830122 -131.622001 
L 70.842646 -130.493078 
L 70.847757 -129.364155 
L 70.855637 -128.235232 
L 70.878075 -127.106309 
L 70.927402 -125.977386 
L 71.015184 -124.848463 
L 71.150858 -123.71954 
L 71.340526 -122.590617 
L 71.586105 -121.461694 
L 71.884955 -120.332771 
L 72.230031 -119.203848 
L 72.610513 -118.074925 
L 73.012783 -116.946002 
L 73.421579 -115.817079 
L 73.821174 -114.688155 
L 74.19641 -113.559232 
L 74.533527 -112.430309 
L 74.820763 -111.301386 
L 75.04877 -110.172463 
L 75.210927 -109.04354 
L 75.303612 -107.914617 
L 75.326494 -106.785694 
L 75.28283 -105.656771 
L 75.179702 -104.527848 
L 75.028092 -103.398925 
L 74.8427 -102.270002 
L 74.641386 -101.141079 
L 74.444226 -100.012156 
L 74.272198 -98.883233 
L 74.145614 -97.75431 
L 74.082475 -96.625387 
L 74.096965 -95.496464 
L 74.198317 -94.367541 
L 74.39028 -93.238618 
L 74.671313 -92.109695 
L 75.035597 -90.980772 
L 75.474769 -89.851849 
L 75.980172 -88.722925 
L 76.54524 -87.594002 
L 77.167541 -86.465079 
L 77.84992 -85.336156 
L 78.600266 -84.207233 
L 79.429559 -83.07831 
L 80.34821 -81.949387 
L 81.361026 -80.820464 
L 82.461617 -79.691541 
L 83.627336 -78.562618 
L 84.816021 -77.433695 
L 85.965693 -76.304772 
L 86.997913 -75.175849 
L 87.824876 -74.046926 
L 88.35946 -72.918003 
L 88.526776 -71.78908 
L 88.275219 -70.660157 
L 87.58498 -69.531234 
L 86.472349 -68.402311 
L 84.98891 -67.273388 
L 83.215722 -66.144465 
L 81.253543 -65.015542 
L 79.210864 -63.886618 
L 77.191813 -62.757695 
L 75.28584 -61.628772 
L 73.56056 -60.499849 
L 72.058385 -59.370926 
L 70.796842 -58.242003 
L 69.771851 -57.11308 
L 68.962901 -55.984157 
L 68.339002 -54.855234 
L 67.864412 -53.726311 
L 67.503438 -52.597388 
L 67.223949 -51.468465 
L 66.999487 -50.339542 
z
" id="m8c26b10f24" style="stroke:#2f2f2f;stroke-width:1.4;"/>
    </defs>
    <g clip-path="url(#pcefefd7a12)">
     <use style="fill:#166c9c;stroke:#2f2f2f;stroke-width:1.4;" x="0" xlink:href="#m8c26b10f24" y="211.8865"/>
    </g>
   </g>
   <g id="PolyCollection_2">
    <defs>
     <path d="M 123.899051 -33.793643 
L 123.554949 -33.793643 
L 123.515702 -35.258521 
L 123.468127 -36.723398 
L 123.40963 -38.188276 
L 123.337835 -39.653153 
L 123.251361 -41.11803 
L 123.150638 -42.582908 
L 123.038446 -44.047785 
L 122.919771 -45.512663 
L 122.800585 -46.97754 
L 122.685456 -48.442418 
L 122.574405 -49.907295 
L 122.459998 -51.372173 
L 122.325946 -52.83705 
L 122.148303 -54.301927 
L 121.899615 -55.766805 
L 121.555337 -57.231682 
L 121.100877 -58.69656 
L 120.537112 -60.161437 
L 119.88241 -61.626315 
L 119.170076 -63.091192 
L 118.441506 -64.556069 
L 117.736716 -66.020947 
L 117.084883 -67.485824 
L 116.497678 -68.950702 
L 115.967527 -70.415579 
L 115.471551 -71.880457 
L 114.980325 -73.345334 
L 114.469085 -74.810212 
L 113.928003 -76.275089 
L 113.367983 -77.739966 
L 112.819361 -79.204844 
L 112.322869 -80.669721 
L 111.914737 -82.134599 
L 111.610071 -83.599476 
L 111.389673 -85.064354 
L 111.194879 -86.529231 
L 110.933113 -87.994108 
L 110.494366 -89.458986 
L 109.776447 -90.923863 
L 108.714682 -92.388741 
L 107.309769 -93.853618 
L 105.645953 -95.318496 
L 103.891727 -96.783373 
L 102.278161 -98.248251 
L 101.056141 -99.713128 
L 100.4416 -101.178005 
L 100.563972 -102.642883 
L 101.434125 -104.10776 
L 102.942561 -105.572638 
L 104.888457 -107.037515 
L 107.029585 -108.502393 
L 109.13672 -109.96727 
L 111.036366 -111.432147 
L 112.631672 -112.897025 
L 113.899953 -114.361902 
L 114.872711 -115.82678 
L 115.607835 -117.291657 
L 116.163644 -118.756535 
L 116.581596 -120.221412 
L 116.8806 -121.686289 
L 117.062148 -123.151167 
L 117.122602 -124.616044 
L 117.067306 -126.080922 
L 116.920982 -127.545799 
L 116.730297 -129.010677 
L 116.557323 -130.475554 
L 116.466046 -131.940432 
L 116.506797 -133.405309 
L 116.704267 -134.870186 
L 117.053266 -136.335064 
L 117.523204 -137.799941 
L 118.068956 -139.264819 
L 118.643723 -140.729696 
L 119.209518 -142.194574 
L 119.742584 -143.659451 
L 120.23338 -145.124328 
L 120.682677 -146.589206 
L 121.096076 -148.054083 
L 121.479077 -149.518961 
L 121.83399 -150.983838 
L 122.159046 -152.448716 
L 122.449363 -153.913593 
L 122.699033 -155.378471 
L 122.903468 -156.843348 
L 123.061252 -158.308225 
L 123.174985 -159.773103 
L 123.250964 -161.23798 
L 123.297897 -162.702858 
L 123.325134 -164.167735 
L 123.341038 -165.632613 
L 123.351941 -167.09749 
L 123.361927 -168.562367 
L 123.373263 -170.027245 
L 123.387138 -171.492122 
L 123.404291 -172.957 
L 123.42531 -174.421877 
L 123.450567 -175.886755 
L 123.479971 -177.351632 
L 123.512762 -178.81651 
L 123.941238 -178.81651 
L 123.941238 -178.81651 
L 123.974029 -177.351632 
L 124.003433 -175.886755 
L 124.02869 -174.421877 
L 124.049709 -172.957 
L 124.066862 -171.492122 
L 124.080737 -170.027245 
L 124.092073 -168.562367 
L 124.102059 -167.09749 
L 124.112962 -165.632613 
L 124.128866 -164.167735 
L 124.156103 -162.702858 
L 124.203036 -161.23798 
L 124.279015 -159.773103 
L 124.392748 -158.308225 
L 124.550532 -156.843348 
L 124.754967 -155.378471 
L 125.004637 -153.913593 
L 125.294954 -152.448716 
L 125.62001 -150.983838 
L 125.974923 -149.518961 
L 126.357924 -148.054083 
L 126.771323 -146.589206 
L 127.22062 -145.124328 
L 127.711416 -143.659451 
L 128.244482 -142.194574 
L 128.810277 -140.729696 
L 129.385044 -139.264819 
L 129.930796 -137.799941 
L 130.400734 -136.335064 
L 130.749733 -134.870186 
L 130.947203 -133.405309 
L 130.987954 -131.940432 
L 130.896677 -130.475554 
L 130.723703 -129.010677 
L 130.533018 -127.545799 
L 130.386694 -126.080922 
L 130.331398 -124.616044 
L 130.391852 -123.151167 
L 130.5734 -121.686289 
L 130.872404 -120.221412 
L 131.290356 -118.756535 
L 131.846165 -117.291657 
L 132.581289 -115.82678 
L 133.554047 -114.361902 
L 134.822328 -112.897025 
L 136.417634 -111.432147 
L 138.31728 -109.96727 
L 140.424415 -108.502393 
L 142.565543 -107.037515 
L 144.511439 -105.572638 
L 146.019875 -104.10776 
L 146.890028 -102.642883 
L 147.0124 -101.178005 
L 146.397859 -99.713128 
L 145.175839 -98.248251 
L 143.562273 -96.783373 
L 141.808047 -95.318496 
L 140.144231 -93.853618 
L 138.739318 -92.388741 
L 137.677553 -90.923863 
L 136.959634 -89.458986 
L 136.520887 -87.994108 
L 136.259121 -86.529231 
L 136.064327 -85.064354 
L 135.843929 -83.599476 
L 135.539263 -82.134599 
L 135.131131 -80.669721 
L 134.634639 -79.204844 
L 134.086017 -77.739966 
L 133.525997 -76.275089 
L 132.984915 -74.810212 
L 132.473675 -73.345334 
L 131.982449 -71.880457 
L 131.486473 -70.415579 
L 130.956322 -68.950702 
L 130.369117 -67.485824 
L 129.717284 -66.020947 
L 129.012494 -64.556069 
L 128.283924 -63.091192 
L 127.57159 -61.626315 
L 126.916888 -60.161437 
L 126.353123 -58.69656 
L 125.898663 -57.231682 
L 125.554385 -55.766805 
L 125.305697 -54.301927 
L 125.128054 -52.83705 
L 124.994002 -51.372173 
L 124.879595 -49.907295 
L 124.768544 -48.442418 
L 124.653415 -46.97754 
L 124.534229 -45.512663 
L 124.415554 -44.047785 
L 124.303362 -42.582908 
L 124.202639 -41.11803 
L 124.116165 -39.653153 
L 124.04437 -38.188276 
L 123.985873 -36.723398 
L 123.938298 -35.258521 
L 123.899051 -33.793643 
z
" id="m954095e380" style="stroke:#2f2f2f;stroke-width:1.4;"/>
    </defs>
    <g clip-path="url(#pcefefd7a12)">
     <use style="fill:#148a6a;stroke:#2f2f2f;stroke-width:1.4;" x="0" xlink:href="#m954095e380" y="211.8865"/>
    </g>
   </g>
   <g id="PolyCollection_3">
    <defs>
     <path d="M 182.281825 -33.793643 
L 181.599175 -33.793643 
L 181.586243 -35.186363 
L 181.57648 -36.579083 
L 181.564766 -37.971803 
L 181.544747 -39.364524 
L 181.509643 -40.757244 
L 181.453034 -42.149964 
L 181.369439 -43.542684 
L 181.254537 -44.935404 
L 181.105059 -46.328124 
L 180.918436 -47.720844 
L 180.692443 -49.113564 
L 180.425029 -50.506284 
L 180.114525 -51.899004 
L 179.760218 -53.291724 
L 179.363165 -54.684444 
L 178.926906 -56.077164 
L 178.457742 -57.469884 
L 177.964245 -58.862604 
L 177.455928 -60.255324 
L 176.9413 -61.648044 
L 176.425804 -63.040765 
L 175.910316 -64.433485 
L 175.39081 -65.826205 
L 174.859488 -67.218925 
L 174.307198 -68.611645 
L 173.726529 -70.004365 
L 173.114647 -71.397085 
L 172.475022 -72.789805 
L 171.81749 -74.182525 
L 171.156665 -75.575245 
L 170.509235 -76.967965 
L 169.891007 -78.360685 
L 169.314569 -79.753405 
L 168.788158 -81.146125 
L 168.315847 -82.538845 
L 167.898726 -83.931565 
L 167.536467 -85.324285 
L 167.228661 -86.717005 
L 166.975519 -88.109726 
L 166.777849 -89.502446 
L 166.636526 -90.895166 
L 166.55185 -92.287886 
L 166.523194 -93.680606 
L 166.549187 -95.073326 
L 166.628435 -96.466046 
L 166.760561 -97.858766 
L 166.947115 -99.251486 
L 167.191911 -100.644206 
L 167.500422 -102.036926 
L 167.878132 -103.429646 
L 168.328108 -104.822366 
L 168.848327 -106.215086 
L 169.429525 -107.607806 
L 170.054262 -109.000526 
L 170.697668 -110.393246 
L 171.329892 -111.785966 
L 171.919851 -113.178687 
L 172.439521 -114.571407 
L 172.867887 -115.964127 
L 173.193803 -117.356847 
L 173.417298 -118.749567 
L 173.549232 -120.142287 
L 173.609537 -121.535007 
L 173.624414 -122.927727 
L 173.622922 -124.320447 
L 173.633328 -125.713167 
L 173.679544 -127.105887 
L 173.778045 -128.498607 
L 173.93573 -129.891327 
L 174.149219 -131.284047 
L 174.405983 -132.676767 
L 174.687345 -134.069487 
L 174.97288 -135.462207 
L 175.245285 -136.854928 
L 175.494474 -138.247648 
L 175.719814 -139.640368 
L 175.929896 -141.033088 
L 176.139942 -142.425808 
L 176.367661 -143.818528 
L 176.628775 -145.211248 
L 176.933391 -146.603968 
L 177.284062 -147.996688 
L 177.675755 -149.389408 
L 178.097391 -150.782128 
L 178.534278 -152.174848 
L 178.970682 -153.567568 
L 179.391942 -154.960288 
L 179.785874 -156.353008 
L 180.14343 -157.745728 
L 180.458828 -159.138448 
L 180.729355 -160.531168 
L 180.955043 -161.923889 
L 181.138282 -163.316609 
L 181.283385 -164.709329 
L 181.396071 -166.102049 
L 181.482837 -167.494769 
L 181.55028 -168.887489 
L 181.604431 -170.280209 
L 181.650213 -171.672929 
L 182.230787 -171.672929 
L 182.230787 -171.672929 
L 182.276569 -170.280209 
L 182.33072 -168.887489 
L 182.398163 -167.494769 
L 182.484929 -166.102049 
L 182.597615 -164.709329 
L 182.742718 -163.316609 
L 182.925957 -161.923889 
L 183.151645 -160.531168 
L 183.422172 -159.138448 
L 183.73757 -157.745728 
L 184.095126 -156.353008 
L 184.489058 -154.960288 
L 184.910318 -153.567568 
L 185.346722 -152.174848 
L 185.783609 -150.782128 
L 186.205245 -149.389408 
L 186.596938 -147.996688 
L 186.947609 -146.603968 
L 187.252225 -145.211248 
L 187.513339 -143.818528 
L 187.741058 -142.425808 
L 187.951104 -141.033088 
L 188.161186 -139.640368 
L 188.386526 -138.247648 
L 188.635715 -136.854928 
L 188.90812 -135.462207 
L 189.193655 -134.069487 
L 189.475017 -132.676767 
L 189.731781 -131.284047 
L 189.94527 -129.891327 
L 190.102955 -128.498607 
L 190.201456 -127.105887 
L 190.247672 -125.713167 
L 190.258078 -124.320447 
L 190.256586 -122.927727 
L 190.271463 -121.535007 
L 190.331768 -120.142287 
L 190.463702 -118.749567 
L 190.687197 -117.356847 
L 191.013113 -115.964127 
L 191.441479 -114.571407 
L 191.961149 -113.178687 
L 192.551108 -111.785966 
L 193.183332 -110.393246 
L 193.826738 -109.000526 
L 194.451475 -107.607806 
L 195.032673 -106.215086 
L 195.552892 -104.822366 
L 196.002868 -103.429646 
L 196.380578 -102.036926 
L 196.689089 -100.644206 
L 196.933885 -99.251486 
L 197.120439 -97.858766 
L 197.252565 -96.466046 
L 197.331813 -95.073326 
L 197.357806 -93.680606 
L 197.32915 -92.287886 
L 197.244474 -90.895166 
L 197.103151 -89.502446 
L 196.905481 -88.109726 
L 196.652339 -86.717005 
L 196.344533 -85.324285 
L 195.982274 -83.931565 
L 195.565153 -82.538845 
L 195.092842 -81.146125 
L 194.566431 -79.753405 
L 193.989993 -78.360685 
L 193.371765 -76.967965 
L 192.724335 -75.575245 
L 192.06351 -74.182525 
L 191.405978 -72.789805 
L 190.766353 -71.397085 
L 190.154471 -70.004365 
L 189.573802 -68.611645 
L 189.021512 -67.218925 
L 188.49019 -65.826205 
L 187.970684 -64.433485 
L 187.455196 -63.040765 
L 186.9397 -61.648044 
L 186.425072 -60.255324 
L 185.916755 -58.862604 
L 185.423258 -57.469884 
L 184.954094 -56.077164 
L 184.517835 -54.684444 
L 184.120782 -53.291724 
L 183.766475 -51.899004 
L 183.455971 -50.506284 
L 183.188557 -49.113564 
L 182.962564 -47.720844 
L 182.775941 -46.328124 
L 182.626463 -44.935404 
L 182.511561 -43.542684 
L 182.427966 -42.149964 
L 182.371357 -40.757244 
L 182.336253 -39.364524 
L 182.316234 -37.971803 
L 182.30452 -36.579083 
L 182.294757 -35.186363 
L 182.281825 -33.793643 
z
" id="ma86431e775" style="stroke:#2f2f2f;stroke-width:1.4;"/>
    </defs>
    <g clip-path="url(#pcefefd7a12)">
     <use style="fill:#ba611b;stroke:#2f2f2f;stroke-width:1.4;" x="0" xlink:href="#ma86431e775" y="211.8865"/>
    </g>
   </g>
   <g id="PolyCollection_4">
    <defs>
     <path d="M 241.802281 -53.002837 
L 238.505719 -53.002837 
L 238.043072 -54.148577 
L 237.504305 -55.294317 
L 236.895195 -56.440057 
L 236.227552 -57.585797 
L 235.519146 -58.731537 
L 234.792858 -59.877278 
L 234.07504 -61.023018 
L 233.393252 -62.168758 
L 232.773646 -63.314498 
L 232.238377 -64.460238 
L 231.80342 -65.605978 
L 231.477152 -66.751718 
L 231.259877 -67.897458 
L 231.144369 -69.043199 
L 231.11728 -70.188939 
L 231.161139 -71.334679 
L 231.256602 -72.480419 
L 231.38456 -73.626159 
L 231.527819 -74.771899 
L 231.672128 -75.917639 
L 231.80651 -77.063379 
L 231.922931 -78.20912 
L 232.015503 -79.35486 
L 232.079433 -80.5006 
L 232.109982 -81.64634 
L 232.101673 -82.79208 
L 232.047928 -83.93782 
L 231.941236 -85.08356 
L 231.773862 -86.2293 
L 231.539006 -87.375041 
L 231.232247 -88.520781 
L 230.853026 -89.666521 
L 230.405912 -90.812261 
L 229.9014 -91.958001 
L 229.356039 -93.103741 
L 228.791775 -94.249481 
L 228.234533 -95.395222 
L 227.712151 -96.540962 
L 227.251918 -97.686702 
L 226.878026 -98.832442 
L 226.609289 -99.978182 
L 226.457437 -101.123922 
L 226.42621 -102.269662 
L 226.511376 -103.415402 
L 226.701609 -104.561143 
L 226.980073 -105.706883 
L 227.326446 -106.852623 
L 227.719039 -107.998363 
L 228.13674 -109.144103 
L 228.560497 -110.289843 
L 228.974225 -111.435583 
L 229.365069 -112.581323 
L 229.723109 -113.727064 
L 230.040643 -114.872804 
L 230.311245 -116.018544 
L 230.528822 -117.164284 
L 230.686863 -118.310024 
L 230.778061 -119.455764 
L 230.794432 -120.601504 
L 230.727984 -121.747244 
L 230.571928 -122.892985 
L 230.3223 -124.038725 
L 229.979813 -125.184465 
L 229.551616 -126.330205 
L 229.05262 -127.475945 
L 228.506055 -128.621685 
L 227.942969 -129.767425 
L 227.400562 -130.913165 
L 226.919428 -132.058906 
L 226.540007 -133.204646 
L 226.298715 -134.350386 
L 226.224326 -135.496126 
L 226.335147 -136.641866 
L 226.637398 -137.787606 
L 227.124992 -138.933346 
L 227.780663 -140.079087 
L 228.578161 -141.224827 
L 229.485104 -142.370567 
L 230.466025 -143.516307 
L 231.485209 -144.662047 
L 232.509051 -145.807787 
L 233.50778 -146.953527 
L 234.456565 -148.099267 
L 235.336072 -149.245008 
L 236.132585 -150.390748 
L 236.837828 -151.536488 
L 237.448539 -152.682228 
L 237.965885 -153.827968 
L 238.394726 -154.973708 
L 238.742783 -156.119448 
L 239.019737 -157.265188 
L 239.236328 -158.410929 
L 239.403508 -159.556669 
L 239.531722 -160.702409 
L 239.630349 -161.848149 
L 239.707351 -162.993889 
L 239.769106 -164.139629 
L 239.82042 -165.285369 
L 239.864671 -166.431109 
L 240.443329 -166.431109 
L 240.443329 -166.431109 
L 240.48758 -165.285369 
L 240.538894 -164.139629 
L 240.600649 -162.993889 
L 240.677651 -161.848149 
L 240.776278 -160.702409 
L 240.904492 -159.556669 
L 241.071672 -158.410929 
L 241.288263 -157.265188 
L 241.565217 -156.119448 
L 241.913274 -154.973708 
L 242.342115 -153.827968 
L 242.859461 -152.682228 
L 243.470172 -151.536488 
L 244.175415 -150.390748 
L 244.971928 -149.245008 
L 245.851435 -148.099267 
L 246.80022 -146.953527 
L 247.798949 -145.807787 
L 248.822791 -144.662047 
L 249.841975 -143.516307 
L 250.822896 -142.370567 
L 251.729839 -141.224827 
L 252.527337 -140.079087 
L 253.183008 -138.933346 
L 253.670602 -137.787606 
L 253.972853 -136.641866 
L 254.083674 -135.496126 
L 254.009285 -134.350386 
L 253.767993 -133.204646 
L 253.388572 -132.058906 
L 252.907438 -130.913165 
L 252.365031 -129.767425 
L 251.801945 -128.621685 
L 251.25538 -127.475945 
L 250.756384 -126.330205 
L 250.328187 -125.184465 
L 249.9857 -124.038725 
L 249.736072 -122.892985 
L 249.580016 -121.747244 
L 249.513568 -120.601504 
L 249.529939 -119.455764 
L 249.621137 -118.310024 
L 249.779178 -117.164284 
L 249.996755 -116.018544 
L 250.267357 -114.872804 
L 250.584891 -113.727064 
L 250.942931 -112.581323 
L 251.333775 -111.435583 
L 251.747503 -110.289843 
L 252.17126 -109.144103 
L 252.588961 -107.998363 
L 252.981554 -106.852623 
L 253.327927 -105.706883 
L 253.606391 -104.561143 
L 253.796624 -103.415402 
L 253.88179 -102.269662 
L 253.850563 -101.123922 
L 253.698711 -99.978182 
L 253.429974 -98.832442 
L 253.056082 -97.686702 
L 252.595849 -96.540962 
L 252.073467 -95.395222 
L 251.516225 -94.249481 
L 250.951961 -93.103741 
L 250.4066 -91.958001 
L 249.902088 -90.812261 
L 249.454974 -89.666521 
L 249.075753 -88.520781 
L 248.768994 -87.375041 
L 248.534138 -86.2293 
L 248.366764 -85.08356 
L 248.260072 -83.93782 
L 248.206327 -82.79208 
L 248.198018 -81.64634 
L 248.228567 -80.5006 
L 248.292497 -79.35486 
L 248.385069 -78.20912 
L 248.50149 -77.063379 
L 248.635872 -75.917639 
L 248.780181 -74.771899 
L 248.92344 -73.626159 
L 249.051398 -72.480419 
L 249.146861 -71.334679 
L 249.19072 -70.188939 
L 249.163631 -69.043199 
L 249.048123 -67.897458 
L 248.830848 -66.751718 
L 248.50458 -65.605978 
L 248.069623 -64.460238 
L 247.534354 -63.314498 
L 246.914748 -62.168758 
L 246.23296 -61.023018 
L 245.515142 -59.877278 
L 244.788854 -58.731537 
L 244.080448 -57.585797 
L 243.412805 -56.440057 
L 242.803695 -55.294317 
L 242.264928 -54.148577 
L 241.802281 -53.002837 
z
" id="mcb5f1e183f" style="stroke:#2f2f2f;stroke-width:1.4;"/>
    </defs>
    <g clip-path="url(#pcefefd7a12)">
     <use style="fill:#c283a6;stroke:#2f2f2f;stroke-width:1.4;" x="0" xlink:href="#mcb5f1e183f" y="211.8865"/>
    </g>
   </g>
   <g id="line2d_12">
    <path clip-path="url(#pcefefd7a12)" d="M 65.5135 161.546958 
L 65.5135 49.783577 
" style="fill:none;stroke:#2f2f2f;stroke-linecap:round;stroke-width:1.4;"/>
   </g>
   <g id="line2d_13">
    <path clip-path="url(#pcefefd7a12)" d="M 65.5135 141.200205 
L 65.5135 100.623845 
" style="fill:none;stroke:#2f2f2f;stroke-linecap:round;stroke-width:4.2;"/>
   </g>
   <g id="line2d_14">
    <path clip-path="url(#pcefefd7a12)" d="M 123.727 169.819907 
L 123.727 57.370682 
" style="fill:none;stroke:#2f2f2f;stroke-linecap:round;stroke-width:1.4;"/>
   </g>
   <g id="line2d_15">
    <path clip-path="url(#pcefefd7a12)" d="M 123.727 127.731585 
L 123.727 99.111883 
" style="fill:none;stroke:#2f2f2f;stroke-linecap:round;stroke-width:4.2;"/>
   </g>
   <g id="line2d_16">
    <path clip-path="url(#pcefefd7a12)" d="M 181.9405 178.092857 
L 181.9405 40.213571 
" style="fill:none;stroke:#2f2f2f;stroke-linecap:round;stroke-width:1.4;"/>
   </g>
   <g id="line2d_17">
    <path clip-path="url(#pcefefd7a12)" d="M 181.9405 128.834092 
L 181.9405 91.67989 
" style="fill:none;stroke:#2f2f2f;stroke-linecap:round;stroke-width:4.2;"/>
   </g>
   <g id="line2d_18">
    <path clip-path="url(#pcefefd7a12)" d="M 240.154 158.883663 
L 240.154 45.455391 
" style="fill:none;stroke:#2f2f2f;stroke-linecap:round;stroke-width:1.4;"/>
   </g>
   <g id="line2d_19">
    <path clip-path="url(#pcefefd7a12)" d="M 240.154 125.608363 
L 240.154 77.737947 
" style="fill:none;stroke:#2f2f2f;stroke-linecap:round;stroke-width:4.2;"/>
   </g>
   <g id="patch_3">
    <path d="M 36.40675 185.344 
L 36.40675 13.2 
" style="fill:none;stroke:#262626;stroke-linecap:square;stroke-linejoin:miter;stroke-width:1.25;"/>
   </g>
   <g id="patch_4">
    <path d="M 36.40675 185.344 
L 269.26075 185.344 
" style="fill:none;stroke:#262626;stroke-linecap:square;stroke-linejoin:miter;stroke-width:1.25;"/>
   </g>
   <g id="PathCollection_1">
    <defs>
     <path d="M 0 1.4 
C 0.371284 1.4 0.727412 1.252487 0.989949 0.989949 
C 1.252487 0.727412 1.4 0.371284 1.4 0 
C 1.4 -0.371284 1.252487 -0.727412 0.989949 -0.989949 
C 0.727412 -1.252487 0.371284 -1.4 0 -1.4 
C -0.371284 -1.4 -0.727412 -1.252487 -0.989949 -0.989949 
C -1.252487 -0.727412 -1.4 -0.371284 -1.4 0 
C -1.4 0.371284 -1.252487 0.727412 -0.989949 0.989949 
C -0.727412 1.252487 -0.371284 1.4 0 1.4 
z
" id="m685569e2c7" style="stroke:#2f2f2f;stroke-width:0.24;"/>
    </defs>
    <g clip-path="url(#pcefefd7a12)">
     <use style="fill:#ffffff;stroke:#2f2f2f;stroke-width:0.24;" x="65.5135" xlink:href="#m685569e2c7" y="127.21631"/>
    </g>
   </g>
   <g id="PathCollection_2">
    <g clip-path="url(#pcefefd7a12)">
     <use style="fill:#ffffff;stroke:#2f2f2f;stroke-width:0.24;" x="123.727" xlink:href="#m685569e2c7" y="110.79716"/>
    </g>
   </g>
   <g id="PathCollection_3">
    <g clip-path="url(#pcefefd7a12)">
     <use style="fill:#ffffff;stroke:#2f2f2f;stroke-width:0.24;" x="181.9405" xlink:href="#m685569e2c7" y="113.529706"/>
    </g>
   </g>
   <g id="PathCollection_4">
    <g clip-path="url(#pcefefd7a12)">
     <use style="fill:#ffffff;stroke:#2f2f2f;stroke-width:0.24;" x="240.154" xlink:href="#m685569e2c7" y="106.390363"/>
    </g>
   </g>
   <g id="text_13">
    <!-- Total downloads: 6,310,189 -->
    <defs>
     <path d="M -0.296875 72.90625 
L 61.375 72.90625 
L 61.375 64.59375 
L 35.5 64.59375 
L 35.5 0 
L 25.59375 0 
L 25.59375 64.59375 
L -0.296875 64.59375 
z
" id="DejaVuSans-54"/>
     <path d="M 11.71875 12.40625 
L 22.015625 12.40625 
L 22.015625 0 
L 11.71875 0 
z
M 11.71875 51.703125 
L 22.015625 51.703125 
L 22.015625 39.3125 
L 11.71875 39.3125 
z
" id="DejaVuSans-3a"/>
     <path d="M 11.71875 12.40625 
L 22.015625 12.40625 
L 22.015625 4 
L 14.015625 -11.625 
L 7.71875 -11.625 
L 11.71875 4 
z
" id="DejaVuSans-2c"/>
     <path d="M 31.78125 34.625 
Q 24.75 34.625 20.71875 30.859375 
Q 16.703125 27.09375 16.703125 20.515625 
Q 16.703125 13.921875 20.71875 10.15625 
Q 24.75 6.390625 31.78125 6.390625 
Q 38.8125 6.390625 42.859375 10.171875 
Q 46.921875 13.96875 46.921875 20.515625 
Q 46.921875 27.09375 42.890625 30.859375 
Q 38.875 34.625 31.78125 34.625 
z
M 21.921875 38.8125 
Q 15.578125 40.375 12.03125 44.71875 
Q 8.5 49.078125 8.5 55.328125 
Q 8.5 64.0625 14.71875 69.140625 
Q 20.953125 74.21875 31.78125 74.21875 
Q 42.671875 74.21875 48.875 69.140625 
Q 55.078125 64.0625 55.078125 55.328125 
Q 55.078125 49.078125 51.53125 44.71875 
Q 48 40.375 41.703125 38.8125 
Q 48.828125 37.15625 52.796875 32.3125 
Q 56.78125 27.484375 56.78125 20.515625 
Q 56.78125 9.90625 50.3125 4.234375 
Q 43.84375 -1.421875 31.78125 -1.421875 
Q 19.734375 -1.421875 13.25 4.234375 
Q 6.78125 9.90625 6.78125 20.515625 
Q 6.78125 27.484375 10.78125 32.3125 
Q 14.796875 37.15625 21.921875 38.8125 
z
M 18.3125 54.390625 
Q 18.3125 48.734375 21.84375 45.5625 
Q 25.390625 42.390625 31.78125 42.390625 
Q 38.140625 42.390625 41.71875 45.5625 
Q 45.3125 48.734375 45.3125 54.390625 
Q 45.3125 60.0625 41.71875 63.234375 
Q 38.140625 66.40625 31.78125 66.40625 
Q 25.390625 66.40625 21.84375 63.234375 
Q 18.3125 60.0625 18.3125 54.390625 
z
" id="DejaVuSans-38"/>
     <path d="M 10.984375 1.515625 
L 10.984375 10.5 
Q 14.703125 8.734375 18.5 7.8125 
Q 22.3125 6.890625 25.984375 6.890625 
Q 35.75 6.890625 40.890625 13.453125 
Q 46.046875 20.015625 46.78125 33.40625 
Q 43.953125 29.203125 39.59375 26.953125 
Q 35.25 24.703125 29.984375 24.703125 
Q 19.046875 24.703125 12.671875 31.3125 
Q 6.296875 37.9375 6.296875 49.421875 
Q 6.296875 60.640625 12.9375 67.421875 
Q 19.578125 74.21875 30.609375 74.21875 
Q 43.265625 74.21875 49.921875 64.515625 
Q 56.59375 54.828125 56.59375 36.375 
Q 56.59375 19.140625 48.40625 8.859375 
Q 40.234375 -1.421875 26.421875 -1.421875 
Q 22.703125 -1.421875 18.890625 -0.6875 
Q 15.09375 0.046875 10.984375 1.515625 
z
M 30.609375 32.421875 
Q 37.25 32.421875 41.125 36.953125 
Q 45.015625 41.5 45.015625 49.421875 
Q 45.015625 57.28125 41.125 61.84375 
Q 37.25 66.40625 30.609375 66.40625 
Q 23.96875 66.40625 20.09375 61.84375 
Q 16.21875 57.28125 16.21875 49.421875 
Q 16.21875 41.5 20.09375 36.953125 
Q 23.96875 32.421875 30.609375 32.421875 
z
" id="DejaVuSans-39"/>
    </defs>
    <g style="fill:#262626;" transform="translate(86.0125 20.4945)scale(0.096 -0.096)">
     <use xlink:href="#DejaVuSans-54"/>
     <use x="60.818359" xlink:href="#DejaVuSans-6f"/>
     <use x="122" xlink:href="#DejaVuSans-74"/>
     <use x="161.208984" xlink:href="#DejaVuSans-61"/>
     <use x="222.488281" xlink:href="#DejaVuSans-6c"/>
     <use x="250.271484" xlink:href="#DejaVuSans-20"/>
     <use x="282.058594" xlink:href="#DejaVuSans-64"/>
     <use x="345.535156" xlink:href="#DejaVuSans-6f"/>
     <use x="406.716797" xlink:href="#DejaVuSans-77"/>
     <use x="488.503906" xlink:href="#DejaVuSans-6e"/>
     <use x="551.882812" xlink:href="#DejaVuSans-6c"/>
     <use x="579.666016" xlink:href="#DejaVuSans-6f"/>
     <use x="640.847656" xlink:href="#DejaVuSans-61"/>
     <use x="702.126953" xlink:href="#DejaVuSans-64"/>
     <use x="765.603516" xlink:href="#DejaVuSans-73"/>
     <use x="817.703125" xlink:href="#DejaVuSans-3a"/>
     <use x="851.394531" xlink:href="#DejaVuSans-20"/>
     <use x="883.181641" xlink:href="#DejaVuSans-36"/>
     <use x="946.804688" xlink:href="#DejaVuSans-2c"/>
     <use x="978.591797" xlink:href="#DejaVuSans-33"/>
     <use x="1042.214844" xlink:href="#DejaVuSans-31"/>
     <use x="1105.837891" xlink:href="#DejaVuSans-30"/>
     <use x="1169.460938" xlink:href="#DejaVuSans-2c"/>
     <use x="1201.248047" xlink:href="#DejaVuSans-31"/>
     <use x="1264.871094" xlink:href="#DejaVuSans-38"/>
     <use x="1328.494141" xlink:href="#DejaVuSans-39"/>
    </g>
   </g>
  </g>
 </g>
 <defs>
  <clipPath id="pcefefd7a12">
   <rect height="172.144" width="232.854" x="36.40675" y="13.2"/>
  </clipPath>
 </defs>
</svg>
