<?xml version="1.0" encoding="utf-8" standalone="no"?>
<!DOCTYPE svg PUBLIC "-//W3C//DTD SVG 1.1//EN"
  "http://www.w3.org/Graphics/SVG/1.1/DTD/svg11.dtd">
<!-- Created with matplotlib (http://matplotlib.org/) -->
<svg height="211pt" version="1.1" viewBox="0 0 281 211" width="281pt" xmlns="http://www.w3.org/2000/svg" xmlns:xlink="http://www.w3.org/1999/xlink">
 <defs>
  <style type="text/css">
*{stroke-linecap:butt;stroke-linejoin:round;}
  </style>
 </defs>
 <g id="figure_1">
  <g id="patch_1">
   <path d="M 0 211.4545 
L 281.598988 211.4545 
L 281.598988 0 
L 0 0 
z
" style="fill:#ffffff;"/>
  </g>
  <g id="axes_1">
   <g id="patch_2">
    <path d="M 45.39675 184.912 
L 268.398988 184.912 
L 268.398988 13.2 
L 45.39675 13.2 
z
" style="fill:#ffffff;"/>
   </g>
   <g id="matplotlib.axis_1">
    <g id="xtick_1">
     <g id="line2d_1">
      <defs>
       <path d="M 0 0 
L 0 6 
" id="m88b9fc2612" style="stroke:#262626;stroke-width:0.8;"/>
      </defs>
      <g>
       <use style="fill:#262626;stroke:#262626;stroke-width:0.8;" x="73.27203" xlink:href="#m88b9fc2612" y="184.912"/>
      </g>
     </g>
     <g id="text_1">
      <!-- Bioconductor/R -->
      <defs>
       <path d="M 19.671875 34.8125 
L 19.671875 8.109375 
L 35.5 8.109375 
Q 43.453125 8.109375 47.28125 11.40625 
Q 51.125 14.703125 51.125 21.484375 
Q 51.125 28.328125 47.28125 31.5625 
Q 43.453125 34.8125 35.5 34.8125 
z
M 19.671875 64.796875 
L 19.671875 42.828125 
L 34.28125 42.828125 
Q 41.5 42.828125 45.03125 45.53125 
Q 48.578125 48.25 48.578125 53.8125 
Q 48.578125 59.328125 45.03125 62.0625 
Q 41.5 64.796875 34.28125 64.796875 
z
M 9.8125 72.90625 
L 35.015625 72.90625 
Q 46.296875 72.90625 52.390625 68.21875 
Q 58.5 63.53125 58.5 54.890625 
Q 58.5 48.1875 55.375 44.234375 
Q 52.25 40.28125 46.1875 39.3125 
Q 53.46875 37.75 57.5 32.78125 
Q 61.53125 27.828125 61.53125 20.40625 
Q 61.53125 10.640625 54.890625 5.3125 
Q 48.25 0 35.984375 0 
L 9.8125 0 
z
" id="DejaVuSans-42"/>
       <path d="M 9.421875 54.6875 
L 18.40625 54.6875 
L 18.40625 0 
L 9.421875 0 
z
M 9.421875 75.984375 
L 18.40625 75.984375 
L 18.40625 64.59375 
L 9.421875 64.59375 
z
" id="DejaVuSans-69"/>
       <path d="M 30.609375 48.390625 
Q 23.390625 48.390625 19.1875 42.75 
Q 14.984375 37.109375 14.984375 27.296875 
Q 14.984375 17.484375 19.15625 11.84375 
Q 23.34375 6.203125 30.609375 6.203125 
Q 37.796875 6.203125 41.984375 11.859375 
Q 46.1875 17.53125 46.1875 27.296875 
Q 46.1875 37.015625 41.984375 42.703125 
Q 37.796875 48.390625 30.609375 48.390625 
z
M 30.609375 56 
Q 42.328125 56 49.015625 48.375 
Q 55.71875 40.765625 55.71875 27.296875 
Q 55.71875 13.875 49.015625 6.21875 
Q 42.328125 -1.421875 30.609375 -1.421875 
Q 18.84375 -1.421875 12.171875 6.21875 
Q 5.515625 13.875 5.515625 27.296875 
Q 5.515625 40.765625 12.171875 48.375 
Q 18.84375 56 30.609375 56 
z
" id="DejaVuSans-6f"/>
       <path d="M 48.78125 52.59375 
L 48.78125 44.1875 
Q 44.96875 46.296875 41.140625 47.34375 
Q 37.3125 48.390625 33.40625 48.390625 
Q 24.65625 48.390625 19.8125 42.84375 
Q 14.984375 37.3125 14.984375 27.296875 
Q 14.984375 17.28125 19.8125 11.734375 
Q 24.65625 6.203125 33.40625 6.203125 
Q 37.3125 6.203125 41.140625 7.25 
Q 44.96875 8.296875 48.78125 10.40625 
L 48.78125 2.09375 
Q 45.015625 0.34375 40.984375 -0.53125 
Q 36.96875 -1.421875 32.421875 -1.421875 
Q 20.0625 -1.421875 12.78125 6.34375 
Q 5.515625 14.109375 5.515625 27.296875 
Q 5.515625 40.671875 12.859375 48.328125 
Q 20.21875 56 33.015625 56 
Q 37.15625 56 41.109375 55.140625 
Q 45.0625 54.296875 48.78125 52.59375 
z
" id="DejaVuSans-63"/>
       <path d="M 54.890625 33.015625 
L 54.890625 0 
L 45.90625 0 
L 45.90625 32.71875 
Q 45.90625 40.484375 42.875 44.328125 
Q 39.84375 48.1875 33.796875 48.1875 
Q 26.515625 48.1875 22.3125 43.546875 
Q 18.109375 38.921875 18.109375 30.90625 
L 18.109375 0 
L 9.078125 0 
L 9.078125 54.6875 
L 18.109375 54.6875 
L 18.109375 46.1875 
Q 21.34375 51.125 25.703125 53.5625 
Q 30.078125 56 35.796875 56 
Q 45.21875 56 50.046875 50.171875 
Q 54.890625 44.34375 54.890625 33.015625 
z
" id="DejaVuSans-6e"/>
       <path d="M 45.40625 46.390625 
L 45.40625 75.984375 
L 54.390625 75.984375 
L 54.390625 0 
L 45.40625 0 
L 45.40625 8.203125 
Q 42.578125 3.328125 38.25 0.953125 
Q 33.9375 -1.421875 27.875 -1.421875 
Q 17.96875 -1.421875 11.734375 6.484375 
Q 5.515625 14.40625 5.515625 27.296875 
Q 5.515625 40.1875 11.734375 48.09375 
Q 17.96875 56 27.875 56 
Q 33.9375 56 38.25 53.625 
Q 42.578125 51.265625 45.40625 46.390625 
z
M 14.796875 27.296875 
Q 14.796875 17.390625 18.875 11.75 
Q 22.953125 6.109375 30.078125 6.109375 
Q 37.203125 6.109375 41.296875 11.75 
Q 45.40625 17.390625 45.40625 27.296875 
Q 45.40625 37.203125 41.296875 42.84375 
Q 37.203125 48.484375 30.078125 48.484375 
Q 22.953125 48.484375 18.875 42.84375 
Q 14.796875 37.203125 14.796875 27.296875 
z
" id="DejaVuSans-64"/>
       <path d="M 8.5 21.578125 
L 8.5 54.6875 
L 17.484375 54.6875 
L 17.484375 21.921875 
Q 17.484375 14.15625 20.5 10.265625 
Q 23.53125 6.390625 29.59375 6.390625 
Q 36.859375 6.390625 41.078125 11.03125 
Q 45.3125 15.671875 45.3125 23.6875 
L 45.3125 54.6875 
L 54.296875 54.6875 
L 54.296875 0 
L 45.3125 0 
L 45.3125 8.40625 
Q 42.046875 3.421875 37.71875 1 
Q 33.40625 -1.421875 27.6875 -1.421875 
Q 18.265625 -1.421875 13.375 4.4375 
Q 8.5 10.296875 8.5 21.578125 
z
M 31.109375 56 
z
" id="DejaVuSans-75"/>
       <path d="M 18.3125 70.21875 
L 18.3125 54.6875 
L 36.8125 54.6875 
L 36.8125 47.703125 
L 18.3125 47.703125 
L 18.3125 18.015625 
Q 18.3125 11.328125 20.140625 9.421875 
Q 21.96875 7.515625 27.59375 7.515625 
L 36.8125 7.515625 
L 36.8125 0 
L 27.59375 0 
Q 17.1875 0 13.234375 3.875 
Q 9.28125 7.765625 9.28125 18.015625 
L 9.28125 47.703125 
L 2.6875 47.703125 
L 2.6875 54.6875 
L 9.28125 54.6875 
L 9.28125 70.21875 
z
" id="DejaVuSans-74"/>
       <path d="M 41.109375 46.296875 
Q 39.59375 47.171875 37.8125 47.578125 
Q 36.03125 48 33.890625 48 
Q 26.265625 48 22.1875 43.046875 
Q 18.109375 38.09375 18.109375 28.8125 
L 18.109375 0 
L 9.078125 0 
L 9.078125 54.6875 
L 18.109375 54.6875 
L 18.109375 46.1875 
Q 20.953125 51.171875 25.484375 53.578125 
Q 30.03125 56 36.53125 56 
Q 37.453125 56 38.578125 55.875 
Q 39.703125 55.765625 41.0625 55.515625 
z
" id="DejaVuSans-72"/>
       <path d="M 25.390625 72.90625 
L 33.6875 72.90625 
L 8.296875 -9.28125 
L 0 -9.28125 
z
" id="DejaVuSans-2f"/>
       <path d="M 44.390625 34.1875 
Q 47.5625 33.109375 50.5625 29.59375 
Q 53.5625 26.078125 56.59375 19.921875 
L 66.609375 0 
L 56 0 
L 46.6875 18.703125 
Q 43.0625 26.03125 39.671875 28.421875 
Q 36.28125 30.8125 30.421875 30.8125 
L 19.671875 30.8125 
L 19.671875 0 
L 9.8125 0 
L 9.8125 72.90625 
L 32.078125 72.90625 
Q 44.578125 72.90625 50.734375 67.671875 
Q 56.890625 62.453125 56.890625 51.90625 
Q 56.890625 45.015625 53.6875 40.46875 
Q 50.484375 35.9375 44.390625 34.1875 
z
M 19.671875 64.796875 
L 19.671875 38.921875 
L 32.078125 38.921875 
Q 39.203125 38.921875 42.84375 42.21875 
Q 46.484375 45.515625 46.484375 51.90625 
Q 46.484375 58.296875 42.84375 61.546875 
Q 39.203125 64.796875 32.078125 64.796875 
z
" id="DejaVuSans-52"/>
      </defs>
      <g style="fill:#262626;" transform="translate(42.726405 202.59075)scale(0.08 -0.08)">
       <use xlink:href="#DejaVuSans-42"/>
       <use x="68.603516" xlink:href="#DejaVuSans-69"/>
       <use x="96.386719" xlink:href="#DejaVuSans-6f"/>
       <use x="157.568359" xlink:href="#DejaVuSans-63"/>
       <use x="212.548828" xlink:href="#DejaVuSans-6f"/>
       <use x="273.730469" xlink:href="#DejaVuSans-6e"/>
       <use x="337.109375" xlink:href="#DejaVuSans-64"/>
       <use x="400.585938" xlink:href="#DejaVuSans-75"/>
       <use x="463.964844" xlink:href="#DejaVuSans-63"/>
       <use x="518.945312" xlink:href="#DejaVuSans-74"/>
       <use x="558.154297" xlink:href="#DejaVuSans-6f"/>
       <use x="619.335938" xlink:href="#DejaVuSans-72"/>
       <use x="660.449219" xlink:href="#DejaVuSans-2f"/>
       <use x="694.140625" xlink:href="#DejaVuSans-52"/>
      </g>
     </g>
    </g>
    <g id="xtick_2">
     <g id="line2d_2">
      <g>
       <use style="fill:#262626;stroke:#262626;stroke-width:0.8;" x="129.022589" xlink:href="#m88b9fc2612" y="184.912"/>
      </g>
     </g>
     <g id="text_2">
      <!-- Other -->
      <defs>
       <path d="M 39.40625 66.21875 
Q 28.65625 66.21875 22.328125 58.203125 
Q 16.015625 50.203125 16.015625 36.375 
Q 16.015625 22.609375 22.328125 14.59375 
Q 28.65625 6.59375 39.40625 6.59375 
Q 50.140625 6.59375 56.421875 14.59375 
Q 62.703125 22.609375 62.703125 36.375 
Q 62.703125 50.203125 56.421875 58.203125 
Q 50.140625 66.21875 39.40625 66.21875 
z
M 39.40625 74.21875 
Q 54.734375 74.21875 63.90625 63.9375 
Q 73.09375 53.65625 73.09375 36.375 
Q 73.09375 19.140625 63.90625 8.859375 
Q 54.734375 -1.421875 39.40625 -1.421875 
Q 24.03125 -1.421875 14.8125 8.828125 
Q 5.609375 19.09375 5.609375 36.375 
Q 5.609375 53.65625 14.8125 63.9375 
Q 24.03125 74.21875 39.40625 74.21875 
z
" id="DejaVuSans-4f"/>
       <path d="M 54.890625 33.015625 
L 54.890625 0 
L 45.90625 0 
L 45.90625 32.71875 
Q 45.90625 40.484375 42.875 44.328125 
Q 39.84375 48.1875 33.796875 48.1875 
Q 26.515625 48.1875 22.3125 43.546875 
Q 18.109375 38.921875 18.109375 30.90625 
L 18.109375 0 
L 9.078125 0 
L 9.078125 75.984375 
L 18.109375 75.984375 
L 18.109375 46.1875 
Q 21.34375 51.125 25.703125 53.5625 
Q 30.078125 56 35.796875 56 
Q 45.21875 56 50.046875 50.171875 
Q 54.890625 44.34375 54.890625 33.015625 
z
" id="DejaVuSans-68"/>
       <path d="M 56.203125 29.59375 
L 56.203125 25.203125 
L 14.890625 25.203125 
Q 15.484375 15.921875 20.484375 11.0625 
Q 25.484375 6.203125 34.421875 6.203125 
Q 39.59375 6.203125 44.453125 7.46875 
Q 49.3125 8.734375 54.109375 11.28125 
L 54.109375 2.78125 
Q 49.265625 0.734375 44.1875 -0.34375 
Q 39.109375 -1.421875 33.890625 -1.421875 
Q 20.796875 -1.421875 13.15625 6.1875 
Q 5.515625 13.8125 5.515625 26.8125 
Q 5.515625 40.234375 12.765625 48.109375 
Q 20.015625 56 32.328125 56 
Q 43.359375 56 49.78125 48.890625 
Q 56.203125 41.796875 56.203125 29.59375 
z
M 47.21875 32.234375 
Q 47.125 39.59375 43.09375 43.984375 
Q 39.0625 48.390625 32.421875 48.390625 
Q 24.90625 48.390625 20.390625 44.140625 
Q 15.875 39.890625 15.1875 32.171875 
z
" id="DejaVuSans-65"/>
      </defs>
      <g style="fill:#262626;" transform="translate(117.665089 202.59075)scale(0.08 -0.08)">
       <use xlink:href="#DejaVuSans-4f"/>
       <use x="78.710938" xlink:href="#DejaVuSans-74"/>
       <use x="117.919922" xlink:href="#DejaVuSans-68"/>
       <use x="181.298828" xlink:href="#DejaVuSans-65"/>
       <use x="242.822266" xlink:href="#DejaVuSans-72"/>
      </g>
     </g>
    </g>
    <g id="xtick_3">
     <g id="line2d_3">
      <g>
       <use style="fill:#262626;stroke:#262626;stroke-width:0.8;" x="184.773149" xlink:href="#m88b9fc2612" y="184.912"/>
      </g>
     </g>
     <g id="text_3">
      <!-- Python -->
      <defs>
       <path d="M 19.671875 64.796875 
L 19.671875 37.40625 
L 32.078125 37.40625 
Q 38.96875 37.40625 42.71875 40.96875 
Q 46.484375 44.53125 46.484375 51.125 
Q 46.484375 57.671875 42.71875 61.234375 
Q 38.96875 64.796875 32.078125 64.796875 
z
M 9.8125 72.90625 
L 32.078125 72.90625 
Q 44.34375 72.90625 50.609375 67.359375 
Q 56.890625 61.8125 56.890625 51.125 
Q 56.890625 40.328125 50.609375 34.8125 
Q 44.34375 29.296875 32.078125 29.296875 
L 19.671875 29.296875 
L 19.671875 0 
L 9.8125 0 
z
" id="DejaVuSans-50"/>
       <path d="M 32.171875 -5.078125 
Q 28.375 -14.84375 24.75 -17.8125 
Q 21.140625 -20.796875 15.09375 -20.796875 
L 7.90625 -20.796875 
L 7.90625 -13.28125 
L 13.1875 -13.28125 
Q 16.890625 -13.28125 18.9375 -11.515625 
Q 21 -9.765625 23.484375 -3.21875 
L 25.09375 0.875 
L 2.984375 54.6875 
L 12.5 54.6875 
L 29.59375 11.921875 
L 46.6875 54.6875 
L 56.203125 54.6875 
z
" id="DejaVuSans-79"/>
      </defs>
      <g style="fill:#262626;" transform="translate(170.908149 202.59075)scale(0.08 -0.08)">
       <use xlink:href="#DejaVuSans-50"/>
       <use x="60.302734" xlink:href="#DejaVuSans-79"/>
       <use x="119.482422" xlink:href="#DejaVuSans-74"/>
       <use x="158.691406" xlink:href="#DejaVuSans-68"/>
       <use x="222.070312" xlink:href="#DejaVuSans-6f"/>
       <use x="283.251953" xlink:href="#DejaVuSans-6e"/>
      </g>
     </g>
    </g>
    <g id="xtick_4">
     <g id="line2d_4">
      <g>
       <use style="fill:#262626;stroke:#262626;stroke-width:0.8;" x="240.523708" xlink:href="#m88b9fc2612" y="184.912"/>
      </g>
     </g>
     <g id="text_4">
      <!-- Perl -->
      <defs>
       <path d="M 9.421875 75.984375 
L 18.40625 75.984375 
L 18.40625 0 
L 9.421875 0 
z
" id="DejaVuSans-6c"/>
      </defs>
      <g style="fill:#262626;" transform="translate(232.896833 202.59075)scale(0.08 -0.08)">
       <use xlink:href="#DejaVuSans-50"/>
       <use x="60.255859" xlink:href="#DejaVuSans-65"/>
       <use x="121.779297" xlink:href="#DejaVuSans-72"/>
       <use x="162.892578" xlink:href="#DejaVuSans-6c"/>
      </g>
     </g>
    </g>
   </g>
   <g id="matplotlib.axis_2">
    <g id="ytick_1">
     <g id="line2d_5">
      <defs>
       <path d="M 0 0 
L -6 0 
" id="m6d9103602d" style="stroke:#262626;stroke-width:0.8;"/>
      </defs>
      <g>
       <use style="fill:#262626;stroke:#262626;stroke-width:0.8;" x="45.39675" xlink:href="#m6d9103602d" y="177.679054"/>
      </g>
     </g>
     <g id="text_5">
      <!-- $10^{0}$ -->
      <defs>
       <path d="M 12.40625 8.296875 
L 28.515625 8.296875 
L 28.515625 63.921875 
L 10.984375 60.40625 
L 10.984375 69.390625 
L 28.421875 72.90625 
L 38.28125 72.90625 
L 38.28125 8.296875 
L 54.390625 8.296875 
L 54.390625 0 
L 12.40625 0 
z
" id="DejaVuSans-31"/>
       <path d="M 31.78125 66.40625 
Q 24.171875 66.40625 20.328125 58.90625 
Q 16.5 51.421875 16.5 36.375 
Q 16.5 21.390625 20.328125 13.890625 
Q 24.171875 6.390625 31.78125 6.390625 
Q 39.453125 6.390625 43.28125 13.890625 
Q 47.125 21.390625 47.125 36.375 
Q 47.125 51.421875 43.28125 58.90625 
Q 39.453125 66.40625 31.78125 66.40625 
z
M 31.78125 74.21875 
Q 44.046875 74.21875 50.515625 64.515625 
Q 56.984375 54.828125 56.984375 36.375 
Q 56.984375 17.96875 50.515625 8.265625 
Q 44.046875 -1.421875 31.78125 -1.421875 
Q 19.53125 -1.421875 13.0625 8.265625 
Q 6.59375 17.96875 6.59375 36.375 
Q 6.59375 54.828125 13.0625 64.515625 
Q 19.53125 74.21875 31.78125 74.21875 
z
" id="DejaVuSans-30"/>
      </defs>
      <g style="fill:#262626;" transform="translate(19.71675 180.718429)scale(0.08 -0.08)">
       <use transform="translate(0 0.765625)" xlink:href="#DejaVuSans-31"/>
       <use transform="translate(63.623047 0.765625)" xlink:href="#DejaVuSans-30"/>
       <use transform="translate(128.203125 39.046875)scale(0.7)" xlink:href="#DejaVuSans-30"/>
      </g>
     </g>
    </g>
    <g id="ytick_2">
     <g id="line2d_6">
      <g>
       <use style="fill:#262626;stroke:#262626;stroke-width:0.8;" x="45.39675" xlink:href="#m6d9103602d" y="150.265878"/>
      </g>
     </g>
     <g id="text_6">
      <!-- $10^{1}$ -->
      <g style="fill:#262626;" transform="translate(19.71675 153.305253)scale(0.08 -0.08)">
       <use transform="translate(0 0.684375)" xlink:href="#DejaVuSans-31"/>
       <use transform="translate(63.623047 0.684375)" xlink:href="#DejaVuSans-30"/>
       <use transform="translate(128.203125 38.965625)scale(0.7)" xlink:href="#DejaVuSans-31"/>
      </g>
     </g>
    </g>
    <g id="ytick_3">
     <g id="line2d_7">
      <g>
       <use style="fill:#262626;stroke:#262626;stroke-width:0.8;" x="45.39675" xlink:href="#m6d9103602d" y="122.852702"/>
      </g>
     </g>
     <g id="text_7">
      <!-- $10^{2}$ -->
      <defs>
       <path d="M 19.1875 8.296875 
L 53.609375 8.296875 
L 53.609375 0 
L 7.328125 0 
L 7.328125 8.296875 
Q 12.9375 14.109375 22.625 23.890625 
Q 32.328125 33.6875 34.8125 36.53125 
Q 39.546875 41.84375 41.421875 45.53125 
Q 43.3125 49.21875 43.3125 52.78125 
Q 43.3125 58.59375 39.234375 62.25 
Q 35.15625 65.921875 28.609375 65.921875 
Q 23.96875 65.921875 18.8125 64.3125 
Q 13.671875 62.703125 7.8125 59.421875 
L 7.8125 69.390625 
Q 13.765625 71.78125 18.9375 73 
Q 24.125 74.21875 28.421875 74.21875 
Q 39.75 74.21875 46.484375 68.546875 
Q 53.21875 62.890625 53.21875 53.421875 
Q 53.21875 48.921875 51.53125 44.890625 
Q 49.859375 40.875 45.40625 35.40625 
Q 44.1875 33.984375 37.640625 27.21875 
Q 31.109375 20.453125 19.1875 8.296875 
z
" id="DejaVuSans-32"/>
      </defs>
      <g style="fill:#262626;" transform="translate(19.71675 125.892077)scale(0.08 -0.08)">
       <use transform="translate(0 0.765625)" xlink:href="#DejaVuSans-31"/>
       <use transform="translate(63.623047 0.765625)" xlink:href="#DejaVuSans-30"/>
       <use transform="translate(128.203125 39.046875)scale(0.7)" xlink:href="#DejaVuSans-32"/>
      </g>
     </g>
    </g>
    <g id="ytick_4">
     <g id="line2d_8">
      <g>
       <use style="fill:#262626;stroke:#262626;stroke-width:0.8;" x="45.39675" xlink:href="#m6d9103602d" y="95.439527"/>
      </g>
     </g>
     <g id="text_8">
      <!-- $10^{3}$ -->
      <defs>
       <path d="M 40.578125 39.3125 
Q 47.65625 37.796875 51.625 33 
Q 55.609375 28.21875 55.609375 21.1875 
Q 55.609375 10.40625 48.1875 4.484375 
Q 40.765625 -1.421875 27.09375 -1.421875 
Q 22.515625 -1.421875 17.65625 -0.515625 
Q 12.796875 0.390625 7.625 2.203125 
L 7.625 11.71875 
Q 11.71875 9.328125 16.59375 8.109375 
Q 21.484375 6.890625 26.8125 6.890625 
Q 36.078125 6.890625 40.9375 10.546875 
Q 45.796875 14.203125 45.796875 21.1875 
Q 45.796875 27.640625 41.28125 31.265625 
Q 36.765625 34.90625 28.71875 34.90625 
L 20.21875 34.90625 
L 20.21875 43.015625 
L 29.109375 43.015625 
Q 36.375 43.015625 40.234375 45.921875 
Q 44.09375 48.828125 44.09375 54.296875 
Q 44.09375 59.90625 40.109375 62.90625 
Q 36.140625 65.921875 28.71875 65.921875 
Q 24.65625 65.921875 20.015625 65.03125 
Q 15.375 64.15625 9.8125 62.3125 
L 9.8125 71.09375 
Q 15.4375 72.65625 20.34375 73.4375 
Q 25.25 74.21875 29.59375 74.21875 
Q 40.828125 74.21875 47.359375 69.109375 
Q 53.90625 64.015625 53.90625 55.328125 
Q 53.90625 49.265625 50.4375 45.09375 
Q 46.96875 40.921875 40.578125 39.3125 
z
" id="DejaVuSans-33"/>
      </defs>
      <g style="fill:#262626;" transform="translate(19.71675 98.478902)scale(0.08 -0.08)">
       <use transform="translate(0 0.765625)" xlink:href="#DejaVuSans-31"/>
       <use transform="translate(63.623047 0.765625)" xlink:href="#DejaVuSans-30"/>
       <use transform="translate(128.203125 39.046875)scale(0.7)" xlink:href="#DejaVuSans-33"/>
      </g>
     </g>
    </g>
    <g id="ytick_5">
     <g id="line2d_9">
      <g>
       <use style="fill:#262626;stroke:#262626;stroke-width:0.8;" x="45.39675" xlink:href="#m6d9103602d" y="68.026351"/>
      </g>
     </g>
     <g id="text_9">
      <!-- $10^{4}$ -->
      <defs>
       <path d="M 37.796875 64.3125 
L 12.890625 25.390625 
L 37.796875 25.390625 
z
M 35.203125 72.90625 
L 47.609375 72.90625 
L 47.609375 25.390625 
L 58.015625 25.390625 
L 58.015625 17.1875 
L 47.609375 17.1875 
L 47.609375 0 
L 37.796875 0 
L 37.796875 17.1875 
L 4.890625 17.1875 
L 4.890625 26.703125 
z
" id="DejaVuSans-34"/>
      </defs>
      <g style="fill:#262626;" transform="translate(19.71675 71.065726)scale(0.08 -0.08)">
       <use transform="translate(0 0.684375)" xlink:href="#DejaVuSans-31"/>
       <use transform="translate(63.623047 0.684375)" xlink:href="#DejaVuSans-30"/>
       <use transform="translate(128.203125 38.965625)scale(0.7)" xlink:href="#DejaVuSans-34"/>
      </g>
     </g>
    </g>
    <g id="ytick_6">
     <g id="line2d_10">
      <g>
       <use style="fill:#262626;stroke:#262626;stroke-width:0.8;" x="45.39675" xlink:href="#m6d9103602d" y="40.613176"/>
      </g>
     </g>
     <g id="text_10">
      <!-- $10^{5}$ -->
      <defs>
       <path d="M 10.796875 72.90625 
L 49.515625 72.90625 
L 49.515625 64.59375 
L 19.828125 64.59375 
L 19.828125 46.734375 
Q 21.96875 47.46875 24.109375 47.828125 
Q 26.265625 48.1875 28.421875 48.1875 
Q 40.625 48.1875 47.75 41.5 
Q 54.890625 34.8125 54.890625 23.390625 
Q 54.890625 11.625 47.5625 5.09375 
Q 40.234375 -1.421875 26.90625 -1.421875 
Q 22.3125 -1.421875 17.546875 -0.640625 
Q 12.796875 0.140625 7.71875 1.703125 
L 7.71875 11.625 
Q 12.109375 9.234375 16.796875 8.0625 
Q 21.484375 6.890625 26.703125 6.890625 
Q 35.15625 6.890625 40.078125 11.328125 
Q 45.015625 15.765625 45.015625 23.390625 
Q 45.015625 31 40.078125 35.4375 
Q 35.15625 39.890625 26.703125 39.890625 
Q 22.75 39.890625 18.8125 39.015625 
Q 14.890625 38.140625 10.796875 36.28125 
z
" id="DejaVuSans-35"/>
      </defs>
      <g style="fill:#262626;" transform="translate(19.71675 43.652551)scale(0.08 -0.08)">
       <use transform="translate(0 0.684375)" xlink:href="#DejaVuSans-31"/>
       <use transform="translate(63.623047 0.684375)" xlink:href="#DejaVuSans-30"/>
       <use transform="translate(128.203125 38.965625)scale(0.7)" xlink:href="#DejaVuSans-35"/>
      </g>
     </g>
    </g>
    <g id="ytick_7">
     <g id="line2d_11">
      <g>
       <use style="fill:#262626;stroke:#262626;stroke-width:0.8;" x="45.39675" xlink:href="#m6d9103602d" y="13.2"/>
      </g>
     </g>
     <g id="text_11">
      <!-- $10^{6}$ -->
      <defs>
       <path d="M 33.015625 40.375 
Q 26.375 40.375 22.484375 35.828125 
Q 18.609375 31.296875 18.609375 23.390625 
Q 18.609375 15.53125 22.484375 10.953125 
Q 26.375 6.390625 33.015625 6.390625 
Q 39.65625 6.390625 43.53125 10.953125 
Q 47.40625 15.53125 47.40625 23.390625 
Q 47.40625 31.296875 43.53125 35.828125 
Q 39.65625 40.375 33.015625 40.375 
z
M 52.59375 71.296875 
L 52.59375 62.3125 
Q 48.875 64.0625 45.09375 64.984375 
Q 41.3125 65.921875 37.59375 65.921875 
Q 27.828125 65.921875 22.671875 59.328125 
Q 17.53125 52.734375 16.796875 39.40625 
Q 19.671875 43.65625 24.015625 45.921875 
Q 28.375 48.1875 33.59375 48.1875 
Q 44.578125 48.1875 50.953125 41.515625 
Q 57.328125 34.859375 57.328125 23.390625 
Q 57.328125 12.15625 50.6875 5.359375 
Q 44.046875 -1.421875 33.015625 -1.421875 
Q 20.359375 -1.421875 13.671875 8.265625 
Q 6.984375 17.96875 6.984375 36.375 
Q 6.984375 53.65625 15.1875 63.9375 
Q 23.390625 74.21875 37.203125 74.21875 
Q 40.921875 74.21875 44.703125 73.484375 
Q 48.484375 72.75 52.59375 71.296875 
z
" id="DejaVuSans-36"/>
      </defs>
      <g style="fill:#262626;" transform="translate(19.71675 16.239375)scale(0.08 -0.08)">
       <use transform="translate(0 0.765625)" xlink:href="#DejaVuSans-31"/>
       <use transform="translate(63.623047 0.765625)" xlink:href="#DejaVuSans-30"/>
       <use transform="translate(128.203125 39.046875)scale(0.7)" xlink:href="#DejaVuSans-36"/>
      </g>
     </g>
    </g>
    <g id="text_12">
     <!-- downloads -->
     <defs>
      <path d="M 4.203125 54.6875 
L 13.1875 54.6875 
L 24.421875 12.015625 
L 35.59375 54.6875 
L 46.1875 54.6875 
L 57.421875 12.015625 
L 68.609375 54.6875 
L 77.59375 54.6875 
L 63.28125 0 
L 52.6875 0 
L 40.921875 44.828125 
L 29.109375 0 
L 18.5 0 
z
" id="DejaVuSans-77"/>
      <path d="M 34.28125 27.484375 
Q 23.390625 27.484375 19.1875 25 
Q 14.984375 22.515625 14.984375 16.5 
Q 14.984375 11.71875 18.140625 8.90625 
Q 21.296875 6.109375 26.703125 6.109375 
Q 34.1875 6.109375 38.703125 11.40625 
Q 43.21875 16.703125 43.21875 25.484375 
L 43.21875 27.484375 
z
M 52.203125 31.203125 
L 52.203125 0 
L 43.21875 0 
L 43.21875 8.296875 
Q 40.140625 3.328125 35.546875 0.953125 
Q 30.953125 -1.421875 24.3125 -1.421875 
Q 15.921875 -1.421875 10.953125 3.296875 
Q 6 8.015625 6 15.921875 
Q 6 25.140625 12.171875 29.828125 
Q 18.359375 34.515625 30.609375 34.515625 
L 43.21875 34.515625 
L 43.21875 35.40625 
Q 43.21875 41.609375 39.140625 45 
Q 35.0625 48.390625 27.6875 48.390625 
Q 23 48.390625 18.546875 47.265625 
Q 14.109375 46.140625 10.015625 43.890625 
L 10.015625 52.203125 
Q 14.9375 54.109375 19.578125 55.046875 
Q 24.21875 56 28.609375 56 
Q 40.484375 56 46.34375 49.84375 
Q 52.203125 43.703125 52.203125 31.203125 
z
" id="DejaVuSans-61"/>
      <path d="M 44.28125 53.078125 
L 44.28125 44.578125 
Q 40.484375 46.53125 36.375 47.5 
Q 32.28125 48.484375 27.875 48.484375 
Q 21.1875 48.484375 17.84375 46.4375 
Q 14.5 44.390625 14.5 40.28125 
Q 14.5 37.15625 16.890625 35.375 
Q 19.28125 33.59375 26.515625 31.984375 
L 29.59375 31.296875 
Q 39.15625 29.25 43.1875 25.515625 
Q 47.21875 21.78125 47.21875 15.09375 
Q 47.21875 7.46875 41.1875 3.015625 
Q 35.15625 -1.421875 24.609375 -1.421875 
Q 20.21875 -1.421875 15.453125 -0.5625 
Q 10.6875 0.296875 5.421875 2 
L 5.421875 11.28125 
Q 10.40625 8.6875 15.234375 7.390625 
Q 20.0625 6.109375 24.8125 6.109375 
Q 31.15625 6.109375 34.5625 8.28125 
Q 37.984375 10.453125 37.984375 14.40625 
Q 37.984375 18.0625 35.515625 20.015625 
Q 33.0625 21.96875 24.703125 23.78125 
L 21.578125 24.515625 
Q 13.234375 26.265625 9.515625 29.90625 
Q 5.8125 33.546875 5.8125 39.890625 
Q 5.8125 47.609375 11.28125 51.796875 
Q 16.75 56 26.8125 56 
Q 31.78125 56 36.171875 55.265625 
Q 40.578125 54.546875 44.28125 53.078125 
z
" id="DejaVuSans-73"/>
     </defs>
     <g style="fill:#262626;" transform="translate(13.886625 122.624875)rotate(-90)scale(0.088 -0.088)">
      <use xlink:href="#DejaVuSans-64"/>
      <use x="63.476562" xlink:href="#DejaVuSans-6f"/>
      <use x="124.658203" xlink:href="#DejaVuSans-77"/>
      <use x="206.445312" xlink:href="#DejaVuSans-6e"/>
      <use x="269.824219" xlink:href="#DejaVuSans-6c"/>
      <use x="297.607422" xlink:href="#DejaVuSans-6f"/>
      <use x="358.789062" xlink:href="#DejaVuSans-61"/>
      <use x="420.068359" xlink:href="#DejaVuSans-64"/>
      <use x="483.544922" xlink:href="#DejaVuSans-73"/>
     </g>
    </g>
   </g>
   <g id="PolyCollection_1">
    <defs>
     <path d="M 74.695146 -50.279823 
L 71.848913 -50.279823 
L 71.633948 -51.405913 
L 71.366283 -52.532003 
L 71.020582 -53.658093 
L 70.566071 -54.784183 
L 69.968569 -55.910273 
L 69.193845 -57.036363 
L 68.212219 -58.162453 
L 67.004051 -59.288542 
L 65.565431 -60.414632 
L 63.913145 -61.540722 
L 62.087812 -62.666812 
L 60.154184 -63.792902 
L 58.197928 -64.918992 
L 56.318767 -66.045082 
L 54.6206 -67.171172 
L 53.199923 -68.297262 
L 52.134366 -69.423352 
L 51.47333 -70.549442 
L 51.232416 -71.675532 
L 51.392654 -72.801622 
L 51.904621 -73.927712 
L 52.696595 -75.053802 
L 53.685144 -76.179892 
L 54.786174 -77.305982 
L 55.924567 -78.432072 
L 57.040966 -79.558162 
L 58.094993 -80.684252 
L 59.064958 -81.810342 
L 59.944742 -82.936432 
L 60.738949 -84.062522 
L 61.457548 -85.188612 
L 62.111057 -86.314702 
L 62.707028 -87.440792 
L 63.248189 -88.566882 
L 63.732209 -89.692972 
L 64.152801 -90.819062 
L 64.501673 -91.945152 
L 64.770815 -93.071242 
L 64.954656 -94.197332 
L 65.051721 -95.323422 
L 65.065597 -96.449512 
L 65.00513 -97.575602 
L 64.883902 -98.701692 
L 64.719152 -99.827782 
L 64.530334 -100.953872 
L 64.337537 -102.079962 
L 64.159988 -103.206052 
L 64.014793 -104.332142 
L 63.916027 -105.458232 
L 63.874211 -106.584322 
L 63.896126 -107.710412 
L 63.984889 -108.836502 
L 64.140185 -109.962592 
L 64.358546 -111.088682 
L 64.633629 -112.214772 
L 64.956483 -113.340862 
L 65.315843 -114.466952 
L 65.698532 -115.593042 
L 66.090032 -116.719132 
L 66.475282 -117.845222 
L 66.839667 -118.971312 
L 67.170143 -120.097402 
L 67.456349 -121.223491 
L 67.691538 -122.349581 
L 67.873182 -123.475671 
L 68.003115 -124.601761 
L 68.087183 -125.727851 
L 68.134423 -126.853941 
L 68.155911 -127.980031 
L 68.163459 -129.106121 
L 68.168354 -130.232211 
L 68.180347 -131.358301 
L 68.207007 -132.484391 
L 68.253482 -133.610481 
L 68.322636 -134.736571 
L 68.415445 -135.862661 
L 68.531492 -136.988751 
L 68.669448 -138.114841 
L 68.827398 -139.240931 
L 69.003006 -140.367021 
L 69.193516 -141.493111 
L 69.395673 -142.619201 
L 69.605656 -143.745291 
L 69.819106 -144.871381 
L 70.031308 -145.997471 
L 70.237543 -147.123561 
L 70.433552 -148.249651 
L 70.616057 -149.375741 
L 70.783214 -150.501831 
L 70.93491 -151.627921 
L 71.072811 -152.754011 
L 71.200139 -153.880101 
L 71.32118 -155.006191 
L 71.4406 -156.132281 
L 71.562697 -157.258371 
L 71.690704 -158.384461 
L 71.826276 -159.510551 
L 71.969261 -160.636641 
L 72.117762 -161.762731 
L 74.426297 -161.762731 
L 74.426297 -161.762731 
L 74.574799 -160.636641 
L 74.717783 -159.510551 
L 74.853355 -158.384461 
L 74.981362 -157.258371 
L 75.10346 -156.132281 
L 75.22288 -155.006191 
L 75.34392 -153.880101 
L 75.471248 -152.754011 
L 75.60915 -151.627921 
L 75.760845 -150.501831 
L 75.928003 -149.375741 
L 76.110508 -148.249651 
L 76.306517 -147.123561 
L 76.512751 -145.997471 
L 76.724954 -144.871381 
L 76.938403 -143.745291 
L 77.148386 -142.619201 
L 77.350544 -141.493111 
L 77.541053 -140.367021 
L 77.716661 -139.240931 
L 77.874612 -138.114841 
L 78.012567 -136.988751 
L 78.128615 -135.862661 
L 78.221423 -134.736571 
L 78.290578 -133.610481 
L 78.337053 -132.484391 
L 78.363713 -131.358301 
L 78.375706 -130.232211 
L 78.380601 -129.106121 
L 78.388148 -127.980031 
L 78.409637 -126.853941 
L 78.456876 -125.727851 
L 78.540944 -124.601761 
L 78.670878 -123.475671 
L 78.852522 -122.349581 
L 79.08771 -121.223491 
L 79.373916 -120.097402 
L 79.704393 -118.971312 
L 80.068777 -117.845222 
L 80.454027 -116.719132 
L 80.845528 -115.593042 
L 81.228217 -114.466952 
L 81.587577 -113.340862 
L 81.910431 -112.214772 
L 82.185514 -111.088682 
L 82.403875 -109.962592 
L 82.559171 -108.836502 
L 82.647934 -107.710412 
L 82.669848 -106.584322 
L 82.628032 -105.458232 
L 82.529266 -104.332142 
L 82.384071 -103.206052 
L 82.206523 -102.079962 
L 82.013726 -100.953872 
L 81.824907 -99.827782 
L 81.660158 -98.701692 
L 81.53893 -97.575602 
L 81.478462 -96.449512 
L 81.492339 -95.323422 
L 81.589403 -94.197332 
L 81.773244 -93.071242 
L 82.042387 -91.945152 
L 82.391258 -90.819062 
L 82.81185 -89.692972 
L 83.29587 -88.566882 
L 83.837031 -87.440792 
L 84.433003 -86.314702 
L 85.086512 -85.188612 
L 85.805111 -84.062522 
L 86.599318 -82.936432 
L 87.479101 -81.810342 
L 88.449067 -80.684252 
L 89.503093 -79.558162 
L 90.619492 -78.432072 
L 91.757886 -77.305982 
L 92.858916 -76.179892 
L 93.847464 -75.053802 
L 94.639439 -73.927712 
L 95.151406 -72.801622 
L 95.311643 -71.675532 
L 95.070729 -70.549442 
L 94.409693 -69.423352 
L 93.344136 -68.297262 
L 91.923459 -67.171172 
L 90.225293 -66.045082 
L 88.346131 -64.918992 
L 86.389875 -63.792902 
L 84.456248 -62.666812 
L 82.630914 -61.540722 
L 80.978628 -60.414632 
L 79.540009 -59.288542 
L 78.33184 -58.162453 
L 77.350215 -57.036363 
L 76.57549 -55.910273 
L 75.977988 -54.784183 
L 75.523477 -53.658093 
L 75.177776 -52.532003 
L 74.910112 -51.405913 
L 74.695146 -50.279823 
z
" id="m26405e0305" style="stroke:#2f2f2f;stroke-width:1.4;"/>
    </defs>
    <g clip-path="url(#p109527227e)">
     <use style="fill:#166c9c;stroke:#2f2f2f;stroke-width:1.4;" x="0" xlink:href="#m26405e0305" y="211.4545"/>
    </g>
   </g>
   <g id="PolyCollection_2">
    <defs>
     <path d="M 129.187361 -33.775446 
L 128.857818 -33.775446 
L 128.820231 -35.236648 
L 128.774669 -36.697849 
L 128.718647 -38.15905 
L 128.649889 -39.620252 
L 128.567074 -41.081453 
L 128.470612 -42.542654 
L 128.363167 -44.003855 
L 128.249513 -45.465057 
L 128.13537 -46.926258 
L 128.025112 -48.387459 
L 127.918759 -49.848661 
L 127.809193 -51.309862 
L 127.680812 -52.771063 
L 127.510685 -54.232264 
L 127.272519 -55.693466 
L 126.942806 -57.154667 
L 126.507574 -58.615868 
L 125.967661 -60.07707 
L 125.340659 -61.538271 
L 124.658463 -62.999472 
L 123.960718 -64.460673 
L 123.285747 -65.921875 
L 122.661492 -67.383076 
L 122.099131 -68.844277 
L 121.59141 -70.305479 
L 121.116418 -71.76668 
L 120.645975 -73.227881 
L 120.156365 -74.689082 
L 119.638176 -76.150284 
L 119.101849 -77.611485 
L 118.576439 -79.072686 
L 118.100953 -80.533888 
L 117.710088 -81.995089 
L 117.418313 -83.45629 
L 117.207239 -84.917491 
L 117.020687 -86.378693 
L 116.769995 -87.839894 
L 116.349811 -89.301095 
L 115.662266 -90.762297 
L 114.645423 -92.223498 
L 113.299951 -93.684699 
L 111.706529 -95.1459 
L 110.026522 -96.607102 
L 108.481224 -98.068303 
L 107.310906 -99.529504 
L 106.722365 -100.990706 
L 106.83956 -102.451907 
L 107.672898 -103.913108 
L 109.117514 -105.374309 
L 110.981081 -106.835511 
L 113.031621 -108.296712 
L 115.049605 -109.757913 
L 116.86888 -111.219115 
L 118.39669 -112.680316 
L 119.611313 -114.141517 
L 120.542914 -115.602718 
L 121.246936 -117.06392 
L 121.779229 -118.525121 
L 122.179498 -119.986322 
L 122.465852 -121.447524 
L 122.639719 -122.908725 
L 122.697615 -124.369926 
L 122.644658 -125.831127 
L 122.504525 -127.292329 
L 122.321908 -128.75353 
L 122.156252 -130.214731 
L 122.068837 -131.675933 
L 122.107864 -133.137134 
L 122.296979 -134.598335 
L 122.631213 -136.059536 
L 123.081269 -137.520738 
L 123.60393 -138.981939 
L 124.154379 -140.44314 
L 124.696236 -141.904342 
L 125.206749 -143.365543 
L 125.67678 -144.826744 
L 126.107068 -146.287945 
L 126.502976 -147.749147 
L 126.869773 -149.210348 
L 127.20967 -150.671549 
L 127.520974 -152.132751 
L 127.799008 -153.593952 
L 128.038114 -155.055153 
L 128.2339 -156.516354 
L 128.385008 -157.977556 
L 128.493929 -159.438757 
L 128.566694 -160.899958 
L 128.611641 -162.36116 
L 128.637726 -163.822361 
L 128.652956 -165.283562 
L 128.663398 -166.744763 
L 128.672962 -168.205965 
L 128.683819 -169.667166 
L 128.697106 -171.128367 
L 128.713534 -172.589569 
L 128.733664 -174.05077 
L 128.757851 -175.511971 
L 128.786011 -176.973172 
L 128.817416 -178.434374 
L 129.227763 -178.434374 
L 129.227763 -178.434374 
L 129.259167 -176.973172 
L 129.287327 -175.511971 
L 129.311515 -174.05077 
L 129.331644 -172.589569 
L 129.348072 -171.128367 
L 129.36136 -169.667166 
L 129.372217 -168.205965 
L 129.38178 -166.744763 
L 129.392222 -165.283562 
L 129.407452 -163.822361 
L 129.433538 -162.36116 
L 129.478484 -160.899958 
L 129.551249 -159.438757 
L 129.66017 -157.977556 
L 129.811278 -156.516354 
L 130.007064 -155.055153 
L 130.246171 -153.593952 
L 130.524205 -152.132751 
L 130.835508 -150.671549 
L 131.175406 -149.210348 
L 131.542202 -147.749147 
L 131.938111 -146.287945 
L 132.368398 -144.826744 
L 132.83843 -143.365543 
L 133.348942 -141.904342 
L 133.890799 -140.44314 
L 134.441248 -138.981939 
L 134.96391 -137.520738 
L 135.413966 -136.059536 
L 135.748199 -134.598335 
L 135.937315 -133.137134 
L 135.976342 -131.675933 
L 135.888926 -130.214731 
L 135.72327 -128.75353 
L 135.540653 -127.292329 
L 135.40052 -125.831127 
L 135.347563 -124.369926 
L 135.405459 -122.908725 
L 135.579326 -121.447524 
L 135.86568 -119.986322 
L 136.265949 -118.525121 
L 136.798243 -117.06392 
L 137.502264 -115.602718 
L 138.433866 -114.141517 
L 139.648488 -112.680316 
L 141.176298 -111.219115 
L 142.995573 -109.757913 
L 145.013557 -108.296712 
L 147.064097 -106.835511 
L 148.927665 -105.374309 
L 150.37228 -103.913108 
L 151.205619 -102.451907 
L 151.322813 -100.990706 
L 150.734273 -99.529504 
L 149.563955 -98.068303 
L 148.018656 -96.607102 
L 146.338649 -95.1459 
L 144.745228 -93.684699 
L 143.399755 -92.223498 
L 142.382912 -90.762297 
L 141.695367 -89.301095 
L 141.275183 -87.839894 
L 141.024492 -86.378693 
L 140.837939 -84.917491 
L 140.626866 -83.45629 
L 140.33509 -81.995089 
L 139.944225 -80.533888 
L 139.468739 -79.072686 
L 138.943329 -77.611485 
L 138.407002 -76.150284 
L 137.888813 -74.689082 
L 137.399204 -73.227881 
L 136.928761 -71.76668 
L 136.453769 -70.305479 
L 135.946048 -68.844277 
L 135.383686 -67.383076 
L 134.759431 -65.921875 
L 134.084461 -64.460673 
L 133.386715 -62.999472 
L 132.704519 -61.538271 
L 132.077517 -60.07707 
L 131.537605 -58.615868 
L 131.102372 -57.154667 
L 130.77266 -55.693466 
L 130.534493 -54.232264 
L 130.364366 -52.771063 
L 130.235986 -51.309862 
L 130.126419 -49.848661 
L 130.020067 -48.387459 
L 129.909808 -46.926258 
L 129.795665 -45.465057 
L 129.682011 -44.003855 
L 129.574566 -42.542654 
L 129.478105 -41.081453 
L 129.395289 -39.620252 
L 129.326531 -38.15905 
L 129.27051 -36.697849 
L 129.224948 -35.236648 
L 129.187361 -33.775446 
z
" id="md125c888ad" style="stroke:#2f2f2f;stroke-width:1.4;"/>
    </defs>
    <g clip-path="url(#p109527227e)">
     <use style="fill:#148a6a;stroke:#2f2f2f;stroke-width:1.4;" x="0" xlink:href="#md125c888ad" y="211.4545"/>
    </g>
   </g>
   <g id="PolyCollection_3">
    <defs>
     <path d="M 185.100033 -33.775446 
L 184.446265 -33.775446 
L 184.433879 -35.164671 
L 184.42453 -36.553896 
L 184.413312 -37.943121 
L 184.39414 -39.332346 
L 184.36052 -40.721571 
L 184.306307 -42.110796 
L 184.226248 -43.500021 
L 184.116208 -44.889246 
L 183.973054 -46.278471 
L 183.794327 -47.667696 
L 183.577895 -49.056921 
L 183.321795 -50.446146 
L 183.024428 -51.835371 
L 182.685112 -53.224596 
L 182.304857 -54.613821 
L 181.887056 -56.003046 
L 181.437742 -57.392271 
L 180.965124 -58.781496 
L 180.478313 -60.170721 
L 179.985459 -61.559946 
L 179.491773 -62.949171 
L 178.998095 -64.338396 
L 178.500568 -65.727621 
L 177.991725 -67.116846 
L 177.462802 -68.506071 
L 176.9067 -69.895296 
L 176.320707 -71.284521 
L 175.708143 -72.673746 
L 175.078431 -74.062971 
L 174.445564 -75.452196 
L 173.825526 -76.841421 
L 173.233455 -78.230646 
L 172.681405 -79.619871 
L 172.177266 -81.009096 
L 171.724938 -82.398321 
L 171.325465 -83.787546 
L 170.978532 -85.176771 
L 170.683749 -86.565996 
L 170.441318 -87.955221 
L 170.252011 -89.344446 
L 170.116666 -90.733671 
L 170.035573 -92.122896 
L 170.00813 -93.512121 
L 170.033023 -94.901346 
L 170.108918 -96.290571 
L 170.235454 -97.679796 
L 170.414115 -99.069021 
L 170.648554 -100.458246 
L 170.944012 -101.847471 
L 171.305742 -103.236696 
L 171.73668 -104.625921 
L 172.234889 -106.015146 
L 172.791497 -107.404371 
L 173.389803 -108.793596 
L 174.005987 -110.182821 
L 174.611462 -111.572046 
L 175.176461 -112.961271 
L 175.674144 -114.350496 
L 176.084387 -115.739721 
L 176.396514 -117.128946 
L 176.610552 -118.518171 
L 176.736905 -119.907396 
L 176.794658 -121.296621 
L 176.808906 -122.685846 
L 176.807477 -124.075071 
L 176.817443 -125.464296 
L 176.861703 -126.853521 
L 176.956037 -128.242746 
L 177.107051 -129.631971 
L 177.311507 -131.021196 
L 177.557408 -132.410421 
L 177.826865 -133.799646 
L 178.10032 -135.188871 
L 178.3612 -136.578096 
L 178.599846 -137.96732 
L 178.815652 -139.356545 
L 179.016846 -140.74577 
L 179.218005 -142.134995 
L 179.43609 -143.52422 
L 179.686156 -144.913445 
L 179.977884 -146.30267 
L 180.313719 -147.691895 
L 180.68884 -149.08112 
L 181.092637 -150.470345 
L 181.51104 -151.85957 
L 181.92898 -153.248795 
L 182.332417 -154.63802 
L 182.709682 -156.027245 
L 183.05211 -157.41647 
L 183.354164 -158.805695 
L 183.613246 -160.19492 
L 183.829385 -161.584145 
L 184.004871 -162.97337 
L 184.143836 -164.362595 
L 184.251754 -165.75182 
L 184.334848 -167.141045 
L 184.399438 -168.53027 
L 184.451298 -169.919495 
L 184.495144 -171.30872 
L 185.051154 -171.30872 
L 185.051154 -171.30872 
L 185.094999 -169.919495 
L 185.146859 -168.53027 
L 185.211449 -167.141045 
L 185.294544 -165.75182 
L 185.402462 -164.362595 
L 185.541426 -162.97337 
L 185.716912 -161.584145 
L 185.933052 -160.19492 
L 186.192133 -158.805695 
L 186.494187 -157.41647 
L 186.836616 -156.027245 
L 187.21388 -154.63802 
L 187.617318 -153.248795 
L 188.035257 -151.85957 
L 188.453661 -150.470345 
L 188.857458 -149.08112 
L 189.232579 -147.691895 
L 189.568413 -146.30267 
L 189.860141 -144.913445 
L 190.110208 -143.52422 
L 190.328293 -142.134995 
L 190.529451 -140.74577 
L 190.730645 -139.356545 
L 190.946452 -137.96732 
L 191.185097 -136.578096 
L 191.445977 -135.188871 
L 191.719432 -133.799646 
L 191.988889 -132.410421 
L 192.23479 -131.021196 
L 192.439247 -129.631971 
L 192.59026 -128.242746 
L 192.684594 -126.853521 
L 192.728854 -125.464296 
L 192.73882 -124.075071 
L 192.737392 -122.685846 
L 192.751639 -121.296621 
L 192.809393 -119.907396 
L 192.935745 -118.518171 
L 193.149784 -117.128946 
L 193.461911 -115.739721 
L 193.872153 -114.350496 
L 194.369836 -112.961271 
L 194.934835 -111.572046 
L 195.540311 -110.182821 
L 196.156495 -108.793596 
L 196.7548 -107.404371 
L 197.311408 -106.015146 
L 197.809618 -104.625921 
L 198.240555 -103.236696 
L 198.602285 -101.847471 
L 198.897743 -100.458246 
L 199.132183 -99.069021 
L 199.310844 -97.679796 
L 199.437379 -96.290571 
L 199.513275 -94.901346 
L 199.538167 -93.512121 
L 199.510724 -92.122896 
L 199.429631 -90.733671 
L 199.294287 -89.344446 
L 199.10498 -87.955221 
L 198.862548 -86.565996 
L 198.567765 -85.176771 
L 198.220833 -83.787546 
L 197.82136 -82.398321 
L 197.369032 -81.009096 
L 196.864892 -79.619871 
L 196.312843 -78.230646 
L 195.720771 -76.841421 
L 195.100734 -75.452196 
L 194.467867 -74.062971 
L 193.838154 -72.673746 
L 193.225591 -71.284521 
L 192.639597 -69.895296 
L 192.083495 -68.506071 
L 191.554572 -67.116846 
L 191.045729 -65.727621 
L 190.548203 -64.338396 
L 190.054524 -62.949171 
L 189.560838 -61.559946 
L 189.067984 -60.170721 
L 188.581173 -58.781496 
L 188.108555 -57.392271 
L 187.659241 -56.003046 
L 187.24144 -54.613821 
L 186.861185 -53.224596 
L 186.521869 -51.835371 
L 186.224502 -50.446146 
L 185.968402 -49.056921 
L 185.75197 -47.667696 
L 185.573244 -46.278471 
L 185.430089 -44.889246 
L 185.320049 -43.500021 
L 185.239991 -42.110796 
L 185.185777 -40.721571 
L 185.152158 -39.332346 
L 185.132986 -37.943121 
L 185.121768 -36.553896 
L 185.112418 -35.164671 
L 185.100033 -33.775446 
z
" id="mf0ce0e9f67" style="stroke:#2f2f2f;stroke-width:1.4;"/>
    </defs>
    <g clip-path="url(#p109527227e)">
     <use style="fill:#ba611b;stroke:#2f2f2f;stroke-width:1.4;" x="0" xlink:href="#mf0ce0e9f67" y="211.4545"/>
    </g>
   </g>
   <g id="PolyCollection_4">
    <defs>
     <path d="M 242.102253 -52.936434 
L 238.945163 -52.936434 
L 238.502091 -54.079299 
L 237.986118 -55.222164 
L 237.402779 -56.365028 
L 236.763383 -57.507893 
L 236.084949 -58.650758 
L 235.389389 -59.793623 
L 234.701941 -60.936488 
L 234.048999 -62.079353 
L 233.455608 -63.222218 
L 232.942985 -64.365082 
L 232.526431 -65.507947 
L 232.213966 -66.650812 
L 232.005884 -67.793677 
L 231.895264 -68.936542 
L 231.86932 -70.079407 
L 231.911324 -71.222272 
L 232.002748 -72.365137 
L 232.125292 -73.508001 
L 232.26249 -74.650866 
L 232.400694 -75.793731 
L 232.52939 -76.936596 
L 232.640885 -78.079461 
L 232.729541 -79.222326 
L 232.790766 -80.365191 
L 232.820023 -81.508055 
L 232.812065 -82.65092 
L 232.760594 -83.793785 
L 232.658416 -84.93665 
L 232.498123 -86.079515 
L 232.273204 -87.22238 
L 231.979424 -88.365245 
L 231.616247 -89.508109 
L 231.188049 -90.650974 
L 230.704883 -91.793839 
L 230.182595 -92.936704 
L 229.642205 -94.079569 
L 229.108539 -95.222434 
L 228.608258 -96.365299 
L 228.167497 -97.508163 
L 227.809424 -98.651028 
L 227.552057 -99.793893 
L 227.406629 -100.936758 
L 227.376724 -102.079623 
L 227.458287 -103.222488 
L 227.640471 -104.365353 
L 227.907154 -105.508218 
L 228.238872 -106.651082 
L 228.614855 -107.793947 
L 229.014883 -108.936812 
L 229.420712 -110.079677 
L 229.816935 -111.222542 
L 230.191243 -112.365407 
L 230.534136 -113.508272 
L 230.838235 -114.651136 
L 231.097388 -115.794001 
L 231.30576 -116.936866 
L 231.457113 -118.079731 
L 231.544453 -119.222596 
L 231.560131 -120.365461 
L 231.496495 -121.508326 
L 231.347041 -122.65119 
L 231.107975 -123.794055 
L 230.779979 -124.93692 
L 230.369898 -126.079785 
L 229.892014 -127.22265 
L 229.368573 -128.365515 
L 228.829311 -129.50838 
L 228.309853 -130.651244 
L 227.849075 -131.794109 
L 227.485706 -132.936974 
L 227.254623 -134.079839 
L 227.183381 -135.222704 
L 227.289513 -136.365569 
L 227.578976 -137.508434 
L 228.045941 -138.651299 
L 228.673871 -139.794163 
L 229.437628 -140.937028 
L 230.3062 -142.079893 
L 231.245619 -143.222758 
L 232.221683 -144.365623 
L 233.202207 -145.508488 
L 234.158681 -146.651353 
L 235.067325 -147.794217 
L 235.90962 -148.937082 
L 236.672435 -150.079947 
L 237.347839 -151.222812 
L 237.932712 -152.365677 
L 238.42817 -153.508542 
L 238.838867 -154.651407 
L 239.172198 -155.794271 
L 239.437434 -156.937136 
L 239.644861 -158.080001 
L 239.804969 -159.222866 
L 239.927758 -160.365731 
L 240.022213 -161.508596 
L 240.095956 -162.651461 
L 240.155098 -163.794325 
L 240.204241 -164.93719 
L 240.24662 -166.080055 
L 240.800796 -166.080055 
L 240.800796 -166.080055 
L 240.843175 -164.93719 
L 240.892318 -163.794325 
L 240.95146 -162.651461 
L 241.025204 -161.508596 
L 241.119658 -160.365731 
L 241.242448 -159.222866 
L 241.402555 -158.080001 
L 241.609982 -156.937136 
L 241.875219 -155.794271 
L 242.208549 -154.651407 
L 242.619247 -153.508542 
L 243.114704 -152.365677 
L 243.699577 -151.222812 
L 244.374982 -150.079947 
L 245.137796 -148.937082 
L 245.980091 -147.794217 
L 246.888735 -146.651353 
L 247.845209 -145.508488 
L 248.825733 -144.365623 
L 249.801797 -143.222758 
L 250.741216 -142.079893 
L 251.609788 -140.937028 
L 252.373545 -139.794163 
L 253.001476 -138.651299 
L 253.46844 -137.508434 
L 253.757903 -136.365569 
L 253.864035 -135.222704 
L 253.792794 -134.079839 
L 253.56171 -132.936974 
L 253.198341 -131.794109 
L 252.737564 -130.651244 
L 252.218105 -129.50838 
L 251.678843 -128.365515 
L 251.155403 -127.22265 
L 250.677519 -126.079785 
L 250.267438 -124.93692 
L 249.939441 -123.794055 
L 249.700375 -122.65119 
L 249.550921 -121.508326 
L 249.487285 -120.365461 
L 249.502963 -119.222596 
L 249.590303 -118.079731 
L 249.741657 -116.936866 
L 249.950028 -115.794001 
L 250.209181 -114.651136 
L 250.513281 -113.508272 
L 250.856173 -112.365407 
L 251.230481 -111.222542 
L 251.626705 -110.079677 
L 252.032533 -108.936812 
L 252.432561 -107.793947 
L 252.808544 -106.651082 
L 253.140262 -105.508218 
L 253.406946 -104.365353 
L 253.589129 -103.222488 
L 253.670692 -102.079623 
L 253.640787 -100.936758 
L 253.495359 -99.793893 
L 253.237993 -98.651028 
L 252.87992 -97.508163 
L 252.439158 -96.365299 
L 251.938878 -95.222434 
L 251.405212 -94.079569 
L 250.864821 -92.936704 
L 250.342533 -91.793839 
L 249.859367 -90.650974 
L 249.43117 -89.508109 
L 249.067992 -88.365245 
L 248.774212 -87.22238 
L 248.549293 -86.079515 
L 248.389 -84.93665 
L 248.286822 -83.793785 
L 248.235351 -82.65092 
L 248.227394 -81.508055 
L 248.25665 -80.365191 
L 248.317876 -79.222326 
L 248.406531 -78.079461 
L 248.518027 -76.936596 
L 248.646722 -75.793731 
L 248.784926 -74.650866 
L 248.922124 -73.508001 
L 249.044668 -72.365137 
L 249.136092 -71.222272 
L 249.178096 -70.079407 
L 249.152153 -68.936542 
L 249.041532 -67.793677 
L 248.83345 -66.650812 
L 248.520985 -65.507947 
L 248.104431 -64.365082 
L 247.591808 -63.222218 
L 246.998417 -62.079353 
L 246.345475 -60.936488 
L 245.658027 -59.793623 
L 244.962467 -58.650758 
L 244.284033 -57.507893 
L 243.644637 -56.365028 
L 243.061298 -55.222164 
L 242.545326 -54.079299 
L 242.102253 -52.936434 
z
" id="m8e88e28ca4" style="stroke:#2f2f2f;stroke-width:1.4;"/>
    </defs>
    <g clip-path="url(#p109527227e)">
     <use style="fill:#c283a6;stroke:#2f2f2f;stroke-width:1.4;" x="0" xlink:href="#m8e88e28ca4" y="211.4545"/>
    </g>
   </g>
   <g id="line2d_12">
    <path clip-path="url(#p109527227e)" d="M 73.27203 161.174677 
L 73.27203 49.691769 
" style="fill:none;stroke:#2f2f2f;stroke-linecap:round;stroke-width:1.4;"/>
   </g>
   <g id="line2d_13">
    <path clip-path="url(#p109527227e)" d="M 73.27203 140.878985 
L 73.27203 100.404453 
" style="fill:none;stroke:#2f2f2f;stroke-linecap:round;stroke-width:4.2;"/>
   </g>
   <g id="line2d_14">
    <path clip-path="url(#p109527227e)" d="M 129.022589 169.426865 
L 129.022589 57.259835 
" style="fill:none;stroke:#2f2f2f;stroke-linecap:round;stroke-width:1.4;"/>
   </g>
   <g id="line2d_15">
    <path clip-path="url(#p109527227e)" d="M 129.022589 127.444165 
L 129.022589 98.896284 
" style="fill:none;stroke:#2f2f2f;stroke-linecap:round;stroke-width:4.2;"/>
   </g>
   <g id="line2d_16">
    <path clip-path="url(#p109527227e)" d="M 184.773149 177.679054 
L 184.773149 40.14578 
" style="fill:none;stroke:#2f2f2f;stroke-linecap:round;stroke-width:1.4;"/>
   </g>
   <g id="line2d_17">
    <path clip-path="url(#p109527227e)" d="M 184.773149 128.543905 
L 184.773149 91.482943 
" style="fill:none;stroke:#2f2f2f;stroke-linecap:round;stroke-width:4.2;"/>
   </g>
   <g id="line2d_18">
    <path clip-path="url(#p109527227e)" d="M 240.523708 158.518066 
L 240.523708 45.374445 
" style="fill:none;stroke:#2f2f2f;stroke-linecap:round;stroke-width:1.4;"/>
   </g>
   <g id="line2d_19">
    <path clip-path="url(#p109527227e)" d="M 240.523708 125.326271 
L 240.523708 77.575987 
" style="fill:none;stroke:#2f2f2f;stroke-linecap:round;stroke-width:4.2;"/>
   </g>
   <g id="patch_3">
    <path d="M 45.39675 184.912 
L 45.39675 13.2 
" style="fill:none;stroke:#262626;stroke-linecap:square;stroke-linejoin:miter;stroke-width:1.25;"/>
   </g>
   <g id="patch_4">
    <path d="M 45.39675 184.912 
L 268.398988 184.912 
" style="fill:none;stroke:#262626;stroke-linecap:square;stroke-linejoin:miter;stroke-width:1.25;"/>
   </g>
   <g id="PathCollection_1">
    <defs>
     <path d="M 0 1.4 
C 0.371284 1.4 0.727412 1.252487 0.989949 0.989949 
C 1.252487 0.727412 1.4 0.371284 1.4 0 
C 1.4 -0.371284 1.252487 -0.727412 0.989949 -0.989949 
C 0.727412 -1.252487 0.371284 -1.4 0 -1.4 
C -0.371284 -1.4 -0.727412 -1.252487 -0.989949 -0.989949 
C -1.252487 -0.727412 -1.4 -0.371284 -1.4 0 
C -1.4 0.371284 -1.252487 0.727412 -0.989949 0.989949 
C -0.727412 1.252487 -0.371284 1.4 0 1.4 
z
" id="m2cb3d081d8" style="stroke:#2f2f2f;stroke-width:0.24;"/>
    </defs>
    <g clip-path="url(#p109527227e)">
     <use style="fill:#ffffff;stroke:#2f2f2f;stroke-width:0.24;" x="73.27203" xlink:href="#m2cb3d081d8" y="126.930183"/>
    </g>
   </g>
   <g id="PathCollection_2">
    <g clip-path="url(#p109527227e)">
     <use style="fill:#ffffff;stroke:#2f2f2f;stroke-width:0.24;" x="129.022589" xlink:href="#m2cb3d081d8" y="110.552237"/>
    </g>
   </g>
   <g id="PathCollection_3">
    <g clip-path="url(#p109527227e)">
     <use style="fill:#ffffff;stroke:#2f2f2f;stroke-width:0.24;" x="184.773149" xlink:href="#m2cb3d081d8" y="113.277926"/>
    </g>
   </g>
   <g id="PathCollection_4">
    <g clip-path="url(#p109527227e)">
     <use style="fill:#ffffff;stroke:#2f2f2f;stroke-width:0.24;" x="240.523708" xlink:href="#m2cb3d081d8" y="106.1565"/>
    </g>
   </g>
   <g id="text_13">
    <!-- Total downloads: 6,310,189 -->
    <defs>
     <path d="M -0.296875 72.90625 
L 61.375 72.90625 
L 61.375 64.59375 
L 35.5 64.59375 
L 35.5 0 
L 25.59375 0 
L 25.59375 64.59375 
L -0.296875 64.59375 
z
" id="DejaVuSans-54"/>
     <path id="DejaVuSans-20"/>
     <path d="M 11.71875 12.40625 
L 22.015625 12.40625 
L 22.015625 0 
L 11.71875 0 
z
M 11.71875 51.703125 
L 22.015625 51.703125 
L 22.015625 39.3125 
L 11.71875 39.3125 
z
" id="DejaVuSans-3a"/>
     <path d="M 11.71875 12.40625 
L 22.015625 12.40625 
L 22.015625 4 
L 14.015625 -11.625 
L 7.71875 -11.625 
L 11.71875 4 
z
" id="DejaVuSans-2c"/>
     <path d="M 31.78125 34.625 
Q 24.75 34.625 20.71875 30.859375 
Q 16.703125 27.09375 16.703125 20.515625 
Q 16.703125 13.921875 20.71875 10.15625 
Q 24.75 6.390625 31.78125 6.390625 
Q 38.8125 6.390625 42.859375 10.171875 
Q 46.921875 13.96875 46.921875 20.515625 
Q 46.921875 27.09375 42.890625 30.859375 
Q 38.875 34.625 31.78125 34.625 
z
M 21.921875 38.8125 
Q 15.578125 40.375 12.03125 44.71875 
Q 8.5 49.078125 8.5 55.328125 
Q 8.5 64.0625 14.71875 69.140625 
Q 20.953125 74.21875 31.78125 74.21875 
Q 42.671875 74.21875 48.875 69.140625 
Q 55.078125 64.0625 55.078125 55.328125 
Q 55.078125 49.078125 51.53125 44.71875 
Q 48 40.375 41.703125 38.8125 
Q 48.828125 37.15625 52.796875 32.3125 
Q 56.78125 27.484375 56.78125 20.515625 
Q 56.78125 9.90625 50.3125 4.234375 
Q 43.84375 -1.421875 31.78125 -1.421875 
Q 19.734375 -1.421875 13.25 4.234375 
Q 6.78125 9.90625 6.78125 20.515625 
Q 6.78125 27.484375 10.78125 32.3125 
Q 14.796875 37.15625 21.921875 38.8125 
z
M 18.3125 54.390625 
Q 18.3125 48.734375 21.84375 45.5625 
Q 25.390625 42.390625 31.78125 42.390625 
Q 38.140625 42.390625 41.71875 45.5625 
Q 45.3125 48.734375 45.3125 54.390625 
Q 45.3125 60.0625 41.71875 63.234375 
Q 38.140625 66.40625 31.78125 66.40625 
Q 25.390625 66.40625 21.84375 63.234375 
Q 18.3125 60.0625 18.3125 54.390625 
z
" id="DejaVuSans-38"/>
     <path d="M 10.984375 1.515625 
L 10.984375 10.5 
Q 14.703125 8.734375 18.5 7.8125 
Q 22.3125 6.890625 25.984375 6.890625 
Q 35.75 6.890625 40.890625 13.453125 
Q 46.046875 20.015625 46.78125 33.40625 
Q 43.953125 29.203125 39.59375 26.953125 
Q 35.25 24.703125 29.984375 24.703125 
Q 19.046875 24.703125 12.671875 31.3125 
Q 6.296875 37.9375 6.296875 49.421875 
Q 6.296875 60.640625 12.9375 67.421875 
Q 19.578125 74.21875 30.609375 74.21875 
Q 43.265625 74.21875 49.921875 64.515625 
Q 56.59375 54.828125 56.59375 36.375 
Q 56.59375 19.140625 48.40625 8.859375 
Q 40.234375 -1.421875 26.421875 -1.421875 
Q 22.703125 -1.421875 18.890625 -0.6875 
Q 15.09375 0.046875 10.984375 1.515625 
z
M 30.609375 32.421875 
Q 37.25 32.421875 41.125 36.953125 
Q 45.015625 41.5 45.015625 49.421875 
Q 45.015625 57.28125 41.125 61.84375 
Q 37.25 66.40625 30.609375 66.40625 
Q 23.96875 66.40625 20.09375 61.84375 
Q 16.21875 57.28125 16.21875 49.421875 
Q 16.21875 41.5 20.09375 36.953125 
Q 23.96875 32.421875 30.609375 32.421875 
z
" id="DejaVuSans-39"/>
    </defs>
    <g style="fill:#262626;" transform="translate(90.076619 20.4945)scale(0.096 -0.096)">
     <use xlink:href="#DejaVuSans-54"/>
     <use x="60.818359" xlink:href="#DejaVuSans-6f"/>
     <use x="122" xlink:href="#DejaVuSans-74"/>
     <use x="161.208984" xlink:href="#DejaVuSans-61"/>
     <use x="222.488281" xlink:href="#DejaVuSans-6c"/>
     <use x="250.271484" xlink:href="#DejaVuSans-20"/>
     <use x="282.058594" xlink:href="#DejaVuSans-64"/>
     <use x="345.535156" xlink:href="#DejaVuSans-6f"/>
     <use x="406.716797" xlink:href="#DejaVuSans-77"/>
     <use x="488.503906" xlink:href="#DejaVuSans-6e"/>
     <use x="551.882812" xlink:href="#DejaVuSans-6c"/>
     <use x="579.666016" xlink:href="#DejaVuSans-6f"/>
     <use x="640.847656" xlink:href="#DejaVuSans-61"/>
     <use x="702.126953" xlink:href="#DejaVuSans-64"/>
     <use x="765.603516" xlink:href="#DejaVuSans-73"/>
     <use x="817.703125" xlink:href="#DejaVuSans-3a"/>
     <use x="851.394531" xlink:href="#DejaVuSans-20"/>
     <use x="883.181641" xlink:href="#DejaVuSans-36"/>
     <use x="946.804688" xlink:href="#DejaVuSans-2c"/>
     <use x="978.591797" xlink:href="#DejaVuSans-33"/>
     <use x="1042.214844" xlink:href="#DejaVuSans-31"/>
     <use x="1105.837891" xlink:href="#DejaVuSans-30"/>
     <use x="1169.460938" xlink:href="#DejaVuSans-2c"/>
     <use x="1201.248047" xlink:href="#DejaVuSans-31"/>
     <use x="1264.871094" xlink:href="#DejaVuSans-38"/>
     <use x="1328.494141" xlink:href="#DejaVuSans-39"/>
    </g>
   </g>
  </g>
 </g>
 <defs>
  <clipPath id="p109527227e">
   <rect height="171.712" width="223.002238" x="45.39675" y="13.2"/>
  </clipPath>
 </defs>
</svg>
