<?xml version="1.0" encoding="utf-8" standalone="no"?>
<!DOCTYPE svg PUBLIC "-//W3C//DTD SVG 1.1//EN"
  "http://www.w3.org/Graphics/SVG/1.1/DTD/svg11.dtd">
<!-- Created with matplotlib (http://matplotlib.org/) -->
<svg height="211pt" version="1.1" viewBox="0 0 284 211" width="284pt" xmlns="http://www.w3.org/2000/svg" xmlns:xlink="http://www.w3.org/1999/xlink">
 <defs>
  <style type="text/css">
*{stroke-linecap:butt;stroke-linejoin:round;}
  </style>
 </defs>
 <g id="figure_1">
  <g id="patch_1">
   <path d="M 0 211.52025 
L 284.269875 211.52025 
L 284.269875 0 
L 0 0 
z
" style="fill:#ffffff;"/>
  </g>
  <g id="axes_1">
   <g id="patch_2">
    <path d="M 35.425875 185.31025 
L 271.069875 185.31025 
L 271.069875 13.2 
L 35.425875 13.2 
z
" style="fill:#ffffff;"/>
   </g>
   <g id="matplotlib.axis_1">
    <g id="xtick_1">
     <g id="line2d_1">
      <defs>
       <path d="M 0 0 
L 0 6 
" id="m8fe8d52c5b" style="stroke:#262626;stroke-width:0.8;"/>
      </defs>
      <g>
       <use style="fill:#262626;stroke:#262626;stroke-width:0.8;" x="64.881375" xlink:href="#m8fe8d52c5b" y="185.31025"/>
      </g>
     </g>
     <g id="text_1">
      <!-- Bioconductor/R -->
      <defs>
       <path d="M 7.328125 0 
L 7.328125 71.578125 
L 34.1875 71.578125 
Q 42.390625 71.578125 47.34375 69.40625 
Q 52.296875 67.234375 55.09375 62.71875 
Q 57.90625 58.203125 57.90625 53.265625 
Q 57.90625 48.6875 55.421875 44.625 
Q 52.9375 40.578125 47.90625 38.09375 
Q 54.390625 36.1875 57.875 31.59375 
Q 61.375 27 61.375 20.75 
Q 61.375 15.71875 59.25 11.390625 
Q 57.125 7.078125 54 4.734375 
Q 50.875 2.390625 46.15625 1.1875 
Q 41.453125 0 34.625 0 
z
M 16.796875 41.5 
L 32.28125 41.5 
Q 38.578125 41.5 41.3125 42.328125 
Q 44.921875 43.40625 46.75 45.890625 
Q 48.578125 48.390625 48.578125 52.15625 
Q 48.578125 55.71875 46.875 58.421875 
Q 45.171875 61.140625 41.984375 62.140625 
Q 38.8125 63.140625 31.109375 63.140625 
L 16.796875 63.140625 
z
M 16.796875 8.453125 
L 34.625 8.453125 
Q 39.203125 8.453125 41.0625 8.796875 
Q 44.34375 9.375 46.53125 10.734375 
Q 48.734375 12.109375 50.140625 14.71875 
Q 51.5625 17.328125 51.5625 20.75 
Q 51.5625 24.75 49.515625 27.703125 
Q 47.46875 30.671875 43.828125 31.859375 
Q 40.1875 33.0625 33.34375 33.0625 
L 16.796875 33.0625 
z
" id="ArialMT-42"/>
       <path d="M 6.640625 61.46875 
L 6.640625 71.578125 
L 15.4375 71.578125 
L 15.4375 61.46875 
z
M 6.640625 0 
L 6.640625 51.859375 
L 15.4375 51.859375 
L 15.4375 0 
z
" id="ArialMT-69"/>
       <path d="M 3.328125 25.921875 
Q 3.328125 40.328125 11.328125 47.265625 
Q 18.015625 53.03125 27.640625 53.03125 
Q 38.328125 53.03125 45.109375 46.015625 
Q 51.90625 39.015625 51.90625 26.65625 
Q 51.90625 16.65625 48.90625 10.90625 
Q 45.90625 5.171875 40.15625 2 
Q 34.421875 -1.171875 27.640625 -1.171875 
Q 16.75 -1.171875 10.03125 5.8125 
Q 3.328125 12.796875 3.328125 25.921875 
z
M 12.359375 25.921875 
Q 12.359375 15.96875 16.703125 11.015625 
Q 21.046875 6.0625 27.640625 6.0625 
Q 34.1875 6.0625 38.53125 11.03125 
Q 42.875 16.015625 42.875 26.21875 
Q 42.875 35.84375 38.5 40.796875 
Q 34.125 45.75 27.640625 45.75 
Q 21.046875 45.75 16.703125 40.8125 
Q 12.359375 35.890625 12.359375 25.921875 
z
" id="ArialMT-6f"/>
       <path d="M 40.4375 19 
L 49.078125 17.875 
Q 47.65625 8.9375 41.8125 3.875 
Q 35.984375 -1.171875 27.484375 -1.171875 
Q 16.84375 -1.171875 10.375 5.78125 
Q 3.90625 12.75 3.90625 25.734375 
Q 3.90625 34.125 6.6875 40.421875 
Q 9.46875 46.734375 15.15625 49.875 
Q 20.84375 53.03125 27.546875 53.03125 
Q 35.984375 53.03125 41.359375 48.75 
Q 46.734375 44.484375 48.25 36.625 
L 39.703125 35.296875 
Q 38.484375 40.53125 35.375 43.15625 
Q 32.28125 45.796875 27.875 45.796875 
Q 21.234375 45.796875 17.078125 41.03125 
Q 12.9375 36.28125 12.9375 25.984375 
Q 12.9375 15.53125 16.9375 10.796875 
Q 20.953125 6.0625 27.390625 6.0625 
Q 32.5625 6.0625 36.03125 9.234375 
Q 39.5 12.40625 40.4375 19 
z
" id="ArialMT-63"/>
       <path d="M 6.59375 0 
L 6.59375 51.859375 
L 14.5 51.859375 
L 14.5 44.484375 
Q 20.21875 53.03125 31 53.03125 
Q 35.6875 53.03125 39.625 51.34375 
Q 43.5625 49.65625 45.515625 46.921875 
Q 47.46875 44.1875 48.25 40.4375 
Q 48.734375 37.984375 48.734375 31.890625 
L 48.734375 0 
L 39.9375 0 
L 39.9375 31.546875 
Q 39.9375 36.921875 38.90625 39.578125 
Q 37.890625 42.234375 35.28125 43.8125 
Q 32.671875 45.40625 29.15625 45.40625 
Q 23.53125 45.40625 19.453125 41.84375 
Q 15.375 38.28125 15.375 28.328125 
L 15.375 0 
z
" id="ArialMT-6e"/>
       <path d="M 40.234375 0 
L 40.234375 6.546875 
Q 35.296875 -1.171875 25.734375 -1.171875 
Q 19.53125 -1.171875 14.328125 2.25 
Q 9.125 5.671875 6.265625 11.796875 
Q 3.421875 17.921875 3.421875 25.875 
Q 3.421875 33.640625 6 39.96875 
Q 8.59375 46.296875 13.765625 49.65625 
Q 18.953125 53.03125 25.34375 53.03125 
Q 30.03125 53.03125 33.6875 51.046875 
Q 37.359375 49.078125 39.65625 45.90625 
L 39.65625 71.578125 
L 48.390625 71.578125 
L 48.390625 0 
z
M 12.453125 25.875 
Q 12.453125 15.921875 16.640625 10.984375 
Q 20.84375 6.0625 26.5625 6.0625 
Q 32.328125 6.0625 36.34375 10.765625 
Q 40.375 15.484375 40.375 25.140625 
Q 40.375 35.796875 36.265625 40.765625 
Q 32.171875 45.75 26.171875 45.75 
Q 20.3125 45.75 16.375 40.96875 
Q 12.453125 36.1875 12.453125 25.875 
z
" id="ArialMT-64"/>
       <path d="M 40.578125 0 
L 40.578125 7.625 
Q 34.515625 -1.171875 24.125 -1.171875 
Q 19.53125 -1.171875 15.546875 0.578125 
Q 11.578125 2.34375 9.640625 5 
Q 7.71875 7.671875 6.9375 11.53125 
Q 6.390625 14.109375 6.390625 19.734375 
L 6.390625 51.859375 
L 15.1875 51.859375 
L 15.1875 23.09375 
Q 15.1875 16.21875 15.71875 13.8125 
Q 16.546875 10.359375 19.234375 8.375 
Q 21.921875 6.390625 25.875 6.390625 
Q 29.828125 6.390625 33.296875 8.421875 
Q 36.765625 10.453125 38.203125 13.9375 
Q 39.65625 17.4375 39.65625 24.078125 
L 39.65625 51.859375 
L 48.4375 51.859375 
L 48.4375 0 
z
" id="ArialMT-75"/>
       <path d="M 25.78125 7.859375 
L 27.046875 0.09375 
Q 23.34375 -0.6875 20.40625 -0.6875 
Q 15.625 -0.6875 12.984375 0.828125 
Q 10.359375 2.34375 9.28125 4.8125 
Q 8.203125 7.28125 8.203125 15.1875 
L 8.203125 45.015625 
L 1.765625 45.015625 
L 1.765625 51.859375 
L 8.203125 51.859375 
L 8.203125 64.703125 
L 16.9375 69.96875 
L 16.9375 51.859375 
L 25.78125 51.859375 
L 25.78125 45.015625 
L 16.9375 45.015625 
L 16.9375 14.703125 
Q 16.9375 10.9375 17.40625 9.859375 
Q 17.875 8.796875 18.921875 8.15625 
Q 19.96875 7.515625 21.921875 7.515625 
Q 23.390625 7.515625 25.78125 7.859375 
z
" id="ArialMT-74"/>
       <path d="M 6.5 0 
L 6.5 51.859375 
L 14.40625 51.859375 
L 14.40625 44 
Q 17.4375 49.515625 20 51.265625 
Q 22.5625 53.03125 25.640625 53.03125 
Q 30.078125 53.03125 34.671875 50.203125 
L 31.640625 42.046875 
Q 28.421875 43.953125 25.203125 43.953125 
Q 22.3125 43.953125 20.015625 42.21875 
Q 17.71875 40.484375 16.75 37.40625 
Q 15.28125 32.71875 15.28125 27.15625 
L 15.28125 0 
z
" id="ArialMT-72"/>
       <path d="M 0 -1.21875 
L 20.75 72.796875 
L 27.78125 72.796875 
L 7.078125 -1.21875 
z
" id="ArialMT-2f"/>
       <path d="M 7.859375 0 
L 7.859375 71.578125 
L 39.59375 71.578125 
Q 49.171875 71.578125 54.140625 69.640625 
Q 59.125 67.71875 62.109375 62.828125 
Q 65.09375 57.953125 65.09375 52.046875 
Q 65.09375 44.4375 60.15625 39.203125 
Q 55.21875 33.984375 44.921875 32.5625 
Q 48.6875 30.765625 50.640625 29 
Q 54.78125 25.203125 58.5 19.484375 
L 70.953125 0 
L 59.03125 0 
L 49.5625 14.890625 
Q 45.40625 21.34375 42.71875 24.75 
Q 40.046875 28.171875 37.921875 29.53125 
Q 35.796875 30.90625 33.59375 31.453125 
Q 31.984375 31.78125 28.328125 31.78125 
L 17.328125 31.78125 
L 17.328125 0 
z
M 17.328125 39.984375 
L 37.703125 39.984375 
Q 44.1875 39.984375 47.84375 41.328125 
Q 51.515625 42.671875 53.421875 45.625 
Q 55.328125 48.578125 55.328125 52.046875 
Q 55.328125 57.125 51.640625 60.390625 
Q 47.953125 63.671875 39.984375 63.671875 
L 17.328125 63.671875 
z
" id="ArialMT-52"/>
      </defs>
      <g style="fill:#262626;" transform="translate(37.535125 202.6365)scale(0.08 -0.08)">
       <use xlink:href="#ArialMT-42"/>
       <use x="66.699219" xlink:href="#ArialMT-69"/>
       <use x="88.916016" xlink:href="#ArialMT-6f"/>
       <use x="144.53125" xlink:href="#ArialMT-63"/>
       <use x="194.53125" xlink:href="#ArialMT-6f"/>
       <use x="250.146484" xlink:href="#ArialMT-6e"/>
       <use x="305.761719" xlink:href="#ArialMT-64"/>
       <use x="361.376953" xlink:href="#ArialMT-75"/>
       <use x="416.992188" xlink:href="#ArialMT-63"/>
       <use x="466.992188" xlink:href="#ArialMT-74"/>
       <use x="494.775391" xlink:href="#ArialMT-6f"/>
       <use x="550.390625" xlink:href="#ArialMT-72"/>
       <use x="583.691406" xlink:href="#ArialMT-2f"/>
       <use x="611.474609" xlink:href="#ArialMT-52"/>
      </g>
     </g>
    </g>
    <g id="xtick_2">
     <g id="line2d_2">
      <g>
       <use style="fill:#262626;stroke:#262626;stroke-width:0.8;" x="123.792375" xlink:href="#m8fe8d52c5b" y="185.31025"/>
      </g>
     </g>
     <g id="text_2">
      <!-- Other -->
      <defs>
       <path d="M 4.828125 34.859375 
Q 4.828125 52.6875 14.390625 62.765625 
Q 23.96875 72.859375 39.109375 72.859375 
Q 49.03125 72.859375 56.984375 68.109375 
Q 64.9375 63.375 69.109375 54.90625 
Q 73.296875 46.4375 73.296875 35.6875 
Q 73.296875 24.8125 68.890625 16.21875 
Q 64.5 7.625 56.4375 3.203125 
Q 48.390625 -1.21875 39.0625 -1.21875 
Q 28.953125 -1.21875 20.984375 3.65625 
Q 13.03125 8.546875 8.921875 16.984375 
Q 4.828125 25.4375 4.828125 34.859375 
z
M 14.59375 34.71875 
Q 14.59375 21.78125 21.546875 14.328125 
Q 28.515625 6.890625 39.015625 6.890625 
Q 49.703125 6.890625 56.609375 14.40625 
Q 63.53125 21.921875 63.53125 35.75 
Q 63.53125 44.484375 60.578125 51 
Q 57.625 57.515625 51.921875 61.109375 
Q 46.234375 64.703125 39.15625 64.703125 
Q 29.109375 64.703125 21.84375 57.78125 
Q 14.59375 50.875 14.59375 34.71875 
z
" id="ArialMT-4f"/>
       <path d="M 6.59375 0 
L 6.59375 71.578125 
L 15.375 71.578125 
L 15.375 45.90625 
Q 21.53125 53.03125 30.90625 53.03125 
Q 36.671875 53.03125 40.921875 50.75 
Q 45.171875 48.484375 47 44.484375 
Q 48.828125 40.484375 48.828125 32.859375 
L 48.828125 0 
L 40.046875 0 
L 40.046875 32.859375 
Q 40.046875 39.453125 37.1875 42.453125 
Q 34.328125 45.453125 29.109375 45.453125 
Q 25.203125 45.453125 21.75 43.421875 
Q 18.3125 41.40625 16.84375 37.9375 
Q 15.375 34.46875 15.375 28.375 
L 15.375 0 
z
" id="ArialMT-68"/>
       <path d="M 42.09375 16.703125 
L 51.171875 15.578125 
Q 49.03125 7.625 43.21875 3.21875 
Q 37.40625 -1.171875 28.375 -1.171875 
Q 17 -1.171875 10.328125 5.828125 
Q 3.65625 12.84375 3.65625 25.484375 
Q 3.65625 38.578125 10.390625 45.796875 
Q 17.140625 53.03125 27.875 53.03125 
Q 38.28125 53.03125 44.875 45.953125 
Q 51.46875 38.875 51.46875 26.03125 
Q 51.46875 25.25 51.421875 23.6875 
L 12.75 23.6875 
Q 13.234375 15.140625 17.578125 10.59375 
Q 21.921875 6.0625 28.421875 6.0625 
Q 33.25 6.0625 36.671875 8.59375 
Q 40.09375 11.140625 42.09375 16.703125 
z
M 13.234375 30.90625 
L 42.1875 30.90625 
Q 41.609375 37.453125 38.875 40.71875 
Q 34.671875 45.796875 27.984375 45.796875 
Q 21.921875 45.796875 17.796875 41.75 
Q 13.671875 37.703125 13.234375 30.90625 
z
" id="ArialMT-65"/>
      </defs>
      <g style="fill:#262626;" transform="translate(113.78925 202.6365)scale(0.08 -0.08)">
       <use xlink:href="#ArialMT-4f"/>
       <use x="77.783203" xlink:href="#ArialMT-74"/>
       <use x="105.566406" xlink:href="#ArialMT-68"/>
       <use x="161.181641" xlink:href="#ArialMT-65"/>
       <use x="216.796875" xlink:href="#ArialMT-72"/>
      </g>
     </g>
    </g>
    <g id="xtick_3">
     <g id="line2d_3">
      <g>
       <use style="fill:#262626;stroke:#262626;stroke-width:0.8;" x="182.703375" xlink:href="#m8fe8d52c5b" y="185.31025"/>
      </g>
     </g>
     <g id="text_3">
      <!-- Python -->
      <defs>
       <path d="M 7.71875 0 
L 7.71875 71.578125 
L 34.71875 71.578125 
Q 41.84375 71.578125 45.609375 70.90625 
Q 50.875 70.015625 54.4375 67.546875 
Q 58.015625 65.09375 60.1875 60.640625 
Q 62.359375 56.203125 62.359375 50.875 
Q 62.359375 41.75 56.546875 35.421875 
Q 50.734375 29.109375 35.546875 29.109375 
L 17.1875 29.109375 
L 17.1875 0 
z
M 17.1875 37.546875 
L 35.6875 37.546875 
Q 44.875 37.546875 48.734375 40.96875 
Q 52.59375 44.390625 52.59375 50.59375 
Q 52.59375 55.078125 50.3125 58.265625 
Q 48.046875 61.46875 44.34375 62.5 
Q 41.9375 63.140625 35.5 63.140625 
L 17.1875 63.140625 
z
" id="ArialMT-50"/>
       <path d="M 6.203125 -19.96875 
L 5.21875 -11.71875 
Q 8.109375 -12.5 10.25 -12.5 
Q 13.1875 -12.5 14.9375 -11.515625 
Q 16.703125 -10.546875 17.828125 -8.796875 
Q 18.65625 -7.46875 20.515625 -2.25 
Q 20.75 -1.515625 21.296875 -0.09375 
L 1.609375 51.859375 
L 11.078125 51.859375 
L 21.875 21.828125 
Q 23.96875 16.109375 25.640625 9.8125 
Q 27.15625 15.875 29.25 21.625 
L 40.328125 51.859375 
L 49.125 51.859375 
L 29.390625 -0.875 
Q 26.21875 -9.421875 24.46875 -12.640625 
Q 22.125 -17 19.09375 -19.015625 
Q 16.0625 -21.046875 11.859375 -21.046875 
Q 9.328125 -21.046875 6.203125 -19.96875 
z
" id="ArialMT-79"/>
      </defs>
      <g style="fill:#262626;" transform="translate(170.250875 202.6365)scale(0.08 -0.08)">
       <use xlink:href="#ArialMT-50"/>
       <use x="66.699219" xlink:href="#ArialMT-79"/>
       <use x="116.699219" xlink:href="#ArialMT-74"/>
       <use x="144.482422" xlink:href="#ArialMT-68"/>
       <use x="200.097656" xlink:href="#ArialMT-6f"/>
       <use x="255.712891" xlink:href="#ArialMT-6e"/>
      </g>
     </g>
    </g>
    <g id="xtick_4">
     <g id="line2d_4">
      <g>
       <use style="fill:#262626;stroke:#262626;stroke-width:0.8;" x="241.614375" xlink:href="#m8fe8d52c5b" y="185.31025"/>
      </g>
     </g>
     <g id="text_4">
      <!-- Perl -->
      <defs>
       <path d="M 6.390625 0 
L 6.390625 71.578125 
L 15.1875 71.578125 
L 15.1875 0 
z
" id="ArialMT-6c"/>
      </defs>
      <g style="fill:#262626;" transform="translate(234.50125 202.6365)scale(0.08 -0.08)">
       <use xlink:href="#ArialMT-50"/>
       <use x="66.699219" xlink:href="#ArialMT-65"/>
       <use x="122.314453" xlink:href="#ArialMT-72"/>
       <use x="155.615234" xlink:href="#ArialMT-6c"/>
      </g>
     </g>
    </g>
   </g>
   <g id="matplotlib.axis_2">
    <g id="ytick_1">
     <g id="line2d_5">
      <defs>
       <path d="M 0 0 
L -6 0 
" id="mf28c1d20b6" style="stroke:#262626;stroke-width:0.8;"/>
      </defs>
      <g>
       <use style="fill:#262626;stroke:#262626;stroke-width:0.8;" x="35.425875" xlink:href="#mf28c1d20b6" y="178.073206"/>
      </g>
     </g>
     <g id="text_5">
      <!-- 0 -->
      <defs>
       <path d="M 4.15625 35.296875 
Q 4.15625 48 6.765625 55.734375 
Q 9.375 63.484375 14.515625 67.671875 
Q 19.671875 71.875 27.484375 71.875 
Q 33.25 71.875 37.59375 69.546875 
Q 41.9375 67.234375 44.765625 62.859375 
Q 47.609375 58.5 49.21875 52.21875 
Q 50.828125 45.953125 50.828125 35.296875 
Q 50.828125 22.703125 48.234375 14.96875 
Q 45.65625 7.234375 40.5 3 
Q 35.359375 -1.21875 27.484375 -1.21875 
Q 17.140625 -1.21875 11.234375 6.203125 
Q 4.15625 15.140625 4.15625 35.296875 
z
M 13.1875 35.296875 
Q 13.1875 17.671875 17.3125 11.828125 
Q 21.4375 6 27.484375 6 
Q 33.546875 6 37.671875 11.859375 
Q 41.796875 17.71875 41.796875 35.296875 
Q 41.796875 52.984375 37.671875 58.78125 
Q 33.546875 64.59375 27.390625 64.59375 
Q 21.34375 64.59375 17.71875 59.46875 
Q 13.1875 52.9375 13.1875 35.296875 
z
" id="ArialMT-30"/>
      </defs>
      <g style="fill:#262626;" transform="translate(19.377125 180.936331)scale(0.08 -0.08)">
       <use xlink:href="#ArialMT-30"/>
      </g>
     </g>
    </g>
    <g id="ytick_2">
     <g id="line2d_6">
      <g>
       <use style="fill:#262626;stroke:#262626;stroke-width:0.8;" x="35.425875" xlink:href="#mf28c1d20b6" y="150.594338"/>
      </g>
     </g>
     <g id="text_6">
      <!-- 1 -->
      <defs>
       <path d="M 37.25 0 
L 28.46875 0 
L 28.46875 56 
Q 25.296875 52.984375 20.140625 49.953125 
Q 14.984375 46.921875 10.890625 45.40625 
L 10.890625 53.90625 
Q 18.265625 57.375 23.78125 62.296875 
Q 29.296875 67.234375 31.59375 71.875 
L 37.25 71.875 
z
" id="ArialMT-31"/>
      </defs>
      <g style="fill:#262626;" transform="translate(19.377125 153.457463)scale(0.08 -0.08)">
       <use xlink:href="#ArialMT-31"/>
      </g>
     </g>
    </g>
    <g id="ytick_3">
     <g id="line2d_7">
      <g>
       <use style="fill:#262626;stroke:#262626;stroke-width:0.8;" x="35.425875" xlink:href="#mf28c1d20b6" y="123.115471"/>
      </g>
     </g>
     <g id="text_7">
      <!-- 2 -->
      <defs>
       <path d="M 50.34375 8.453125 
L 50.34375 0 
L 3.03125 0 
Q 2.9375 3.171875 4.046875 6.109375 
Q 5.859375 10.9375 9.828125 15.625 
Q 13.8125 20.3125 21.34375 26.46875 
Q 33.015625 36.03125 37.109375 41.625 
Q 41.21875 47.21875 41.21875 52.203125 
Q 41.21875 57.421875 37.46875 61 
Q 33.734375 64.59375 27.734375 64.59375 
Q 21.390625 64.59375 17.578125 60.78125 
Q 13.765625 56.984375 13.71875 50.25 
L 4.6875 51.171875 
Q 5.609375 61.28125 11.65625 66.578125 
Q 17.71875 71.875 27.9375 71.875 
Q 38.234375 71.875 44.234375 66.15625 
Q 50.25 60.453125 50.25 52 
Q 50.25 47.703125 48.484375 43.546875 
Q 46.734375 39.40625 42.65625 34.8125 
Q 38.578125 30.21875 29.109375 22.21875 
Q 21.1875 15.578125 18.9375 13.203125 
Q 16.703125 10.84375 15.234375 8.453125 
z
" id="ArialMT-32"/>
      </defs>
      <g style="fill:#262626;" transform="translate(19.377125 125.978596)scale(0.08 -0.08)">
       <use xlink:href="#ArialMT-32"/>
      </g>
     </g>
    </g>
    <g id="ytick_4">
     <g id="line2d_8">
      <g>
       <use style="fill:#262626;stroke:#262626;stroke-width:0.8;" x="35.425875" xlink:href="#mf28c1d20b6" y="95.636603"/>
      </g>
     </g>
     <g id="text_8">
      <!-- 3 -->
      <defs>
       <path d="M 4.203125 18.890625 
L 12.984375 20.0625 
Q 14.5 12.59375 18.140625 9.296875 
Q 21.78125 6 27 6 
Q 33.203125 6 37.46875 10.296875 
Q 41.75 14.59375 41.75 20.953125 
Q 41.75 27 37.796875 30.921875 
Q 33.84375 34.859375 27.734375 34.859375 
Q 25.25 34.859375 21.53125 33.890625 
L 22.515625 41.609375 
Q 23.390625 41.5 23.921875 41.5 
Q 29.546875 41.5 34.03125 44.421875 
Q 38.53125 47.359375 38.53125 53.46875 
Q 38.53125 58.296875 35.25 61.46875 
Q 31.984375 64.65625 26.8125 64.65625 
Q 21.6875 64.65625 18.265625 61.421875 
Q 14.84375 58.203125 13.875 51.765625 
L 5.078125 53.328125 
Q 6.6875 62.15625 12.390625 67.015625 
Q 18.109375 71.875 26.609375 71.875 
Q 32.46875 71.875 37.390625 69.359375 
Q 42.328125 66.84375 44.9375 62.5 
Q 47.5625 58.15625 47.5625 53.265625 
Q 47.5625 48.640625 45.0625 44.828125 
Q 42.578125 41.015625 37.703125 38.765625 
Q 44.046875 37.3125 47.5625 32.6875 
Q 51.078125 28.078125 51.078125 21.140625 
Q 51.078125 11.765625 44.234375 5.25 
Q 37.40625 -1.265625 26.953125 -1.265625 
Q 17.53125 -1.265625 11.296875 4.34375 
Q 5.078125 9.96875 4.203125 18.890625 
z
" id="ArialMT-33"/>
      </defs>
      <g style="fill:#262626;" transform="translate(19.377125 98.499728)scale(0.08 -0.08)">
       <use xlink:href="#ArialMT-33"/>
      </g>
     </g>
    </g>
    <g id="ytick_5">
     <g id="line2d_9">
      <g>
       <use style="fill:#262626;stroke:#262626;stroke-width:0.8;" x="35.425875" xlink:href="#mf28c1d20b6" y="68.157735"/>
      </g>
     </g>
     <g id="text_9">
      <!-- 4 -->
      <defs>
       <path d="M 32.328125 0 
L 32.328125 17.140625 
L 1.265625 17.140625 
L 1.265625 25.203125 
L 33.9375 71.578125 
L 41.109375 71.578125 
L 41.109375 25.203125 
L 50.78125 25.203125 
L 50.78125 17.140625 
L 41.109375 17.140625 
L 41.109375 0 
z
M 32.328125 25.203125 
L 32.328125 57.46875 
L 9.90625 25.203125 
z
" id="ArialMT-34"/>
      </defs>
      <g style="fill:#262626;" transform="translate(19.377125 71.02086)scale(0.08 -0.08)">
       <use xlink:href="#ArialMT-34"/>
      </g>
     </g>
    </g>
    <g id="ytick_6">
     <g id="line2d_10">
      <g>
       <use style="fill:#262626;stroke:#262626;stroke-width:0.8;" x="35.425875" xlink:href="#mf28c1d20b6" y="40.678868"/>
      </g>
     </g>
     <g id="text_10">
      <!-- 5 -->
      <defs>
       <path d="M 4.15625 18.75 
L 13.375 19.53125 
Q 14.40625 12.796875 18.140625 9.390625 
Q 21.875 6 27.15625 6 
Q 33.5 6 37.890625 10.78125 
Q 42.28125 15.578125 42.28125 23.484375 
Q 42.28125 31 38.0625 35.34375 
Q 33.84375 39.703125 27 39.703125 
Q 22.75 39.703125 19.328125 37.765625 
Q 15.921875 35.84375 13.96875 32.765625 
L 5.71875 33.84375 
L 12.640625 70.609375 
L 48.25 70.609375 
L 48.25 62.203125 
L 19.671875 62.203125 
L 15.828125 42.96875 
Q 22.265625 47.46875 29.34375 47.46875 
Q 38.71875 47.46875 45.15625 40.96875 
Q 51.609375 34.46875 51.609375 24.265625 
Q 51.609375 14.546875 45.953125 7.46875 
Q 39.0625 -1.21875 27.15625 -1.21875 
Q 17.390625 -1.21875 11.203125 4.25 
Q 5.03125 9.71875 4.15625 18.75 
z
" id="ArialMT-35"/>
      </defs>
      <g style="fill:#262626;" transform="translate(19.377125 43.541993)scale(0.08 -0.08)">
       <use xlink:href="#ArialMT-35"/>
      </g>
     </g>
    </g>
    <g id="ytick_7">
     <g id="line2d_11">
      <g>
       <use style="fill:#262626;stroke:#262626;stroke-width:0.8;" x="35.425875" xlink:href="#mf28c1d20b6" y="13.2"/>
      </g>
     </g>
     <g id="text_11">
      <!-- 6 -->
      <defs>
       <path d="M 49.75 54.046875 
L 41.015625 53.375 
Q 39.84375 58.546875 37.703125 60.890625 
Q 34.125 64.65625 28.90625 64.65625 
Q 24.703125 64.65625 21.53125 62.3125 
Q 17.390625 59.28125 14.984375 53.46875 
Q 12.59375 47.65625 12.5 36.921875 
Q 15.671875 41.75 20.265625 44.09375 
Q 24.859375 46.4375 29.890625 46.4375 
Q 38.671875 46.4375 44.84375 39.96875 
Q 51.03125 33.5 51.03125 23.25 
Q 51.03125 16.5 48.125 10.71875 
Q 45.21875 4.9375 40.140625 1.859375 
Q 35.0625 -1.21875 28.609375 -1.21875 
Q 17.625 -1.21875 10.6875 6.859375 
Q 3.765625 14.9375 3.765625 33.5 
Q 3.765625 54.25 11.421875 63.671875 
Q 18.109375 71.875 29.4375 71.875 
Q 37.890625 71.875 43.28125 67.140625 
Q 48.6875 62.40625 49.75 54.046875 
z
M 13.875 23.1875 
Q 13.875 18.65625 15.796875 14.5 
Q 17.71875 10.359375 21.1875 8.171875 
Q 24.65625 6 28.46875 6 
Q 34.03125 6 38.03125 10.484375 
Q 42.046875 14.984375 42.046875 22.703125 
Q 42.046875 30.125 38.078125 34.390625 
Q 34.125 38.671875 28.125 38.671875 
Q 22.171875 38.671875 18.015625 34.390625 
Q 13.875 30.125 13.875 23.1875 
z
" id="ArialMT-36"/>
      </defs>
      <g style="fill:#262626;" transform="translate(19.377125 16.063125)scale(0.08 -0.08)">
       <use xlink:href="#ArialMT-36"/>
      </g>
     </g>
    </g>
    <g id="text_12">
     <!-- log10 downloads -->
     <defs>
      <path d="M 4.984375 -4.296875 
L 13.53125 -5.5625 
Q 14.0625 -9.515625 16.5 -11.328125 
Q 19.78125 -13.765625 25.4375 -13.765625 
Q 31.546875 -13.765625 34.859375 -11.328125 
Q 38.1875 -8.890625 39.359375 -4.5 
Q 40.046875 -1.8125 39.984375 6.78125 
Q 34.234375 0 25.640625 0 
Q 14.9375 0 9.078125 7.71875 
Q 3.21875 15.4375 3.21875 26.21875 
Q 3.21875 33.640625 5.90625 39.90625 
Q 8.59375 46.1875 13.6875 49.609375 
Q 18.796875 53.03125 25.6875 53.03125 
Q 34.859375 53.03125 40.828125 45.609375 
L 40.828125 51.859375 
L 48.921875 51.859375 
L 48.921875 7.03125 
Q 48.921875 -5.078125 46.453125 -10.125 
Q 44 -15.1875 38.640625 -18.109375 
Q 33.296875 -21.046875 25.484375 -21.046875 
Q 16.21875 -21.046875 10.5 -16.875 
Q 4.78125 -12.703125 4.984375 -4.296875 
z
M 12.25 26.859375 
Q 12.25 16.65625 16.296875 11.96875 
Q 20.359375 7.28125 26.46875 7.28125 
Q 32.515625 7.28125 36.609375 11.9375 
Q 40.71875 16.609375 40.71875 26.5625 
Q 40.71875 36.078125 36.5 40.90625 
Q 32.28125 45.75 26.3125 45.75 
Q 20.453125 45.75 16.34375 40.984375 
Q 12.25 36.234375 12.25 26.859375 
z
" id="ArialMT-67"/>
      <path id="ArialMT-20"/>
      <path d="M 16.15625 0 
L 0.296875 51.859375 
L 9.375 51.859375 
L 17.625 21.921875 
L 20.703125 10.796875 
Q 20.90625 11.625 23.390625 21.484375 
L 31.640625 51.859375 
L 40.671875 51.859375 
L 48.4375 21.78125 
L 51.03125 11.859375 
L 54 21.875 
L 62.890625 51.859375 
L 71.4375 51.859375 
L 55.21875 0 
L 46.09375 0 
L 37.84375 31.0625 
L 35.84375 39.890625 
L 25.34375 0 
z
" id="ArialMT-77"/>
      <path d="M 40.4375 6.390625 
Q 35.546875 2.25 31.03125 0.53125 
Q 26.515625 -1.171875 21.34375 -1.171875 
Q 12.796875 -1.171875 8.203125 3 
Q 3.609375 7.171875 3.609375 13.671875 
Q 3.609375 17.484375 5.34375 20.625 
Q 7.078125 23.78125 9.890625 25.6875 
Q 12.703125 27.59375 16.21875 28.5625 
Q 18.796875 29.25 24.03125 29.890625 
Q 34.671875 31.15625 39.703125 32.90625 
Q 39.75 34.71875 39.75 35.203125 
Q 39.75 40.578125 37.25 42.78125 
Q 33.890625 45.75 27.25 45.75 
Q 21.046875 45.75 18.09375 43.578125 
Q 15.140625 41.40625 13.71875 35.890625 
L 5.125 37.0625 
Q 6.296875 42.578125 8.984375 45.96875 
Q 11.671875 49.359375 16.75 51.1875 
Q 21.828125 53.03125 28.515625 53.03125 
Q 35.15625 53.03125 39.296875 51.46875 
Q 43.453125 49.90625 45.40625 47.53125 
Q 47.359375 45.171875 48.140625 41.546875 
Q 48.578125 39.3125 48.578125 33.453125 
L 48.578125 21.734375 
Q 48.578125 9.46875 49.140625 6.21875 
Q 49.703125 2.984375 51.375 0 
L 42.1875 0 
Q 40.828125 2.734375 40.4375 6.390625 
z
M 39.703125 26.03125 
Q 34.90625 24.078125 25.34375 22.703125 
Q 19.921875 21.921875 17.671875 20.9375 
Q 15.4375 19.96875 14.203125 18.09375 
Q 12.984375 16.21875 12.984375 13.921875 
Q 12.984375 10.40625 15.640625 8.0625 
Q 18.3125 5.71875 23.4375 5.71875 
Q 28.515625 5.71875 32.46875 7.9375 
Q 36.421875 10.15625 38.28125 14.015625 
Q 39.703125 17 39.703125 22.796875 
z
" id="ArialMT-61"/>
      <path d="M 3.078125 15.484375 
L 11.765625 16.84375 
Q 12.5 11.625 15.84375 8.84375 
Q 19.1875 6.0625 25.203125 6.0625 
Q 31.25 6.0625 34.171875 8.515625 
Q 37.109375 10.984375 37.109375 14.3125 
Q 37.109375 17.28125 34.515625 19 
Q 32.71875 20.171875 25.53125 21.96875 
Q 15.875 24.421875 12.140625 26.203125 
Q 8.40625 27.984375 6.46875 31.125 
Q 4.546875 34.28125 4.546875 38.09375 
Q 4.546875 41.546875 6.125 44.5 
Q 7.71875 47.46875 10.453125 49.421875 
Q 12.5 50.921875 16.03125 51.96875 
Q 19.578125 53.03125 23.640625 53.03125 
Q 29.734375 53.03125 34.34375 51.265625 
Q 38.96875 49.515625 41.15625 46.5 
Q 43.359375 43.5 44.1875 38.484375 
L 35.59375 37.3125 
Q 35.015625 41.3125 32.203125 43.546875 
Q 29.390625 45.796875 24.265625 45.796875 
Q 18.21875 45.796875 15.625 43.796875 
Q 13.03125 41.796875 13.03125 39.109375 
Q 13.03125 37.40625 14.109375 36.03125 
Q 15.1875 34.625 17.484375 33.6875 
Q 18.796875 33.203125 25.25 31.453125 
Q 34.578125 28.953125 38.25 27.359375 
Q 41.9375 25.78125 44.03125 22.75 
Q 46.140625 19.734375 46.140625 15.234375 
Q 46.140625 10.84375 43.578125 6.953125 
Q 41.015625 3.078125 36.171875 0.953125 
Q 31.34375 -1.171875 25.25 -1.171875 
Q 15.140625 -1.171875 9.84375 3.03125 
Q 4.546875 7.234375 3.078125 15.484375 
z
" id="ArialMT-73"/>
     </defs>
     <g style="fill:#262626;" transform="translate(13.525 132.2785)rotate(-90)scale(0.088 -0.088)">
      <use xlink:href="#ArialMT-6c"/>
      <use x="22.216797" xlink:href="#ArialMT-6f"/>
      <use x="77.832031" xlink:href="#ArialMT-67"/>
      <use x="133.447266" xlink:href="#ArialMT-31"/>
      <use x="189.0625" xlink:href="#ArialMT-30"/>
      <use x="244.677734" xlink:href="#ArialMT-20"/>
      <use x="272.460938" xlink:href="#ArialMT-64"/>
      <use x="328.076172" xlink:href="#ArialMT-6f"/>
      <use x="383.691406" xlink:href="#ArialMT-77"/>
      <use x="455.908203" xlink:href="#ArialMT-6e"/>
      <use x="511.523438" xlink:href="#ArialMT-6c"/>
      <use x="533.740234" xlink:href="#ArialMT-6f"/>
      <use x="589.355469" xlink:href="#ArialMT-61"/>
      <use x="644.970703" xlink:href="#ArialMT-64"/>
      <use x="700.585938" xlink:href="#ArialMT-73"/>
     </g>
    </g>
   </g>
   <g id="PolyCollection_1">
    <defs>
     <path d="M 65.094056 -46.557796 
L 64.668694 -46.557796 
L 64.60081 -47.71689 
L 64.50249 -48.875983 
L 64.359078 -50.035077 
L 64.150807 -51.194171 
L 63.852275 -52.353265 
L 63.432542 -53.512358 
L 62.856251 -54.671452 
L 62.086108 -55.830546 
L 61.086936 -56.98964 
L 59.831225 -58.148733 
L 58.305712 -59.307827 
L 56.518052 -60.466921 
L 54.502264 -61.626015 
L 52.321483 -62.785108 
L 50.066704 -63.944202 
L 47.850809 -65.103296 
L 45.798053 -66.262389 
L 44.030245 -67.421483 
L 42.651785 -68.580577 
L 41.736233 -69.739671 
L 41.316975 -70.898764 
L 41.383861 -72.057858 
L 41.886438 -73.216952 
L 42.743058 -74.376046 
L 43.853933 -75.535139 
L 45.115485 -76.694233 
L 46.433326 -77.853327 
L 47.731713 -79.012421 
L 48.958325 -80.171514 
L 50.084312 -81.330608 
L 51.100503 -82.489702 
L 52.011289 -83.648796 
L 52.827838 -84.807889 
L 53.562102 -85.966983 
L 54.222578 -87.126077 
L 54.812242 -88.285171 
L 55.328525 -89.444264 
L 55.764848 -90.603358 
L 56.113045 -91.762452 
L 56.366006 -92.921546 
L 56.519985 -94.080639 
L 56.576194 -95.239733 
L 56.541547 -96.398827 
L 56.428526 -97.55792 
L 56.254332 -98.717014 
L 56.039508 -99.876108 
L 55.806299 -101.035202 
L 55.57697 -102.194295 
L 55.372282 -103.353389 
L 55.210292 -104.512483 
L 55.105522 -105.671577 
L 55.068515 -106.83067 
L 55.105705 -107.989764 
L 55.219498 -109.148858 
L 55.408452 -110.307952 
L 55.667497 -111.467045 
L 55.988147 -112.626139 
L 56.358762 -113.785233 
L 56.764941 -114.944327 
L 57.190128 -116.10342 
L 57.616524 -117.262514 
L 58.026273 -118.421608 
L 58.402871 -119.580702 
L 58.732618 -120.739795 
L 59.005913 -121.898889 
L 59.218159 -123.057983 
L 59.370121 -124.217077 
L 59.467628 -125.37617 
L 59.520663 -126.535264 
L 59.541972 -127.694358 
L 59.545435 -128.853452 
L 59.544466 -130.012545 
L 59.550709 -131.171639 
L 59.5732 -132.330733 
L 59.618063 -133.489826 
L 59.688693 -134.64892 
L 59.786254 -135.808014 
L 59.910307 -136.967108 
L 60.059372 -138.126201 
L 60.231289 -139.285295 
L 60.423357 -140.444389 
L 60.632279 -141.603483 
L 60.854049 -142.762576 
L 61.083897 -143.92167 
L 61.316397 -145.080764 
L 61.545808 -146.239858 
L 61.766609 -147.398951 
L 61.974151 -148.558045 
L 62.165304 -149.717139 
L 62.338938 -150.876233 
L 62.496126 -152.035326 
L 62.639989 -153.19442 
L 62.775181 -154.353514 
L 62.907096 -155.512608 
L 63.040926 -156.671701 
L 63.180757 -157.830795 
L 63.328873 -158.989889 
L 63.485393 -160.148983 
L 63.648308 -161.308076 
L 66.114442 -161.308076 
L 66.114442 -161.308076 
L 66.277357 -160.148983 
L 66.433877 -158.989889 
L 66.581993 -157.830795 
L 66.721824 -156.671701 
L 66.855654 -155.512608 
L 66.987569 -154.353514 
L 67.122761 -153.19442 
L 67.266624 -152.035326 
L 67.423812 -150.876233 
L 67.597446 -149.717139 
L 67.788599 -148.558045 
L 67.996141 -147.398951 
L 68.216942 -146.239858 
L 68.446353 -145.080764 
L 68.678853 -143.92167 
L 68.908701 -142.762576 
L 69.130471 -141.603483 
L 69.339393 -140.444389 
L 69.531461 -139.285295 
L 69.703378 -138.126201 
L 69.852443 -136.967108 
L 69.976496 -135.808014 
L 70.074057 -134.64892 
L 70.144687 -133.489826 
L 70.18955 -132.330733 
L 70.212041 -131.171639 
L 70.218284 -130.012545 
L 70.217315 -128.853452 
L 70.220778 -127.694358 
L 70.242087 -126.535264 
L 70.295122 -125.37617 
L 70.392629 -124.217077 
L 70.544591 -123.057983 
L 70.756837 -121.898889 
L 71.030132 -120.739795 
L 71.359879 -119.580702 
L 71.736477 -118.421608 
L 72.146226 -117.262514 
L 72.572622 -116.10342 
L 72.997809 -114.944327 
L 73.403988 -113.785233 
L 73.774603 -112.626139 
L 74.095253 -111.467045 
L 74.354298 -110.307952 
L 74.543252 -109.148858 
L 74.657045 -107.989764 
L 74.694235 -106.83067 
L 74.657228 -105.671577 
L 74.552458 -104.512483 
L 74.390468 -103.353389 
L 74.18578 -102.194295 
L 73.956451 -101.035202 
L 73.723242 -99.876108 
L 73.508418 -98.717014 
L 73.334224 -97.55792 
L 73.221203 -96.398827 
L 73.186556 -95.239733 
L 73.242765 -94.080639 
L 73.396744 -92.921546 
L 73.649705 -91.762452 
L 73.997902 -90.603358 
L 74.434225 -89.444264 
L 74.950508 -88.285171 
L 75.540172 -87.126077 
L 76.200648 -85.966983 
L 76.934912 -84.807889 
L 77.751461 -83.648796 
L 78.662247 -82.489702 
L 79.678438 -81.330608 
L 80.804425 -80.171514 
L 82.031037 -79.012421 
L 83.329424 -77.853327 
L 84.647265 -76.694233 
L 85.908817 -75.535139 
L 87.019692 -74.376046 
L 87.876312 -73.216952 
L 88.378889 -72.057858 
L 88.445775 -70.898764 
L 88.026517 -69.739671 
L 87.110965 -68.580577 
L 85.732505 -67.421483 
L 83.964697 -66.262389 
L 81.911941 -65.103296 
L 79.696046 -63.944202 
L 77.441267 -62.785108 
L 75.260486 -61.626015 
L 73.244698 -60.466921 
L 71.457038 -59.307827 
L 69.931525 -58.148733 
L 68.675814 -56.98964 
L 67.676642 -55.830546 
L 66.906499 -54.671452 
L 66.330208 -53.512358 
L 65.910475 -52.353265 
L 65.611943 -51.194171 
L 65.403672 -50.035077 
L 65.26026 -48.875983 
L 65.16194 -47.71689 
L 65.094056 -46.557796 
z
" id="m243dffaa17" style="stroke:#2f2f2f;stroke-width:1.4;"/>
    </defs>
    <g clip-path="url(#p9ce7acf705)">
     <use style="fill:#166c9c;stroke:#2f2f2f;stroke-width:1.4;" x="0" xlink:href="#m243dffaa17" y="211.52025"/>
    </g>
   </g>
   <g id="PolyCollection_2">
    <defs>
     <path d="M 124.48297 -46.557796 
L 123.10178 -46.557796 
L 123.04114 -47.887393 
L 122.984029 -49.21699 
L 122.917779 -50.546588 
L 122.824286 -51.876185 
L 122.682069 -53.205782 
L 122.469375 -54.535379 
L 122.167888 -55.864977 
L 121.766427 -57.194574 
L 121.263921 -58.524171 
L 120.670927 -59.853768 
L 120.009131 -61.183366 
L 119.308623 -62.512963 
L 118.603234 -63.84256 
L 117.924766 -65.172158 
L 117.297309 -66.501755 
L 116.732918 -67.831352 
L 116.229738 -69.160949 
L 115.773172 -70.490547 
L 115.34006 -71.820144 
L 114.905191 -73.149741 
L 114.448783 -74.479338 
L 113.963142 -75.808936 
L 113.456539 -77.138533 
L 112.952753 -78.46813 
L 112.485643 -79.797727 
L 112.089517 -81.127325 
L 111.787378 -82.456922 
L 111.580055 -83.786519 
L 111.439237 -85.116117 
L 111.306707 -86.445714 
L 111.100729 -87.775311 
L 110.729208 -89.104908 
L 110.10792 -90.434506 
L 109.181106 -91.764103 
L 107.940696 -93.0937 
L 106.43971 -94.423297 
L 104.795333 -95.752895 
L 103.178405 -97.082492 
L 101.788942 -98.412089 
L 100.821322 -99.741686 
L 100.426608 -101.071284 
L 100.681539 -102.400881 
L 101.572735 -103.730478 
L 103.000657 -105.060075 
L 104.802112 -106.389673 
L 106.784739 -107.71927 
L 108.76386 -109.048867 
L 110.592401 -110.378465 
L 112.177682 -111.708062 
L 113.483433 -113.037659 
L 114.519573 -114.367256 
L 115.324857 -115.696854 
L 115.948093 -117.026451 
L 116.432651 -118.356048 
L 116.807135 -119.685645 
L 117.083164 -121.015243 
L 117.259478 -122.34484 
L 117.33033 -123.674437 
L 117.295286 -125.004034 
L 117.167334 -126.333632 
L 116.976702 -127.663229 
L 116.768965 -128.992826 
L 116.597791 -130.322423 
L 116.514394 -131.652021 
L 116.556877 -132.981618 
L 116.742712 -134.311215 
L 117.06646 -135.640813 
L 117.503095 -136.97041 
L 118.015444 -138.300007 
L 118.563209 -139.629604 
L 119.110933 -140.959202 
L 119.633067 -142.288799 
L 120.115558 -143.618396 
L 120.554438 -144.947993 
L 120.9526 -146.277591 
L 121.316053 -147.607188 
L 121.65067 -148.936785 
L 121.960063 -150.266382 
L 122.244749 -151.59598 
L 122.502495 -152.925577 
L 122.729496 -154.255174 
L 122.921944 -155.584771 
L 123.077516 -156.914369 
L 123.196399 -158.243966 
L 123.281605 -159.573563 
L 123.33855 -160.903161 
L 123.37407 -162.232758 
L 123.395216 -163.562355 
L 123.408168 -164.891952 
L 123.417583 -166.22155 
L 123.426453 -167.551147 
L 123.436416 -168.880744 
L 123.448279 -170.210341 
L 123.462518 -171.539939 
L 123.479565 -172.869536 
L 123.499846 -174.199133 
L 123.523621 -175.52873 
L 123.550781 -176.858328 
L 123.580708 -178.187925 
L 124.004042 -178.187925 
L 124.004042 -178.187925 
L 124.033969 -176.858328 
L 124.061129 -175.52873 
L 124.084904 -174.199133 
L 124.105185 -172.869536 
L 124.122232 -171.539939 
L 124.136471 -170.210341 
L 124.148334 -168.880744 
L 124.158297 -167.551147 
L 124.167167 -166.22155 
L 124.176582 -164.891952 
L 124.189534 -163.562355 
L 124.21068 -162.232758 
L 124.2462 -160.903161 
L 124.303145 -159.573563 
L 124.388351 -158.243966 
L 124.507234 -156.914369 
L 124.662806 -155.584771 
L 124.855254 -154.255174 
L 125.082255 -152.925577 
L 125.340001 -151.59598 
L 125.624687 -150.266382 
L 125.93408 -148.936785 
L 126.268697 -147.607188 
L 126.63215 -146.277591 
L 127.030312 -144.947993 
L 127.469192 -143.618396 
L 127.951683 -142.288799 
L 128.473817 -140.959202 
L 129.021541 -139.629604 
L 129.569306 -138.300007 
L 130.081655 -136.97041 
L 130.51829 -135.640813 
L 130.842038 -134.311215 
L 131.027873 -132.981618 
L 131.070356 -131.652021 
L 130.986959 -130.322423 
L 130.815785 -128.992826 
L 130.608048 -127.663229 
L 130.417416 -126.333632 
L 130.289464 -125.004034 
L 130.25442 -123.674437 
L 130.325272 -122.34484 
L 130.501586 -121.015243 
L 130.777615 -119.685645 
L 131.152099 -118.356048 
L 131.636657 -117.026451 
L 132.259893 -115.696854 
L 133.065177 -114.367256 
L 134.101317 -113.037659 
L 135.407068 -111.708062 
L 136.992349 -110.378465 
L 138.82089 -109.048867 
L 140.800011 -107.71927 
L 142.782638 -106.389673 
L 144.584093 -105.060075 
L 146.012015 -103.730478 
L 146.903211 -102.400881 
L 147.158142 -101.071284 
L 146.763428 -99.741686 
L 145.795808 -98.412089 
L 144.406345 -97.082492 
L 142.789417 -95.752895 
L 141.14504 -94.423297 
L 139.644054 -93.0937 
L 138.403644 -91.764103 
L 137.47683 -90.434506 
L 136.855542 -89.104908 
L 136.484021 -87.775311 
L 136.278043 -86.445714 
L 136.145513 -85.116117 
L 136.004695 -83.786519 
L 135.797372 -82.456922 
L 135.495233 -81.127325 
L 135.099107 -79.797727 
L 134.631997 -78.46813 
L 134.128211 -77.138533 
L 133.621608 -75.808936 
L 133.135967 -74.479338 
L 132.679559 -73.149741 
L 132.24469 -71.820144 
L 131.811578 -70.490547 
L 131.355012 -69.160949 
L 130.851832 -67.831352 
L 130.287441 -66.501755 
L 129.659984 -65.172158 
L 128.981516 -63.84256 
L 128.276127 -62.512963 
L 127.575619 -61.183366 
L 126.913823 -59.853768 
L 126.320829 -58.524171 
L 125.818323 -57.194574 
L 125.416862 -55.864977 
L 125.115375 -54.535379 
L 124.902681 -53.205782 
L 124.760464 -51.876185 
L 124.666971 -50.546588 
L 124.600721 -49.21699 
L 124.54361 -47.887393 
L 124.48297 -46.557796 
z
" id="m6828b0296c" style="stroke:#2f2f2f;stroke-width:1.4;"/>
    </defs>
    <g clip-path="url(#p9ce7acf705)">
     <use style="fill:#148a6a;stroke:#2f2f2f;stroke-width:1.4;" x="0" xlink:href="#m6828b0296c" y="211.52025"/>
    </g>
   </g>
   <g id="PolyCollection_3">
    <defs>
     <path d="M 182.797264 -33.447044 
L 182.609486 -33.447044 
L 182.604731 -34.837103 
L 182.600793 -36.227161 
L 182.596326 -37.61722 
L 182.589642 -39.007278 
L 182.578852 -40.397337 
L 182.561892 -41.787395 
L 182.536396 -43.177454 
L 182.49936 -44.567512 
L 182.446691 -45.957571 
L 182.372753 -47.347629 
L 182.270086 -48.737688 
L 182.129528 -50.127746 
L 181.940862 -51.517805 
L 181.69406 -52.907863 
L 181.380973 -54.297922 
L 180.99712 -55.68798 
L 180.543068 -57.078039 
L 180.024866 -58.468097 
L 179.453175 -59.858156 
L 178.841126 -61.248214 
L 178.201412 -62.638273 
L 177.543499 -64.028331 
L 176.871947 -65.41839 
L 176.186517 -66.808448 
L 175.484132 -68.198507 
L 174.762047 -69.588565 
L 174.021068 -70.978624 
L 173.267592 -72.368683 
L 172.513703 -73.758741 
L 171.775261 -75.1488 
L 171.068728 -76.538858 
L 170.407915 -77.928917 
L 169.801768 -79.318975 
L 169.253893 -80.709034 
L 168.763753 -82.099092 
L 168.328893 -83.489151 
L 167.947238 -84.879209 
L 167.618607 -86.269268 
L 167.345013 -87.659326 
L 167.129857 -89.049385 
L 166.976509 -90.439443 
L 166.886957 -91.829502 
L 166.861107 -93.21956 
L 166.897007 -94.609619 
L 166.991916 -95.999677 
L 167.143841 -97.389736 
L 167.35293 -98.779794 
L 167.622123 -100.169853 
L 167.956623 -101.559911 
L 168.36208 -102.94997 
L 168.841798 -104.340028 
L 169.393657 -105.730087 
L 170.007647 -107.120145 
L 170.664839 -108.510204 
L 171.338305 -109.900262 
L 171.995968 -111.290321 
L 172.604848 -112.680379 
L 173.13578 -114.070438 
L 173.567596 -115.460497 
L 173.889927 -116.850555 
L 174.104218 -118.240614 
L 174.223004 -119.630672 
L 174.267826 -121.020731 
L 174.266326 -122.410789 
L 174.248925 -123.800848 
L 174.245354 -125.190906 
L 174.281144 -126.580965 
L 174.374331 -127.971023 
L 174.532802 -129.361082 
L 174.753023 -130.75114 
L 175.020817 -132.141199 
L 175.314547 -133.531257 
L 175.610273 -134.921316 
L 175.887747 -136.311374 
L 176.135573 -137.701433 
L 176.353994 -139.091491 
L 176.554442 -140.48155 
L 176.756042 -141.871608 
L 176.98022 -143.261667 
L 177.245115 -144.651725 
L 177.561379 -146.041784 
L 177.930308 -147.431842 
L 178.344434 -148.821901 
L 178.789892 -150.211959 
L 179.249589 -151.602018 
L 179.706173 -152.992076 
L 180.144196 -154.382135 
L 180.551303 -155.772193 
L 180.918596 -157.162252 
L 181.240534 -158.552311 
L 181.514637 -159.942369 
L 181.741193 -161.332428 
L 181.922958 -162.722486 
L 182.064789 -164.112545 
L 182.17312 -165.502603 
L 182.25526 -166.892662 
L 182.318571 -168.28272 
L 182.369659 -169.672779 
L 182.413735 -171.062837 
L 182.993015 -171.062837 
L 182.993015 -171.062837 
L 183.037091 -169.672779 
L 183.088179 -168.28272 
L 183.15149 -166.892662 
L 183.23363 -165.502603 
L 183.341961 -164.112545 
L 183.483792 -162.722486 
L 183.665557 -161.332428 
L 183.892113 -159.942369 
L 184.166216 -158.552311 
L 184.488154 -157.162252 
L 184.855447 -155.772193 
L 185.262554 -154.382135 
L 185.700577 -152.992076 
L 186.157161 -151.602018 
L 186.616858 -150.211959 
L 187.062316 -148.821901 
L 187.476442 -147.431842 
L 187.845371 -146.041784 
L 188.161635 -144.651725 
L 188.42653 -143.261667 
L 188.650708 -141.871608 
L 188.852308 -140.48155 
L 189.052756 -139.091491 
L 189.271177 -137.701433 
L 189.519003 -136.311374 
L 189.796477 -134.921316 
L 190.092203 -133.531257 
L 190.385933 -132.141199 
L 190.653727 -130.75114 
L 190.873948 -129.361082 
L 191.032419 -127.971023 
L 191.125606 -126.580965 
L 191.161396 -125.190906 
L 191.157825 -123.800848 
L 191.140424 -122.410789 
L 191.138924 -121.020731 
L 191.183746 -119.630672 
L 191.302532 -118.240614 
L 191.516823 -116.850555 
L 191.839154 -115.460497 
L 192.27097 -114.070438 
L 192.801902 -112.680379 
L 193.410782 -111.290321 
L 194.068445 -109.900262 
L 194.741911 -108.510204 
L 195.399103 -107.120145 
L 196.013093 -105.730087 
L 196.564952 -104.340028 
L 197.04467 -102.94997 
L 197.450127 -101.559911 
L 197.784627 -100.169853 
L 198.05382 -98.779794 
L 198.262909 -97.389736 
L 198.414834 -95.999677 
L 198.509743 -94.609619 
L 198.545643 -93.21956 
L 198.519793 -91.829502 
L 198.430241 -90.439443 
L 198.276893 -89.049385 
L 198.061737 -87.659326 
L 197.788143 -86.269268 
L 197.459512 -84.879209 
L 197.077857 -83.489151 
L 196.642997 -82.099092 
L 196.152857 -80.709034 
L 195.604982 -79.318975 
L 194.998835 -77.928917 
L 194.338022 -76.538858 
L 193.631489 -75.1488 
L 192.893047 -73.758741 
L 192.139158 -72.368683 
L 191.385682 -70.978624 
L 190.644703 -69.588565 
L 189.922618 -68.198507 
L 189.220233 -66.808448 
L 188.534803 -65.41839 
L 187.863251 -64.028331 
L 187.205338 -62.638273 
L 186.565624 -61.248214 
L 185.953575 -59.858156 
L 185.381884 -58.468097 
L 184.863682 -57.078039 
L 184.40963 -55.68798 
L 184.025777 -54.297922 
L 183.71269 -52.907863 
L 183.465888 -51.517805 
L 183.277222 -50.127746 
L 183.136664 -48.737688 
L 183.033997 -47.347629 
L 182.960059 -45.957571 
L 182.90739 -44.567512 
L 182.870354 -43.177454 
L 182.844858 -41.787395 
L 182.827898 -40.397337 
L 182.817108 -39.007278 
L 182.810424 -37.61722 
L 182.805957 -36.227161 
L 182.802019 -34.837103 
L 182.797264 -33.447044 
z
" id="m7584f30210" style="stroke:#2f2f2f;stroke-width:1.4;"/>
    </defs>
    <g clip-path="url(#p9ce7acf705)">
     <use style="fill:#ba611b;stroke:#2f2f2f;stroke-width:1.4;" x="0" xlink:href="#m7584f30210" y="211.52025"/>
    </g>
   </g>
   <g id="PolyCollection_4">
    <defs>
     <path d="M 242.501455 -49.990971 
L 240.727295 -49.990971 
L 240.42903 -51.160626 
L 240.056831 -52.330281 
L 239.605056 -53.499935 
L 239.072509 -54.66959 
L 238.463737 -55.839245 
L 237.789845 -57.0089 
L 237.068587 -58.178555 
L 236.323569 -59.348209 
L 235.582558 -60.517864 
L 234.875051 -61.687519 
L 234.229406 -62.857174 
L 233.669977 -64.026829 
L 233.214676 -65.196484 
L 232.873381 -66.366138 
L 232.647391 -67.535793 
L 232.529994 -68.705448 
L 232.507975 -69.875103 
L 232.563736 -71.044758 
L 232.677628 -72.214413 
L 232.830093 -73.384067 
L 233.003281 -74.553722 
L 233.181978 -75.723377 
L 233.353807 -76.893032 
L 233.508818 -78.062687 
L 233.638688 -79.232342 
L 233.735784 -80.401996 
L 233.792361 -81.571651 
L 233.800106 -82.741306 
L 233.750153 -83.910961 
L 233.633629 -85.080616 
L 233.442667 -86.250271 
L 233.17175 -87.419925 
L 232.819172 -88.58958 
L 232.388378 -89.759235 
L 231.888902 -90.92889 
L 231.336701 -92.098545 
L 230.753713 -93.268199 
L 230.166603 -94.437854 
L 229.60477 -95.607509 
L 229.097832 -96.777164 
L 228.672885 -97.946819 
L 228.351933 -99.116474 
L 228.149828 -100.286128 
L 228.073031 -101.455783 
L 228.119361 -102.625438 
L 228.278727 -103.795093 
L 228.534701 -104.964748 
L 228.866629 -106.134403 
L 229.251948 -107.304057 
L 229.66832 -108.473712 
L 230.095311 -109.643367 
L 230.515424 -110.813022 
L 230.914424 -111.982677 
L 231.281045 -113.152332 
L 231.606232 -114.321986 
L 231.88216 -115.491641 
L 232.101277 -116.661296 
L 232.255603 -117.830951 
L 232.336482 -119.000606 
L 232.334909 -120.17026 
L 232.24248 -121.339915 
L 232.052903 -122.50957 
L 231.763906 -123.679225 
L 231.379246 -124.84888 
L 230.910465 -126.018535 
L 230.377954 -127.188189 
L 229.810992 -128.357844 
L 229.246493 -129.527499 
L 228.726464 -130.697154 
L 228.294388 -131.866809 
L 227.991012 -133.036464 
L 227.850162 -134.206118 
L 227.895247 -135.375773 
L 228.136998 -136.545428 
L 228.572759 -137.715083 
L 229.18735 -138.884738 
L 229.955262 -140.054393 
L 230.843694 -141.224047 
L 231.815933 -142.393702 
L 232.834544 -143.563357 
L 233.864041 -144.733012 
L 234.872838 -145.902667 
L 235.834484 -147.072321 
L 236.728263 -148.241976 
L 237.539325 -149.411631 
L 238.258487 -150.581286 
L 238.881799 -151.750941 
L 239.409957 -152.920596 
L 239.847562 -154.09025 
L 240.202281 -155.259905 
L 240.483925 -156.42956 
L 240.703498 -157.599215 
L 240.872301 -158.76887 
L 241.001155 -159.938525 
L 241.099792 -161.108179 
L 241.176463 -162.277834 
L 241.237758 -163.447489 
L 241.288612 -164.617144 
L 241.332461 -165.786799 
L 241.896289 -165.786799 
L 241.896289 -165.786799 
L 241.940138 -164.617144 
L 241.990992 -163.447489 
L 242.052287 -162.277834 
L 242.128958 -161.108179 
L 242.227595 -159.938525 
L 242.356449 -158.76887 
L 242.525252 -157.599215 
L 242.744825 -156.42956 
L 243.026469 -155.259905 
L 243.381188 -154.09025 
L 243.818793 -152.920596 
L 244.346951 -151.750941 
L 244.970263 -150.581286 
L 245.689425 -149.411631 
L 246.500487 -148.241976 
L 247.394266 -147.072321 
L 248.355912 -145.902667 
L 249.364709 -144.733012 
L 250.394206 -143.563357 
L 251.412817 -142.393702 
L 252.385056 -141.224047 
L 253.273488 -140.054393 
L 254.0414 -138.884738 
L 254.655991 -137.715083 
L 255.091752 -136.545428 
L 255.333503 -135.375773 
L 255.378588 -134.206118 
L 255.237738 -133.036464 
L 254.934362 -131.866809 
L 254.502286 -130.697154 
L 253.982257 -129.527499 
L 253.417758 -128.357844 
L 252.850796 -127.188189 
L 252.318285 -126.018535 
L 251.849504 -124.84888 
L 251.464844 -123.679225 
L 251.175847 -122.50957 
L 250.98627 -121.339915 
L 250.893841 -120.17026 
L 250.892268 -119.000606 
L 250.973147 -117.830951 
L 251.127473 -116.661296 
L 251.34659 -115.491641 
L 251.622518 -114.321986 
L 251.947705 -113.152332 
L 252.314326 -111.982677 
L 252.713326 -110.813022 
L 253.133439 -109.643367 
L 253.56043 -108.473712 
L 253.976802 -107.304057 
L 254.362121 -106.134403 
L 254.694049 -104.964748 
L 254.950023 -103.795093 
L 255.109389 -102.625438 
L 255.155719 -101.455783 
L 255.078922 -100.286128 
L 254.876817 -99.116474 
L 254.555865 -97.946819 
L 254.130918 -96.777164 
L 253.62398 -95.607509 
L 253.062147 -94.437854 
L 252.475037 -93.268199 
L 251.892049 -92.098545 
L 251.339848 -90.92889 
L 250.840372 -89.759235 
L 250.409578 -88.58958 
L 250.057 -87.419925 
L 249.786083 -86.250271 
L 249.595121 -85.080616 
L 249.478597 -83.910961 
L 249.428644 -82.741306 
L 249.436389 -81.571651 
L 249.492966 -80.401996 
L 249.590062 -79.232342 
L 249.719932 -78.062687 
L 249.874943 -76.893032 
L 250.046772 -75.723377 
L 250.225469 -74.553722 
L 250.398657 -73.384067 
L 250.551122 -72.214413 
L 250.665014 -71.044758 
L 250.720775 -69.875103 
L 250.698756 -68.705448 
L 250.581359 -67.535793 
L 250.355369 -66.366138 
L 250.014074 -65.196484 
L 249.558773 -64.026829 
L 248.999344 -62.857174 
L 248.353699 -61.687519 
L 247.646192 -60.517864 
L 246.905181 -59.348209 
L 246.160163 -58.178555 
L 245.438905 -57.0089 
L 244.765013 -55.839245 
L 244.156241 -54.66959 
L 243.623694 -53.499935 
L 243.171919 -52.330281 
L 242.79972 -51.160626 
L 242.501455 -49.990971 
z
" id="mcce3a14bd0" style="stroke:#2f2f2f;stroke-width:1.4;"/>
    </defs>
    <g clip-path="url(#p9ce7acf705)">
     <use style="fill:#c283a6;stroke:#2f2f2f;stroke-width:1.4;" x="0" xlink:href="#mcce3a14bd0" y="211.52025"/>
    </g>
   </g>
   <g id="line2d_12">
    <path clip-path="url(#p9ce7acf705)" d="M 64.881375 164.962454 
L 64.881375 50.212174 
" style="fill:none;stroke:#2f2f2f;stroke-linecap:round;stroke-width:1.4;"/>
   </g>
   <g id="line2d_13">
    <path clip-path="url(#p9ce7acf705)" d="M 64.881375 141.184951 
L 64.881375 100.505264 
" style="fill:none;stroke:#2f2f2f;stroke-linecap:round;stroke-width:4.2;"/>
   </g>
   <g id="line2d_14">
    <path clip-path="url(#p9ce7acf705)" d="M 123.792375 164.962454 
L 123.792375 57.791789 
" style="fill:none;stroke:#2f2f2f;stroke-linecap:round;stroke-width:1.4;"/>
   </g>
   <g id="line2d_15">
    <path clip-path="url(#p9ce7acf705)" d="M 123.792375 127.372001 
L 123.792375 99.229967 
" style="fill:none;stroke:#2f2f2f;stroke-linecap:round;stroke-width:4.2;"/>
   </g>
   <g id="line2d_16">
    <path clip-path="url(#p9ce7acf705)" d="M 182.703375 178.073206 
L 182.703375 40.457413 
" style="fill:none;stroke:#2f2f2f;stroke-linecap:round;stroke-width:1.4;"/>
   </g>
   <g id="line2d_17">
    <path clip-path="url(#p9ce7acf705)" d="M 182.703375 127.203907 
L 182.703375 91.141685 
" style="fill:none;stroke:#2f2f2f;stroke-linecap:round;stroke-width:4.2;"/>
   </g>
   <g id="line2d_18">
    <path clip-path="url(#p9ce7acf705)" d="M 241.614375 161.529279 
L 241.614375 45.733451 
" style="fill:none;stroke:#2f2f2f;stroke-linecap:round;stroke-width:1.4;"/>
   </g>
   <g id="line2d_19">
    <path clip-path="url(#p9ce7acf705)" d="M 241.614375 126.23765 
L 241.614375 77.961357 
" style="fill:none;stroke:#2f2f2f;stroke-linecap:round;stroke-width:4.2;"/>
   </g>
   <g id="patch_3">
    <path d="M 35.425875 185.31025 
L 35.425875 13.2 
" style="fill:none;stroke:#262626;stroke-linecap:square;stroke-linejoin:miter;stroke-width:1.25;"/>
   </g>
   <g id="patch_4">
    <path d="M 35.425875 185.31025 
L 271.069875 185.31025 
" style="fill:none;stroke:#262626;stroke-linecap:square;stroke-linejoin:miter;stroke-width:1.25;"/>
   </g>
   <g id="PathCollection_1">
    <defs>
     <path d="M 0 1.4 
C 0.371284 1.4 0.727412 1.252487 0.989949 0.989949 
C 1.252487 0.727412 1.4 0.371284 1.4 0 
C 1.4 -0.371284 1.252487 -0.727412 0.989949 -0.989949 
C 0.727412 -1.252487 0.371284 -1.4 0 -1.4 
C -0.371284 -1.4 -0.727412 -1.252487 -0.989949 -0.989949 
C -1.252487 -0.727412 -1.4 -0.371284 -1.4 0 
C -1.4 0.371284 -1.252487 0.727412 -0.989949 0.989949 
C -0.727412 1.252487 -0.371284 1.4 0 1.4 
z
" id="m5d42b92dd2" style="stroke:#2f2f2f;stroke-width:0.24;"/>
    </defs>
    <g clip-path="url(#p9ce7acf705)">
     <use style="fill:#ffffff;stroke:#2f2f2f;stroke-width:0.24;" x="64.881375" xlink:href="#m5d42b92dd2" y="127.119267"/>
    </g>
   </g>
   <g id="PathCollection_2">
    <g clip-path="url(#p9ce7acf705)">
     <use style="fill:#ffffff;stroke:#2f2f2f;stroke-width:0.24;" x="123.792375" xlink:href="#m5d42b92dd2" y="110.828074"/>
    </g>
   </g>
   <g id="PathCollection_3">
    <g clip-path="url(#p9ce7acf705)">
     <use style="fill:#ffffff;stroke:#2f2f2f;stroke-width:0.24;" x="182.703375" xlink:href="#m5d42b92dd2" y="112.373017"/>
    </g>
   </g>
   <g id="PathCollection_4">
    <g clip-path="url(#p9ce7acf705)">
     <use style="fill:#ffffff;stroke:#2f2f2f;stroke-width:0.24;" x="241.614375" xlink:href="#m5d42b92dd2" y="106.452797"/>
    </g>
   </g>
   <g id="text_13">
    <!-- Total downloads: 6,139,269 -->
    <defs>
     <path d="M 25.921875 0 
L 25.921875 63.140625 
L 2.34375 63.140625 
L 2.34375 71.578125 
L 59.078125 71.578125 
L 59.078125 63.140625 
L 35.40625 63.140625 
L 35.40625 0 
z
" id="ArialMT-54"/>
     <path d="M 9.03125 41.84375 
L 9.03125 51.859375 
L 19.046875 51.859375 
L 19.046875 41.84375 
z
M 9.03125 0 
L 9.03125 10.015625 
L 19.046875 10.015625 
L 19.046875 0 
z
" id="ArialMT-3a"/>
     <path d="M 8.890625 0 
L 8.890625 10.015625 
L 18.890625 10.015625 
L 18.890625 0 
Q 18.890625 -5.515625 16.9375 -8.90625 
Q 14.984375 -12.3125 10.75 -14.15625 
L 8.296875 -10.40625 
Q 11.078125 -9.1875 12.390625 -6.8125 
Q 13.71875 -4.4375 13.875 0 
z
" id="ArialMT-2c"/>
     <path d="M 5.46875 16.546875 
L 13.921875 17.328125 
Q 14.984375 11.375 18.015625 8.6875 
Q 21.046875 6 25.78125 6 
Q 29.828125 6 32.875 7.859375 
Q 35.9375 9.71875 37.890625 12.8125 
Q 39.84375 15.921875 41.15625 21.1875 
Q 42.484375 26.46875 42.484375 31.9375 
Q 42.484375 32.515625 42.4375 33.6875 
Q 39.796875 29.5 35.234375 26.875 
Q 30.671875 24.265625 25.34375 24.265625 
Q 16.453125 24.265625 10.296875 30.703125 
Q 4.15625 37.15625 4.15625 47.703125 
Q 4.15625 58.59375 10.578125 65.234375 
Q 17 71.875 26.65625 71.875 
Q 33.640625 71.875 39.421875 68.109375 
Q 45.21875 64.359375 48.21875 57.390625 
Q 51.21875 50.4375 51.21875 37.25 
Q 51.21875 23.53125 48.234375 15.40625 
Q 45.265625 7.28125 39.375 3.03125 
Q 33.5 -1.21875 25.59375 -1.21875 
Q 17.1875 -1.21875 11.859375 3.4375 
Q 6.546875 8.109375 5.46875 16.546875 
z
M 41.453125 48.140625 
Q 41.453125 55.71875 37.421875 60.15625 
Q 33.40625 64.59375 27.734375 64.59375 
Q 21.875 64.59375 17.53125 59.8125 
Q 13.1875 55.03125 13.1875 47.40625 
Q 13.1875 40.578125 17.3125 36.296875 
Q 21.4375 32.03125 27.484375 32.03125 
Q 33.59375 32.03125 37.515625 36.296875 
Q 41.453125 40.578125 41.453125 48.140625 
z
" id="ArialMT-39"/>
    </defs>
    <g style="fill:#262626;" transform="translate(94.285125 20.0715)scale(0.096 -0.096)">
     <use xlink:href="#ArialMT-54"/>
     <use x="60.912109" xlink:href="#ArialMT-6f"/>
     <use x="116.527344" xlink:href="#ArialMT-74"/>
     <use x="144.310547" xlink:href="#ArialMT-61"/>
     <use x="199.925781" xlink:href="#ArialMT-6c"/>
     <use x="222.142578" xlink:href="#ArialMT-20"/>
     <use x="249.925781" xlink:href="#ArialMT-64"/>
     <use x="305.541016" xlink:href="#ArialMT-6f"/>
     <use x="361.15625" xlink:href="#ArialMT-77"/>
     <use x="433.373047" xlink:href="#ArialMT-6e"/>
     <use x="488.988281" xlink:href="#ArialMT-6c"/>
     <use x="511.205078" xlink:href="#ArialMT-6f"/>
     <use x="566.820312" xlink:href="#ArialMT-61"/>
     <use x="622.435547" xlink:href="#ArialMT-64"/>
     <use x="678.050781" xlink:href="#ArialMT-73"/>
     <use x="728.050781" xlink:href="#ArialMT-3a"/>
     <use x="755.833984" xlink:href="#ArialMT-20"/>
     <use x="783.617188" xlink:href="#ArialMT-36"/>
     <use x="839.232422" xlink:href="#ArialMT-2c"/>
     <use x="867.015625" xlink:href="#ArialMT-31"/>
     <use x="922.630859" xlink:href="#ArialMT-33"/>
     <use x="978.246094" xlink:href="#ArialMT-39"/>
     <use x="1033.861328" xlink:href="#ArialMT-2c"/>
     <use x="1061.644531" xlink:href="#ArialMT-32"/>
     <use x="1117.259766" xlink:href="#ArialMT-36"/>
     <use x="1172.875" xlink:href="#ArialMT-39"/>
    </g>
   </g>
  </g>
 </g>
 <defs>
  <clipPath id="p9ce7acf705">
   <rect height="172.11025" width="235.644" x="35.425875" y="13.2"/>
  </clipPath>
 </defs>
</svg>
