<?xml version="1.0" encoding="utf-8" standalone="no"?>
<!DOCTYPE svg PUBLIC "-//W3C//DTD SVG 1.1//EN"
  "http://www.w3.org/Graphics/SVG/1.1/DTD/svg11.dtd">
<!-- Created with matplotlib (http://matplotlib.org/) -->
<svg height="211pt" version="1.1" viewBox="0 0 282 211" width="282pt" xmlns="http://www.w3.org/2000/svg" xmlns:xlink="http://www.w3.org/1999/xlink">
 <defs>
  <style type="text/css">
*{stroke-linecap:butt;stroke-linejoin:round;}
  </style>
 </defs>
 <g id="figure_1">
  <g id="patch_1">
   <path d="M 0 211.8865 
L 282.46075 211.8865 
L 282.46075 0 
L 0 0 
z
" style="fill:#ffffff;"/>
  </g>
  <g id="axes_1">
   <g id="patch_2">
    <path d="M 36.40675 185.344 
L 269.26075 185.344 
L 269.26075 13.2 
L 36.40675 13.2 
z
" style="fill:#ffffff;"/>
   </g>
   <g id="matplotlib.axis_1">
    <g id="xtick_1">
     <g id="line2d_1">
      <defs>
       <path d="M 0 0 
L 0 6 
" id="m05a8acee1e" style="stroke:#262626;stroke-width:0.8;"/>
      </defs>
      <g>
       <use style="fill:#262626;stroke:#262626;stroke-width:0.8;" x="65.5135" xlink:href="#m05a8acee1e" y="185.344"/>
      </g>
     </g>
     <g id="text_1">
      <!-- Bioconductor/R -->
      <defs>
       <path d="M 19.671875 34.8125 
L 19.671875 8.109375 
L 35.5 8.109375 
Q 43.453125 8.109375 47.28125 11.40625 
Q 51.125 14.703125 51.125 21.484375 
Q 51.125 28.328125 47.28125 31.5625 
Q 43.453125 34.8125 35.5 34.8125 
z
M 19.671875 64.796875 
L 19.671875 42.828125 
L 34.28125 42.828125 
Q 41.5 42.828125 45.03125 45.53125 
Q 48.578125 48.25 48.578125 53.8125 
Q 48.578125 59.328125 45.03125 62.0625 
Q 41.5 64.796875 34.28125 64.796875 
z
M 9.8125 72.90625 
L 35.015625 72.90625 
Q 46.296875 72.90625 52.390625 68.21875 
Q 58.5 63.53125 58.5 54.890625 
Q 58.5 48.1875 55.375 44.234375 
Q 52.25 40.28125 46.1875 39.3125 
Q 53.46875 37.75 57.5 32.78125 
Q 61.53125 27.828125 61.53125 20.40625 
Q 61.53125 10.640625 54.890625 5.3125 
Q 48.25 0 35.984375 0 
L 9.8125 0 
z
" id="DejaVuSans-42"/>
       <path d="M 9.421875 54.6875 
L 18.40625 54.6875 
L 18.40625 0 
L 9.421875 0 
z
M 9.421875 75.984375 
L 18.40625 75.984375 
L 18.40625 64.59375 
L 9.421875 64.59375 
z
" id="DejaVuSans-69"/>
       <path d="M 30.609375 48.390625 
Q 23.390625 48.390625 19.1875 42.75 
Q 14.984375 37.109375 14.984375 27.296875 
Q 14.984375 17.484375 19.15625 11.84375 
Q 23.34375 6.203125 30.609375 6.203125 
Q 37.796875 6.203125 41.984375 11.859375 
Q 46.1875 17.53125 46.1875 27.296875 
Q 46.1875 37.015625 41.984375 42.703125 
Q 37.796875 48.390625 30.609375 48.390625 
z
M 30.609375 56 
Q 42.328125 56 49.015625 48.375 
Q 55.71875 40.765625 55.71875 27.296875 
Q 55.71875 13.875 49.015625 6.21875 
Q 42.328125 -1.421875 30.609375 -1.421875 
Q 18.84375 -1.421875 12.171875 6.21875 
Q 5.515625 13.875 5.515625 27.296875 
Q 5.515625 40.765625 12.171875 48.375 
Q 18.84375 56 30.609375 56 
z
" id="DejaVuSans-6f"/>
       <path d="M 48.78125 52.59375 
L 48.78125 44.1875 
Q 44.96875 46.296875 41.140625 47.34375 
Q 37.3125 48.390625 33.40625 48.390625 
Q 24.65625 48.390625 19.8125 42.84375 
Q 14.984375 37.3125 14.984375 27.296875 
Q 14.984375 17.28125 19.8125 11.734375 
Q 24.65625 6.203125 33.40625 6.203125 
Q 37.3125 6.203125 41.140625 7.25 
Q 44.96875 8.296875 48.78125 10.40625 
L 48.78125 2.09375 
Q 45.015625 0.34375 40.984375 -0.53125 
Q 36.96875 -1.421875 32.421875 -1.421875 
Q 20.0625 -1.421875 12.78125 6.34375 
Q 5.515625 14.109375 5.515625 27.296875 
Q 5.515625 40.671875 12.859375 48.328125 
Q 20.21875 56 33.015625 56 
Q 37.15625 56 41.109375 55.140625 
Q 45.0625 54.296875 48.78125 52.59375 
z
" id="DejaVuSans-63"/>
       <path d="M 54.890625 33.015625 
L 54.890625 0 
L 45.90625 0 
L 45.90625 32.71875 
Q 45.90625 40.484375 42.875 44.328125 
Q 39.84375 48.1875 33.796875 48.1875 
Q 26.515625 48.1875 22.3125 43.546875 
Q 18.109375 38.921875 18.109375 30.90625 
L 18.109375 0 
L 9.078125 0 
L 9.078125 54.6875 
L 18.109375 54.6875 
L 18.109375 46.1875 
Q 21.34375 51.125 25.703125 53.5625 
Q 30.078125 56 35.796875 56 
Q 45.21875 56 50.046875 50.171875 
Q 54.890625 44.34375 54.890625 33.015625 
z
" id="DejaVuSans-6e"/>
       <path d="M 45.40625 46.390625 
L 45.40625 75.984375 
L 54.390625 75.984375 
L 54.390625 0 
L 45.40625 0 
L 45.40625 8.203125 
Q 42.578125 3.328125 38.25 0.953125 
Q 33.9375 -1.421875 27.875 -1.421875 
Q 17.96875 -1.421875 11.734375 6.484375 
Q 5.515625 14.40625 5.515625 27.296875 
Q 5.515625 40.1875 11.734375 48.09375 
Q 17.96875 56 27.875 56 
Q 33.9375 56 38.25 53.625 
Q 42.578125 51.265625 45.40625 46.390625 
z
M 14.796875 27.296875 
Q 14.796875 17.390625 18.875 11.75 
Q 22.953125 6.109375 30.078125 6.109375 
Q 37.203125 6.109375 41.296875 11.75 
Q 45.40625 17.390625 45.40625 27.296875 
Q 45.40625 37.203125 41.296875 42.84375 
Q 37.203125 48.484375 30.078125 48.484375 
Q 22.953125 48.484375 18.875 42.84375 
Q 14.796875 37.203125 14.796875 27.296875 
z
" id="DejaVuSans-64"/>
       <path d="M 8.5 21.578125 
L 8.5 54.6875 
L 17.484375 54.6875 
L 17.484375 21.921875 
Q 17.484375 14.15625 20.5 10.265625 
Q 23.53125 6.390625 29.59375 6.390625 
Q 36.859375 6.390625 41.078125 11.03125 
Q 45.3125 15.671875 45.3125 23.6875 
L 45.3125 54.6875 
L 54.296875 54.6875 
L 54.296875 0 
L 45.3125 0 
L 45.3125 8.40625 
Q 42.046875 3.421875 37.71875 1 
Q 33.40625 -1.421875 27.6875 -1.421875 
Q 18.265625 -1.421875 13.375 4.4375 
Q 8.5 10.296875 8.5 21.578125 
z
M 31.109375 56 
z
" id="DejaVuSans-75"/>
       <path d="M 18.3125 70.21875 
L 18.3125 54.6875 
L 36.8125 54.6875 
L 36.8125 47.703125 
L 18.3125 47.703125 
L 18.3125 18.015625 
Q 18.3125 11.328125 20.140625 9.421875 
Q 21.96875 7.515625 27.59375 7.515625 
L 36.8125 7.515625 
L 36.8125 0 
L 27.59375 0 
Q 17.1875 0 13.234375 3.875 
Q 9.28125 7.765625 9.28125 18.015625 
L 9.28125 47.703125 
L 2.6875 47.703125 
L 2.6875 54.6875 
L 9.28125 54.6875 
L 9.28125 70.21875 
z
" id="DejaVuSans-74"/>
       <path d="M 41.109375 46.296875 
Q 39.59375 47.171875 37.8125 47.578125 
Q 36.03125 48 33.890625 48 
Q 26.265625 48 22.1875 43.046875 
Q 18.109375 38.09375 18.109375 28.8125 
L 18.109375 0 
L 9.078125 0 
L 9.078125 54.6875 
L 18.109375 54.6875 
L 18.109375 46.1875 
Q 20.953125 51.171875 25.484375 53.578125 
Q 30.03125 56 36.53125 56 
Q 37.453125 56 38.578125 55.875 
Q 39.703125 55.765625 41.0625 55.515625 
z
" id="DejaVuSans-72"/>
       <path d="M 25.390625 72.90625 
L 33.6875 72.90625 
L 8.296875 -9.28125 
L 0 -9.28125 
z
" id="DejaVuSans-2f"/>
       <path d="M 44.390625 34.1875 
Q 47.5625 33.109375 50.5625 29.59375 
Q 53.5625 26.078125 56.59375 19.921875 
L 66.609375 0 
L 56 0 
L 46.6875 18.703125 
Q 43.0625 26.03125 39.671875 28.421875 
Q 36.28125 30.8125 30.421875 30.8125 
L 19.671875 30.8125 
L 19.671875 0 
L 9.8125 0 
L 9.8125 72.90625 
L 32.078125 72.90625 
Q 44.578125 72.90625 50.734375 67.671875 
Q 56.890625 62.453125 56.890625 51.90625 
Q 56.890625 45.015625 53.6875 40.46875 
Q 50.484375 35.9375 44.390625 34.1875 
z
M 19.671875 64.796875 
L 19.671875 38.921875 
L 32.078125 38.921875 
Q 39.203125 38.921875 42.84375 42.21875 
Q 46.484375 45.515625 46.484375 51.90625 
Q 46.484375 58.296875 42.84375 61.546875 
Q 39.203125 64.796875 32.078125 64.796875 
z
" id="DejaVuSans-52"/>
      </defs>
      <g style="fill:#262626;" transform="translate(34.967875 203.02275)scale(0.08 -0.08)">
       <use xlink:href="#DejaVuSans-42"/>
       <use x="68.603516" xlink:href="#DejaVuSans-69"/>
       <use x="96.386719" xlink:href="#DejaVuSans-6f"/>
       <use x="157.568359" xlink:href="#DejaVuSans-63"/>
       <use x="212.548828" xlink:href="#DejaVuSans-6f"/>
       <use x="273.730469" xlink:href="#DejaVuSans-6e"/>
       <use x="337.109375" xlink:href="#DejaVuSans-64"/>
       <use x="400.585938" xlink:href="#DejaVuSans-75"/>
       <use x="463.964844" xlink:href="#DejaVuSans-63"/>
       <use x="518.945312" xlink:href="#DejaVuSans-74"/>
       <use x="558.154297" xlink:href="#DejaVuSans-6f"/>
       <use x="619.335938" xlink:href="#DejaVuSans-72"/>
       <use x="660.449219" xlink:href="#DejaVuSans-2f"/>
       <use x="694.140625" xlink:href="#DejaVuSans-52"/>
      </g>
     </g>
    </g>
    <g id="xtick_2">
     <g id="line2d_2">
      <g>
       <use style="fill:#262626;stroke:#262626;stroke-width:0.8;" x="123.727" xlink:href="#m05a8acee1e" y="185.344"/>
      </g>
     </g>
     <g id="text_2">
      <!-- Other -->
      <defs>
       <path d="M 39.40625 66.21875 
Q 28.65625 66.21875 22.328125 58.203125 
Q 16.015625 50.203125 16.015625 36.375 
Q 16.015625 22.609375 22.328125 14.59375 
Q 28.65625 6.59375 39.40625 6.59375 
Q 50.140625 6.59375 56.421875 14.59375 
Q 62.703125 22.609375 62.703125 36.375 
Q 62.703125 50.203125 56.421875 58.203125 
Q 50.140625 66.21875 39.40625 66.21875 
z
M 39.40625 74.21875 
Q 54.734375 74.21875 63.90625 63.9375 
Q 73.09375 53.65625 73.09375 36.375 
Q 73.09375 19.140625 63.90625 8.859375 
Q 54.734375 -1.421875 39.40625 -1.421875 
Q 24.03125 -1.421875 14.8125 8.828125 
Q 5.609375 19.09375 5.609375 36.375 
Q 5.609375 53.65625 14.8125 63.9375 
Q 24.03125 74.21875 39.40625 74.21875 
z
" id="DejaVuSans-4f"/>
       <path d="M 54.890625 33.015625 
L 54.890625 0 
L 45.90625 0 
L 45.90625 32.71875 
Q 45.90625 40.484375 42.875 44.328125 
Q 39.84375 48.1875 33.796875 48.1875 
Q 26.515625 48.1875 22.3125 43.546875 
Q 18.109375 38.921875 18.109375 30.90625 
L 18.109375 0 
L 9.078125 0 
L 9.078125 75.984375 
L 18.109375 75.984375 
L 18.109375 46.1875 
Q 21.34375 51.125 25.703125 53.5625 
Q 30.078125 56 35.796875 56 
Q 45.21875 56 50.046875 50.171875 
Q 54.890625 44.34375 54.890625 33.015625 
z
" id="DejaVuSans-68"/>
       <path d="M 56.203125 29.59375 
L 56.203125 25.203125 
L 14.890625 25.203125 
Q 15.484375 15.921875 20.484375 11.0625 
Q 25.484375 6.203125 34.421875 6.203125 
Q 39.59375 6.203125 44.453125 7.46875 
Q 49.3125 8.734375 54.109375 11.28125 
L 54.109375 2.78125 
Q 49.265625 0.734375 44.1875 -0.34375 
Q 39.109375 -1.421875 33.890625 -1.421875 
Q 20.796875 -1.421875 13.15625 6.1875 
Q 5.515625 13.8125 5.515625 26.8125 
Q 5.515625 40.234375 12.765625 48.109375 
Q 20.015625 56 32.328125 56 
Q 43.359375 56 49.78125 48.890625 
Q 56.203125 41.796875 56.203125 29.59375 
z
M 47.21875 32.234375 
Q 47.125 39.59375 43.09375 43.984375 
Q 39.0625 48.390625 32.421875 48.390625 
Q 24.90625 48.390625 20.390625 44.140625 
Q 15.875 39.890625 15.1875 32.171875 
z
" id="DejaVuSans-65"/>
      </defs>
      <g style="fill:#262626;" transform="translate(112.3695 203.02275)scale(0.08 -0.08)">
       <use xlink:href="#DejaVuSans-4f"/>
       <use x="78.710938" xlink:href="#DejaVuSans-74"/>
       <use x="117.919922" xlink:href="#DejaVuSans-68"/>
       <use x="181.298828" xlink:href="#DejaVuSans-65"/>
       <use x="242.822266" xlink:href="#DejaVuSans-72"/>
      </g>
     </g>
    </g>
    <g id="xtick_3">
     <g id="line2d_3">
      <g>
       <use style="fill:#262626;stroke:#262626;stroke-width:0.8;" x="181.9405" xlink:href="#m05a8acee1e" y="185.344"/>
      </g>
     </g>
     <g id="text_3">
      <!-- Python -->
      <defs>
       <path d="M 19.671875 64.796875 
L 19.671875 37.40625 
L 32.078125 37.40625 
Q 38.96875 37.40625 42.71875 40.96875 
Q 46.484375 44.53125 46.484375 51.125 
Q 46.484375 57.671875 42.71875 61.234375 
Q 38.96875 64.796875 32.078125 64.796875 
z
M 9.8125 72.90625 
L 32.078125 72.90625 
Q 44.34375 72.90625 50.609375 67.359375 
Q 56.890625 61.8125 56.890625 51.125 
Q 56.890625 40.328125 50.609375 34.8125 
Q 44.34375 29.296875 32.078125 29.296875 
L 19.671875 29.296875 
L 19.671875 0 
L 9.8125 0 
z
" id="DejaVuSans-50"/>
       <path d="M 32.171875 -5.078125 
Q 28.375 -14.84375 24.75 -17.8125 
Q 21.140625 -20.796875 15.09375 -20.796875 
L 7.90625 -20.796875 
L 7.90625 -13.28125 
L 13.1875 -13.28125 
Q 16.890625 -13.28125 18.9375 -11.515625 
Q 21 -9.765625 23.484375 -3.21875 
L 25.09375 0.875 
L 2.984375 54.6875 
L 12.5 54.6875 
L 29.59375 11.921875 
L 46.6875 54.6875 
L 56.203125 54.6875 
z
" id="DejaVuSans-79"/>
      </defs>
      <g style="fill:#262626;" transform="translate(168.0755 203.02275)scale(0.08 -0.08)">
       <use xlink:href="#DejaVuSans-50"/>
       <use x="60.302734" xlink:href="#DejaVuSans-79"/>
       <use x="119.482422" xlink:href="#DejaVuSans-74"/>
       <use x="158.691406" xlink:href="#DejaVuSans-68"/>
       <use x="222.070312" xlink:href="#DejaVuSans-6f"/>
       <use x="283.251953" xlink:href="#DejaVuSans-6e"/>
      </g>
     </g>
    </g>
    <g id="xtick_4">
     <g id="line2d_4">
      <g>
       <use style="fill:#262626;stroke:#262626;stroke-width:0.8;" x="240.154" xlink:href="#m05a8acee1e" y="185.344"/>
      </g>
     </g>
     <g id="text_4">
      <!-- Perl -->
      <defs>
       <path d="M 9.421875 75.984375 
L 18.40625 75.984375 
L 18.40625 0 
L 9.421875 0 
z
" id="DejaVuSans-6c"/>
      </defs>
      <g style="fill:#262626;" transform="translate(232.527125 203.02275)scale(0.08 -0.08)">
       <use xlink:href="#DejaVuSans-50"/>
       <use x="60.255859" xlink:href="#DejaVuSans-65"/>
       <use x="121.779297" xlink:href="#DejaVuSans-72"/>
       <use x="162.892578" xlink:href="#DejaVuSans-6c"/>
      </g>
     </g>
    </g>
   </g>
   <g id="matplotlib.axis_2">
    <g id="ytick_1">
     <g id="line2d_5">
      <defs>
       <path d="M 0 0 
L -6 0 
" id="m94be573852" style="stroke:#262626;stroke-width:0.8;"/>
      </defs>
      <g>
       <use style="fill:#262626;stroke:#262626;stroke-width:0.8;" x="36.40675" xlink:href="#m94be573852" y="178.092857"/>
      </g>
     </g>
     <g id="text_5">
      <!-- 0 -->
      <defs>
       <path d="M 31.78125 66.40625 
Q 24.171875 66.40625 20.328125 58.90625 
Q 16.5 51.421875 16.5 36.375 
Q 16.5 21.390625 20.328125 13.890625 
Q 24.171875 6.390625 31.78125 6.390625 
Q 39.453125 6.390625 43.28125 13.890625 
Q 47.125 21.390625 47.125 36.375 
Q 47.125 51.421875 43.28125 58.90625 
Q 39.453125 66.40625 31.78125 66.40625 
z
M 31.78125 74.21875 
Q 44.046875 74.21875 50.515625 64.515625 
Q 56.984375 54.828125 56.984375 36.375 
Q 56.984375 17.96875 50.515625 8.265625 
Q 44.046875 -1.421875 31.78125 -1.421875 
Q 19.53125 -1.421875 13.0625 8.265625 
Q 6.59375 17.96875 6.59375 36.375 
Q 6.59375 54.828125 13.0625 64.515625 
Q 19.53125 74.21875 31.78125 74.21875 
z
" id="DejaVuSans-30"/>
      </defs>
      <g style="fill:#262626;" transform="translate(19.71675 181.132232)scale(0.08 -0.08)">
       <use xlink:href="#DejaVuSans-30"/>
      </g>
     </g>
    </g>
    <g id="ytick_2">
     <g id="line2d_6">
      <g>
       <use style="fill:#262626;stroke:#262626;stroke-width:0.8;" x="36.40675" xlink:href="#m94be573852" y="150.610714"/>
      </g>
     </g>
     <g id="text_6">
      <!-- 1 -->
      <defs>
       <path d="M 12.40625 8.296875 
L 28.515625 8.296875 
L 28.515625 63.921875 
L 10.984375 60.40625 
L 10.984375 69.390625 
L 28.421875 72.90625 
L 38.28125 72.90625 
L 38.28125 8.296875 
L 54.390625 8.296875 
L 54.390625 0 
L 12.40625 0 
z
" id="DejaVuSans-31"/>
      </defs>
      <g style="fill:#262626;" transform="translate(19.71675 153.650089)scale(0.08 -0.08)">
       <use xlink:href="#DejaVuSans-31"/>
      </g>
     </g>
    </g>
    <g id="ytick_3">
     <g id="line2d_7">
      <g>
       <use style="fill:#262626;stroke:#262626;stroke-width:0.8;" x="36.40675" xlink:href="#m94be573852" y="123.128571"/>
      </g>
     </g>
     <g id="text_7">
      <!-- 2 -->
      <defs>
       <path d="M 19.1875 8.296875 
L 53.609375 8.296875 
L 53.609375 0 
L 7.328125 0 
L 7.328125 8.296875 
Q 12.9375 14.109375 22.625 23.890625 
Q 32.328125 33.6875 34.8125 36.53125 
Q 39.546875 41.84375 41.421875 45.53125 
Q 43.3125 49.21875 43.3125 52.78125 
Q 43.3125 58.59375 39.234375 62.25 
Q 35.15625 65.921875 28.609375 65.921875 
Q 23.96875 65.921875 18.8125 64.3125 
Q 13.671875 62.703125 7.8125 59.421875 
L 7.8125 69.390625 
Q 13.765625 71.78125 18.9375 73 
Q 24.125 74.21875 28.421875 74.21875 
Q 39.75 74.21875 46.484375 68.546875 
Q 53.21875 62.890625 53.21875 53.421875 
Q 53.21875 48.921875 51.53125 44.890625 
Q 49.859375 40.875 45.40625 35.40625 
Q 44.1875 33.984375 37.640625 27.21875 
Q 31.109375 20.453125 19.1875 8.296875 
z
" id="DejaVuSans-32"/>
      </defs>
      <g style="fill:#262626;" transform="translate(19.71675 126.167946)scale(0.08 -0.08)">
       <use xlink:href="#DejaVuSans-32"/>
      </g>
     </g>
    </g>
    <g id="ytick_4">
     <g id="line2d_8">
      <g>
       <use style="fill:#262626;stroke:#262626;stroke-width:0.8;" x="36.40675" xlink:href="#m94be573852" y="95.646428"/>
      </g>
     </g>
     <g id="text_8">
      <!-- 3 -->
      <defs>
       <path d="M 40.578125 39.3125 
Q 47.65625 37.796875 51.625 33 
Q 55.609375 28.21875 55.609375 21.1875 
Q 55.609375 10.40625 48.1875 4.484375 
Q 40.765625 -1.421875 27.09375 -1.421875 
Q 22.515625 -1.421875 17.65625 -0.515625 
Q 12.796875 0.390625 7.625 2.203125 
L 7.625 11.71875 
Q 11.71875 9.328125 16.59375 8.109375 
Q 21.484375 6.890625 26.8125 6.890625 
Q 36.078125 6.890625 40.9375 10.546875 
Q 45.796875 14.203125 45.796875 21.1875 
Q 45.796875 27.640625 41.28125 31.265625 
Q 36.765625 34.90625 28.71875 34.90625 
L 20.21875 34.90625 
L 20.21875 43.015625 
L 29.109375 43.015625 
Q 36.375 43.015625 40.234375 45.921875 
Q 44.09375 48.828125 44.09375 54.296875 
Q 44.09375 59.90625 40.109375 62.90625 
Q 36.140625 65.921875 28.71875 65.921875 
Q 24.65625 65.921875 20.015625 65.03125 
Q 15.375 64.15625 9.8125 62.3125 
L 9.8125 71.09375 
Q 15.4375 72.65625 20.34375 73.4375 
Q 25.25 74.21875 29.59375 74.21875 
Q 40.828125 74.21875 47.359375 69.109375 
Q 53.90625 64.015625 53.90625 55.328125 
Q 53.90625 49.265625 50.4375 45.09375 
Q 46.96875 40.921875 40.578125 39.3125 
z
" id="DejaVuSans-33"/>
      </defs>
      <g style="fill:#262626;" transform="translate(19.71675 98.685803)scale(0.08 -0.08)">
       <use xlink:href="#DejaVuSans-33"/>
      </g>
     </g>
    </g>
    <g id="ytick_5">
     <g id="line2d_9">
      <g>
       <use style="fill:#262626;stroke:#262626;stroke-width:0.8;" x="36.40675" xlink:href="#m94be573852" y="68.164286"/>
      </g>
     </g>
     <g id="text_9">
      <!-- 4 -->
      <defs>
       <path d="M 37.796875 64.3125 
L 12.890625 25.390625 
L 37.796875 25.390625 
z
M 35.203125 72.90625 
L 47.609375 72.90625 
L 47.609375 25.390625 
L 58.015625 25.390625 
L 58.015625 17.1875 
L 47.609375 17.1875 
L 47.609375 0 
L 37.796875 0 
L 37.796875 17.1875 
L 4.890625 17.1875 
L 4.890625 26.703125 
z
" id="DejaVuSans-34"/>
      </defs>
      <g style="fill:#262626;" transform="translate(19.71675 71.203661)scale(0.08 -0.08)">
       <use xlink:href="#DejaVuSans-34"/>
      </g>
     </g>
    </g>
    <g id="ytick_6">
     <g id="line2d_10">
      <g>
       <use style="fill:#262626;stroke:#262626;stroke-width:0.8;" x="36.40675" xlink:href="#m94be573852" y="40.682143"/>
      </g>
     </g>
     <g id="text_10">
      <!-- 5 -->
      <defs>
       <path d="M 10.796875 72.90625 
L 49.515625 72.90625 
L 49.515625 64.59375 
L 19.828125 64.59375 
L 19.828125 46.734375 
Q 21.96875 47.46875 24.109375 47.828125 
Q 26.265625 48.1875 28.421875 48.1875 
Q 40.625 48.1875 47.75 41.5 
Q 54.890625 34.8125 54.890625 23.390625 
Q 54.890625 11.625 47.5625 5.09375 
Q 40.234375 -1.421875 26.90625 -1.421875 
Q 22.3125 -1.421875 17.546875 -0.640625 
Q 12.796875 0.140625 7.71875 1.703125 
L 7.71875 11.625 
Q 12.109375 9.234375 16.796875 8.0625 
Q 21.484375 6.890625 26.703125 6.890625 
Q 35.15625 6.890625 40.078125 11.328125 
Q 45.015625 15.765625 45.015625 23.390625 
Q 45.015625 31 40.078125 35.4375 
Q 35.15625 39.890625 26.703125 39.890625 
Q 22.75 39.890625 18.8125 39.015625 
Q 14.890625 38.140625 10.796875 36.28125 
z
" id="DejaVuSans-35"/>
      </defs>
      <g style="fill:#262626;" transform="translate(19.71675 43.721518)scale(0.08 -0.08)">
       <use xlink:href="#DejaVuSans-35"/>
      </g>
     </g>
    </g>
    <g id="ytick_7">
     <g id="line2d_11">
      <g>
       <use style="fill:#262626;stroke:#262626;stroke-width:0.8;" x="36.40675" xlink:href="#m94be573852" y="13.2"/>
      </g>
     </g>
     <g id="text_11">
      <!-- 6 -->
      <defs>
       <path d="M 33.015625 40.375 
Q 26.375 40.375 22.484375 35.828125 
Q 18.609375 31.296875 18.609375 23.390625 
Q 18.609375 15.53125 22.484375 10.953125 
Q 26.375 6.390625 33.015625 6.390625 
Q 39.65625 6.390625 43.53125 10.953125 
Q 47.40625 15.53125 47.40625 23.390625 
Q 47.40625 31.296875 43.53125 35.828125 
Q 39.65625 40.375 33.015625 40.375 
z
M 52.59375 71.296875 
L 52.59375 62.3125 
Q 48.875 64.0625 45.09375 64.984375 
Q 41.3125 65.921875 37.59375 65.921875 
Q 27.828125 65.921875 22.671875 59.328125 
Q 17.53125 52.734375 16.796875 39.40625 
Q 19.671875 43.65625 24.015625 45.921875 
Q 28.375 48.1875 33.59375 48.1875 
Q 44.578125 48.1875 50.953125 41.515625 
Q 57.328125 34.859375 57.328125 23.390625 
Q 57.328125 12.15625 50.6875 5.359375 
Q 44.046875 -1.421875 33.015625 -1.421875 
Q 20.359375 -1.421875 13.671875 8.265625 
Q 6.984375 17.96875 6.984375 36.375 
Q 6.984375 53.65625 15.1875 63.9375 
Q 23.390625 74.21875 37.203125 74.21875 
Q 40.921875 74.21875 44.703125 73.484375 
Q 48.484375 72.75 52.59375 71.296875 
z
" id="DejaVuSans-36"/>
      </defs>
      <g style="fill:#262626;" transform="translate(19.71675 16.239375)scale(0.08 -0.08)">
       <use xlink:href="#DejaVuSans-36"/>
      </g>
     </g>
    </g>
    <g id="text_12">
     <!-- log10 downloads -->
     <defs>
      <path d="M 45.40625 27.984375 
Q 45.40625 37.75 41.375 43.109375 
Q 37.359375 48.484375 30.078125 48.484375 
Q 22.859375 48.484375 18.828125 43.109375 
Q 14.796875 37.75 14.796875 27.984375 
Q 14.796875 18.265625 18.828125 12.890625 
Q 22.859375 7.515625 30.078125 7.515625 
Q 37.359375 7.515625 41.375 12.890625 
Q 45.40625 18.265625 45.40625 27.984375 
z
M 54.390625 6.78125 
Q 54.390625 -7.171875 48.1875 -13.984375 
Q 42 -20.796875 29.203125 -20.796875 
Q 24.46875 -20.796875 20.265625 -20.09375 
Q 16.0625 -19.390625 12.109375 -17.921875 
L 12.109375 -9.1875 
Q 16.0625 -11.328125 19.921875 -12.34375 
Q 23.78125 -13.375 27.78125 -13.375 
Q 36.625 -13.375 41.015625 -8.765625 
Q 45.40625 -4.15625 45.40625 5.171875 
L 45.40625 9.625 
Q 42.625 4.78125 38.28125 2.390625 
Q 33.9375 0 27.875 0 
Q 17.828125 0 11.671875 7.65625 
Q 5.515625 15.328125 5.515625 27.984375 
Q 5.515625 40.671875 11.671875 48.328125 
Q 17.828125 56 27.875 56 
Q 33.9375 56 38.28125 53.609375 
Q 42.625 51.21875 45.40625 46.390625 
L 45.40625 54.6875 
L 54.390625 54.6875 
z
" id="DejaVuSans-67"/>
      <path id="DejaVuSans-20"/>
      <path d="M 4.203125 54.6875 
L 13.1875 54.6875 
L 24.421875 12.015625 
L 35.59375 54.6875 
L 46.1875 54.6875 
L 57.421875 12.015625 
L 68.609375 54.6875 
L 77.59375 54.6875 
L 63.28125 0 
L 52.6875 0 
L 40.921875 44.828125 
L 29.109375 0 
L 18.5 0 
z
" id="DejaVuSans-77"/>
      <path d="M 34.28125 27.484375 
Q 23.390625 27.484375 19.1875 25 
Q 14.984375 22.515625 14.984375 16.5 
Q 14.984375 11.71875 18.140625 8.90625 
Q 21.296875 6.109375 26.703125 6.109375 
Q 34.1875 6.109375 38.703125 11.40625 
Q 43.21875 16.703125 43.21875 25.484375 
L 43.21875 27.484375 
z
M 52.203125 31.203125 
L 52.203125 0 
L 43.21875 0 
L 43.21875 8.296875 
Q 40.140625 3.328125 35.546875 0.953125 
Q 30.953125 -1.421875 24.3125 -1.421875 
Q 15.921875 -1.421875 10.953125 3.296875 
Q 6 8.015625 6 15.921875 
Q 6 25.140625 12.171875 29.828125 
Q 18.359375 34.515625 30.609375 34.515625 
L 43.21875 34.515625 
L 43.21875 35.40625 
Q 43.21875 41.609375 39.140625 45 
Q 35.0625 48.390625 27.6875 48.390625 
Q 23 48.390625 18.546875 47.265625 
Q 14.109375 46.140625 10.015625 43.890625 
L 10.015625 52.203125 
Q 14.9375 54.109375 19.578125 55.046875 
Q 24.21875 56 28.609375 56 
Q 40.484375 56 46.34375 49.84375 
Q 52.203125 43.703125 52.203125 31.203125 
z
" id="DejaVuSans-61"/>
      <path d="M 44.28125 53.078125 
L 44.28125 44.578125 
Q 40.484375 46.53125 36.375 47.5 
Q 32.28125 48.484375 27.875 48.484375 
Q 21.1875 48.484375 17.84375 46.4375 
Q 14.5 44.390625 14.5 40.28125 
Q 14.5 37.15625 16.890625 35.375 
Q 19.28125 33.59375 26.515625 31.984375 
L 29.59375 31.296875 
Q 39.15625 29.25 43.1875 25.515625 
Q 47.21875 21.78125 47.21875 15.09375 
Q 47.21875 7.46875 41.1875 3.015625 
Q 35.15625 -1.421875 24.609375 -1.421875 
Q 20.21875 -1.421875 15.453125 -0.5625 
Q 10.6875 0.296875 5.421875 2 
L 5.421875 11.28125 
Q 10.40625 8.6875 15.234375 7.390625 
Q 20.0625 6.109375 24.8125 6.109375 
Q 31.15625 6.109375 34.5625 8.28125 
Q 37.984375 10.453125 37.984375 14.40625 
Q 37.984375 18.0625 35.515625 20.015625 
Q 33.0625 21.96875 24.703125 23.78125 
L 21.578125 24.515625 
Q 13.234375 26.265625 9.515625 29.90625 
Q 5.8125 33.546875 5.8125 39.890625 
Q 5.8125 47.609375 11.28125 51.796875 
Q 16.75 56 26.8125 56 
Q 31.78125 56 36.171875 55.265625 
Q 40.578125 54.546875 44.28125 53.078125 
z
" id="DejaVuSans-73"/>
     </defs>
     <g style="fill:#262626;" transform="translate(13.886625 136.546187)rotate(-90)scale(0.088 -0.088)">
      <use xlink:href="#DejaVuSans-6c"/>
      <use x="27.783203" xlink:href="#DejaVuSans-6f"/>
      <use x="88.964844" xlink:href="#DejaVuSans-67"/>
      <use x="152.441406" xlink:href="#DejaVuSans-31"/>
      <use x="216.064453" xlink:href="#DejaVuSans-30"/>
      <use x="279.6875" xlink:href="#DejaVuSans-20"/>
      <use x="311.474609" xlink:href="#DejaVuSans-64"/>
      <use x="374.951172" xlink:href="#DejaVuSans-6f"/>
      <use x="436.132812" xlink:href="#DejaVuSans-77"/>
      <use x="517.919922" xlink:href="#DejaVuSans-6e"/>
      <use x="581.298828" xlink:href="#DejaVuSans-6c"/>
      <use x="609.082031" xlink:href="#DejaVuSans-6f"/>
      <use x="670.263672" xlink:href="#DejaVuSans-61"/>
      <use x="731.542969" xlink:href="#DejaVuSans-64"/>
      <use x="795.019531" xlink:href="#DejaVuSans-73"/>
     </g>
    </g>
   </g>
   <g id="PolyCollection_1">
    <defs>
     <path d="M 66.878292 -50.339542 
L 64.148708 -50.339542 
L 63.930575 -51.468465 
L 63.654898 -52.597388 
L 63.29511 -53.726311 
L 62.819158 -54.855234 
L 62.191598 -55.984157 
L 61.377061 -57.11308 
L 60.345007 -58.242003 
L 59.075399 -59.370926 
L 57.564608 -60.499849 
L 55.830568 -61.628772 
L 53.916045 -62.757695 
L 51.888957 -63.886618 
L 49.839016 -65.015542 
L 47.870574 -66.144465 
L 46.092302 -67.273388 
L 44.605074 -68.402311 
L 43.489976 -69.531234 
L 42.798514 -70.660157 
L 42.546782 -71.78908 
L 42.714674 -72.918003 
L 43.250219 -74.046926 
L 44.078147 -75.175849 
L 45.110996 -76.304772 
L 46.260706 -77.433695 
L 47.448709 -78.562618 
L 48.61302 -79.691541 
L 49.711587 -80.820464 
L 50.721949 -81.949387 
L 51.637939 -83.07831 
L 52.464585 -84.207233 
L 53.212476 -85.336156 
L 53.892717 -86.465079 
L 54.513254 -87.594002 
L 55.076934 -88.722925 
L 55.581281 -89.851849 
L 56.019659 -90.980772 
L 56.383335 -92.109695 
L 56.663872 -93.238618 
L 56.855395 -94.367541 
L 56.956326 -95.496464 
L 56.970395 -96.625387 
L 56.906834 -97.75431 
L 56.779836 -98.883233 
L 56.607419 -100.012156 
L 56.409909 -101.141079 
L 56.208294 -102.270002 
L 56.022652 -103.398925 
L 55.870835 -104.527848 
L 55.767526 -105.656771 
L 55.723686 -106.785694 
L 55.746375 -107.914617 
L 55.838829 -109.04354 
L 56.000708 -110.172463 
L 56.228387 -111.301386 
L 56.51525 -112.430309 
L 56.851962 -113.559232 
L 57.226775 -114.688155 
L 57.625942 -115.817079 
L 58.034311 -116.946002 
L 58.43615 -118.074925 
L 58.816194 -119.203848 
L 59.160808 -120.332771 
L 59.45916 -121.461694 
L 59.7042 -122.590617 
L 59.893286 -123.71954 
L 60.028346 -124.848463 
L 60.115502 -125.977386 
L 60.164216 -127.106309 
L 60.18608 -128.235232 
L 60.19345 -129.364155 
L 60.198125 -130.493078 
L 60.210289 -131.622001 
L 60.237832 -132.750924 
L 60.28611 -133.879847 
L 60.35809 -135.00877 
L 60.454762 -136.137693 
L 60.575675 -137.266616 
L 60.719427 -138.395539 
L 60.88402 -139.524462 
L 61.067019 -140.653386 
L 61.265559 -141.782309 
L 61.476254 -142.911232 
L 61.695123 -144.040155 
L 61.917617 -145.169078 
L 62.138814 -146.298001 
L 62.353776 -147.426924 
L 62.558046 -148.555847 
L 62.748191 -149.68477 
L 62.922276 -150.813693 
L 63.080182 -151.942616 
L 63.223654 -153.071539 
L 63.356069 -154.200462 
L 63.481918 -155.329385 
L 63.606096 -156.458308 
L 63.733109 -157.587231 
L 63.866345 -158.716154 
L 64.00754 -159.845077 
L 64.156529 -160.974 
L 64.311326 -162.102923 
L 66.715674 -162.102923 
L 66.715674 -162.102923 
L 66.870471 -160.974 
L 67.01946 -159.845077 
L 67.160655 -158.716154 
L 67.293891 -157.587231 
L 67.420904 -156.458308 
L 67.545082 -155.329385 
L 67.670931 -154.200462 
L 67.803346 -153.071539 
L 67.946818 -151.942616 
L 68.104724 -150.813693 
L 68.278809 -149.68477 
L 68.468954 -148.555847 
L 68.673224 -147.426924 
L 68.888186 -146.298001 
L 69.109383 -145.169078 
L 69.331877 -144.040155 
L 69.550746 -142.911232 
L 69.761441 -141.782309 
L 69.959981 -140.653386 
L 70.14298 -139.524462 
L 70.307573 -138.395539 
L 70.451325 -137.266616 
L 70.572238 -136.137693 
L 70.66891 -135.00877 
L 70.74089 -133.879847 
L 70.789168 -132.750924 
L 70.816711 -131.622001 
L 70.828875 -130.493078 
L 70.83355 -129.364155 
L 70.84092 -128.235232 
L 70.862784 -127.106309 
L 70.911498 -125.977386 
L 70.998654 -124.848463 
L 71.133714 -123.71954 
L 71.3228 -122.590617 
L 71.56784 -121.461694 
L 71.866192 -120.332771 
L 72.210806 -119.203848 
L 72.59085 -118.074925 
L 72.992689 -116.946002 
L 73.401058 -115.817079 
L 73.800225 -114.688155 
L 74.175038 -113.559232 
L 74.51175 -112.430309 
L 74.798613 -111.301386 
L 75.026292 -110.172463 
L 75.188171 -109.04354 
L 75.280625 -107.914617 
L 75.303314 -106.785694 
L 75.259474 -105.656771 
L 75.156165 -104.527848 
L 75.004348 -103.398925 
L 74.818706 -102.270002 
L 74.617091 -101.141079 
L 74.419581 -100.012156 
L 74.247164 -98.883233 
L 74.120166 -97.75431 
L 74.056605 -96.625387 
L 74.070674 -95.496464 
L 74.171605 -94.367541 
L 74.363128 -93.238618 
L 74.643665 -92.109695 
L 75.007341 -90.980772 
L 75.445719 -89.851849 
L 75.950066 -88.722925 
L 76.513746 -87.594002 
L 77.134283 -86.465079 
L 77.814524 -85.336156 
L 78.562415 -84.207233 
L 79.389061 -83.07831 
L 80.305051 -81.949387 
L 81.315413 -80.820464 
L 82.41398 -79.691541 
L 83.578291 -78.562618 
L 84.766294 -77.433695 
L 85.916004 -76.304772 
L 86.948853 -75.175849 
L 87.776781 -74.046926 
L 88.312326 -72.918003 
L 88.480218 -71.78908 
L 88.228486 -70.660157 
L 87.537024 -69.531234 
L 86.421926 -68.402311 
L 84.934698 -67.273388 
L 83.156426 -66.144465 
L 81.187984 -65.015542 
L 79.138043 -63.886618 
L 77.110955 -62.757695 
L 75.196432 -61.628772 
L 73.462392 -60.499849 
L 71.951601 -59.370926 
L 70.681993 -58.242003 
L 69.649939 -57.11308 
L 68.835402 -55.984157 
L 68.207842 -54.855234 
L 67.73189 -53.726311 
L 67.372102 -52.597388 
L 67.096425 -51.468465 
L 66.878292 -50.339542 
z
" id="me56857d725" style="stroke:#2f2f2f;stroke-width:1.4;"/>
    </defs>
    <g clip-path="url(#p0d04dd6ea6)">
     <use style="fill:#166c9c;stroke:#2f2f2f;stroke-width:1.4;" x="0" xlink:href="#me56857d725" y="211.8865"/>
    </g>
   </g>
   <g id="PolyCollection_2">
    <defs>
     <path d="M 123.891129 -33.793643 
L 123.562871 -33.793643 
L 123.528818 -35.258521 
L 123.488641 -36.723398 
L 123.439862 -38.188276 
L 123.37978 -39.653153 
L 123.306127 -41.11803 
L 123.217918 -42.582908 
L 123.11622 -44.047785 
L 123.004406 -45.512663 
L 122.887375 -46.97754 
L 122.769475 -48.442418 
L 122.651428 -49.907295 
L 122.527187 -51.372173 
L 122.382112 -52.83705 
L 122.193711 -54.301927 
L 121.93547 -55.766805 
L 121.583187 -57.231682 
L 121.122154 -58.69656 
L 120.552923 -60.161437 
L 119.893592 -61.626315 
L 119.177401 -63.091192 
L 118.445895 -64.556069 
L 117.739346 -66.020947 
L 117.087116 -67.485824 
L 116.500847 -68.950702 
L 115.972645 -70.415579 
L 115.479047 -71.880457 
L 114.989906 -73.345334 
L 114.479806 -74.810212 
L 113.938538 -76.275089 
L 113.377071 -77.739966 
L 112.826295 -79.204844 
L 112.327868 -80.669721 
L 111.919071 -82.134599 
L 111.615858 -83.599476 
L 111.399396 -85.064354 
L 111.210735 -86.529231 
L 110.956348 -87.994108 
L 110.524746 -89.458986 
L 109.811984 -90.923863 
L 108.751758 -92.388741 
L 107.343756 -93.853618 
L 105.672359 -95.318496 
L 103.907666 -96.783373 
L 102.283756 -98.248251 
L 101.055281 -99.713128 
L 100.4416 -101.178005 
L 100.574023 -102.642883 
L 101.462906 -104.10776 
L 102.995759 -105.572638 
L 104.967064 -107.037515 
L 107.129535 -108.502393 
L 109.249961 -109.96727 
L 111.152945 -111.432147 
L 112.742092 -112.897025 
L 113.997101 -114.361902 
L 114.952859 -115.82678 
L 115.670632 -117.291657 
L 116.211288 -118.756535 
L 116.617593 -120.221412 
L 116.908516 -121.686289 
L 117.084698 -123.151167 
L 117.141255 -124.616044 
L 117.082436 -126.080922 
L 116.932436 -127.545799 
L 116.738138 -129.010677 
L 116.56248 -130.475554 
L 116.470656 -131.940432 
L 116.514111 -133.405309 
L 116.718181 -134.870186 
L 117.07761 -136.335064 
L 117.560991 -137.799941 
L 118.121745 -139.264819 
L 118.711223 -140.729696 
L 119.289489 -142.194574 
L 119.831081 -143.659451 
L 120.325314 -145.124328 
L 120.772616 -146.589206 
L 121.179112 -148.054083 
L 121.551558 -149.518961 
L 121.893932 -150.983838 
L 122.206144 -152.448716 
L 122.484658 -153.913593 
L 122.724384 -155.378471 
L 122.921016 -156.843348 
L 123.073011 -158.308225 
L 123.182627 -159.773103 
L 123.255768 -161.23798 
L 123.300798 -162.702858 
L 123.326808 -164.167735 
L 123.341963 -165.632613 
L 123.352448 -167.09749 
L 123.36222 -168.562367 
L 123.373449 -170.027245 
L 123.387256 -171.492122 
L 123.404352 -172.957 
L 123.425325 -174.421877 
L 123.450561 -175.886755 
L 123.479984 -177.351632 
L 123.512838 -178.81651 
L 123.941162 -178.81651 
L 123.941162 -178.81651 
L 123.974016 -177.351632 
L 124.003439 -175.886755 
L 124.028675 -174.421877 
L 124.049648 -172.957 
L 124.066744 -171.492122 
L 124.080551 -170.027245 
L 124.09178 -168.562367 
L 124.101552 -167.09749 
L 124.112037 -165.632613 
L 124.127192 -164.167735 
L 124.153202 -162.702858 
L 124.198232 -161.23798 
L 124.271373 -159.773103 
L 124.380989 -158.308225 
L 124.532984 -156.843348 
L 124.729616 -155.378471 
L 124.969342 -153.913593 
L 125.247856 -152.448716 
L 125.560068 -150.983838 
L 125.902442 -149.518961 
L 126.274888 -148.054083 
L 126.681384 -146.589206 
L 127.128686 -145.124328 
L 127.622919 -143.659451 
L 128.164511 -142.194574 
L 128.742777 -140.729696 
L 129.332255 -139.264819 
L 129.893009 -137.799941 
L 130.37639 -136.335064 
L 130.735819 -134.870186 
L 130.939889 -133.405309 
L 130.983344 -131.940432 
L 130.89152 -130.475554 
L 130.715862 -129.010677 
L 130.521564 -127.545799 
L 130.371564 -126.080922 
L 130.312745 -124.616044 
L 130.369302 -123.151167 
L 130.545484 -121.686289 
L 130.836407 -120.221412 
L 131.242712 -118.756535 
L 131.783368 -117.291657 
L 132.501141 -115.82678 
L 133.456899 -114.361902 
L 134.711908 -112.897025 
L 136.301055 -111.432147 
L 138.204039 -109.96727 
L 140.324465 -108.502393 
L 142.486936 -107.037515 
L 144.458241 -105.572638 
L 145.991094 -104.10776 
L 146.879977 -102.642883 
L 147.0124 -101.178005 
L 146.398719 -99.713128 
L 145.170244 -98.248251 
L 143.546334 -96.783373 
L 141.781641 -95.318496 
L 140.110244 -93.853618 
L 138.702242 -92.388741 
L 137.642016 -90.923863 
L 136.929254 -89.458986 
L 136.497652 -87.994108 
L 136.243265 -86.529231 
L 136.054604 -85.064354 
L 135.838142 -83.599476 
L 135.534929 -82.134599 
L 135.126132 -80.669721 
L 134.627705 -79.204844 
L 134.076929 -77.739966 
L 133.515462 -76.275089 
L 132.974194 -74.810212 
L 132.464094 -73.345334 
L 131.974953 -71.880457 
L 131.481355 -70.415579 
L 130.953153 -68.950702 
L 130.366884 -67.485824 
L 129.714654 -66.020947 
L 129.008105 -64.556069 
L 128.276599 -63.091192 
L 127.560408 -61.626315 
L 126.901077 -60.161437 
L 126.331846 -58.69656 
L 125.870813 -57.231682 
L 125.51853 -55.766805 
L 125.260289 -54.301927 
L 125.071888 -52.83705 
L 124.926813 -51.372173 
L 124.802572 -49.907295 
L 124.684525 -48.442418 
L 124.566625 -46.97754 
L 124.449594 -45.512663 
L 124.33778 -44.047785 
L 124.236082 -42.582908 
L 124.147873 -41.11803 
L 124.07422 -39.653153 
L 124.014138 -38.188276 
L 123.965359 -36.723398 
L 123.925182 -35.258521 
L 123.891129 -33.793643 
z
" id="m96e43f58ea" style="stroke:#2f2f2f;stroke-width:1.4;"/>
    </defs>
    <g clip-path="url(#p0d04dd6ea6)">
     <use style="fill:#148a6a;stroke:#2f2f2f;stroke-width:1.4;" x="0" xlink:href="#m96e43f58ea" y="211.8865"/>
    </g>
   </g>
   <g id="PolyCollection_3">
    <defs>
     <path d="M 182.194445 -33.793643 
L 181.686555 -33.793643 
L 181.678635 -35.186363 
L 181.673204 -36.579083 
L 181.665849 -37.971803 
L 181.651052 -39.364524 
L 181.622885 -40.757244 
L 181.575717 -42.149964 
L 181.504723 -43.542684 
L 181.406066 -44.935404 
L 181.276694 -46.328124 
L 181.113874 -47.720844 
L 180.914653 -49.113564 
L 180.675538 -50.506284 
L 180.392656 -51.899004 
L 180.06247 -53.291724 
L 179.682962 -54.684444 
L 179.254907 -56.077164 
L 178.782745 -57.469884 
L 178.274563 -58.862604 
L 177.74094 -60.255324 
L 177.192809 -61.648044 
L 176.638878 -63.040765 
L 176.08344 -64.433485 
L 175.525388 -65.826205 
L 174.958916 -67.218925 
L 174.375824 -68.611645 
L 173.768791 -70.004365 
L 173.134569 -71.397085 
L 172.476077 -72.789805 
L 171.802723 -74.182525 
L 171.128901 -75.575245 
L 170.471203 -76.967965 
L 169.845322 -78.360685 
L 169.263582 -79.753405 
L 168.733762 -81.146125 
L 168.259352 -82.538845 
L 167.840851 -83.931565 
L 167.477479 -85.324285 
L 167.168595 -86.717005 
L 166.914399 -88.109726 
L 166.715841 -89.502446 
L 166.573971 -90.895166 
L 166.489189 -92.287886 
L 166.460821 -93.680606 
L 166.487297 -95.073326 
L 166.566942 -96.466046 
L 166.699124 -97.858766 
L 166.885298 -99.251486 
L 167.129432 -100.644206 
L 167.437435 -102.036926 
L 167.815442 -103.429646 
L 168.267226 -104.822366 
L 168.79133 -106.215086 
L 169.378715 -107.607806 
L 170.011706 -109.000526 
L 170.664723 -110.393246 
L 171.306857 -111.785966 
L 171.905819 -113.178687 
L 172.432478 -114.571407 
L 172.865022 -115.964127 
L 173.191944 -117.356847 
L 173.41337 -118.749567 
L 173.540652 -120.142287 
L 173.594498 -121.535007 
L 173.602055 -122.927727 
L 173.593392 -124.320447 
L 173.597762 -125.713167 
L 173.639939 -127.105887 
L 173.737009 -128.498607 
L 173.896086 -129.891327 
L 174.113503 -131.284047 
L 174.37593 -132.676767 
L 174.663489 -134.069487 
L 174.954426 -135.462207 
L 175.230307 -136.854928 
L 175.480427 -138.247648 
L 175.704219 -139.640368 
L 175.910983 -141.033088 
L 176.117078 -142.425808 
L 176.341443 -143.818528 
L 176.600786 -145.211248 
L 176.905739 -146.603968 
L 177.258852 -147.996688 
L 177.654655 -149.389408 
L 178.081393 -150.782128 
L 178.523664 -152.174848 
L 178.965142 -153.567568 
L 179.39078 -154.960288 
L 179.788198 -156.353008 
L 180.148305 -157.745728 
L 180.465355 -159.138448 
L 180.736712 -160.531168 
L 180.962503 -161.923889 
L 181.145231 -163.316609 
L 181.289351 -164.709329 
L 181.400752 -166.102049 
L 181.486128 -167.494769 
L 181.552267 -168.887489 
L 181.605357 -170.280209 
L 181.650418 -171.672929 
L 182.230582 -171.672929 
L 182.230582 -171.672929 
L 182.275643 -170.280209 
L 182.328733 -168.887489 
L 182.394872 -167.494769 
L 182.480248 -166.102049 
L 182.591649 -164.709329 
L 182.735769 -163.316609 
L 182.918497 -161.923889 
L 183.144288 -160.531168 
L 183.415645 -159.138448 
L 183.732695 -157.745728 
L 184.092802 -156.353008 
L 184.49022 -154.960288 
L 184.915858 -153.567568 
L 185.357336 -152.174848 
L 185.799607 -150.782128 
L 186.226345 -149.389408 
L 186.622148 -147.996688 
L 186.975261 -146.603968 
L 187.280214 -145.211248 
L 187.539557 -143.818528 
L 187.763922 -142.425808 
L 187.970017 -141.033088 
L 188.176781 -139.640368 
L 188.400573 -138.247648 
L 188.650693 -136.854928 
L 188.926574 -135.462207 
L 189.217511 -134.069487 
L 189.50507 -132.676767 
L 189.767497 -131.284047 
L 189.984914 -129.891327 
L 190.143991 -128.498607 
L 190.241061 -127.105887 
L 190.283238 -125.713167 
L 190.287608 -124.320447 
L 190.278945 -122.927727 
L 190.286502 -121.535007 
L 190.340348 -120.142287 
L 190.46763 -118.749567 
L 190.689056 -117.356847 
L 191.015978 -115.964127 
L 191.448522 -114.571407 
L 191.975181 -113.178687 
L 192.574143 -111.785966 
L 193.216277 -110.393246 
L 193.869294 -109.000526 
L 194.502285 -107.607806 
L 195.08967 -106.215086 
L 195.613774 -104.822366 
L 196.065558 -103.429646 
L 196.443565 -102.036926 
L 196.751568 -100.644206 
L 196.995702 -99.251486 
L 197.181876 -97.858766 
L 197.314058 -96.466046 
L 197.393703 -95.073326 
L 197.420179 -93.680606 
L 197.391811 -92.287886 
L 197.307029 -90.895166 
L 197.165159 -89.502446 
L 196.966601 -88.109726 
L 196.712405 -86.717005 
L 196.403521 -85.324285 
L 196.040149 -83.931565 
L 195.621648 -82.538845 
L 195.147238 -81.146125 
L 194.617418 -79.753405 
L 194.035678 -78.360685 
L 193.409797 -76.967965 
L 192.752099 -75.575245 
L 192.078277 -74.182525 
L 191.404923 -72.789805 
L 190.746431 -71.397085 
L 190.112209 -70.004365 
L 189.505176 -68.611645 
L 188.922084 -67.218925 
L 188.355612 -65.826205 
L 187.79756 -64.433485 
L 187.242122 -63.040765 
L 186.688191 -61.648044 
L 186.14006 -60.255324 
L 185.606437 -58.862604 
L 185.098255 -57.469884 
L 184.626093 -56.077164 
L 184.198038 -54.684444 
L 183.81853 -53.291724 
L 183.488344 -51.899004 
L 183.205462 -50.506284 
L 182.966347 -49.113564 
L 182.767126 -47.720844 
L 182.604306 -46.328124 
L 182.474934 -44.935404 
L 182.376277 -43.542684 
L 182.305283 -42.149964 
L 182.258115 -40.757244 
L 182.229948 -39.364524 
L 182.215151 -37.971803 
L 182.207796 -36.579083 
L 182.202365 -35.186363 
L 182.194445 -33.793643 
z
" id="m27d58a4f98" style="stroke:#2f2f2f;stroke-width:1.4;"/>
    </defs>
    <g clip-path="url(#p0d04dd6ea6)">
     <use style="fill:#ba611b;stroke:#2f2f2f;stroke-width:1.4;" x="0" xlink:href="#m27d58a4f98" y="211.8865"/>
    </g>
   </g>
   <g id="PolyCollection_4">
    <defs>
     <path d="M 241.794243 -53.002837 
L 238.513757 -53.002837 
L 238.053367 -54.148577 
L 237.517227 -55.294317 
L 236.911088 -56.440057 
L 236.246701 -57.585797 
L 235.54175 -58.731537 
L 234.819004 -59.877278 
L 234.104687 -61.023018 
L 233.426224 -62.168758 
L 232.80964 -63.314498 
L 232.276981 -64.460238 
L 231.844146 -65.605978 
L 231.519469 -66.751718 
L 231.303253 -67.897458 
L 231.188309 -69.043199 
L 231.161352 -70.188939 
L 231.204997 -71.334679 
L 231.299994 -72.480419 
L 231.427329 -73.626159 
L 231.569889 -74.771899 
L 231.713494 -75.917639 
L 231.84722 -77.063379 
L 231.963073 -78.20912 
L 232.055194 -79.35486 
L 232.118813 -80.5006 
L 232.149213 -81.64634 
L 232.140944 -82.79208 
L 232.087461 -83.93782 
L 231.98129 -85.08356 
L 231.814732 -86.2293 
L 231.581021 -87.375041 
L 231.275759 -88.520781 
L 230.898387 -89.666521 
L 230.453453 -90.812261 
L 229.951402 -91.958001 
L 229.4087 -93.103741 
L 228.847188 -94.249481 
L 228.292664 -95.395222 
L 227.77283 -96.540962 
L 227.314841 -97.686702 
L 226.942772 -98.832442 
L 226.675347 -99.978182 
L 226.524235 -101.123922 
L 226.49316 -102.269662 
L 226.577911 -103.415402 
L 226.767216 -104.561143 
L 227.044322 -105.706883 
L 227.389006 -106.852623 
L 227.779685 -107.998363 
L 228.195348 -109.144103 
L 228.617038 -110.289843 
L 229.028748 -111.435583 
L 229.417686 -112.581323 
L 229.773981 -113.727064 
L 230.089966 -114.872804 
L 230.359248 -116.018544 
L 230.575764 -117.164284 
L 230.733034 -118.310024 
L 230.823787 -119.455764 
L 230.840078 -120.601504 
L 230.773955 -121.747244 
L 230.618659 -122.892985 
L 230.370249 -124.038725 
L 230.029433 -125.184465 
L 229.603323 -126.330205 
L 229.106761 -127.475945 
L 228.562862 -128.621685 
L 228.002522 -129.767425 
L 227.462761 -130.913165 
L 226.983973 -132.058906 
L 226.606402 -133.204646 
L 226.366287 -134.350386 
L 226.292261 -135.496126 
L 226.402541 -136.641866 
L 226.703318 -137.787606 
L 227.188534 -138.933346 
L 227.841007 -140.079087 
L 228.634616 -141.224827 
L 229.537136 -142.370567 
L 230.513273 -143.516307 
L 231.527487 -144.662047 
L 232.546335 -145.807787 
L 233.540193 -146.953527 
L 234.484352 -148.099267 
L 235.359569 -149.245008 
L 236.152198 -150.390748 
L 236.854001 -151.536488 
L 237.461734 -152.682228 
L 237.976557 -153.827968 
L 238.403306 -154.973708 
L 238.749665 -156.119448 
L 239.025269 -157.265188 
L 239.240803 -158.410929 
L 239.407168 -159.556669 
L 239.534757 -160.702409 
L 239.632903 -161.848149 
L 239.709529 -162.993889 
L 239.770983 -164.139629 
L 239.822046 -165.285369 
L 239.866082 -166.431109 
L 240.441918 -166.431109 
L 240.441918 -166.431109 
L 240.485954 -165.285369 
L 240.537017 -164.139629 
L 240.598471 -162.993889 
L 240.675097 -161.848149 
L 240.773243 -160.702409 
L 240.900832 -159.556669 
L 241.067197 -158.410929 
L 241.282731 -157.265188 
L 241.558335 -156.119448 
L 241.904694 -154.973708 
L 242.331443 -153.827968 
L 242.846266 -152.682228 
L 243.453999 -151.536488 
L 244.155802 -150.390748 
L 244.948431 -149.245008 
L 245.823648 -148.099267 
L 246.767807 -146.953527 
L 247.761665 -145.807787 
L 248.780513 -144.662047 
L 249.794727 -143.516307 
L 250.770864 -142.370567 
L 251.673384 -141.224827 
L 252.466993 -140.079087 
L 253.119466 -138.933346 
L 253.604682 -137.787606 
L 253.905459 -136.641866 
L 254.015739 -135.496126 
L 253.941713 -134.350386 
L 253.701598 -133.204646 
L 253.324027 -132.058906 
L 252.845239 -130.913165 
L 252.305478 -129.767425 
L 251.745138 -128.621685 
L 251.201239 -127.475945 
L 250.704677 -126.330205 
L 250.278567 -125.184465 
L 249.937751 -124.038725 
L 249.689341 -122.892985 
L 249.534045 -121.747244 
L 249.467922 -120.601504 
L 249.484213 -119.455764 
L 249.574966 -118.310024 
L 249.732236 -117.164284 
L 249.948752 -116.018544 
L 250.218034 -114.872804 
L 250.534019 -113.727064 
L 250.890314 -112.581323 
L 251.279252 -111.435583 
L 251.690962 -110.289843 
L 252.112652 -109.144103 
L 252.528315 -107.998363 
L 252.918994 -106.852623 
L 253.263678 -105.706883 
L 253.540784 -104.561143 
L 253.730089 -103.415402 
L 253.81484 -102.269662 
L 253.783765 -101.123922 
L 253.632653 -99.978182 
L 253.365228 -98.832442 
L 252.993159 -97.686702 
L 252.53517 -96.540962 
L 252.015336 -95.395222 
L 251.460812 -94.249481 
L 250.8993 -93.103741 
L 250.356598 -91.958001 
L 249.854547 -90.812261 
L 249.409613 -89.666521 
L 249.032241 -88.520781 
L 248.726979 -87.375041 
L 248.493268 -86.2293 
L 248.32671 -85.08356 
L 248.220539 -83.93782 
L 248.167056 -82.79208 
L 248.158787 -81.64634 
L 248.189187 -80.5006 
L 248.252806 -79.35486 
L 248.344927 -78.20912 
L 248.46078 -77.063379 
L 248.594506 -75.917639 
L 248.738111 -74.771899 
L 248.880671 -73.626159 
L 249.008006 -72.480419 
L 249.103003 -71.334679 
L 249.146648 -70.188939 
L 249.119691 -69.043199 
L 249.004747 -67.897458 
L 248.788531 -66.751718 
L 248.463854 -65.605978 
L 248.031019 -64.460238 
L 247.49836 -63.314498 
L 246.881776 -62.168758 
L 246.203313 -61.023018 
L 245.488996 -59.877278 
L 244.76625 -58.731537 
L 244.061299 -57.585797 
L 243.396912 -56.440057 
L 242.790773 -55.294317 
L 242.254633 -54.148577 
L 241.794243 -53.002837 
z
" id="mb5bf843805" style="stroke:#2f2f2f;stroke-width:1.4;"/>
    </defs>
    <g clip-path="url(#p0d04dd6ea6)">
     <use style="fill:#c283a6;stroke:#2f2f2f;stroke-width:1.4;" x="0" xlink:href="#mb5bf843805" y="211.8865"/>
    </g>
   </g>
   <g id="line2d_12">
    <path clip-path="url(#p0d04dd6ea6)" d="M 65.5135 161.546958 
L 65.5135 49.783577 
" style="fill:none;stroke:#2f2f2f;stroke-linecap:round;stroke-width:1.4;"/>
   </g>
   <g id="line2d_13">
    <path clip-path="url(#p0d04dd6ea6)" d="M 65.5135 141.200205 
L 65.5135 100.59674 
" style="fill:none;stroke:#2f2f2f;stroke-linecap:round;stroke-width:4.2;"/>
   </g>
   <g id="line2d_14">
    <path clip-path="url(#p0d04dd6ea6)" d="M 123.727 169.819907 
L 123.727 57.370682 
" style="fill:none;stroke:#2f2f2f;stroke-linecap:round;stroke-width:1.4;"/>
   </g>
   <g id="line2d_15">
    <path clip-path="url(#p0d04dd6ea6)" d="M 123.727 127.645091 
L 123.727 99.172327 
" style="fill:none;stroke:#2f2f2f;stroke-linecap:round;stroke-width:4.2;"/>
   </g>
   <g id="line2d_16">
    <path clip-path="url(#p0d04dd6ea6)" d="M 181.9405 178.092857 
L 181.9405 40.213571 
" style="fill:none;stroke:#2f2f2f;stroke-linecap:round;stroke-width:1.4;"/>
   </g>
   <g id="line2d_17">
    <path clip-path="url(#p0d04dd6ea6)" d="M 181.9405 128.270113 
L 181.9405 91.469707 
" style="fill:none;stroke:#2f2f2f;stroke-linecap:round;stroke-width:4.2;"/>
   </g>
   <g id="line2d_18">
    <path clip-path="url(#p0d04dd6ea6)" d="M 240.154 158.883663 
L 240.154 45.455391 
" style="fill:none;stroke:#2f2f2f;stroke-linecap:round;stroke-width:1.4;"/>
   </g>
   <g id="line2d_19">
    <path clip-path="url(#p0d04dd6ea6)" d="M 240.154 125.608363 
L 240.154 77.737947 
" style="fill:none;stroke:#2f2f2f;stroke-linecap:round;stroke-width:4.2;"/>
   </g>
   <g id="patch_3">
    <path d="M 36.40675 185.344 
L 36.40675 13.2 
" style="fill:none;stroke:#262626;stroke-linecap:square;stroke-linejoin:miter;stroke-width:1.25;"/>
   </g>
   <g id="patch_4">
    <path d="M 36.40675 185.344 
L 269.26075 185.344 
" style="fill:none;stroke:#262626;stroke-linecap:square;stroke-linejoin:miter;stroke-width:1.25;"/>
   </g>
   <g id="PathCollection_1">
    <defs>
     <path d="M 0 1.4 
C 0.371284 1.4 0.727412 1.252487 0.989949 0.989949 
C 1.252487 0.727412 1.4 0.371284 1.4 0 
C 1.4 -0.371284 1.252487 -0.727412 0.989949 -0.989949 
C 0.727412 -1.252487 0.371284 -1.4 0 -1.4 
C -0.371284 -1.4 -0.727412 -1.252487 -0.989949 -0.989949 
C -1.252487 -0.727412 -1.4 -0.371284 -1.4 0 
C -1.4 0.371284 -1.252487 0.727412 -0.989949 0.989949 
C -0.727412 1.252487 -0.371284 1.4 0 1.4 
z
" id="ma03a184de7" style="stroke:#2f2f2f;stroke-width:0.24;"/>
    </defs>
    <g clip-path="url(#p0d04dd6ea6)">
     <use style="fill:#ffffff;stroke:#2f2f2f;stroke-width:0.24;" x="65.5135" xlink:href="#ma03a184de7" y="127.21631"/>
    </g>
   </g>
   <g id="PathCollection_2">
    <g clip-path="url(#p0d04dd6ea6)">
     <use style="fill:#ffffff;stroke:#2f2f2f;stroke-width:0.24;" x="123.727" xlink:href="#ma03a184de7" y="110.79716"/>
    </g>
   </g>
   <g id="PathCollection_3">
    <g clip-path="url(#p0d04dd6ea6)">
     <use style="fill:#ffffff;stroke:#2f2f2f;stroke-width:0.24;" x="181.9405" xlink:href="#ma03a184de7" y="113.109956"/>
    </g>
   </g>
   <g id="PathCollection_4">
    <g clip-path="url(#p0d04dd6ea6)">
     <use style="fill:#ffffff;stroke:#2f2f2f;stroke-width:0.24;" x="240.154" xlink:href="#ma03a184de7" y="106.390363"/>
    </g>
   </g>
   <g id="text_13">
    <!-- Total downloads: 6,297,907 -->
    <defs>
     <path d="M -0.296875 72.90625 
L 61.375 72.90625 
L 61.375 64.59375 
L 35.5 64.59375 
L 35.5 0 
L 25.59375 0 
L 25.59375 64.59375 
L -0.296875 64.59375 
z
" id="DejaVuSans-54"/>
     <path d="M 11.71875 12.40625 
L 22.015625 12.40625 
L 22.015625 0 
L 11.71875 0 
z
M 11.71875 51.703125 
L 22.015625 51.703125 
L 22.015625 39.3125 
L 11.71875 39.3125 
z
" id="DejaVuSans-3a"/>
     <path d="M 11.71875 12.40625 
L 22.015625 12.40625 
L 22.015625 4 
L 14.015625 -11.625 
L 7.71875 -11.625 
L 11.71875 4 
z
" id="DejaVuSans-2c"/>
     <path d="M 10.984375 1.515625 
L 10.984375 10.5 
Q 14.703125 8.734375 18.5 7.8125 
Q 22.3125 6.890625 25.984375 6.890625 
Q 35.75 6.890625 40.890625 13.453125 
Q 46.046875 20.015625 46.78125 33.40625 
Q 43.953125 29.203125 39.59375 26.953125 
Q 35.25 24.703125 29.984375 24.703125 
Q 19.046875 24.703125 12.671875 31.3125 
Q 6.296875 37.9375 6.296875 49.421875 
Q 6.296875 60.640625 12.9375 67.421875 
Q 19.578125 74.21875 30.609375 74.21875 
Q 43.265625 74.21875 49.921875 64.515625 
Q 56.59375 54.828125 56.59375 36.375 
Q 56.59375 19.140625 48.40625 8.859375 
Q 40.234375 -1.421875 26.421875 -1.421875 
Q 22.703125 -1.421875 18.890625 -0.6875 
Q 15.09375 0.046875 10.984375 1.515625 
z
M 30.609375 32.421875 
Q 37.25 32.421875 41.125 36.953125 
Q 45.015625 41.5 45.015625 49.421875 
Q 45.015625 57.28125 41.125 61.84375 
Q 37.25 66.40625 30.609375 66.40625 
Q 23.96875 66.40625 20.09375 61.84375 
Q 16.21875 57.28125 16.21875 49.421875 
Q 16.21875 41.5 20.09375 36.953125 
Q 23.96875 32.421875 30.609375 32.421875 
z
" id="DejaVuSans-39"/>
     <path d="M 8.203125 72.90625 
L 55.078125 72.90625 
L 55.078125 68.703125 
L 28.609375 0 
L 18.3125 0 
L 43.21875 64.59375 
L 8.203125 64.59375 
z
" id="DejaVuSans-37"/>
    </defs>
    <g style="fill:#262626;" transform="translate(86.0125 20.4945)scale(0.096 -0.096)">
     <use xlink:href="#DejaVuSans-54"/>
     <use x="60.818359" xlink:href="#DejaVuSans-6f"/>
     <use x="122" xlink:href="#DejaVuSans-74"/>
     <use x="161.208984" xlink:href="#DejaVuSans-61"/>
     <use x="222.488281" xlink:href="#DejaVuSans-6c"/>
     <use x="250.271484" xlink:href="#DejaVuSans-20"/>
     <use x="282.058594" xlink:href="#DejaVuSans-64"/>
     <use x="345.535156" xlink:href="#DejaVuSans-6f"/>
     <use x="406.716797" xlink:href="#DejaVuSans-77"/>
     <use x="488.503906" xlink:href="#DejaVuSans-6e"/>
     <use x="551.882812" xlink:href="#DejaVuSans-6c"/>
     <use x="579.666016" xlink:href="#DejaVuSans-6f"/>
     <use x="640.847656" xlink:href="#DejaVuSans-61"/>
     <use x="702.126953" xlink:href="#DejaVuSans-64"/>
     <use x="765.603516" xlink:href="#DejaVuSans-73"/>
     <use x="817.703125" xlink:href="#DejaVuSans-3a"/>
     <use x="851.394531" xlink:href="#DejaVuSans-20"/>
     <use x="883.181641" xlink:href="#DejaVuSans-36"/>
     <use x="946.804688" xlink:href="#DejaVuSans-2c"/>
     <use x="978.591797" xlink:href="#DejaVuSans-32"/>
     <use x="1042.214844" xlink:href="#DejaVuSans-39"/>
     <use x="1105.837891" xlink:href="#DejaVuSans-37"/>
     <use x="1169.460938" xlink:href="#DejaVuSans-2c"/>
     <use x="1201.248047" xlink:href="#DejaVuSans-39"/>
     <use x="1264.871094" xlink:href="#DejaVuSans-30"/>
     <use x="1328.494141" xlink:href="#DejaVuSans-37"/>
    </g>
   </g>
  </g>
 </g>
 <defs>
  <clipPath id="p0d04dd6ea6">
   <rect height="172.144" width="232.854" x="36.40675" y="13.2"/>
  </clipPath>
 </defs>
</svg>
