<?xml version="1.0" encoding="utf-8" standalone="no"?>
<!DOCTYPE svg PUBLIC "-//W3C//DTD SVG 1.1//EN"
  "http://www.w3.org/Graphics/SVG/1.1/DTD/svg11.dtd">
<!-- Created with matplotlib (http://matplotlib.org/) -->
<svg height="163pt" version="1.1" viewBox="0 0 272 163" width="272pt" xmlns="http://www.w3.org/2000/svg" xmlns:xlink="http://www.w3.org/1999/xlink">
 <defs>
  <style type="text/css">
*{stroke-linecap:butt;stroke-linejoin:round;}
  </style>
 </defs>
 <g id="figure_1">
  <g id="patch_1">
   <path d="M 0 163.13925 
L 272.80675 163.13925 
L 272.80675 0 
L 0 0 
z
" style="fill:#ffffff;"/>
  </g>
  <g id="axes_1">
   <g id="patch_2">
    <path d="M 36.40675 124.08 
L 259.60675 124.08 
L 259.60675 13.2 
L 36.40675 13.2 
z
" style="fill:#ffffff;"/>
   </g>
   <g id="matplotlib.axis_1">
    <g id="xtick_1">
     <g id="line2d_1">
      <defs>
       <path d="M 0 0 
L 0 6 
" id="mc8c9047a34" style="stroke:#262626;stroke-width:0.8;"/>
      </defs>
      <g>
       <use style="fill:#262626;stroke:#262626;stroke-width:0.8;" x="64.30675" xlink:href="#mc8c9047a34" y="124.08"/>
      </g>
     </g>
     <g id="text_1">
      <!-- Other -->
      <defs>
       <path d="M 39.40625 66.21875 
Q 28.65625 66.21875 22.328125 58.203125 
Q 16.015625 50.203125 16.015625 36.375 
Q 16.015625 22.609375 22.328125 14.59375 
Q 28.65625 6.59375 39.40625 6.59375 
Q 50.140625 6.59375 56.421875 14.59375 
Q 62.703125 22.609375 62.703125 36.375 
Q 62.703125 50.203125 56.421875 58.203125 
Q 50.140625 66.21875 39.40625 66.21875 
z
M 39.40625 74.21875 
Q 54.734375 74.21875 63.90625 63.9375 
Q 73.09375 53.65625 73.09375 36.375 
Q 73.09375 19.140625 63.90625 8.859375 
Q 54.734375 -1.421875 39.40625 -1.421875 
Q 24.03125 -1.421875 14.8125 8.828125 
Q 5.609375 19.09375 5.609375 36.375 
Q 5.609375 53.65625 14.8125 63.9375 
Q 24.03125 74.21875 39.40625 74.21875 
z
" id="DejaVuSans-4f"/>
       <path d="M 18.3125 70.21875 
L 18.3125 54.6875 
L 36.8125 54.6875 
L 36.8125 47.703125 
L 18.3125 47.703125 
L 18.3125 18.015625 
Q 18.3125 11.328125 20.140625 9.421875 
Q 21.96875 7.515625 27.59375 7.515625 
L 36.8125 7.515625 
L 36.8125 0 
L 27.59375 0 
Q 17.1875 0 13.234375 3.875 
Q 9.28125 7.765625 9.28125 18.015625 
L 9.28125 47.703125 
L 2.6875 47.703125 
L 2.6875 54.6875 
L 9.28125 54.6875 
L 9.28125 70.21875 
z
" id="DejaVuSans-74"/>
       <path d="M 54.890625 33.015625 
L 54.890625 0 
L 45.90625 0 
L 45.90625 32.71875 
Q 45.90625 40.484375 42.875 44.328125 
Q 39.84375 48.1875 33.796875 48.1875 
Q 26.515625 48.1875 22.3125 43.546875 
Q 18.109375 38.921875 18.109375 30.90625 
L 18.109375 0 
L 9.078125 0 
L 9.078125 75.984375 
L 18.109375 75.984375 
L 18.109375 46.1875 
Q 21.34375 51.125 25.703125 53.5625 
Q 30.078125 56 35.796875 56 
Q 45.21875 56 50.046875 50.171875 
Q 54.890625 44.34375 54.890625 33.015625 
z
" id="DejaVuSans-68"/>
       <path d="M 56.203125 29.59375 
L 56.203125 25.203125 
L 14.890625 25.203125 
Q 15.484375 15.921875 20.484375 11.0625 
Q 25.484375 6.203125 34.421875 6.203125 
Q 39.59375 6.203125 44.453125 7.46875 
Q 49.3125 8.734375 54.109375 11.28125 
L 54.109375 2.78125 
Q 49.265625 0.734375 44.1875 -0.34375 
Q 39.109375 -1.421875 33.890625 -1.421875 
Q 20.796875 -1.421875 13.15625 6.1875 
Q 5.515625 13.8125 5.515625 26.8125 
Q 5.515625 40.234375 12.765625 48.109375 
Q 20.015625 56 32.328125 56 
Q 43.359375 56 49.78125 48.890625 
Q 56.203125 41.796875 56.203125 29.59375 
z
M 47.21875 32.234375 
Q 47.125 39.59375 43.09375 43.984375 
Q 39.0625 48.390625 32.421875 48.390625 
Q 24.90625 48.390625 20.390625 44.140625 
Q 15.875 39.890625 15.1875 32.171875 
z
" id="DejaVuSans-65"/>
       <path d="M 41.109375 46.296875 
Q 39.59375 47.171875 37.8125 47.578125 
Q 36.03125 48 33.890625 48 
Q 26.265625 48 22.1875 43.046875 
Q 18.109375 38.09375 18.109375 28.8125 
L 18.109375 0 
L 9.078125 0 
L 9.078125 54.6875 
L 18.109375 54.6875 
L 18.109375 46.1875 
Q 20.953125 51.171875 25.484375 53.578125 
Q 30.03125 56 36.53125 56 
Q 37.453125 56 38.578125 55.875 
Q 39.703125 55.765625 41.0625 55.515625 
z
" id="DejaVuSans-72"/>
      </defs>
      <g style="fill:#262626;" transform="translate(52.94925 141.75875)scale(0.08 -0.08)">
       <use xlink:href="#DejaVuSans-4f"/>
       <use x="78.710938" xlink:href="#DejaVuSans-74"/>
       <use x="117.919922" xlink:href="#DejaVuSans-68"/>
       <use x="181.298828" xlink:href="#DejaVuSans-65"/>
       <use x="242.822266" xlink:href="#DejaVuSans-72"/>
      </g>
     </g>
    </g>
    <g id="xtick_2">
     <g id="line2d_2">
      <g>
       <use style="fill:#262626;stroke:#262626;stroke-width:0.8;" x="120.10675" xlink:href="#mc8c9047a34" y="124.08"/>
      </g>
     </g>
     <g id="text_2">
      <!-- Python -->
      <defs>
       <path d="M 19.671875 64.796875 
L 19.671875 37.40625 
L 32.078125 37.40625 
Q 38.96875 37.40625 42.71875 40.96875 
Q 46.484375 44.53125 46.484375 51.125 
Q 46.484375 57.671875 42.71875 61.234375 
Q 38.96875 64.796875 32.078125 64.796875 
z
M 9.8125 72.90625 
L 32.078125 72.90625 
Q 44.34375 72.90625 50.609375 67.359375 
Q 56.890625 61.8125 56.890625 51.125 
Q 56.890625 40.328125 50.609375 34.8125 
Q 44.34375 29.296875 32.078125 29.296875 
L 19.671875 29.296875 
L 19.671875 0 
L 9.8125 0 
z
" id="DejaVuSans-50"/>
       <path d="M 32.171875 -5.078125 
Q 28.375 -14.84375 24.75 -17.8125 
Q 21.140625 -20.796875 15.09375 -20.796875 
L 7.90625 -20.796875 
L 7.90625 -13.28125 
L 13.1875 -13.28125 
Q 16.890625 -13.28125 18.9375 -11.515625 
Q 21 -9.765625 23.484375 -3.21875 
L 25.09375 0.875 
L 2.984375 54.6875 
L 12.5 54.6875 
L 29.59375 11.921875 
L 46.6875 54.6875 
L 56.203125 54.6875 
z
" id="DejaVuSans-79"/>
       <path d="M 30.609375 48.390625 
Q 23.390625 48.390625 19.1875 42.75 
Q 14.984375 37.109375 14.984375 27.296875 
Q 14.984375 17.484375 19.15625 11.84375 
Q 23.34375 6.203125 30.609375 6.203125 
Q 37.796875 6.203125 41.984375 11.859375 
Q 46.1875 17.53125 46.1875 27.296875 
Q 46.1875 37.015625 41.984375 42.703125 
Q 37.796875 48.390625 30.609375 48.390625 
z
M 30.609375 56 
Q 42.328125 56 49.015625 48.375 
Q 55.71875 40.765625 55.71875 27.296875 
Q 55.71875 13.875 49.015625 6.21875 
Q 42.328125 -1.421875 30.609375 -1.421875 
Q 18.84375 -1.421875 12.171875 6.21875 
Q 5.515625 13.875 5.515625 27.296875 
Q 5.515625 40.765625 12.171875 48.375 
Q 18.84375 56 30.609375 56 
z
" id="DejaVuSans-6f"/>
       <path d="M 54.890625 33.015625 
L 54.890625 0 
L 45.90625 0 
L 45.90625 32.71875 
Q 45.90625 40.484375 42.875 44.328125 
Q 39.84375 48.1875 33.796875 48.1875 
Q 26.515625 48.1875 22.3125 43.546875 
Q 18.109375 38.921875 18.109375 30.90625 
L 18.109375 0 
L 9.078125 0 
L 9.078125 54.6875 
L 18.109375 54.6875 
L 18.109375 46.1875 
Q 21.34375 51.125 25.703125 53.5625 
Q 30.078125 56 35.796875 56 
Q 45.21875 56 50.046875 50.171875 
Q 54.890625 44.34375 54.890625 33.015625 
z
" id="DejaVuSans-6e"/>
      </defs>
      <g style="fill:#262626;" transform="translate(106.24175 141.75875)scale(0.08 -0.08)">
       <use xlink:href="#DejaVuSans-50"/>
       <use x="60.302734" xlink:href="#DejaVuSans-79"/>
       <use x="119.482422" xlink:href="#DejaVuSans-74"/>
       <use x="158.691406" xlink:href="#DejaVuSans-68"/>
       <use x="222.070312" xlink:href="#DejaVuSans-6f"/>
       <use x="283.251953" xlink:href="#DejaVuSans-6e"/>
      </g>
     </g>
    </g>
    <g id="xtick_3">
     <g id="line2d_3">
      <g>
       <use style="fill:#262626;stroke:#262626;stroke-width:0.8;" x="175.90675" xlink:href="#mc8c9047a34" y="124.08"/>
      </g>
     </g>
     <g id="text_3">
      <!-- Perl -->
      <defs>
       <path d="M 9.421875 75.984375 
L 18.40625 75.984375 
L 18.40625 0 
L 9.421875 0 
z
" id="DejaVuSans-6c"/>
      </defs>
      <g style="fill:#262626;" transform="translate(168.279875 141.75875)scale(0.08 -0.08)">
       <use xlink:href="#DejaVuSans-50"/>
       <use x="60.255859" xlink:href="#DejaVuSans-65"/>
       <use x="121.779297" xlink:href="#DejaVuSans-72"/>
       <use x="162.892578" xlink:href="#DejaVuSans-6c"/>
      </g>
     </g>
    </g>
    <g id="xtick_4">
     <g id="line2d_4">
      <g>
       <use style="fill:#262626;stroke:#262626;stroke-width:0.8;" x="231.70675" xlink:href="#mc8c9047a34" y="124.08"/>
      </g>
     </g>
     <g id="text_4">
      <!-- Bioconductor/R -->
      <defs>
       <path d="M 19.671875 34.8125 
L 19.671875 8.109375 
L 35.5 8.109375 
Q 43.453125 8.109375 47.28125 11.40625 
Q 51.125 14.703125 51.125 21.484375 
Q 51.125 28.328125 47.28125 31.5625 
Q 43.453125 34.8125 35.5 34.8125 
z
M 19.671875 64.796875 
L 19.671875 42.828125 
L 34.28125 42.828125 
Q 41.5 42.828125 45.03125 45.53125 
Q 48.578125 48.25 48.578125 53.8125 
Q 48.578125 59.328125 45.03125 62.0625 
Q 41.5 64.796875 34.28125 64.796875 
z
M 9.8125 72.90625 
L 35.015625 72.90625 
Q 46.296875 72.90625 52.390625 68.21875 
Q 58.5 63.53125 58.5 54.890625 
Q 58.5 48.1875 55.375 44.234375 
Q 52.25 40.28125 46.1875 39.3125 
Q 53.46875 37.75 57.5 32.78125 
Q 61.53125 27.828125 61.53125 20.40625 
Q 61.53125 10.640625 54.890625 5.3125 
Q 48.25 0 35.984375 0 
L 9.8125 0 
z
" id="DejaVuSans-42"/>
       <path d="M 9.421875 54.6875 
L 18.40625 54.6875 
L 18.40625 0 
L 9.421875 0 
z
M 9.421875 75.984375 
L 18.40625 75.984375 
L 18.40625 64.59375 
L 9.421875 64.59375 
z
" id="DejaVuSans-69"/>
       <path d="M 48.78125 52.59375 
L 48.78125 44.1875 
Q 44.96875 46.296875 41.140625 47.34375 
Q 37.3125 48.390625 33.40625 48.390625 
Q 24.65625 48.390625 19.8125 42.84375 
Q 14.984375 37.3125 14.984375 27.296875 
Q 14.984375 17.28125 19.8125 11.734375 
Q 24.65625 6.203125 33.40625 6.203125 
Q 37.3125 6.203125 41.140625 7.25 
Q 44.96875 8.296875 48.78125 10.40625 
L 48.78125 2.09375 
Q 45.015625 0.34375 40.984375 -0.53125 
Q 36.96875 -1.421875 32.421875 -1.421875 
Q 20.0625 -1.421875 12.78125 6.34375 
Q 5.515625 14.109375 5.515625 27.296875 
Q 5.515625 40.671875 12.859375 48.328125 
Q 20.21875 56 33.015625 56 
Q 37.15625 56 41.109375 55.140625 
Q 45.0625 54.296875 48.78125 52.59375 
z
" id="DejaVuSans-63"/>
       <path d="M 45.40625 46.390625 
L 45.40625 75.984375 
L 54.390625 75.984375 
L 54.390625 0 
L 45.40625 0 
L 45.40625 8.203125 
Q 42.578125 3.328125 38.25 0.953125 
Q 33.9375 -1.421875 27.875 -1.421875 
Q 17.96875 -1.421875 11.734375 6.484375 
Q 5.515625 14.40625 5.515625 27.296875 
Q 5.515625 40.1875 11.734375 48.09375 
Q 17.96875 56 27.875 56 
Q 33.9375 56 38.25 53.625 
Q 42.578125 51.265625 45.40625 46.390625 
z
M 14.796875 27.296875 
Q 14.796875 17.390625 18.875 11.75 
Q 22.953125 6.109375 30.078125 6.109375 
Q 37.203125 6.109375 41.296875 11.75 
Q 45.40625 17.390625 45.40625 27.296875 
Q 45.40625 37.203125 41.296875 42.84375 
Q 37.203125 48.484375 30.078125 48.484375 
Q 22.953125 48.484375 18.875 42.84375 
Q 14.796875 37.203125 14.796875 27.296875 
z
" id="DejaVuSans-64"/>
       <path d="M 8.5 21.578125 
L 8.5 54.6875 
L 17.484375 54.6875 
L 17.484375 21.921875 
Q 17.484375 14.15625 20.5 10.265625 
Q 23.53125 6.390625 29.59375 6.390625 
Q 36.859375 6.390625 41.078125 11.03125 
Q 45.3125 15.671875 45.3125 23.6875 
L 45.3125 54.6875 
L 54.296875 54.6875 
L 54.296875 0 
L 45.3125 0 
L 45.3125 8.40625 
Q 42.046875 3.421875 37.71875 1 
Q 33.40625 -1.421875 27.6875 -1.421875 
Q 18.265625 -1.421875 13.375 4.4375 
Q 8.5 10.296875 8.5 21.578125 
z
M 31.109375 56 
z
" id="DejaVuSans-75"/>
       <path d="M 25.390625 72.90625 
L 33.6875 72.90625 
L 8.296875 -9.28125 
L 0 -9.28125 
z
" id="DejaVuSans-2f"/>
       <path d="M 44.390625 34.1875 
Q 47.5625 33.109375 50.5625 29.59375 
Q 53.5625 26.078125 56.59375 19.921875 
L 66.609375 0 
L 56 0 
L 46.6875 18.703125 
Q 43.0625 26.03125 39.671875 28.421875 
Q 36.28125 30.8125 30.421875 30.8125 
L 19.671875 30.8125 
L 19.671875 0 
L 9.8125 0 
L 9.8125 72.90625 
L 32.078125 72.90625 
Q 44.578125 72.90625 50.734375 67.671875 
Q 56.890625 62.453125 56.890625 51.90625 
Q 56.890625 45.015625 53.6875 40.46875 
Q 50.484375 35.9375 44.390625 34.1875 
z
M 19.671875 64.796875 
L 19.671875 38.921875 
L 32.078125 38.921875 
Q 39.203125 38.921875 42.84375 42.21875 
Q 46.484375 45.515625 46.484375 51.90625 
Q 46.484375 58.296875 42.84375 61.546875 
Q 39.203125 64.796875 32.078125 64.796875 
z
" id="DejaVuSans-52"/>
      </defs>
      <g style="fill:#262626;" transform="translate(201.161125 141.75875)scale(0.08 -0.08)">
       <use xlink:href="#DejaVuSans-42"/>
       <use x="68.603516" xlink:href="#DejaVuSans-69"/>
       <use x="96.386719" xlink:href="#DejaVuSans-6f"/>
       <use x="157.568359" xlink:href="#DejaVuSans-63"/>
       <use x="212.548828" xlink:href="#DejaVuSans-6f"/>
       <use x="273.730469" xlink:href="#DejaVuSans-6e"/>
       <use x="337.109375" xlink:href="#DejaVuSans-64"/>
       <use x="400.585938" xlink:href="#DejaVuSans-75"/>
       <use x="463.964844" xlink:href="#DejaVuSans-63"/>
       <use x="518.945312" xlink:href="#DejaVuSans-74"/>
       <use x="558.154297" xlink:href="#DejaVuSans-6f"/>
       <use x="619.335938" xlink:href="#DejaVuSans-72"/>
       <use x="660.449219" xlink:href="#DejaVuSans-2f"/>
       <use x="694.140625" xlink:href="#DejaVuSans-52"/>
      </g>
     </g>
    </g>
    <g id="text_5">
     <!-- ecosystem -->
     <defs>
      <path d="M 44.28125 53.078125 
L 44.28125 44.578125 
Q 40.484375 46.53125 36.375 47.5 
Q 32.28125 48.484375 27.875 48.484375 
Q 21.1875 48.484375 17.84375 46.4375 
Q 14.5 44.390625 14.5 40.28125 
Q 14.5 37.15625 16.890625 35.375 
Q 19.28125 33.59375 26.515625 31.984375 
L 29.59375 31.296875 
Q 39.15625 29.25 43.1875 25.515625 
Q 47.21875 21.78125 47.21875 15.09375 
Q 47.21875 7.46875 41.1875 3.015625 
Q 35.15625 -1.421875 24.609375 -1.421875 
Q 20.21875 -1.421875 15.453125 -0.5625 
Q 10.6875 0.296875 5.421875 2 
L 5.421875 11.28125 
Q 10.40625 8.6875 15.234375 7.390625 
Q 20.0625 6.109375 24.8125 6.109375 
Q 31.15625 6.109375 34.5625 8.28125 
Q 37.984375 10.453125 37.984375 14.40625 
Q 37.984375 18.0625 35.515625 20.015625 
Q 33.0625 21.96875 24.703125 23.78125 
L 21.578125 24.515625 
Q 13.234375 26.265625 9.515625 29.90625 
Q 5.8125 33.546875 5.8125 39.890625 
Q 5.8125 47.609375 11.28125 51.796875 
Q 16.75 56 26.8125 56 
Q 31.78125 56 36.171875 55.265625 
Q 40.578125 54.546875 44.28125 53.078125 
z
" id="DejaVuSans-73"/>
      <path d="M 52 44.1875 
Q 55.375 50.25 60.0625 53.125 
Q 64.75 56 71.09375 56 
Q 79.640625 56 84.28125 50.015625 
Q 88.921875 44.046875 88.921875 33.015625 
L 88.921875 0 
L 79.890625 0 
L 79.890625 32.71875 
Q 79.890625 40.578125 77.09375 44.375 
Q 74.3125 48.1875 68.609375 48.1875 
Q 61.625 48.1875 57.5625 43.546875 
Q 53.515625 38.921875 53.515625 30.90625 
L 53.515625 0 
L 44.484375 0 
L 44.484375 32.71875 
Q 44.484375 40.625 41.703125 44.40625 
Q 38.921875 48.1875 33.109375 48.1875 
Q 26.21875 48.1875 22.15625 43.53125 
Q 18.109375 38.875 18.109375 30.90625 
L 18.109375 0 
L 9.078125 0 
L 9.078125 54.6875 
L 18.109375 54.6875 
L 18.109375 46.1875 
Q 21.1875 51.21875 25.484375 53.609375 
Q 29.78125 56 35.6875 56 
Q 41.65625 56 45.828125 52.96875 
Q 50 49.953125 52 44.1875 
z
" id="DejaVuSans-6d"/>
     </defs>
     <g style="fill:#262626;" transform="translate(124.281125 154.109125)scale(0.088 -0.088)">
      <use xlink:href="#DejaVuSans-65"/>
      <use x="61.523438" xlink:href="#DejaVuSans-63"/>
      <use x="116.503906" xlink:href="#DejaVuSans-6f"/>
      <use x="177.685547" xlink:href="#DejaVuSans-73"/>
      <use x="229.785156" xlink:href="#DejaVuSans-79"/>
      <use x="288.964844" xlink:href="#DejaVuSans-73"/>
      <use x="341.064453" xlink:href="#DejaVuSans-74"/>
      <use x="380.273438" xlink:href="#DejaVuSans-65"/>
      <use x="441.796875" xlink:href="#DejaVuSans-6d"/>
     </g>
    </g>
   </g>
   <g id="matplotlib.axis_2">
    <g id="ytick_1">
     <g id="line2d_5">
      <defs>
       <path d="M 0 0 
L -6 0 
" id="m79da40aa7c" style="stroke:#262626;stroke-width:0.8;"/>
      </defs>
      <g>
       <use style="fill:#262626;stroke:#262626;stroke-width:0.8;" x="36.40675" xlink:href="#m79da40aa7c" y="119.04"/>
      </g>
     </g>
     <g id="text_6">
      <!-- 0 -->
      <defs>
       <path d="M 31.78125 66.40625 
Q 24.171875 66.40625 20.328125 58.90625 
Q 16.5 51.421875 16.5 36.375 
Q 16.5 21.390625 20.328125 13.890625 
Q 24.171875 6.390625 31.78125 6.390625 
Q 39.453125 6.390625 43.28125 13.890625 
Q 47.125 21.390625 47.125 36.375 
Q 47.125 51.421875 43.28125 58.90625 
Q 39.453125 66.40625 31.78125 66.40625 
z
M 31.78125 74.21875 
Q 44.046875 74.21875 50.515625 64.515625 
Q 56.984375 54.828125 56.984375 36.375 
Q 56.984375 17.96875 50.515625 8.265625 
Q 44.046875 -1.421875 31.78125 -1.421875 
Q 19.53125 -1.421875 13.0625 8.265625 
Q 6.59375 17.96875 6.59375 36.375 
Q 6.59375 54.828125 13.0625 64.515625 
Q 19.53125 74.21875 31.78125 74.21875 
z
" id="DejaVuSans-30"/>
      </defs>
      <g style="fill:#262626;" transform="translate(19.71675 122.079375)scale(0.08 -0.08)">
       <use xlink:href="#DejaVuSans-30"/>
      </g>
     </g>
    </g>
    <g id="ytick_2">
     <g id="line2d_6">
      <g>
       <use style="fill:#262626;stroke:#262626;stroke-width:0.8;" x="36.40675" xlink:href="#m79da40aa7c" y="99.844735"/>
      </g>
     </g>
     <g id="text_7">
      <!-- 1 -->
      <defs>
       <path d="M 12.40625 8.296875 
L 28.515625 8.296875 
L 28.515625 63.921875 
L 10.984375 60.40625 
L 10.984375 69.390625 
L 28.421875 72.90625 
L 38.28125 72.90625 
L 38.28125 8.296875 
L 54.390625 8.296875 
L 54.390625 0 
L 12.40625 0 
z
" id="DejaVuSans-31"/>
      </defs>
      <g style="fill:#262626;" transform="translate(19.71675 102.88411)scale(0.08 -0.08)">
       <use xlink:href="#DejaVuSans-31"/>
      </g>
     </g>
    </g>
    <g id="ytick_3">
     <g id="line2d_7">
      <g>
       <use style="fill:#262626;stroke:#262626;stroke-width:0.8;" x="36.40675" xlink:href="#m79da40aa7c" y="80.64947"/>
      </g>
     </g>
     <g id="text_8">
      <!-- 2 -->
      <defs>
       <path d="M 19.1875 8.296875 
L 53.609375 8.296875 
L 53.609375 0 
L 7.328125 0 
L 7.328125 8.296875 
Q 12.9375 14.109375 22.625 23.890625 
Q 32.328125 33.6875 34.8125 36.53125 
Q 39.546875 41.84375 41.421875 45.53125 
Q 43.3125 49.21875 43.3125 52.78125 
Q 43.3125 58.59375 39.234375 62.25 
Q 35.15625 65.921875 28.609375 65.921875 
Q 23.96875 65.921875 18.8125 64.3125 
Q 13.671875 62.703125 7.8125 59.421875 
L 7.8125 69.390625 
Q 13.765625 71.78125 18.9375 73 
Q 24.125 74.21875 28.421875 74.21875 
Q 39.75 74.21875 46.484375 68.546875 
Q 53.21875 62.890625 53.21875 53.421875 
Q 53.21875 48.921875 51.53125 44.890625 
Q 49.859375 40.875 45.40625 35.40625 
Q 44.1875 33.984375 37.640625 27.21875 
Q 31.109375 20.453125 19.1875 8.296875 
z
" id="DejaVuSans-32"/>
      </defs>
      <g style="fill:#262626;" transform="translate(19.71675 83.688845)scale(0.08 -0.08)">
       <use xlink:href="#DejaVuSans-32"/>
      </g>
     </g>
    </g>
    <g id="ytick_4">
     <g id="line2d_8">
      <g>
       <use style="fill:#262626;stroke:#262626;stroke-width:0.8;" x="36.40675" xlink:href="#m79da40aa7c" y="61.454205"/>
      </g>
     </g>
     <g id="text_9">
      <!-- 3 -->
      <defs>
       <path d="M 40.578125 39.3125 
Q 47.65625 37.796875 51.625 33 
Q 55.609375 28.21875 55.609375 21.1875 
Q 55.609375 10.40625 48.1875 4.484375 
Q 40.765625 -1.421875 27.09375 -1.421875 
Q 22.515625 -1.421875 17.65625 -0.515625 
Q 12.796875 0.390625 7.625 2.203125 
L 7.625 11.71875 
Q 11.71875 9.328125 16.59375 8.109375 
Q 21.484375 6.890625 26.8125 6.890625 
Q 36.078125 6.890625 40.9375 10.546875 
Q 45.796875 14.203125 45.796875 21.1875 
Q 45.796875 27.640625 41.28125 31.265625 
Q 36.765625 34.90625 28.71875 34.90625 
L 20.21875 34.90625 
L 20.21875 43.015625 
L 29.109375 43.015625 
Q 36.375 43.015625 40.234375 45.921875 
Q 44.09375 48.828125 44.09375 54.296875 
Q 44.09375 59.90625 40.109375 62.90625 
Q 36.140625 65.921875 28.71875 65.921875 
Q 24.65625 65.921875 20.015625 65.03125 
Q 15.375 64.15625 9.8125 62.3125 
L 9.8125 71.09375 
Q 15.4375 72.65625 20.34375 73.4375 
Q 25.25 74.21875 29.59375 74.21875 
Q 40.828125 74.21875 47.359375 69.109375 
Q 53.90625 64.015625 53.90625 55.328125 
Q 53.90625 49.265625 50.4375 45.09375 
Q 46.96875 40.921875 40.578125 39.3125 
z
" id="DejaVuSans-33"/>
      </defs>
      <g style="fill:#262626;" transform="translate(19.71675 64.49358)scale(0.08 -0.08)">
       <use xlink:href="#DejaVuSans-33"/>
      </g>
     </g>
    </g>
    <g id="ytick_5">
     <g id="line2d_9">
      <g>
       <use style="fill:#262626;stroke:#262626;stroke-width:0.8;" x="36.40675" xlink:href="#m79da40aa7c" y="42.25894"/>
      </g>
     </g>
     <g id="text_10">
      <!-- 4 -->
      <defs>
       <path d="M 37.796875 64.3125 
L 12.890625 25.390625 
L 37.796875 25.390625 
z
M 35.203125 72.90625 
L 47.609375 72.90625 
L 47.609375 25.390625 
L 58.015625 25.390625 
L 58.015625 17.1875 
L 47.609375 17.1875 
L 47.609375 0 
L 37.796875 0 
L 37.796875 17.1875 
L 4.890625 17.1875 
L 4.890625 26.703125 
z
" id="DejaVuSans-34"/>
      </defs>
      <g style="fill:#262626;" transform="translate(19.71675 45.298315)scale(0.08 -0.08)">
       <use xlink:href="#DejaVuSans-34"/>
      </g>
     </g>
    </g>
    <g id="ytick_6">
     <g id="line2d_10">
      <g>
       <use style="fill:#262626;stroke:#262626;stroke-width:0.8;" x="36.40675" xlink:href="#m79da40aa7c" y="23.063675"/>
      </g>
     </g>
     <g id="text_11">
      <!-- 5 -->
      <defs>
       <path d="M 10.796875 72.90625 
L 49.515625 72.90625 
L 49.515625 64.59375 
L 19.828125 64.59375 
L 19.828125 46.734375 
Q 21.96875 47.46875 24.109375 47.828125 
Q 26.265625 48.1875 28.421875 48.1875 
Q 40.625 48.1875 47.75 41.5 
Q 54.890625 34.8125 54.890625 23.390625 
Q 54.890625 11.625 47.5625 5.09375 
Q 40.234375 -1.421875 26.90625 -1.421875 
Q 22.3125 -1.421875 17.546875 -0.640625 
Q 12.796875 0.140625 7.71875 1.703125 
L 7.71875 11.625 
Q 12.109375 9.234375 16.796875 8.0625 
Q 21.484375 6.890625 26.703125 6.890625 
Q 35.15625 6.890625 40.078125 11.328125 
Q 45.015625 15.765625 45.015625 23.390625 
Q 45.015625 31 40.078125 35.4375 
Q 35.15625 39.890625 26.703125 39.890625 
Q 22.75 39.890625 18.8125 39.015625 
Q 14.890625 38.140625 10.796875 36.28125 
z
" id="DejaVuSans-35"/>
      </defs>
      <g style="fill:#262626;" transform="translate(19.71675 26.10305)scale(0.08 -0.08)">
       <use xlink:href="#DejaVuSans-35"/>
      </g>
     </g>
    </g>
    <g id="text_12">
     <!-- log10 downloads -->
     <defs>
      <path d="M 45.40625 27.984375 
Q 45.40625 37.75 41.375 43.109375 
Q 37.359375 48.484375 30.078125 48.484375 
Q 22.859375 48.484375 18.828125 43.109375 
Q 14.796875 37.75 14.796875 27.984375 
Q 14.796875 18.265625 18.828125 12.890625 
Q 22.859375 7.515625 30.078125 7.515625 
Q 37.359375 7.515625 41.375 12.890625 
Q 45.40625 18.265625 45.40625 27.984375 
z
M 54.390625 6.78125 
Q 54.390625 -7.171875 48.1875 -13.984375 
Q 42 -20.796875 29.203125 -20.796875 
Q 24.46875 -20.796875 20.265625 -20.09375 
Q 16.0625 -19.390625 12.109375 -17.921875 
L 12.109375 -9.1875 
Q 16.0625 -11.328125 19.921875 -12.34375 
Q 23.78125 -13.375 27.78125 -13.375 
Q 36.625 -13.375 41.015625 -8.765625 
Q 45.40625 -4.15625 45.40625 5.171875 
L 45.40625 9.625 
Q 42.625 4.78125 38.28125 2.390625 
Q 33.9375 0 27.875 0 
Q 17.828125 0 11.671875 7.65625 
Q 5.515625 15.328125 5.515625 27.984375 
Q 5.515625 40.671875 11.671875 48.328125 
Q 17.828125 56 27.875 56 
Q 33.9375 56 38.28125 53.609375 
Q 42.625 51.21875 45.40625 46.390625 
L 45.40625 54.6875 
L 54.390625 54.6875 
z
" id="DejaVuSans-67"/>
      <path id="DejaVuSans-20"/>
      <path d="M 4.203125 54.6875 
L 13.1875 54.6875 
L 24.421875 12.015625 
L 35.59375 54.6875 
L 46.1875 54.6875 
L 57.421875 12.015625 
L 68.609375 54.6875 
L 77.59375 54.6875 
L 63.28125 0 
L 52.6875 0 
L 40.921875 44.828125 
L 29.109375 0 
L 18.5 0 
z
" id="DejaVuSans-77"/>
      <path d="M 34.28125 27.484375 
Q 23.390625 27.484375 19.1875 25 
Q 14.984375 22.515625 14.984375 16.5 
Q 14.984375 11.71875 18.140625 8.90625 
Q 21.296875 6.109375 26.703125 6.109375 
Q 34.1875 6.109375 38.703125 11.40625 
Q 43.21875 16.703125 43.21875 25.484375 
L 43.21875 27.484375 
z
M 52.203125 31.203125 
L 52.203125 0 
L 43.21875 0 
L 43.21875 8.296875 
Q 40.140625 3.328125 35.546875 0.953125 
Q 30.953125 -1.421875 24.3125 -1.421875 
Q 15.921875 -1.421875 10.953125 3.296875 
Q 6 8.015625 6 15.921875 
Q 6 25.140625 12.171875 29.828125 
Q 18.359375 34.515625 30.609375 34.515625 
L 43.21875 34.515625 
L 43.21875 35.40625 
Q 43.21875 41.609375 39.140625 45 
Q 35.0625 48.390625 27.6875 48.390625 
Q 23 48.390625 18.546875 47.265625 
Q 14.109375 46.140625 10.015625 43.890625 
L 10.015625 52.203125 
Q 14.9375 54.109375 19.578125 55.046875 
Q 24.21875 56 28.609375 56 
Q 40.484375 56 46.34375 49.84375 
Q 52.203125 43.703125 52.203125 31.203125 
z
" id="DejaVuSans-61"/>
     </defs>
     <g style="fill:#262626;" transform="translate(13.886625 105.914188)rotate(-90)scale(0.088 -0.088)">
      <use xlink:href="#DejaVuSans-6c"/>
      <use x="27.783203" xlink:href="#DejaVuSans-6f"/>
      <use x="88.964844" xlink:href="#DejaVuSans-67"/>
      <use x="152.441406" xlink:href="#DejaVuSans-31"/>
      <use x="216.064453" xlink:href="#DejaVuSans-30"/>
      <use x="279.6875" xlink:href="#DejaVuSans-20"/>
      <use x="311.474609" xlink:href="#DejaVuSans-64"/>
      <use x="374.951172" xlink:href="#DejaVuSans-6f"/>
      <use x="436.132812" xlink:href="#DejaVuSans-77"/>
      <use x="517.919922" xlink:href="#DejaVuSans-6e"/>
      <use x="581.298828" xlink:href="#DejaVuSans-6c"/>
      <use x="609.082031" xlink:href="#DejaVuSans-6f"/>
      <use x="670.263672" xlink:href="#DejaVuSans-61"/>
      <use x="731.542969" xlink:href="#DejaVuSans-64"/>
      <use x="795.019531" xlink:href="#DejaVuSans-73"/>
     </g>
    </g>
   </g>
   <g id="PolyCollection_1">
    <defs>
     <path d="M 64.419843 -49.877601 
L 64.193657 -49.877601 
L 64.171151 -50.837415 
L 64.136581 -51.79723 
L 64.081418 -52.757044 
L 63.995062 -53.716859 
L 63.865638 -54.676674 
L 63.681164 -55.636488 
L 63.430994 -56.596303 
L 63.107417 -57.556118 
L 62.70726 -58.515932 
L 62.233262 -59.475747 
L 61.694927 -60.435562 
L 61.10852 -61.395376 
L 60.495893 -62.355191 
L 59.882044 -63.315006 
L 59.291635 -64.27482 
L 58.745003 -65.234635 
L 58.254515 -66.194449 
L 57.822137 -67.154264 
L 57.438913 -68.114079 
L 57.086705 -69.073893 
L 56.742047 -70.033708 
L 56.381531 -70.993523 
L 55.987725 -71.953337 
L 55.554332 -72.913152 
L 55.089239 -73.872967 
L 54.614269 -74.832781 
L 54.161019 -75.792596 
L 53.763045 -76.752411 
L 53.445718 -77.712225 
L 53.215931 -78.67204 
L 53.054267 -79.631854 
L 52.911992 -80.591669 
L 52.714516 -81.551484 
L 52.371845 -82.511298 
L 51.795388 -83.471113 
L 50.919054 -84.430928 
L 49.721046 -85.390742 
L 48.241279 -86.350557 
L 46.588658 -87.310372 
L 44.933465 -88.270186 
L 43.483283 -89.230001 
L 42.445798 -90.189815 
L 41.98675 -91.14963 
L 42.194211 -92.109445 
L 43.059473 -93.069259 
L 44.480241 -94.029074 
L 46.284956 -94.988889 
L 48.270713 -95.948703 
L 50.243744 -96.908518 
L 52.051841 -97.868333 
L 53.601898 -98.828147 
L 54.860967 -99.787962 
L 55.843984 -100.747777 
L 56.594097 -101.707591 
L 57.16211 -102.667406 
L 57.590357 -103.62722 
L 57.904145 -104.587035 
L 58.111552 -105.54685 
L 58.210164 -106.506664 
L 58.197715 -107.466479 
L 58.082713 -108.426294 
L 57.891279 -109.386108 
L 57.667635 -110.345923 
L 57.467813 -111.305738 
L 57.34846 -112.265552 
L 57.354389 -113.225367 
L 57.50894 -114.185181 
L 57.810141 -115.144996 
L 58.23352 -116.104811 
L 58.740088 -117.064625 
L 59.286528 -118.02444 
L 59.834373 -118.984255 
L 60.355896 -119.944069 
L 60.835956 -120.903884 
L 61.270401 -121.863699 
L 61.662422 -122.823513 
L 62.018382 -123.783328 
L 62.344292 -124.743143 
L 62.643594 -125.702957 
L 62.916428 -126.662772 
L 63.160195 -127.622586 
L 63.371004 -128.582401 
L 63.545438 -129.542216 
L 63.682098 -130.50203 
L 63.782494 -131.461845 
L 63.851063 -132.42166 
L 63.894398 -133.381474 
L 63.91997 -134.341289 
L 63.934815 -135.301104 
L 63.944556 -136.260918 
L 63.953012 -137.220733 
L 63.962367 -138.180548 
L 63.973694 -139.140362 
L 63.987535 -140.100177 
L 64.004294 -141.059991 
L 64.024349 -142.019806 
L 64.047927 -142.979621 
L 64.074892 -143.939435 
L 64.104592 -144.89925 
L 64.508908 -144.89925 
L 64.508908 -144.89925 
L 64.538608 -143.939435 
L 64.565573 -142.979621 
L 64.589151 -142.019806 
L 64.609206 -141.059991 
L 64.625965 -140.100177 
L 64.639806 -139.140362 
L 64.651133 -138.180548 
L 64.660488 -137.220733 
L 64.668944 -136.260918 
L 64.678685 -135.301104 
L 64.69353 -134.341289 
L 64.719102 -133.381474 
L 64.762437 -132.42166 
L 64.831006 -131.461845 
L 64.931402 -130.50203 
L 65.068062 -129.542216 
L 65.242496 -128.582401 
L 65.453305 -127.622586 
L 65.697072 -126.662772 
L 65.969906 -125.702957 
L 66.269208 -124.743143 
L 66.595118 -123.783328 
L 66.951078 -122.823513 
L 67.343099 -121.863699 
L 67.777544 -120.903884 
L 68.257604 -119.944069 
L 68.779127 -118.984255 
L 69.326972 -118.02444 
L 69.873412 -117.064625 
L 70.37998 -116.104811 
L 70.803359 -115.144996 
L 71.10456 -114.185181 
L 71.259111 -113.225367 
L 71.26504 -112.265552 
L 71.145687 -111.305738 
L 70.945865 -110.345923 
L 70.722221 -109.386108 
L 70.530787 -108.426294 
L 70.415785 -107.466479 
L 70.403336 -106.506664 
L 70.501948 -105.54685 
L 70.709355 -104.587035 
L 71.023143 -103.62722 
L 71.45139 -102.667406 
L 72.019403 -101.707591 
L 72.769516 -100.747777 
L 73.752533 -99.787962 
L 75.011602 -98.828147 
L 76.561659 -97.868333 
L 78.369756 -96.908518 
L 80.342787 -95.948703 
L 82.328544 -94.988889 
L 84.133259 -94.029074 
L 85.554027 -93.069259 
L 86.419289 -92.109445 
L 86.62675 -91.14963 
L 86.167702 -90.189815 
L 85.130217 -89.230001 
L 83.680035 -88.270186 
L 82.024842 -87.310372 
L 80.372221 -86.350557 
L 78.892454 -85.390742 
L 77.694446 -84.430928 
L 76.818112 -83.471113 
L 76.241655 -82.511298 
L 75.898984 -81.551484 
L 75.701508 -80.591669 
L 75.559233 -79.631854 
L 75.397569 -78.67204 
L 75.167782 -77.712225 
L 74.850455 -76.752411 
L 74.452481 -75.792596 
L 73.999231 -74.832781 
L 73.524261 -73.872967 
L 73.059168 -72.913152 
L 72.625775 -71.953337 
L 72.231969 -70.993523 
L 71.871453 -70.033708 
L 71.526795 -69.073893 
L 71.174587 -68.114079 
L 70.791363 -67.154264 
L 70.358985 -66.194449 
L 69.868497 -65.234635 
L 69.321865 -64.27482 
L 68.731456 -63.315006 
L 68.117607 -62.355191 
L 67.50498 -61.395376 
L 66.918573 -60.435562 
L 66.380238 -59.475747 
L 65.90624 -58.515932 
L 65.506083 -57.556118 
L 65.182506 -56.596303 
L 64.932336 -55.636488 
L 64.747862 -54.676674 
L 64.618438 -53.716859 
L 64.532082 -52.757044 
L 64.476919 -51.79723 
L 64.442349 -50.837415 
L 64.419843 -49.877601 
z
" id="m82e1e53bc7" style="stroke:#3d3d3d;stroke-width:1.4;"/>
    </defs>
    <g clip-path="url(#p566e8768b5)">
     <use style="fill:#3274a1;stroke:#3d3d3d;stroke-width:1.4;" x="0" xlink:href="#m82e1e53bc7" y="163.13925"/>
    </g>
   </g>
   <g id="PolyCollection_2">
    <defs>
     <path d="M 120.186318 -44.09925 
L 120.027182 -44.09925 
L 120.026931 -45.067827 
L 120.028321 -46.036403 
L 120.029675 -47.00498 
L 120.028527 -47.973557 
L 120.021643 -48.942133 
L 120.005033 -49.91071 
L 119.973925 -50.879287 
L 119.92274 -51.847863 
L 119.845087 -52.81644 
L 119.733884 -53.785017 
L 119.581696 -54.753593 
L 119.381357 -55.72217 
L 119.126883 -56.690746 
L 118.814547 -57.659323 
L 118.443872 -58.6279 
L 118.018199 -59.596476 
L 117.544502 -60.565053 
L 117.03228 -61.53363 
L 116.491661 -62.502206 
L 115.931184 -63.470783 
L 115.355939 -64.43936 
L 114.76678 -65.407936 
L 114.160979 -66.376513 
L 113.53426 -67.34509 
L 112.883589 -68.313666 
L 112.209797 -69.282243 
L 111.519137 -70.25082 
L 110.823211 -71.219396 
L 110.137289 -72.187973 
L 109.477578 -73.15655 
L 108.858332 -74.125126 
L 108.289666 -75.093703 
L 107.776679 -76.06228 
L 107.319941 -77.030856 
L 106.917028 -77.999433 
L 106.564426 -78.968009 
L 106.259184 -79.936586 
L 105.999851 -80.905163 
L 105.786599 -81.873739 
L 105.620723 -82.842316 
L 105.503909 -83.810893 
L 105.437634 -84.779469 
L 105.42295 -85.748046 
L 105.460691 -86.716623 
L 105.551941 -87.685199 
L 105.698501 -88.653776 
L 105.903081 -89.622353 
L 106.168998 -90.590929 
L 106.499291 -91.559506 
L 106.895349 -92.528083 
L 107.355279 -93.496659 
L 107.872391 -94.465236 
L 108.434219 -95.433813 
L 109.022453 -96.402389 
L 109.614 -97.370966 
L 110.183152 -98.339543 
L 110.70454 -99.308119 
L 111.156357 -100.276696 
L 111.523206 -101.245272 
L 111.798044 -102.213849 
L 111.982907 -103.182426 
L 112.088408 -104.151002 
L 112.132242 -105.119579 
L 112.137042 -106.088156 
L 112.127852 -107.056732 
L 112.129401 -108.025309 
L 112.163262 -108.993886 
L 112.245113 -109.962462 
L 112.382466 -110.931039 
L 112.573493 -111.899616 
L 112.807518 -112.868192 
L 113.067471 -113.836769 
L 113.334 -114.805346 
L 113.590324 -115.773922 
L 113.826509 -116.742499 
L 114.041885 -117.711076 
L 114.244903 -118.679652 
L 114.450487 -119.648229 
L 114.675795 -120.616806 
L 114.935682 -121.585382 
L 115.239168 -122.553959 
L 115.587722 -123.522535 
L 115.975499 -124.491112 
L 116.391087 -125.459689 
L 116.819984 -126.428265 
L 117.247036 -127.396842 
L 117.658322 -128.365419 
L 118.042295 -129.333995 
L 118.39029 -130.302572 
L 118.696622 -131.271149 
L 118.958487 -132.239725 
L 119.175783 -133.208302 
L 119.350862 -134.176879 
L 119.488166 -135.145455 
L 119.593676 -136.114032 
L 119.674211 -137.082609 
L 119.736631 -138.051185 
L 119.787078 -139.019762 
L 119.830402 -139.988339 
L 120.383098 -139.988339 
L 120.383098 -139.988339 
L 120.426422 -139.019762 
L 120.476869 -138.051185 
L 120.539289 -137.082609 
L 120.619824 -136.114032 
L 120.725334 -135.145455 
L 120.862638 -134.176879 
L 121.037717 -133.208302 
L 121.255013 -132.239725 
L 121.516878 -131.271149 
L 121.82321 -130.302572 
L 122.171205 -129.333995 
L 122.555178 -128.365419 
L 122.966464 -127.396842 
L 123.393516 -126.428265 
L 123.822413 -125.459689 
L 124.238001 -124.491112 
L 124.625778 -123.522535 
L 124.974332 -122.553959 
L 125.277818 -121.585382 
L 125.537705 -120.616806 
L 125.763013 -119.648229 
L 125.968597 -118.679652 
L 126.171615 -117.711076 
L 126.386991 -116.742499 
L 126.623176 -115.773922 
L 126.8795 -114.805346 
L 127.146029 -113.836769 
L 127.405982 -112.868192 
L 127.640007 -111.899616 
L 127.831034 -110.931039 
L 127.968387 -109.962462 
L 128.050238 -108.993886 
L 128.084099 -108.025309 
L 128.085648 -107.056732 
L 128.076458 -106.088156 
L 128.081258 -105.119579 
L 128.125092 -104.151002 
L 128.230593 -103.182426 
L 128.415456 -102.213849 
L 128.690294 -101.245272 
L 129.057143 -100.276696 
L 129.50896 -99.308119 
L 130.030348 -98.339543 
L 130.5995 -97.370966 
L 131.191047 -96.402389 
L 131.779281 -95.433813 
L 132.341109 -94.465236 
L 132.858221 -93.496659 
L 133.318151 -92.528083 
L 133.714209 -91.559506 
L 134.044502 -90.590929 
L 134.310419 -89.622353 
L 134.514999 -88.653776 
L 134.661559 -87.685199 
L 134.752809 -86.716623 
L 134.79055 -85.748046 
L 134.775866 -84.779469 
L 134.709591 -83.810893 
L 134.592777 -82.842316 
L 134.426901 -81.873739 
L 134.213649 -80.905163 
L 133.954316 -79.936586 
L 133.649074 -78.968009 
L 133.296472 -77.999433 
L 132.893559 -77.030856 
L 132.436821 -76.06228 
L 131.923834 -75.093703 
L 131.355168 -74.125126 
L 130.735922 -73.15655 
L 130.076211 -72.187973 
L 129.390289 -71.219396 
L 128.694363 -70.25082 
L 128.003703 -69.282243 
L 127.329911 -68.313666 
L 126.67924 -67.34509 
L 126.052521 -66.376513 
L 125.44672 -65.407936 
L 124.857561 -64.43936 
L 124.282316 -63.470783 
L 123.721839 -62.502206 
L 123.18122 -61.53363 
L 122.668998 -60.565053 
L 122.195301 -59.596476 
L 121.769628 -58.6279 
L 121.398953 -57.659323 
L 121.086617 -56.690746 
L 120.832143 -55.72217 
L 120.631804 -54.753593 
L 120.479616 -53.785017 
L 120.368413 -52.81644 
L 120.29076 -51.847863 
L 120.239575 -50.879287 
L 120.208467 -49.91071 
L 120.191857 -48.942133 
L 120.184973 -47.973557 
L 120.183825 -47.00498 
L 120.185179 -46.036403 
L 120.186569 -45.067827 
L 120.186318 -44.09925 
z
" id="mb6e7f66006" style="stroke:#3d3d3d;stroke-width:1.4;"/>
    </defs>
    <g clip-path="url(#p566e8768b5)">
     <use style="fill:#e1812c;stroke:#3d3d3d;stroke-width:1.4;" x="0" xlink:href="#mb6e7f66006" y="163.13925"/>
    </g>
   </g>
   <g id="PolyCollection_3">
    <defs>
     <path d="M 179.47013 -59.03607 
L 172.34337 -59.03607 
L 171.709936 -59.815812 
L 171.056775 -60.595555 
L 170.40506 -61.375298 
L 169.777508 -62.155041 
L 169.196538 -62.934784 
L 168.682333 -63.714526 
L 168.251072 -64.494269 
L 167.913565 -65.274012 
L 167.674474 -66.053755 
L 167.532209 -66.833498 
L 167.479496 -67.613241 
L 167.504496 -68.392983 
L 167.592288 -69.172726 
L 167.726491 -69.952469 
L 167.890792 -70.732212 
L 168.0702 -71.511955 
L 168.251881 -72.291698 
L 168.425541 -73.07144 
L 168.583351 -73.851183 
L 168.719522 -74.630926 
L 168.829625 -75.410669 
L 168.909829 -76.190412 
L 168.956189 -76.970155 
L 168.964128 -77.749897 
L 168.928222 -78.52964 
L 168.842336 -79.309383 
L 168.700142 -80.089126 
L 168.495947 -80.868869 
L 168.225749 -81.648612 
L 167.888363 -82.428354 
L 167.486438 -83.208097 
L 167.027204 -83.98784 
L 166.522763 -84.767583 
L 165.989852 -85.547326 
L 165.449008 -86.327069 
L 164.923216 -87.106811 
L 164.436157 -87.886554 
L 164.010254 -88.666297 
L 163.664772 -89.44604 
L 163.4142 -90.225783 
L 163.267123 -91.005526 
L 163.225731 -91.785268 
L 163.285977 -92.565011 
L 163.438362 -93.344754 
L 163.669169 -94.124497 
L 163.961969 -94.90424 
L 164.299155 -95.683983 
L 164.663312 -96.463725 
L 165.038257 -97.243468 
L 165.409666 -98.023211 
L 165.76526 -98.802954 
L 166.094639 -99.582697 
L 166.388839 -100.36244 
L 166.639783 -101.142182 
L 166.839774 -101.921925 
L 166.981151 -102.701668 
L 167.056259 -103.481411 
L 167.057765 -104.261154 
L 166.979364 -105.040897 
L 166.816806 -105.820639 
L 166.569153 -106.600382 
L 166.240064 -107.380125 
L 165.838899 -108.159868 
L 165.381407 -108.939611 
L 164.889757 -109.719354 
L 164.391798 -110.499096 
L 163.919492 -111.278839 
L 163.506636 -112.058582 
L 163.186104 -112.838325 
L 162.98697 -113.618068 
L 162.931879 -114.39781 
L 163.035049 -115.177553 
L 163.30116 -115.957296 
L 163.725252 -116.737039 
L 164.293592 -117.516782 
L 164.985313 -118.296525 
L 165.774537 -119.076267 
L 166.632681 -119.85601 
L 167.530627 -120.635753 
L 168.440569 -121.415496 
L 169.337409 -122.195239 
L 170.199687 -122.974982 
L 171.010092 -123.754724 
L 171.755633 -124.534467 
L 172.427571 -125.31421 
L 173.021164 -126.093953 
L 173.535294 -126.873696 
L 173.971993 -127.653439 
L 174.335883 -128.433181 
L 174.633563 -129.212924 
L 174.872958 -129.992667 
L 175.062675 -130.77241 
L 175.211402 -131.552153 
L 175.327398 -132.331896 
L 175.418106 -133.111638 
L 175.489893 -133.891381 
L 175.547933 -134.671124 
L 175.596209 -135.450867 
L 175.637609 -136.23061 
L 176.175891 -136.23061 
L 176.175891 -136.23061 
L 176.217291 -135.450867 
L 176.265567 -134.671124 
L 176.323607 -133.891381 
L 176.395394 -133.111638 
L 176.486102 -132.331896 
L 176.602098 -131.552153 
L 176.750825 -130.77241 
L 176.940542 -129.992667 
L 177.179937 -129.212924 
L 177.477617 -128.433181 
L 177.841507 -127.653439 
L 178.278206 -126.873696 
L 178.792336 -126.093953 
L 179.385929 -125.31421 
L 180.057867 -124.534467 
L 180.803408 -123.754724 
L 181.613813 -122.974982 
L 182.476091 -122.195239 
L 183.372931 -121.415496 
L 184.282873 -120.635753 
L 185.180819 -119.85601 
L 186.038963 -119.076267 
L 186.828187 -118.296525 
L 187.519908 -117.516782 
L 188.088248 -116.737039 
L 188.51234 -115.957296 
L 188.778451 -115.177553 
L 188.881621 -114.39781 
L 188.82653 -113.618068 
L 188.627396 -112.838325 
L 188.306864 -112.058582 
L 187.894008 -111.278839 
L 187.421702 -110.499096 
L 186.923743 -109.719354 
L 186.432093 -108.939611 
L 185.974601 -108.159868 
L 185.573436 -107.380125 
L 185.244347 -106.600382 
L 184.996694 -105.820639 
L 184.834136 -105.040897 
L 184.755735 -104.261154 
L 184.757241 -103.481411 
L 184.832349 -102.701668 
L 184.973726 -101.921925 
L 185.173717 -101.142182 
L 185.424661 -100.36244 
L 185.718861 -99.582697 
L 186.04824 -98.802954 
L 186.403834 -98.023211 
L 186.775243 -97.243468 
L 187.150188 -96.463725 
L 187.514345 -95.683983 
L 187.851531 -94.90424 
L 188.144331 -94.124497 
L 188.375138 -93.344754 
L 188.527523 -92.565011 
L 188.587769 -91.785268 
L 188.546377 -91.005526 
L 188.3993 -90.225783 
L 188.148728 -89.44604 
L 187.803246 -88.666297 
L 187.377343 -87.886554 
L 186.890284 -87.106811 
L 186.364492 -86.327069 
L 185.823648 -85.547326 
L 185.290737 -84.767583 
L 184.786296 -83.98784 
L 184.327062 -83.208097 
L 183.925137 -82.428354 
L 183.587751 -81.648612 
L 183.317553 -80.868869 
L 183.113358 -80.089126 
L 182.971164 -79.309383 
L 182.885278 -78.52964 
L 182.849372 -77.749897 
L 182.857311 -76.970155 
L 182.903671 -76.190412 
L 182.983875 -75.410669 
L 183.093978 -74.630926 
L 183.230149 -73.851183 
L 183.387959 -73.07144 
L 183.561619 -72.291698 
L 183.7433 -71.511955 
L 183.922708 -70.732212 
L 184.087009 -69.952469 
L 184.221212 -69.172726 
L 184.309004 -68.392983 
L 184.334004 -67.613241 
L 184.281291 -66.833498 
L 184.139026 -66.053755 
L 183.899935 -65.274012 
L 183.562428 -64.494269 
L 183.131167 -63.714526 
L 182.616962 -62.934784 
L 182.035992 -62.155041 
L 181.40844 -61.375298 
L 180.756725 -60.595555 
L 180.103564 -59.815812 
L 179.47013 -59.03607 
z
" id="m0dd6f13456" style="stroke:#3d3d3d;stroke-width:1.4;"/>
    </defs>
    <g clip-path="url(#p566e8768b5)">
     <use style="fill:#3a923a;stroke:#3d3d3d;stroke-width:1.4;" x="0" xlink:href="#m0dd6f13456" y="163.13925"/>
    </g>
   </g>
   <g id="PolyCollection_4">
    <defs>
     <path d="M 232.655433 -55.655951 
L 230.758067 -55.655951 
L 230.379056 -56.438321 
L 229.871486 -57.220691 
L 229.20713 -58.003061 
L 228.359225 -58.78543 
L 227.306226 -59.5678 
L 226.036275 -60.35017 
L 224.551798 -61.13254 
L 222.873495 -61.91491 
L 221.042781 -62.697279 
L 219.121873 -63.479649 
L 217.190921 -64.262019 
L 215.342079 -65.044389 
L 213.670997 -65.826759 
L 212.266783 -66.609128 
L 211.201953 -67.391498 
L 210.524001 -68.173868 
L 210.250065 -68.956238 
L 210.365649 -69.738607 
L 210.8276 -70.520977 
L 211.570788 -71.303347 
L 212.517238 -72.085717 
L 213.58611 -72.868087 
L 214.70287 -73.650456 
L 215.806292 -74.432826 
L 216.852482 -75.215196 
L 217.815727 -75.997566 
L 218.686562 -76.779936 
L 219.467888 -77.562305 
L 220.170126 -78.344675 
L 220.806411 -79.127045 
L 221.388595 -79.909415 
L 221.924559 -80.691785 
L 222.416967 -81.474154 
L 222.863376 -82.256524 
L 223.257374 -83.038894 
L 223.590357 -83.821264 
L 223.853527 -84.603634 
L 224.039769 -85.386003 
L 224.145154 -86.168373 
L 224.169907 -86.950743 
L 224.118818 -87.733113 
L 224.001094 -88.515483 
L 223.829753 -89.297852 
L 223.620687 -90.080222 
L 223.39151 -90.862592 
L 223.160358 -91.644962 
L 222.944733 -92.427332 
L 222.760528 -93.209701 
L 222.62126 -93.992071 
L 222.537558 -94.774441 
L 222.516875 -95.556811 
L 222.563389 -96.339181 
L 222.678017 -97.12155 
L 222.85851 -97.90392 
L 223.099599 -98.68629 
L 223.393184 -99.46866 
L 223.728618 -100.25103 
L 224.09313 -101.033399 
L 224.472428 -101.815769 
L 224.851498 -102.598139 
L 225.215583 -103.380509 
L 225.551259 -104.162879 
L 225.847494 -104.945248 
L 226.096547 -105.727618 
L 226.294581 -106.509988 
L 226.441878 -107.292358 
L 226.542616 -108.074728 
L 226.604227 -108.857097 
L 226.636428 -109.639467 
L 226.650082 -110.421837 
L 226.656045 -111.204207 
L 226.664174 -111.986577 
L 226.682623 -112.768946 
L 226.717474 -113.551316 
L 226.772702 -114.333686 
L 226.850394 -115.116056 
L 226.951112 -115.898426 
L 227.074272 -116.680795 
L 227.218464 -117.463165 
L 227.381637 -118.245535 
L 227.561177 -119.027905 
L 227.753907 -119.810275 
L 227.956088 -120.592644 
L 228.163495 -121.375014 
L 228.371597 -122.157384 
L 228.57588 -122.939754 
L 228.772254 -123.722124 
L 228.957501 -124.504493 
L 229.129663 -125.286863 
L 229.288295 -126.069233 
L 229.434521 -126.851603 
L 229.570846 -127.633973 
L 229.700754 -128.416342 
L 229.828144 -129.198712 
L 229.956696 -129.981082 
L 230.089269 -130.763452 
L 230.227451 -131.545822 
L 230.371317 -132.328191 
L 230.519441 -133.110561 
L 232.894059 -133.110561 
L 232.894059 -133.110561 
L 233.042183 -132.328191 
L 233.186049 -131.545822 
L 233.324231 -130.763452 
L 233.456804 -129.981082 
L 233.585356 -129.198712 
L 233.712746 -128.416342 
L 233.842654 -127.633973 
L 233.978979 -126.851603 
L 234.125205 -126.069233 
L 234.283837 -125.286863 
L 234.455999 -124.504493 
L 234.641246 -123.722124 
L 234.83762 -122.939754 
L 235.041903 -122.157384 
L 235.250005 -121.375014 
L 235.457412 -120.592644 
L 235.659593 -119.810275 
L 235.852323 -119.027905 
L 236.031863 -118.245535 
L 236.195036 -117.463165 
L 236.339228 -116.680795 
L 236.462388 -115.898426 
L 236.563106 -115.116056 
L 236.640798 -114.333686 
L 236.696026 -113.551316 
L 236.730877 -112.768946 
L 236.749326 -111.986577 
L 236.757455 -111.204207 
L 236.763418 -110.421837 
L 236.777072 -109.639467 
L 236.809273 -108.857097 
L 236.870884 -108.074728 
L 236.971622 -107.292358 
L 237.118919 -106.509988 
L 237.316953 -105.727618 
L 237.566006 -104.945248 
L 237.862241 -104.162879 
L 238.197917 -103.380509 
L 238.562002 -102.598139 
L 238.941072 -101.815769 
L 239.32037 -101.033399 
L 239.684882 -100.25103 
L 240.020316 -99.46866 
L 240.313901 -98.68629 
L 240.55499 -97.90392 
L 240.735483 -97.12155 
L 240.850111 -96.339181 
L 240.896625 -95.556811 
L 240.875942 -94.774441 
L 240.79224 -93.992071 
L 240.652972 -93.209701 
L 240.468767 -92.427332 
L 240.253142 -91.644962 
L 240.02199 -90.862592 
L 239.792813 -90.080222 
L 239.583747 -89.297852 
L 239.412406 -88.515483 
L 239.294682 -87.733113 
L 239.243593 -86.950743 
L 239.268346 -86.168373 
L 239.373731 -85.386003 
L 239.559973 -84.603634 
L 239.823143 -83.821264 
L 240.156126 -83.038894 
L 240.550124 -82.256524 
L 240.996533 -81.474154 
L 241.488941 -80.691785 
L 242.024905 -79.909415 
L 242.607089 -79.127045 
L 243.243374 -78.344675 
L 243.945612 -77.562305 
L 244.726938 -76.779936 
L 245.597773 -75.997566 
L 246.561018 -75.215196 
L 247.607208 -74.432826 
L 248.71063 -73.650456 
L 249.82739 -72.868087 
L 250.896262 -72.085717 
L 251.842712 -71.303347 
L 252.5859 -70.520977 
L 253.047851 -69.738607 
L 253.163435 -68.956238 
L 252.889499 -68.173868 
L 252.211547 -67.391498 
L 251.146717 -66.609128 
L 249.742503 -65.826759 
L 248.071421 -65.044389 
L 246.222579 -64.262019 
L 244.291627 -63.479649 
L 242.370719 -62.697279 
L 240.540005 -61.91491 
L 238.861702 -61.13254 
L 237.377225 -60.35017 
L 236.107274 -59.5678 
L 235.054275 -58.78543 
L 234.20637 -58.003061 
L 233.542014 -57.220691 
L 233.034444 -56.438321 
L 232.655433 -55.655951 
z
" id="m090adafdc7" style="stroke:#3d3d3d;stroke-width:1.4;"/>
    </defs>
    <g clip-path="url(#p566e8768b5)">
     <use style="fill:#c03d3e;stroke:#3d3d3d;stroke-width:1.4;" x="0" xlink:href="#m090adafdc7" y="163.13925"/>
    </g>
   </g>
   <g id="line2d_11">
    <path clip-path="url(#p566e8768b5)" d="M 64.30675 104.10318 
L 64.30675 35.443311 
" style="fill:none;stroke:#3d3d3d;stroke-linecap:round;stroke-width:1.4;"/>
   </g>
   <g id="line2d_12">
    <path clip-path="url(#p566e8768b5)" d="M 64.30675 83.742804 
L 64.30675 64.368255 
" style="fill:none;stroke:#3d3d3d;stroke-linecap:round;stroke-width:4.2;"/>
   </g>
   <g id="line2d_13">
    <path clip-path="url(#p566e8768b5)" d="M 120.10675 119.04 
L 120.10675 23.150911 
" style="fill:none;stroke:#3d3d3d;stroke-linecap:round;stroke-width:1.4;"/>
   </g>
   <g id="line2d_14">
    <path clip-path="url(#p566e8768b5)" d="M 120.10675 83.98801 
L 120.10675 58.253854 
" style="fill:none;stroke:#3d3d3d;stroke-linecap:round;stroke-width:4.2;"/>
   </g>
   <g id="line2d_15">
    <path clip-path="url(#p566e8768b5)" d="M 175.90675 104.10318 
L 175.90675 26.90864 
" style="fill:none;stroke:#3d3d3d;stroke-linecap:round;stroke-width:1.4;"/>
   </g>
   <g id="line2d_16">
    <path clip-path="url(#p566e8768b5)" d="M 175.90675 84.113372 
L 175.90675 49.441307 
" style="fill:none;stroke:#3d3d3d;stroke-linecap:round;stroke-width:4.2;"/>
   </g>
   <g id="line2d_17">
    <path clip-path="url(#p566e8768b5)" d="M 231.70675 107.483299 
L 231.70675 30.028689 
" style="fill:none;stroke:#3d3d3d;stroke-linecap:round;stroke-width:1.4;"/>
   </g>
   <g id="line2d_18">
    <path clip-path="url(#p566e8768b5)" d="M 231.70675 94.493986 
L 231.70675 64.994239 
" style="fill:none;stroke:#3d3d3d;stroke-linecap:round;stroke-width:4.2;"/>
   </g>
   <g id="patch_3">
    <path d="M 36.40675 124.08 
L 36.40675 13.2 
" style="fill:none;stroke:#262626;stroke-linecap:square;stroke-linejoin:miter;stroke-width:1.25;"/>
   </g>
   <g id="patch_4">
    <path d="M 36.40675 124.08 
L 259.60675 124.08 
" style="fill:none;stroke:#262626;stroke-linecap:square;stroke-linejoin:miter;stroke-width:1.25;"/>
   </g>
   <g id="PathCollection_1">
    <defs>
     <path d="M 0 1.4 
C 0.371284 1.4 0.727412 1.252487 0.989949 0.989949 
C 1.252487 0.727412 1.4 0.371284 1.4 0 
C 1.4 -0.371284 1.252487 -0.727412 0.989949 -0.989949 
C 0.727412 -1.252487 0.371284 -1.4 0 -1.4 
C -0.371284 -1.4 -0.727412 -1.252487 -0.989949 -0.989949 
C -1.252487 -0.727412 -1.4 -0.371284 -1.4 0 
C -1.4 0.371284 -1.252487 0.727412 -0.989949 0.989949 
C -0.727412 1.252487 -0.371284 1.4 0 1.4 
z
" id="m6454a3465e" style="stroke:#3d3d3d;stroke-width:0.24;"/>
    </defs>
    <g clip-path="url(#p566e8768b5)">
     <use style="fill:#ffffff;stroke:#3d3d3d;stroke-width:0.24;" x="64.30675" xlink:href="#m6454a3465e" y="72.33851"/>
    </g>
   </g>
   <g id="PathCollection_2">
    <g clip-path="url(#p566e8768b5)">
     <use style="fill:#ffffff;stroke:#3d3d3d;stroke-width:0.24;" x="120.10675" xlink:href="#m6454a3465e" y="73.633831"/>
    </g>
   </g>
   <g id="PathCollection_3">
    <g clip-path="url(#p566e8768b5)">
     <use style="fill:#ffffff;stroke:#3d3d3d;stroke-width:0.24;" x="175.90675" xlink:href="#m6454a3465e" y="69.134555"/>
    </g>
   </g>
   <g id="PathCollection_4">
    <g clip-path="url(#p566e8768b5)">
     <use style="fill:#ffffff;stroke:#3d3d3d;stroke-width:0.24;" x="231.70675" xlink:href="#m6454a3465e" y="84.113372"/>
    </g>
   </g>
   <g id="text_13">
    <!-- total: 5,935,503 -->
    <defs>
     <path d="M 11.71875 12.40625 
L 22.015625 12.40625 
L 22.015625 0 
L 11.71875 0 
z
M 11.71875 51.703125 
L 22.015625 51.703125 
L 22.015625 39.3125 
L 11.71875 39.3125 
z
" id="DejaVuSans-3a"/>
     <path d="M 11.71875 12.40625 
L 22.015625 12.40625 
L 22.015625 4 
L 14.015625 -11.625 
L 7.71875 -11.625 
L 11.71875 4 
z
" id="DejaVuSans-2c"/>
     <path d="M 10.984375 1.515625 
L 10.984375 10.5 
Q 14.703125 8.734375 18.5 7.8125 
Q 22.3125 6.890625 25.984375 6.890625 
Q 35.75 6.890625 40.890625 13.453125 
Q 46.046875 20.015625 46.78125 33.40625 
Q 43.953125 29.203125 39.59375 26.953125 
Q 35.25 24.703125 29.984375 24.703125 
Q 19.046875 24.703125 12.671875 31.3125 
Q 6.296875 37.9375 6.296875 49.421875 
Q 6.296875 60.640625 12.9375 67.421875 
Q 19.578125 74.21875 30.609375 74.21875 
Q 43.265625 74.21875 49.921875 64.515625 
Q 56.59375 54.828125 56.59375 36.375 
Q 56.59375 19.140625 48.40625 8.859375 
Q 40.234375 -1.421875 26.421875 -1.421875 
Q 22.703125 -1.421875 18.890625 -0.6875 
Q 15.09375 0.046875 10.984375 1.515625 
z
M 30.609375 32.421875 
Q 37.25 32.421875 41.125 36.953125 
Q 45.015625 41.5 45.015625 49.421875 
Q 45.015625 57.28125 41.125 61.84375 
Q 37.25 66.40625 30.609375 66.40625 
Q 23.96875 66.40625 20.09375 61.84375 
Q 16.21875 57.28125 16.21875 49.421875 
Q 16.21875 41.5 20.09375 36.953125 
Q 23.96875 32.421875 30.609375 32.421875 
z
" id="DejaVuSans-39"/>
    </defs>
    <g style="fill:#262626;" transform="translate(182.51275 20.4945)scale(0.096 -0.096)">
     <use xlink:href="#DejaVuSans-74"/>
     <use x="39.208984" xlink:href="#DejaVuSans-6f"/>
     <use x="100.390625" xlink:href="#DejaVuSans-74"/>
     <use x="139.599609" xlink:href="#DejaVuSans-61"/>
     <use x="200.878906" xlink:href="#DejaVuSans-6c"/>
     <use x="228.662109" xlink:href="#DejaVuSans-3a"/>
     <use x="262.353516" xlink:href="#DejaVuSans-20"/>
     <use x="294.140625" xlink:href="#DejaVuSans-35"/>
     <use x="357.763672" xlink:href="#DejaVuSans-2c"/>
     <use x="389.550781" xlink:href="#DejaVuSans-39"/>
     <use x="453.173828" xlink:href="#DejaVuSans-33"/>
     <use x="516.796875" xlink:href="#DejaVuSans-35"/>
     <use x="580.419922" xlink:href="#DejaVuSans-2c"/>
     <use x="612.207031" xlink:href="#DejaVuSans-35"/>
     <use x="675.830078" xlink:href="#DejaVuSans-30"/>
     <use x="739.453125" xlink:href="#DejaVuSans-33"/>
    </g>
   </g>
  </g>
 </g>
 <defs>
  <clipPath id="p566e8768b5">
   <rect height="110.88" width="223.2" x="36.40675" y="13.2"/>
  </clipPath>
 </defs>
</svg>
