<?xml version="1.0" encoding="utf-8" standalone="no"?>
<!DOCTYPE svg PUBLIC "-//W3C//DTD SVG 1.1//EN"
  "http://www.w3.org/Graphics/SVG/1.1/DTD/svg11.dtd">
<!-- Created with matplotlib (http://matplotlib.org/) -->
<svg height="211pt" version="1.1" viewBox="0 0 282 211" width="282pt" xmlns="http://www.w3.org/2000/svg" xmlns:xlink="http://www.w3.org/1999/xlink">
 <defs>
  <style type="text/css">
*{stroke-linecap:butt;stroke-linejoin:round;}
  </style>
 </defs>
 <g id="figure_1">
  <g id="patch_1">
   <path d="M 0 211.8865 
L 282.46075 211.8865 
L 282.46075 0 
L 0 0 
z
" style="fill:#ffffff;"/>
  </g>
  <g id="axes_1">
   <g id="patch_2">
    <path d="M 36.40675 185.344 
L 269.26075 185.344 
L 269.26075 13.2 
L 36.40675 13.2 
z
" style="fill:#ffffff;"/>
   </g>
   <g id="matplotlib.axis_1">
    <g id="xtick_1">
     <g id="line2d_1">
      <defs>
       <path d="M 0 0 
L 0 6 
" id="ma1fab0c877" style="stroke:#262626;stroke-width:0.8;"/>
      </defs>
      <g>
       <use style="fill:#262626;stroke:#262626;stroke-width:0.8;" x="65.5135" xlink:href="#ma1fab0c877" y="185.344"/>
      </g>
     </g>
     <g id="text_1">
      <!-- Bioconductor/R -->
      <defs>
       <path d="M 19.671875 34.8125 
L 19.671875 8.109375 
L 35.5 8.109375 
Q 43.453125 8.109375 47.28125 11.40625 
Q 51.125 14.703125 51.125 21.484375 
Q 51.125 28.328125 47.28125 31.5625 
Q 43.453125 34.8125 35.5 34.8125 
z
M 19.671875 64.796875 
L 19.671875 42.828125 
L 34.28125 42.828125 
Q 41.5 42.828125 45.03125 45.53125 
Q 48.578125 48.25 48.578125 53.8125 
Q 48.578125 59.328125 45.03125 62.0625 
Q 41.5 64.796875 34.28125 64.796875 
z
M 9.8125 72.90625 
L 35.015625 72.90625 
Q 46.296875 72.90625 52.390625 68.21875 
Q 58.5 63.53125 58.5 54.890625 
Q 58.5 48.1875 55.375 44.234375 
Q 52.25 40.28125 46.1875 39.3125 
Q 53.46875 37.75 57.5 32.78125 
Q 61.53125 27.828125 61.53125 20.40625 
Q 61.53125 10.640625 54.890625 5.3125 
Q 48.25 0 35.984375 0 
L 9.8125 0 
z
" id="DejaVuSans-42"/>
       <path d="M 9.421875 54.6875 
L 18.40625 54.6875 
L 18.40625 0 
L 9.421875 0 
z
M 9.421875 75.984375 
L 18.40625 75.984375 
L 18.40625 64.59375 
L 9.421875 64.59375 
z
" id="DejaVuSans-69"/>
       <path d="M 30.609375 48.390625 
Q 23.390625 48.390625 19.1875 42.75 
Q 14.984375 37.109375 14.984375 27.296875 
Q 14.984375 17.484375 19.15625 11.84375 
Q 23.34375 6.203125 30.609375 6.203125 
Q 37.796875 6.203125 41.984375 11.859375 
Q 46.1875 17.53125 46.1875 27.296875 
Q 46.1875 37.015625 41.984375 42.703125 
Q 37.796875 48.390625 30.609375 48.390625 
z
M 30.609375 56 
Q 42.328125 56 49.015625 48.375 
Q 55.71875 40.765625 55.71875 27.296875 
Q 55.71875 13.875 49.015625 6.21875 
Q 42.328125 -1.421875 30.609375 -1.421875 
Q 18.84375 -1.421875 12.171875 6.21875 
Q 5.515625 13.875 5.515625 27.296875 
Q 5.515625 40.765625 12.171875 48.375 
Q 18.84375 56 30.609375 56 
z
" id="DejaVuSans-6f"/>
       <path d="M 48.78125 52.59375 
L 48.78125 44.1875 
Q 44.96875 46.296875 41.140625 47.34375 
Q 37.3125 48.390625 33.40625 48.390625 
Q 24.65625 48.390625 19.8125 42.84375 
Q 14.984375 37.3125 14.984375 27.296875 
Q 14.984375 17.28125 19.8125 11.734375 
Q 24.65625 6.203125 33.40625 6.203125 
Q 37.3125 6.203125 41.140625 7.25 
Q 44.96875 8.296875 48.78125 10.40625 
L 48.78125 2.09375 
Q 45.015625 0.34375 40.984375 -0.53125 
Q 36.96875 -1.421875 32.421875 -1.421875 
Q 20.0625 -1.421875 12.78125 6.34375 
Q 5.515625 14.109375 5.515625 27.296875 
Q 5.515625 40.671875 12.859375 48.328125 
Q 20.21875 56 33.015625 56 
Q 37.15625 56 41.109375 55.140625 
Q 45.0625 54.296875 48.78125 52.59375 
z
" id="DejaVuSans-63"/>
       <path d="M 54.890625 33.015625 
L 54.890625 0 
L 45.90625 0 
L 45.90625 32.71875 
Q 45.90625 40.484375 42.875 44.328125 
Q 39.84375 48.1875 33.796875 48.1875 
Q 26.515625 48.1875 22.3125 43.546875 
Q 18.109375 38.921875 18.109375 30.90625 
L 18.109375 0 
L 9.078125 0 
L 9.078125 54.6875 
L 18.109375 54.6875 
L 18.109375 46.1875 
Q 21.34375 51.125 25.703125 53.5625 
Q 30.078125 56 35.796875 56 
Q 45.21875 56 50.046875 50.171875 
Q 54.890625 44.34375 54.890625 33.015625 
z
" id="DejaVuSans-6e"/>
       <path d="M 45.40625 46.390625 
L 45.40625 75.984375 
L 54.390625 75.984375 
L 54.390625 0 
L 45.40625 0 
L 45.40625 8.203125 
Q 42.578125 3.328125 38.25 0.953125 
Q 33.9375 -1.421875 27.875 -1.421875 
Q 17.96875 -1.421875 11.734375 6.484375 
Q 5.515625 14.40625 5.515625 27.296875 
Q 5.515625 40.1875 11.734375 48.09375 
Q 17.96875 56 27.875 56 
Q 33.9375 56 38.25 53.625 
Q 42.578125 51.265625 45.40625 46.390625 
z
M 14.796875 27.296875 
Q 14.796875 17.390625 18.875 11.75 
Q 22.953125 6.109375 30.078125 6.109375 
Q 37.203125 6.109375 41.296875 11.75 
Q 45.40625 17.390625 45.40625 27.296875 
Q 45.40625 37.203125 41.296875 42.84375 
Q 37.203125 48.484375 30.078125 48.484375 
Q 22.953125 48.484375 18.875 42.84375 
Q 14.796875 37.203125 14.796875 27.296875 
z
" id="DejaVuSans-64"/>
       <path d="M 8.5 21.578125 
L 8.5 54.6875 
L 17.484375 54.6875 
L 17.484375 21.921875 
Q 17.484375 14.15625 20.5 10.265625 
Q 23.53125 6.390625 29.59375 6.390625 
Q 36.859375 6.390625 41.078125 11.03125 
Q 45.3125 15.671875 45.3125 23.6875 
L 45.3125 54.6875 
L 54.296875 54.6875 
L 54.296875 0 
L 45.3125 0 
L 45.3125 8.40625 
Q 42.046875 3.421875 37.71875 1 
Q 33.40625 -1.421875 27.6875 -1.421875 
Q 18.265625 -1.421875 13.375 4.4375 
Q 8.5 10.296875 8.5 21.578125 
z
M 31.109375 56 
z
" id="DejaVuSans-75"/>
       <path d="M 18.3125 70.21875 
L 18.3125 54.6875 
L 36.8125 54.6875 
L 36.8125 47.703125 
L 18.3125 47.703125 
L 18.3125 18.015625 
Q 18.3125 11.328125 20.140625 9.421875 
Q 21.96875 7.515625 27.59375 7.515625 
L 36.8125 7.515625 
L 36.8125 0 
L 27.59375 0 
Q 17.1875 0 13.234375 3.875 
Q 9.28125 7.765625 9.28125 18.015625 
L 9.28125 47.703125 
L 2.6875 47.703125 
L 2.6875 54.6875 
L 9.28125 54.6875 
L 9.28125 70.21875 
z
" id="DejaVuSans-74"/>
       <path d="M 41.109375 46.296875 
Q 39.59375 47.171875 37.8125 47.578125 
Q 36.03125 48 33.890625 48 
Q 26.265625 48 22.1875 43.046875 
Q 18.109375 38.09375 18.109375 28.8125 
L 18.109375 0 
L 9.078125 0 
L 9.078125 54.6875 
L 18.109375 54.6875 
L 18.109375 46.1875 
Q 20.953125 51.171875 25.484375 53.578125 
Q 30.03125 56 36.53125 56 
Q 37.453125 56 38.578125 55.875 
Q 39.703125 55.765625 41.0625 55.515625 
z
" id="DejaVuSans-72"/>
       <path d="M 25.390625 72.90625 
L 33.6875 72.90625 
L 8.296875 -9.28125 
L 0 -9.28125 
z
" id="DejaVuSans-2f"/>
       <path d="M 44.390625 34.1875 
Q 47.5625 33.109375 50.5625 29.59375 
Q 53.5625 26.078125 56.59375 19.921875 
L 66.609375 0 
L 56 0 
L 46.6875 18.703125 
Q 43.0625 26.03125 39.671875 28.421875 
Q 36.28125 30.8125 30.421875 30.8125 
L 19.671875 30.8125 
L 19.671875 0 
L 9.8125 0 
L 9.8125 72.90625 
L 32.078125 72.90625 
Q 44.578125 72.90625 50.734375 67.671875 
Q 56.890625 62.453125 56.890625 51.90625 
Q 56.890625 45.015625 53.6875 40.46875 
Q 50.484375 35.9375 44.390625 34.1875 
z
M 19.671875 64.796875 
L 19.671875 38.921875 
L 32.078125 38.921875 
Q 39.203125 38.921875 42.84375 42.21875 
Q 46.484375 45.515625 46.484375 51.90625 
Q 46.484375 58.296875 42.84375 61.546875 
Q 39.203125 64.796875 32.078125 64.796875 
z
" id="DejaVuSans-52"/>
      </defs>
      <g style="fill:#262626;" transform="translate(34.967875 203.02275)scale(0.08 -0.08)">
       <use xlink:href="#DejaVuSans-42"/>
       <use x="68.603516" xlink:href="#DejaVuSans-69"/>
       <use x="96.386719" xlink:href="#DejaVuSans-6f"/>
       <use x="157.568359" xlink:href="#DejaVuSans-63"/>
       <use x="212.548828" xlink:href="#DejaVuSans-6f"/>
       <use x="273.730469" xlink:href="#DejaVuSans-6e"/>
       <use x="337.109375" xlink:href="#DejaVuSans-64"/>
       <use x="400.585938" xlink:href="#DejaVuSans-75"/>
       <use x="463.964844" xlink:href="#DejaVuSans-63"/>
       <use x="518.945312" xlink:href="#DejaVuSans-74"/>
       <use x="558.154297" xlink:href="#DejaVuSans-6f"/>
       <use x="619.335938" xlink:href="#DejaVuSans-72"/>
       <use x="660.449219" xlink:href="#DejaVuSans-2f"/>
       <use x="694.140625" xlink:href="#DejaVuSans-52"/>
      </g>
     </g>
    </g>
    <g id="xtick_2">
     <g id="line2d_2">
      <g>
       <use style="fill:#262626;stroke:#262626;stroke-width:0.8;" x="123.727" xlink:href="#ma1fab0c877" y="185.344"/>
      </g>
     </g>
     <g id="text_2">
      <!-- Other -->
      <defs>
       <path d="M 39.40625 66.21875 
Q 28.65625 66.21875 22.328125 58.203125 
Q 16.015625 50.203125 16.015625 36.375 
Q 16.015625 22.609375 22.328125 14.59375 
Q 28.65625 6.59375 39.40625 6.59375 
Q 50.140625 6.59375 56.421875 14.59375 
Q 62.703125 22.609375 62.703125 36.375 
Q 62.703125 50.203125 56.421875 58.203125 
Q 50.140625 66.21875 39.40625 66.21875 
z
M 39.40625 74.21875 
Q 54.734375 74.21875 63.90625 63.9375 
Q 73.09375 53.65625 73.09375 36.375 
Q 73.09375 19.140625 63.90625 8.859375 
Q 54.734375 -1.421875 39.40625 -1.421875 
Q 24.03125 -1.421875 14.8125 8.828125 
Q 5.609375 19.09375 5.609375 36.375 
Q 5.609375 53.65625 14.8125 63.9375 
Q 24.03125 74.21875 39.40625 74.21875 
z
" id="DejaVuSans-4f"/>
       <path d="M 54.890625 33.015625 
L 54.890625 0 
L 45.90625 0 
L 45.90625 32.71875 
Q 45.90625 40.484375 42.875 44.328125 
Q 39.84375 48.1875 33.796875 48.1875 
Q 26.515625 48.1875 22.3125 43.546875 
Q 18.109375 38.921875 18.109375 30.90625 
L 18.109375 0 
L 9.078125 0 
L 9.078125 75.984375 
L 18.109375 75.984375 
L 18.109375 46.1875 
Q 21.34375 51.125 25.703125 53.5625 
Q 30.078125 56 35.796875 56 
Q 45.21875 56 50.046875 50.171875 
Q 54.890625 44.34375 54.890625 33.015625 
z
" id="DejaVuSans-68"/>
       <path d="M 56.203125 29.59375 
L 56.203125 25.203125 
L 14.890625 25.203125 
Q 15.484375 15.921875 20.484375 11.0625 
Q 25.484375 6.203125 34.421875 6.203125 
Q 39.59375 6.203125 44.453125 7.46875 
Q 49.3125 8.734375 54.109375 11.28125 
L 54.109375 2.78125 
Q 49.265625 0.734375 44.1875 -0.34375 
Q 39.109375 -1.421875 33.890625 -1.421875 
Q 20.796875 -1.421875 13.15625 6.1875 
Q 5.515625 13.8125 5.515625 26.8125 
Q 5.515625 40.234375 12.765625 48.109375 
Q 20.015625 56 32.328125 56 
Q 43.359375 56 49.78125 48.890625 
Q 56.203125 41.796875 56.203125 29.59375 
z
M 47.21875 32.234375 
Q 47.125 39.59375 43.09375 43.984375 
Q 39.0625 48.390625 32.421875 48.390625 
Q 24.90625 48.390625 20.390625 44.140625 
Q 15.875 39.890625 15.1875 32.171875 
z
" id="DejaVuSans-65"/>
      </defs>
      <g style="fill:#262626;" transform="translate(112.3695 203.02275)scale(0.08 -0.08)">
       <use xlink:href="#DejaVuSans-4f"/>
       <use x="78.710938" xlink:href="#DejaVuSans-74"/>
       <use x="117.919922" xlink:href="#DejaVuSans-68"/>
       <use x="181.298828" xlink:href="#DejaVuSans-65"/>
       <use x="242.822266" xlink:href="#DejaVuSans-72"/>
      </g>
     </g>
    </g>
    <g id="xtick_3">
     <g id="line2d_3">
      <g>
       <use style="fill:#262626;stroke:#262626;stroke-width:0.8;" x="181.9405" xlink:href="#ma1fab0c877" y="185.344"/>
      </g>
     </g>
     <g id="text_3">
      <!-- Python -->
      <defs>
       <path d="M 19.671875 64.796875 
L 19.671875 37.40625 
L 32.078125 37.40625 
Q 38.96875 37.40625 42.71875 40.96875 
Q 46.484375 44.53125 46.484375 51.125 
Q 46.484375 57.671875 42.71875 61.234375 
Q 38.96875 64.796875 32.078125 64.796875 
z
M 9.8125 72.90625 
L 32.078125 72.90625 
Q 44.34375 72.90625 50.609375 67.359375 
Q 56.890625 61.8125 56.890625 51.125 
Q 56.890625 40.328125 50.609375 34.8125 
Q 44.34375 29.296875 32.078125 29.296875 
L 19.671875 29.296875 
L 19.671875 0 
L 9.8125 0 
z
" id="DejaVuSans-50"/>
       <path d="M 32.171875 -5.078125 
Q 28.375 -14.84375 24.75 -17.8125 
Q 21.140625 -20.796875 15.09375 -20.796875 
L 7.90625 -20.796875 
L 7.90625 -13.28125 
L 13.1875 -13.28125 
Q 16.890625 -13.28125 18.9375 -11.515625 
Q 21 -9.765625 23.484375 -3.21875 
L 25.09375 0.875 
L 2.984375 54.6875 
L 12.5 54.6875 
L 29.59375 11.921875 
L 46.6875 54.6875 
L 56.203125 54.6875 
z
" id="DejaVuSans-79"/>
      </defs>
      <g style="fill:#262626;" transform="translate(168.0755 203.02275)scale(0.08 -0.08)">
       <use xlink:href="#DejaVuSans-50"/>
       <use x="60.302734" xlink:href="#DejaVuSans-79"/>
       <use x="119.482422" xlink:href="#DejaVuSans-74"/>
       <use x="158.691406" xlink:href="#DejaVuSans-68"/>
       <use x="222.070312" xlink:href="#DejaVuSans-6f"/>
       <use x="283.251953" xlink:href="#DejaVuSans-6e"/>
      </g>
     </g>
    </g>
    <g id="xtick_4">
     <g id="line2d_4">
      <g>
       <use style="fill:#262626;stroke:#262626;stroke-width:0.8;" x="240.154" xlink:href="#ma1fab0c877" y="185.344"/>
      </g>
     </g>
     <g id="text_4">
      <!-- Perl -->
      <defs>
       <path d="M 9.421875 75.984375 
L 18.40625 75.984375 
L 18.40625 0 
L 9.421875 0 
z
" id="DejaVuSans-6c"/>
      </defs>
      <g style="fill:#262626;" transform="translate(232.527125 203.02275)scale(0.08 -0.08)">
       <use xlink:href="#DejaVuSans-50"/>
       <use x="60.255859" xlink:href="#DejaVuSans-65"/>
       <use x="121.779297" xlink:href="#DejaVuSans-72"/>
       <use x="162.892578" xlink:href="#DejaVuSans-6c"/>
      </g>
     </g>
    </g>
   </g>
   <g id="matplotlib.axis_2">
    <g id="ytick_1">
     <g id="line2d_5">
      <defs>
       <path d="M 0 0 
L -6 0 
" id="m400edd58af" style="stroke:#262626;stroke-width:0.8;"/>
      </defs>
      <g>
       <use style="fill:#262626;stroke:#262626;stroke-width:0.8;" x="36.40675" xlink:href="#m400edd58af" y="178.126678"/>
      </g>
     </g>
     <g id="text_5">
      <!-- 0 -->
      <defs>
       <path d="M 31.78125 66.40625 
Q 24.171875 66.40625 20.328125 58.90625 
Q 16.5 51.421875 16.5 36.375 
Q 16.5 21.390625 20.328125 13.890625 
Q 24.171875 6.390625 31.78125 6.390625 
Q 39.453125 6.390625 43.28125 13.890625 
Q 47.125 21.390625 47.125 36.375 
Q 47.125 51.421875 43.28125 58.90625 
Q 39.453125 66.40625 31.78125 66.40625 
z
M 31.78125 74.21875 
Q 44.046875 74.21875 50.515625 64.515625 
Q 56.984375 54.828125 56.984375 36.375 
Q 56.984375 17.96875 50.515625 8.265625 
Q 44.046875 -1.421875 31.78125 -1.421875 
Q 19.53125 -1.421875 13.0625 8.265625 
Q 6.59375 17.96875 6.59375 36.375 
Q 6.59375 54.828125 13.0625 64.515625 
Q 19.53125 74.21875 31.78125 74.21875 
z
" id="DejaVuSans-30"/>
      </defs>
      <g style="fill:#262626;" transform="translate(19.71675 181.166053)scale(0.08 -0.08)">
       <use xlink:href="#DejaVuSans-30"/>
      </g>
     </g>
    </g>
    <g id="ytick_2">
     <g id="line2d_6">
      <g>
       <use style="fill:#262626;stroke:#262626;stroke-width:0.8;" x="36.40675" xlink:href="#m400edd58af" y="150.638898"/>
      </g>
     </g>
     <g id="text_6">
      <!-- 1 -->
      <defs>
       <path d="M 12.40625 8.296875 
L 28.515625 8.296875 
L 28.515625 63.921875 
L 10.984375 60.40625 
L 10.984375 69.390625 
L 28.421875 72.90625 
L 38.28125 72.90625 
L 38.28125 8.296875 
L 54.390625 8.296875 
L 54.390625 0 
L 12.40625 0 
z
" id="DejaVuSans-31"/>
      </defs>
      <g style="fill:#262626;" transform="translate(19.71675 153.678273)scale(0.08 -0.08)">
       <use xlink:href="#DejaVuSans-31"/>
      </g>
     </g>
    </g>
    <g id="ytick_3">
     <g id="line2d_7">
      <g>
       <use style="fill:#262626;stroke:#262626;stroke-width:0.8;" x="36.40675" xlink:href="#m400edd58af" y="123.151119"/>
      </g>
     </g>
     <g id="text_7">
      <!-- 2 -->
      <defs>
       <path d="M 19.1875 8.296875 
L 53.609375 8.296875 
L 53.609375 0 
L 7.328125 0 
L 7.328125 8.296875 
Q 12.9375 14.109375 22.625 23.890625 
Q 32.328125 33.6875 34.8125 36.53125 
Q 39.546875 41.84375 41.421875 45.53125 
Q 43.3125 49.21875 43.3125 52.78125 
Q 43.3125 58.59375 39.234375 62.25 
Q 35.15625 65.921875 28.609375 65.921875 
Q 23.96875 65.921875 18.8125 64.3125 
Q 13.671875 62.703125 7.8125 59.421875 
L 7.8125 69.390625 
Q 13.765625 71.78125 18.9375 73 
Q 24.125 74.21875 28.421875 74.21875 
Q 39.75 74.21875 46.484375 68.546875 
Q 53.21875 62.890625 53.21875 53.421875 
Q 53.21875 48.921875 51.53125 44.890625 
Q 49.859375 40.875 45.40625 35.40625 
Q 44.1875 33.984375 37.640625 27.21875 
Q 31.109375 20.453125 19.1875 8.296875 
z
" id="DejaVuSans-32"/>
      </defs>
      <g style="fill:#262626;" transform="translate(19.71675 126.190494)scale(0.08 -0.08)">
       <use xlink:href="#DejaVuSans-32"/>
      </g>
     </g>
    </g>
    <g id="ytick_4">
     <g id="line2d_8">
      <g>
       <use style="fill:#262626;stroke:#262626;stroke-width:0.8;" x="36.40675" xlink:href="#m400edd58af" y="95.663339"/>
      </g>
     </g>
     <g id="text_8">
      <!-- 3 -->
      <defs>
       <path d="M 40.578125 39.3125 
Q 47.65625 37.796875 51.625 33 
Q 55.609375 28.21875 55.609375 21.1875 
Q 55.609375 10.40625 48.1875 4.484375 
Q 40.765625 -1.421875 27.09375 -1.421875 
Q 22.515625 -1.421875 17.65625 -0.515625 
Q 12.796875 0.390625 7.625 2.203125 
L 7.625 11.71875 
Q 11.71875 9.328125 16.59375 8.109375 
Q 21.484375 6.890625 26.8125 6.890625 
Q 36.078125 6.890625 40.9375 10.546875 
Q 45.796875 14.203125 45.796875 21.1875 
Q 45.796875 27.640625 41.28125 31.265625 
Q 36.765625 34.90625 28.71875 34.90625 
L 20.21875 34.90625 
L 20.21875 43.015625 
L 29.109375 43.015625 
Q 36.375 43.015625 40.234375 45.921875 
Q 44.09375 48.828125 44.09375 54.296875 
Q 44.09375 59.90625 40.109375 62.90625 
Q 36.140625 65.921875 28.71875 65.921875 
Q 24.65625 65.921875 20.015625 65.03125 
Q 15.375 64.15625 9.8125 62.3125 
L 9.8125 71.09375 
Q 15.4375 72.65625 20.34375 73.4375 
Q 25.25 74.21875 29.59375 74.21875 
Q 40.828125 74.21875 47.359375 69.109375 
Q 53.90625 64.015625 53.90625 55.328125 
Q 53.90625 49.265625 50.4375 45.09375 
Q 46.96875 40.921875 40.578125 39.3125 
z
" id="DejaVuSans-33"/>
      </defs>
      <g style="fill:#262626;" transform="translate(19.71675 98.702714)scale(0.08 -0.08)">
       <use xlink:href="#DejaVuSans-33"/>
      </g>
     </g>
    </g>
    <g id="ytick_5">
     <g id="line2d_9">
      <g>
       <use style="fill:#262626;stroke:#262626;stroke-width:0.8;" x="36.40675" xlink:href="#m400edd58af" y="68.175559"/>
      </g>
     </g>
     <g id="text_9">
      <!-- 4 -->
      <defs>
       <path d="M 37.796875 64.3125 
L 12.890625 25.390625 
L 37.796875 25.390625 
z
M 35.203125 72.90625 
L 47.609375 72.90625 
L 47.609375 25.390625 
L 58.015625 25.390625 
L 58.015625 17.1875 
L 47.609375 17.1875 
L 47.609375 0 
L 37.796875 0 
L 37.796875 17.1875 
L 4.890625 17.1875 
L 4.890625 26.703125 
z
" id="DejaVuSans-34"/>
      </defs>
      <g style="fill:#262626;" transform="translate(19.71675 71.214934)scale(0.08 -0.08)">
       <use xlink:href="#DejaVuSans-34"/>
      </g>
     </g>
    </g>
    <g id="ytick_6">
     <g id="line2d_10">
      <g>
       <use style="fill:#262626;stroke:#262626;stroke-width:0.8;" x="36.40675" xlink:href="#m400edd58af" y="40.68778"/>
      </g>
     </g>
     <g id="text_10">
      <!-- 5 -->
      <defs>
       <path d="M 10.796875 72.90625 
L 49.515625 72.90625 
L 49.515625 64.59375 
L 19.828125 64.59375 
L 19.828125 46.734375 
Q 21.96875 47.46875 24.109375 47.828125 
Q 26.265625 48.1875 28.421875 48.1875 
Q 40.625 48.1875 47.75 41.5 
Q 54.890625 34.8125 54.890625 23.390625 
Q 54.890625 11.625 47.5625 5.09375 
Q 40.234375 -1.421875 26.90625 -1.421875 
Q 22.3125 -1.421875 17.546875 -0.640625 
Q 12.796875 0.140625 7.71875 1.703125 
L 7.71875 11.625 
Q 12.109375 9.234375 16.796875 8.0625 
Q 21.484375 6.890625 26.703125 6.890625 
Q 35.15625 6.890625 40.078125 11.328125 
Q 45.015625 15.765625 45.015625 23.390625 
Q 45.015625 31 40.078125 35.4375 
Q 35.15625 39.890625 26.703125 39.890625 
Q 22.75 39.890625 18.8125 39.015625 
Q 14.890625 38.140625 10.796875 36.28125 
z
" id="DejaVuSans-35"/>
      </defs>
      <g style="fill:#262626;" transform="translate(19.71675 43.727155)scale(0.08 -0.08)">
       <use xlink:href="#DejaVuSans-35"/>
      </g>
     </g>
    </g>
    <g id="ytick_7">
     <g id="line2d_11">
      <g>
       <use style="fill:#262626;stroke:#262626;stroke-width:0.8;" x="36.40675" xlink:href="#m400edd58af" y="13.2"/>
      </g>
     </g>
     <g id="text_11">
      <!-- 6 -->
      <defs>
       <path d="M 33.015625 40.375 
Q 26.375 40.375 22.484375 35.828125 
Q 18.609375 31.296875 18.609375 23.390625 
Q 18.609375 15.53125 22.484375 10.953125 
Q 26.375 6.390625 33.015625 6.390625 
Q 39.65625 6.390625 43.53125 10.953125 
Q 47.40625 15.53125 47.40625 23.390625 
Q 47.40625 31.296875 43.53125 35.828125 
Q 39.65625 40.375 33.015625 40.375 
z
M 52.59375 71.296875 
L 52.59375 62.3125 
Q 48.875 64.0625 45.09375 64.984375 
Q 41.3125 65.921875 37.59375 65.921875 
Q 27.828125 65.921875 22.671875 59.328125 
Q 17.53125 52.734375 16.796875 39.40625 
Q 19.671875 43.65625 24.015625 45.921875 
Q 28.375 48.1875 33.59375 48.1875 
Q 44.578125 48.1875 50.953125 41.515625 
Q 57.328125 34.859375 57.328125 23.390625 
Q 57.328125 12.15625 50.6875 5.359375 
Q 44.046875 -1.421875 33.015625 -1.421875 
Q 20.359375 -1.421875 13.671875 8.265625 
Q 6.984375 17.96875 6.984375 36.375 
Q 6.984375 53.65625 15.1875 63.9375 
Q 23.390625 74.21875 37.203125 74.21875 
Q 40.921875 74.21875 44.703125 73.484375 
Q 48.484375 72.75 52.59375 71.296875 
z
" id="DejaVuSans-36"/>
      </defs>
      <g style="fill:#262626;" transform="translate(19.71675 16.239375)scale(0.08 -0.08)">
       <use xlink:href="#DejaVuSans-36"/>
      </g>
     </g>
    </g>
    <g id="text_12">
     <!-- log10 downloads -->
     <defs>
      <path d="M 45.40625 27.984375 
Q 45.40625 37.75 41.375 43.109375 
Q 37.359375 48.484375 30.078125 48.484375 
Q 22.859375 48.484375 18.828125 43.109375 
Q 14.796875 37.75 14.796875 27.984375 
Q 14.796875 18.265625 18.828125 12.890625 
Q 22.859375 7.515625 30.078125 7.515625 
Q 37.359375 7.515625 41.375 12.890625 
Q 45.40625 18.265625 45.40625 27.984375 
z
M 54.390625 6.78125 
Q 54.390625 -7.171875 48.1875 -13.984375 
Q 42 -20.796875 29.203125 -20.796875 
Q 24.46875 -20.796875 20.265625 -20.09375 
Q 16.0625 -19.390625 12.109375 -17.921875 
L 12.109375 -9.1875 
Q 16.0625 -11.328125 19.921875 -12.34375 
Q 23.78125 -13.375 27.78125 -13.375 
Q 36.625 -13.375 41.015625 -8.765625 
Q 45.40625 -4.15625 45.40625 5.171875 
L 45.40625 9.625 
Q 42.625 4.78125 38.28125 2.390625 
Q 33.9375 0 27.875 0 
Q 17.828125 0 11.671875 7.65625 
Q 5.515625 15.328125 5.515625 27.984375 
Q 5.515625 40.671875 11.671875 48.328125 
Q 17.828125 56 27.875 56 
Q 33.9375 56 38.28125 53.609375 
Q 42.625 51.21875 45.40625 46.390625 
L 45.40625 54.6875 
L 54.390625 54.6875 
z
" id="DejaVuSans-67"/>
      <path id="DejaVuSans-20"/>
      <path d="M 4.203125 54.6875 
L 13.1875 54.6875 
L 24.421875 12.015625 
L 35.59375 54.6875 
L 46.1875 54.6875 
L 57.421875 12.015625 
L 68.609375 54.6875 
L 77.59375 54.6875 
L 63.28125 0 
L 52.6875 0 
L 40.921875 44.828125 
L 29.109375 0 
L 18.5 0 
z
" id="DejaVuSans-77"/>
      <path d="M 34.28125 27.484375 
Q 23.390625 27.484375 19.1875 25 
Q 14.984375 22.515625 14.984375 16.5 
Q 14.984375 11.71875 18.140625 8.90625 
Q 21.296875 6.109375 26.703125 6.109375 
Q 34.1875 6.109375 38.703125 11.40625 
Q 43.21875 16.703125 43.21875 25.484375 
L 43.21875 27.484375 
z
M 52.203125 31.203125 
L 52.203125 0 
L 43.21875 0 
L 43.21875 8.296875 
Q 40.140625 3.328125 35.546875 0.953125 
Q 30.953125 -1.421875 24.3125 -1.421875 
Q 15.921875 -1.421875 10.953125 3.296875 
Q 6 8.015625 6 15.921875 
Q 6 25.140625 12.171875 29.828125 
Q 18.359375 34.515625 30.609375 34.515625 
L 43.21875 34.515625 
L 43.21875 35.40625 
Q 43.21875 41.609375 39.140625 45 
Q 35.0625 48.390625 27.6875 48.390625 
Q 23 48.390625 18.546875 47.265625 
Q 14.109375 46.140625 10.015625 43.890625 
L 10.015625 52.203125 
Q 14.9375 54.109375 19.578125 55.046875 
Q 24.21875 56 28.609375 56 
Q 40.484375 56 46.34375 49.84375 
Q 52.203125 43.703125 52.203125 31.203125 
z
" id="DejaVuSans-61"/>
      <path d="M 44.28125 53.078125 
L 44.28125 44.578125 
Q 40.484375 46.53125 36.375 47.5 
Q 32.28125 48.484375 27.875 48.484375 
Q 21.1875 48.484375 17.84375 46.4375 
Q 14.5 44.390625 14.5 40.28125 
Q 14.5 37.15625 16.890625 35.375 
Q 19.28125 33.59375 26.515625 31.984375 
L 29.59375 31.296875 
Q 39.15625 29.25 43.1875 25.515625 
Q 47.21875 21.78125 47.21875 15.09375 
Q 47.21875 7.46875 41.1875 3.015625 
Q 35.15625 -1.421875 24.609375 -1.421875 
Q 20.21875 -1.421875 15.453125 -0.5625 
Q 10.6875 0.296875 5.421875 2 
L 5.421875 11.28125 
Q 10.40625 8.6875 15.234375 7.390625 
Q 20.0625 6.109375 24.8125 6.109375 
Q 31.15625 6.109375 34.5625 8.28125 
Q 37.984375 10.453125 37.984375 14.40625 
Q 37.984375 18.0625 35.515625 20.015625 
Q 33.0625 21.96875 24.703125 23.78125 
L 21.578125 24.515625 
Q 13.234375 26.265625 9.515625 29.90625 
Q 5.8125 33.546875 5.8125 39.890625 
Q 5.8125 47.609375 11.28125 51.796875 
Q 16.75 56 26.8125 56 
Q 31.78125 56 36.171875 55.265625 
Q 40.578125 54.546875 44.28125 53.078125 
z
" id="DejaVuSans-73"/>
     </defs>
     <g style="fill:#262626;" transform="translate(13.886625 136.546187)rotate(-90)scale(0.088 -0.088)">
      <use xlink:href="#DejaVuSans-6c"/>
      <use x="27.783203" xlink:href="#DejaVuSans-6f"/>
      <use x="88.964844" xlink:href="#DejaVuSans-67"/>
      <use x="152.441406" xlink:href="#DejaVuSans-31"/>
      <use x="216.064453" xlink:href="#DejaVuSans-30"/>
      <use x="279.6875" xlink:href="#DejaVuSans-20"/>
      <use x="311.474609" xlink:href="#DejaVuSans-64"/>
      <use x="374.951172" xlink:href="#DejaVuSans-6f"/>
      <use x="436.132812" xlink:href="#DejaVuSans-77"/>
      <use x="517.919922" xlink:href="#DejaVuSans-6e"/>
      <use x="581.298828" xlink:href="#DejaVuSans-6c"/>
      <use x="609.082031" xlink:href="#DejaVuSans-6f"/>
      <use x="670.263672" xlink:href="#DejaVuSans-61"/>
      <use x="731.542969" xlink:href="#DejaVuSans-64"/>
      <use x="795.019531" xlink:href="#DejaVuSans-73"/>
     </g>
    </g>
   </g>
   <g id="PolyCollection_1">
    <defs>
     <path d="M 66.047949 -46.874826 
L 64.979051 -46.874826 
L 64.816196 -48.029876 
L 64.591863 -49.184926 
L 64.283097 -50.339976 
L 63.862119 -51.495025 
L 63.297429 -52.650075 
L 62.556086 -53.805125 
L 61.607276 -54.960175 
L 60.427073 -56.115225 
L 59.003984 -57.270275 
L 57.344511 -58.425325 
L 55.477703 -59.580374 
L 53.457523 -60.735424 
L 51.362029 -61.890474 
L 49.288747 -63.045524 
L 47.346328 -64.200574 
L 45.643353 -65.355624 
L 44.275875 -66.510674 
L 43.315763 -67.665723 
L 42.801904 -68.820773 
L 42.735932 -69.975823 
L 43.083248 -71.130873 
L 43.779141 -72.285923 
L 44.738761 -73.440973 
L 45.869062 -74.596023 
L 47.08055 -75.751072 
L 48.296903 -76.906122 
L 49.46115 -78.061172 
L 50.537875 -79.216222 
L 51.511756 -80.371272 
L 52.383345 -81.526322 
L 53.163344 -82.681372 
L 53.866676 -83.836421 
L 54.507408 -84.991471 
L 55.095227 -86.146521 
L 55.633721 -87.301571 
L 56.120386 -88.456621 
L 56.547949 -89.611671 
L 56.906524 -90.766721 
L 57.186064 -91.92177 
L 57.378647 -93.07682 
L 57.480283 -94.23187 
L 57.492044 -95.38692 
L 57.420463 -96.54197 
L 57.277247 -97.69702 
L 57.078434 -98.85207 
L 56.843147 -100.007119 
L 56.592142 -101.162169 
L 56.346322 -102.317219 
L 56.12538 -103.472269 
L 55.94668 -104.627319 
L 55.824447 -105.782369 
L 55.769256 -106.937419 
L 55.787795 -108.092469 
L 55.882824 -109.247518 
L 56.053245 -110.402568 
L 56.294266 -111.557618 
L 56.597611 -112.712668 
L 56.951831 -113.867718 
L 57.342777 -115.022768 
L 57.754269 -116.177818 
L 58.169035 -117.332867 
L 58.569864 -118.487917 
L 58.940913 -119.642967 
L 59.269014 -120.798017 
L 59.544809 -121.953067 
L 59.763536 -123.108117 
L 59.925327 -124.263167 
L 60.034954 -125.418216 
L 60.101048 -126.573266 
L 60.134913 -127.728316 
L 60.149122 -128.883366 
L 60.156126 -130.038416 
L 60.167075 -131.193466 
L 60.191007 -132.348516 
L 60.234472 -133.503565 
L 60.301555 -134.658615 
L 60.394189 -135.813665 
L 60.512612 -136.968715 
L 60.655816 -138.123765 
L 60.821883 -139.278815 
L 61.008171 -140.433865 
L 61.211359 -141.588914 
L 61.427456 -142.743964 
L 61.651829 -143.899014 
L 61.879368 -145.054064 
L 62.104798 -146.209114 
L 62.323135 -147.364164 
L 62.530225 -148.519214 
L 62.723253 -149.674263 
L 62.901123 -150.829313 
L 63.064605 -151.984363 
L 63.216192 -153.139413 
L 63.359674 -154.294463 
L 63.499489 -155.449513 
L 63.639952 -156.604563 
L 63.784516 -157.759612 
L 63.935179 -158.914662 
L 64.092167 -160.069712 
L 64.25392 -161.224762 
L 66.77308 -161.224762 
L 66.77308 -161.224762 
L 66.934833 -160.069712 
L 67.091821 -158.914662 
L 67.242484 -157.759612 
L 67.387048 -156.604563 
L 67.527511 -155.449513 
L 67.667326 -154.294463 
L 67.810808 -153.139413 
L 67.962395 -151.984363 
L 68.125877 -150.829313 
L 68.303747 -149.674263 
L 68.496775 -148.519214 
L 68.703865 -147.364164 
L 68.922202 -146.209114 
L 69.147632 -145.054064 
L 69.375171 -143.899014 
L 69.599544 -142.743964 
L 69.815641 -141.588914 
L 70.018829 -140.433865 
L 70.205117 -139.278815 
L 70.371184 -138.123765 
L 70.514388 -136.968715 
L 70.632811 -135.813665 
L 70.725445 -134.658615 
L 70.792528 -133.503565 
L 70.835993 -132.348516 
L 70.859925 -131.193466 
L 70.870874 -130.038416 
L 70.877878 -128.883366 
L 70.892087 -127.728316 
L 70.925952 -126.573266 
L 70.992046 -125.418216 
L 71.101673 -124.263167 
L 71.263464 -123.108117 
L 71.482191 -121.953067 
L 71.757986 -120.798017 
L 72.086087 -119.642967 
L 72.457136 -118.487917 
L 72.857965 -117.332867 
L 73.272731 -116.177818 
L 73.684223 -115.022768 
L 74.075169 -113.867718 
L 74.429389 -112.712668 
L 74.732734 -111.557618 
L 74.973755 -110.402568 
L 75.144176 -109.247518 
L 75.239205 -108.092469 
L 75.257744 -106.937419 
L 75.202553 -105.782369 
L 75.08032 -104.627319 
L 74.90162 -103.472269 
L 74.680678 -102.317219 
L 74.434858 -101.162169 
L 74.183853 -100.007119 
L 73.948566 -98.85207 
L 73.749753 -97.69702 
L 73.606537 -96.54197 
L 73.534956 -95.38692 
L 73.546717 -94.23187 
L 73.648353 -93.07682 
L 73.840936 -91.92177 
L 74.120476 -90.766721 
L 74.479051 -89.611671 
L 74.906614 -88.456621 
L 75.393279 -87.301571 
L 75.931773 -86.146521 
L 76.519592 -84.991471 
L 77.160324 -83.836421 
L 77.863656 -82.681372 
L 78.643655 -81.526322 
L 79.515244 -80.371272 
L 80.489125 -79.216222 
L 81.56585 -78.061172 
L 82.730097 -76.906122 
L 83.94645 -75.751072 
L 85.157938 -74.596023 
L 86.288239 -73.440973 
L 87.247859 -72.285923 
L 87.943752 -71.130873 
L 88.291068 -69.975823 
L 88.225096 -68.820773 
L 87.711237 -67.665723 
L 86.751125 -66.510674 
L 85.383647 -65.355624 
L 83.680672 -64.200574 
L 81.738253 -63.045524 
L 79.664971 -61.890474 
L 77.569477 -60.735424 
L 75.549297 -59.580374 
L 73.682489 -58.425325 
L 72.023016 -57.270275 
L 70.599927 -56.115225 
L 69.419724 -54.960175 
L 68.470914 -53.805125 
L 67.729571 -52.650075 
L 67.164881 -51.495025 
L 66.743903 -50.339976 
L 66.435137 -49.184926 
L 66.210804 -48.029876 
L 66.047949 -46.874826 
z
" id="m94974dc1d9" style="stroke:#2f2f2f;stroke-width:1.4;"/>
    </defs>
    <g clip-path="url(#p418bedc48c)">
     <use style="fill:#166c9c;stroke:#2f2f2f;stroke-width:1.4;" x="0" xlink:href="#m94974dc1d9" y="211.8865"/>
    </g>
   </g>
   <g id="PolyCollection_2">
    <defs>
     <path d="M 124.240696 -42.034468 
L 123.213304 -42.034468 
L 123.103001 -43.408931 
L 122.988167 -44.783393 
L 122.868675 -46.157856 
L 122.740735 -47.532319 
L 122.596258 -48.906781 
L 122.423246 -50.281244 
L 122.207342 -51.655706 
L 121.93435 -53.030169 
L 121.593252 -54.404631 
L 121.179085 -55.779094 
L 120.694986 -57.153557 
L 120.15283 -58.528019 
L 119.572164 -59.902482 
L 118.977463 -61.276944 
L 118.394131 -62.651407 
L 117.844013 -64.025869 
L 117.341345 -65.400332 
L 116.890078 -66.774794 
L 116.483235 -68.149257 
L 116.104614 -69.52372 
L 115.732624 -70.898182 
L 115.345626 -72.272645 
L 114.927727 -73.647107 
L 114.473736 -75.02157 
L 113.991958 -76.396032 
L 113.503727 -77.770495 
L 113.039156 -79.144958 
L 112.629462 -80.51942 
L 112.297171 -81.893883 
L 112.046337 -83.268345 
L 111.855255 -84.642808 
L 111.673969 -86.01727 
L 111.428136 -87.391733 
L 111.02978 -88.766196 
L 110.39415 -90.140658 
L 109.460483 -91.515121 
L 108.212892 -92.889583 
L 106.696396 -94.264046 
L 105.022688 -95.638508 
L 103.361496 -97.012971 
L 101.916577 -98.387434 
L 100.889856 -99.761896 
L 100.4416 -101.136359 
L 100.656914 -102.510821 
L 101.527888 -103.885284 
L 102.956504 -105.259746 
L 104.777257 -106.634209 
L 106.79267 -108.008672 
L 108.811671 -109.383134 
L 110.680975 -110.757597 
L 112.302889 -112.132059 
L 113.637675 -113.506522 
L 114.693016 -114.880984 
L 115.505941 -116.255447 
L 116.123346 -117.62991 
L 116.586309 -119.004372 
L 116.921395 -120.378835 
L 117.139869 -121.753297 
L 117.243545 -123.12776 
L 117.234394 -124.502222 
L 117.1242 -125.876685 
L 116.940728 -127.251148 
L 116.728063 -128.62561 
L 116.540749 -130.000073 
L 116.433459 -131.374535 
L 116.449526 -132.748998 
L 116.611988 -134.12346 
L 116.919893 -135.497923 
L 117.350679 -136.872386 
L 117.867385 -138.246848 
L 118.428099 -139.621311 
L 118.994694 -140.995773 
L 119.538719 -142.370236 
L 120.043574 -143.744698 
L 120.503391 -145.119161 
L 120.91981 -146.493624 
L 121.298074 -147.868086 
L 121.643587 -149.242549 
L 121.95966 -150.617011 
L 122.24666 -151.991474 
L 122.502437 -153.365936 
L 122.72361 -154.740399 
L 122.907213 -156.114862 
L 123.052138 -157.489324 
L 123.159993 -158.863787 
L 123.235145 -160.238249 
L 123.28403 -161.612712 
L 123.313993 -162.987174 
L 123.332055 -164.361637 
L 123.343984 -165.7361 
L 123.353873 -167.110562 
L 123.364239 -168.485025 
L 123.37645 -169.859487 
L 123.391241 -171.23395 
L 123.40909 -172.608412 
L 123.43035 -173.982875 
L 123.455176 -175.357338 
L 123.483364 -176.7318 
L 123.514228 -178.106263 
L 123.939772 -178.106263 
L 123.939772 -178.106263 
L 123.970636 -176.7318 
L 123.998824 -175.357338 
L 124.02365 -173.982875 
L 124.04491 -172.608412 
L 124.062759 -171.23395 
L 124.07755 -169.859487 
L 124.089761 -168.485025 
L 124.100127 -167.110562 
L 124.110016 -165.7361 
L 124.121945 -164.361637 
L 124.140007 -162.987174 
L 124.16997 -161.612712 
L 124.218855 -160.238249 
L 124.294007 -158.863787 
L 124.401862 -157.489324 
L 124.546787 -156.114862 
L 124.73039 -154.740399 
L 124.951563 -153.365936 
L 125.20734 -151.991474 
L 125.49434 -150.617011 
L 125.810413 -149.242549 
L 126.155926 -147.868086 
L 126.53419 -146.493624 
L 126.950609 -145.119161 
L 127.410426 -143.744698 
L 127.915281 -142.370236 
L 128.459306 -140.995773 
L 129.025901 -139.621311 
L 129.586615 -138.246848 
L 130.103321 -136.872386 
L 130.534107 -135.497923 
L 130.842012 -134.12346 
L 131.004474 -132.748998 
L 131.020541 -131.374535 
L 130.913251 -130.000073 
L 130.725937 -128.62561 
L 130.513272 -127.251148 
L 130.3298 -125.876685 
L 130.219606 -124.502222 
L 130.210455 -123.12776 
L 130.314131 -121.753297 
L 130.532605 -120.378835 
L 130.867691 -119.004372 
L 131.330654 -117.62991 
L 131.948059 -116.255447 
L 132.760984 -114.880984 
L 133.816325 -113.506522 
L 135.151111 -112.132059 
L 136.773025 -110.757597 
L 138.642329 -109.383134 
L 140.66133 -108.008672 
L 142.676743 -106.634209 
L 144.497496 -105.259746 
L 145.926112 -103.885284 
L 146.797086 -102.510821 
L 147.0124 -101.136359 
L 146.564144 -99.761896 
L 145.537423 -98.387434 
L 144.092504 -97.012971 
L 142.431312 -95.638508 
L 140.757604 -94.264046 
L 139.241108 -92.889583 
L 137.993517 -91.515121 
L 137.05985 -90.140658 
L 136.42422 -88.766196 
L 136.025864 -87.391733 
L 135.780031 -86.01727 
L 135.598745 -84.642808 
L 135.407663 -83.268345 
L 135.156829 -81.893883 
L 134.824538 -80.51942 
L 134.414844 -79.144958 
L 133.950273 -77.770495 
L 133.462042 -76.396032 
L 132.980264 -75.02157 
L 132.526273 -73.647107 
L 132.108374 -72.272645 
L 131.721376 -70.898182 
L 131.349386 -69.52372 
L 130.970765 -68.149257 
L 130.563922 -66.774794 
L 130.112655 -65.400332 
L 129.609987 -64.025869 
L 129.059869 -62.651407 
L 128.476537 -61.276944 
L 127.881836 -59.902482 
L 127.30117 -58.528019 
L 126.759014 -57.153557 
L 126.274915 -55.779094 
L 125.860748 -54.404631 
L 125.51965 -53.030169 
L 125.246658 -51.655706 
L 125.030754 -50.281244 
L 124.857742 -48.906781 
L 124.713265 -47.532319 
L 124.585325 -46.157856 
L 124.465833 -44.783393 
L 124.350999 -43.408931 
L 124.240696 -42.034468 
z
" id="m739a48541b" style="stroke:#2f2f2f;stroke-width:1.4;"/>
    </defs>
    <g clip-path="url(#p418bedc48c)">
     <use style="fill:#148a6a;stroke:#2f2f2f;stroke-width:1.4;" x="0" xlink:href="#m739a48541b" y="211.8865"/>
    </g>
   </g>
   <g id="PolyCollection_3">
    <defs>
     <path d="M 182.168563 -33.759822 
L 181.712437 -33.759822 
L 181.688931 -35.146832 
L 181.664821 -36.533842 
L 181.63812 -37.920852 
L 181.606304 -39.307861 
L 181.566482 -40.694871 
L 181.515483 -42.081881 
L 181.449805 -43.468891 
L 181.365443 -44.855901 
L 181.257681 -46.242911 
L 181.12098 -47.62992 
L 180.949107 -49.01693 
L 180.735611 -50.40394 
L 180.474658 -51.79095 
L 180.162103 -53.17796 
L 179.796516 -54.56497 
L 179.379832 -55.95198 
L 178.917273 -57.338989 
L 178.416408 -58.725999 
L 177.885457 -60.113009 
L 177.331295 -61.500019 
L 176.75779 -62.887029 
L 176.165115 -64.274039 
L 175.550399 -65.661048 
L 174.909628 -67.048058 
L 174.240241 -68.435068 
L 173.543586 -69.822078 
L 172.82639 -71.209088 
L 172.10073 -72.596098 
L 171.382492 -73.983108 
L 170.688791 -75.370117 
L 170.035157 -76.757127 
L 169.433307 -78.144137 
L 168.890044 -79.531147 
L 168.407463 -80.918157 
L 167.98418 -82.305167 
L 167.617055 -83.692176 
L 167.302814 -85.079186 
L 167.03914 -86.466196 
L 166.825068 -87.853206 
L 166.66079 -89.240216 
L 166.547162 -90.627226 
L 166.485239 -92.014235 
L 166.476065 -93.401245 
L 166.520768 -94.788255 
L 166.620875 -96.175265 
L 166.778616 -97.562275 
L 166.996975 -98.949285 
L 167.279294 -100.336295 
L 167.628374 -101.723304 
L 168.045115 -103.110314 
L 168.526973 -104.497324 
L 169.066547 -105.884334 
L 169.650715 -107.271344 
L 170.260666 -108.658354 
L 170.87301 -110.045363 
L 171.461931 -111.432373 
L 172.002084 -112.819383 
L 172.471715 -114.206393 
L 172.855445 -115.593403 
L 173.146175 -116.980413 
L 173.345843 -118.367423 
L 173.464985 -119.754432 
L 173.521294 -121.141442 
L 173.537479 -122.528452 
L 173.538685 -123.915462 
L 173.549682 -125.302472 
L 173.591977 -126.689482 
L 173.681109 -128.076491 
L 173.824529 -129.463501 
L 174.020594 -130.850511 
L 174.259196 -132.237521 
L 174.524194 -133.624531 
L 174.797341 -135.011541 
L 175.06282 -136.39855 
L 175.311214 -137.78556 
L 175.541748 -139.17257 
L 175.762176 -140.55958 
L 175.986384 -141.94659 
L 176.230476 -143.3336 
L 176.508554 -144.72061 
L 176.829343 -146.107619 
L 177.194452 -147.494629 
L 177.598439 -148.881639 
L 178.030325 -150.268649 
L 178.475878 -151.655659 
L 178.919952 -153.042669 
L 179.348394 -154.429678 
L 179.749275 -155.816688 
L 180.113527 -157.203698 
L 180.435122 -158.590708 
L 180.711033 -159.977718 
L 180.94104 -161.364728 
L 181.127461 -162.751738 
L 181.274738 -164.138747 
L 181.388871 -165.525757 
L 181.476703 -166.912767 
L 181.545141 -168.299777 
L 181.600411 -169.686787 
L 181.647491 -171.073797 
L 182.233509 -171.073797 
L 182.233509 -171.073797 
L 182.280589 -169.686787 
L 182.335859 -168.299777 
L 182.404297 -166.912767 
L 182.492129 -165.525757 
L 182.606262 -164.138747 
L 182.753539 -162.751738 
L 182.93996 -161.364728 
L 183.169967 -159.977718 
L 183.445878 -158.590708 
L 183.767473 -157.203698 
L 184.131725 -155.816688 
L 184.532606 -154.429678 
L 184.961048 -153.042669 
L 185.405122 -151.655659 
L 185.850675 -150.268649 
L 186.282561 -148.881639 
L 186.686548 -147.494629 
L 187.051657 -146.107619 
L 187.372446 -144.72061 
L 187.650524 -143.3336 
L 187.894616 -141.94659 
L 188.118824 -140.55958 
L 188.339252 -139.17257 
L 188.569786 -137.78556 
L 188.81818 -136.39855 
L 189.083659 -135.011541 
L 189.356806 -133.624531 
L 189.621804 -132.237521 
L 189.860406 -130.850511 
L 190.056471 -129.463501 
L 190.199891 -128.076491 
L 190.289023 -126.689482 
L 190.331318 -125.302472 
L 190.342315 -123.915462 
L 190.343521 -122.528452 
L 190.359706 -121.141442 
L 190.416015 -119.754432 
L 190.535157 -118.367423 
L 190.734825 -116.980413 
L 191.025555 -115.593403 
L 191.409285 -114.206393 
L 191.878916 -112.819383 
L 192.419069 -111.432373 
L 193.00799 -110.045363 
L 193.620334 -108.658354 
L 194.230285 -107.271344 
L 194.814453 -105.884334 
L 195.354027 -104.497324 
L 195.835885 -103.110314 
L 196.252626 -101.723304 
L 196.601706 -100.336295 
L 196.884025 -98.949285 
L 197.102384 -97.562275 
L 197.260125 -96.175265 
L 197.360232 -94.788255 
L 197.404935 -93.401245 
L 197.395761 -92.014235 
L 197.333838 -90.627226 
L 197.22021 -89.240216 
L 197.055932 -87.853206 
L 196.84186 -86.466196 
L 196.578186 -85.079186 
L 196.263945 -83.692176 
L 195.89682 -82.305167 
L 195.473537 -80.918157 
L 194.990956 -79.531147 
L 194.447693 -78.144137 
L 193.845843 -76.757127 
L 193.192209 -75.370117 
L 192.498508 -73.983108 
L 191.78027 -72.596098 
L 191.05461 -71.209088 
L 190.337414 -69.822078 
L 189.640759 -68.435068 
L 188.971372 -67.048058 
L 188.330601 -65.661048 
L 187.715885 -64.274039 
L 187.12321 -62.887029 
L 186.549705 -61.500019 
L 185.995543 -60.113009 
L 185.464592 -58.725999 
L 184.963727 -57.338989 
L 184.501168 -55.95198 
L 184.084484 -54.56497 
L 183.718897 -53.17796 
L 183.406342 -51.79095 
L 183.145389 -50.40394 
L 182.931893 -49.01693 
L 182.76002 -47.62992 
L 182.623319 -46.242911 
L 182.515557 -44.855901 
L 182.431195 -43.468891 
L 182.365517 -42.081881 
L 182.314518 -40.694871 
L 182.274696 -39.307861 
L 182.24288 -37.920852 
L 182.216179 -36.533842 
L 182.192069 -35.146832 
L 182.168563 -33.759822 
z
" id="m3769ef7f02" style="stroke:#2f2f2f;stroke-width:1.4;"/>
    </defs>
    <g clip-path="url(#p418bedc48c)">
     <use style="fill:#ba611b;stroke:#2f2f2f;stroke-width:1.4;" x="0" xlink:href="#m3769ef7f02" y="211.8865"/>
    </g>
   </g>
   <g id="PolyCollection_4">
    <defs>
     <path d="M 241.740223 -50.309114 
L 238.567777 -50.309114 
L 238.128149 -51.474605 
L 237.614386 -52.640096 
L 237.030481 -53.805587 
L 236.386027 -54.971077 
L 235.6964 -56.136568 
L 234.982252 -57.302059 
L 234.268259 -58.46755 
L 233.581216 -59.63304 
L 232.947686 -60.798531 
L 232.391496 -61.964022 
L 231.931463 -63.129513 
L 231.579661 -64.295003 
L 231.340492 -65.460494 
L 231.210684 -66.625985 
L 231.180161 -67.791476 
L 231.233616 -68.956966 
L 231.352507 -70.122457 
L 231.517139 -71.287948 
L 231.708535 -72.453438 
L 231.90985 -73.618929 
L 232.107188 -74.78442 
L 232.289802 -75.949911 
L 232.449733 -77.115401 
L 232.581056 -78.280892 
L 232.678909 -79.446383 
L 232.738548 -80.611874 
L 232.754593 -81.777364 
L 232.720667 -82.942855 
L 232.629493 -84.108346 
L 232.473509 -85.273837 
L 232.245911 -86.439327 
L 231.942016 -87.604818 
L 231.560715 -88.770309 
L 231.105783 -89.9358 
L 230.586781 -91.10129 
L 230.019351 -92.266781 
L 229.424751 -93.432272 
L 228.828611 -94.597763 
L 228.259011 -95.763253 
L 227.744095 -96.928744 
L 227.309517 -98.094235 
L 226.976083 -99.259725 
L 226.757903 -100.425216 
L 226.661304 -101.590707 
L 226.684635 -102.756198 
L 226.818945 -103.921688 
L 227.049381 -105.087179 
L 227.357048 -106.25267 
L 227.721015 -107.418161 
L 228.120178 -108.583651 
L 228.534717 -109.749142 
L 228.947009 -110.914633 
L 229.341965 -112.080124 
L 229.706846 -113.245614 
L 230.030723 -114.411105 
L 230.303779 -115.576596 
L 230.516656 -116.742087 
L 230.660072 -117.907577 
L 230.724837 -119.073068 
L 230.702373 -120.238559 
L 230.585735 -121.40405 
L 230.371054 -122.56954 
L 230.059192 -123.735031 
L 229.65736 -124.900522 
L 229.180344 -126.066012 
L 228.651033 -127.231503 
L 228.099959 -128.396994 
L 227.563735 -129.562485 
L 227.082455 -130.727975 
L 226.696295 -131.893466 
L 226.441773 -133.058957 
L 226.3482 -134.224448 
L 226.434843 -135.389938 
L 226.709227 -136.555429 
L 227.166783 -137.72092 
L 227.79182 -138.886411 
L 228.559579 -140.051901 
L 229.438978 -141.217392 
L 230.395591 -142.382883 
L 231.394473 -143.548374 
L 232.402517 -144.713864 
L 233.390206 -145.879355 
L 234.332738 -147.044846 
L 235.210603 -148.210337 
L 236.009718 -149.375827 
L 236.721264 -150.541318 
L 237.341295 -151.706809 
L 237.870187 -152.872299 
L 238.311962 -154.03779 
L 238.673519 -155.203281 
L 238.963794 -156.368772 
L 239.192903 -157.534262 
L 239.371335 -158.699753 
L 239.509239 -159.865244 
L 239.615861 -161.030735 
L 239.699167 -162.196225 
L 239.765649 -163.361716 
L 239.820298 -164.527207 
L 239.866719 -165.692698 
L 240.441281 -165.692698 
L 240.441281 -165.692698 
L 240.487702 -164.527207 
L 240.542351 -163.361716 
L 240.608833 -162.196225 
L 240.692139 -161.030735 
L 240.798761 -159.865244 
L 240.936665 -158.699753 
L 241.115097 -157.534262 
L 241.344206 -156.368772 
L 241.634481 -155.203281 
L 241.996038 -154.03779 
L 242.437813 -152.872299 
L 242.966705 -151.706809 
L 243.586736 -150.541318 
L 244.298282 -149.375827 
L 245.097397 -148.210337 
L 245.975262 -147.044846 
L 246.917794 -145.879355 
L 247.905483 -144.713864 
L 248.913527 -143.548374 
L 249.912409 -142.382883 
L 250.869022 -141.217392 
L 251.748421 -140.051901 
L 252.51618 -138.886411 
L 253.141217 -137.72092 
L 253.598773 -136.555429 
L 253.873157 -135.389938 
L 253.9598 -134.224448 
L 253.866227 -133.058957 
L 253.611705 -131.893466 
L 253.225545 -130.727975 
L 252.744265 -129.562485 
L 252.208041 -128.396994 
L 251.656967 -127.231503 
L 251.127656 -126.066012 
L 250.65064 -124.900522 
L 250.248808 -123.735031 
L 249.936946 -122.56954 
L 249.722265 -121.40405 
L 249.605627 -120.238559 
L 249.583163 -119.073068 
L 249.647928 -117.907577 
L 249.791344 -116.742087 
L 250.004221 -115.576596 
L 250.277277 -114.411105 
L 250.601154 -113.245614 
L 250.966035 -112.080124 
L 251.360991 -110.914633 
L 251.773283 -109.749142 
L 252.187822 -108.583651 
L 252.586985 -107.418161 
L 252.950952 -106.25267 
L 253.258619 -105.087179 
L 253.489055 -103.921688 
L 253.623365 -102.756198 
L 253.646696 -101.590707 
L 253.550097 -100.425216 
L 253.331917 -99.259725 
L 252.998483 -98.094235 
L 252.563905 -96.928744 
L 252.048989 -95.763253 
L 251.479389 -94.597763 
L 250.883249 -93.432272 
L 250.288649 -92.266781 
L 249.721219 -91.10129 
L 249.202217 -89.9358 
L 248.747285 -88.770309 
L 248.365984 -87.604818 
L 248.062089 -86.439327 
L 247.834491 -85.273837 
L 247.678507 -84.108346 
L 247.587333 -82.942855 
L 247.553407 -81.777364 
L 247.569452 -80.611874 
L 247.629091 -79.446383 
L 247.726944 -78.280892 
L 247.858267 -77.115401 
L 248.018198 -75.949911 
L 248.200812 -74.78442 
L 248.39815 -73.618929 
L 248.599465 -72.453438 
L 248.790861 -71.287948 
L 248.955493 -70.122457 
L 249.074384 -68.956966 
L 249.127839 -67.791476 
L 249.097316 -66.625985 
L 248.967508 -65.460494 
L 248.728339 -64.295003 
L 248.376537 -63.129513 
L 247.916504 -61.964022 
L 247.360314 -60.798531 
L 246.726784 -59.63304 
L 246.039741 -58.46755 
L 245.325748 -57.302059 
L 244.6116 -56.136568 
L 243.921973 -54.971077 
L 243.277519 -53.805587 
L 242.693614 -52.640096 
L 242.179851 -51.474605 
L 241.740223 -50.309114 
z
" id="me9cd591816" style="stroke:#2f2f2f;stroke-width:1.4;"/>
    </defs>
    <g clip-path="url(#p418bedc48c)">
     <use style="fill:#c283a6;stroke:#2f2f2f;stroke-width:1.4;" x="0" xlink:href="#me9cd591816" y="211.8865"/>
    </g>
   </g>
   <g id="line2d_12">
    <path clip-path="url(#p418bedc48c)" d="M 65.5135 165.011674 
L 65.5135 50.661738 
" style="fill:none;stroke:#2f2f2f;stroke-linecap:round;stroke-width:1.4;"/>
   </g>
   <g id="line2d_13">
    <path clip-path="url(#p418bedc48c)" d="M 65.5135 142.976581 
L 65.5135 100.773841 
" style="fill:none;stroke:#2f2f2f;stroke-linecap:round;stroke-width:4.2;"/>
   </g>
   <g id="line2d_14">
    <path clip-path="url(#p418bedc48c)" d="M 123.727 169.852032 
L 123.727 58.415523 
" style="fill:none;stroke:#2f2f2f;stroke-linecap:round;stroke-width:1.4;"/>
   </g>
   <g id="line2d_15">
    <path clip-path="url(#p418bedc48c)" d="M 123.727 128.293715 
L 123.727 100.32008 
" style="fill:none;stroke:#2f2f2f;stroke-linecap:round;stroke-width:4.2;"/>
   </g>
   <g id="line2d_16">
    <path clip-path="url(#p418bedc48c)" d="M 181.9405 178.126678 
L 181.9405 40.812703 
" style="fill:none;stroke:#2f2f2f;stroke-linecap:round;stroke-width:1.4;"/>
   </g>
   <g id="line2d_17">
    <path clip-path="url(#p418bedc48c)" d="M 181.9405 129.051925 
L 181.9405 91.847021 
" style="fill:none;stroke:#2f2f2f;stroke-linecap:round;stroke-width:4.2;"/>
   </g>
   <g id="line2d_18">
    <path clip-path="url(#p418bedc48c)" d="M 240.154 161.577386 
L 240.154 46.193802 
" style="fill:none;stroke:#2f2f2f;stroke-linecap:round;stroke-width:1.4;"/>
   </g>
   <g id="line2d_19">
    <path clip-path="url(#p418bedc48c)" d="M 240.154 128.298044 
L 240.154 78.470658 
" style="fill:none;stroke:#2f2f2f;stroke-linecap:round;stroke-width:4.2;"/>
   </g>
   <g id="patch_3">
    <path d="M 36.40675 185.344 
L 36.40675 13.2 
" style="fill:none;stroke:#262626;stroke-linecap:square;stroke-linejoin:miter;stroke-width:1.25;"/>
   </g>
   <g id="patch_4">
    <path d="M 36.40675 185.344 
L 269.26075 185.344 
" style="fill:none;stroke:#262626;stroke-linecap:square;stroke-linejoin:miter;stroke-width:1.25;"/>
   </g>
   <g id="PathCollection_1">
    <defs>
     <path d="M 0 1.4 
C 0.371284 1.4 0.727412 1.252487 0.989949 0.989949 
C 1.252487 0.727412 1.4 0.371284 1.4 0 
C 1.4 -0.371284 1.252487 -0.727412 0.989949 -0.989949 
C 0.727412 -1.252487 0.371284 -1.4 0 -1.4 
C -0.371284 -1.4 -0.727412 -1.252487 -0.989949 -0.989949 
C -1.252487 -0.727412 -1.4 -0.371284 -1.4 0 
C -1.4 0.371284 -1.252487 0.727412 -0.989949 0.989949 
C -0.727412 1.252487 -0.371284 1.4 0 1.4 
z
" id="m021579426d" style="stroke:#2f2f2f;stroke-width:0.24;"/>
    </defs>
    <g clip-path="url(#p418bedc48c)">
     <use style="fill:#ffffff;stroke:#2f2f2f;stroke-width:0.24;" x="65.5135" xlink:href="#m021579426d" y="128.111455"/>
    </g>
   </g>
   <g id="PathCollection_2">
    <g clip-path="url(#p418bedc48c)">
     <use style="fill:#ffffff;stroke:#2f2f2f;stroke-width:0.24;" x="123.727" xlink:href="#m021579426d" y="111.293887"/>
    </g>
   </g>
   <g id="PathCollection_3">
    <g clip-path="url(#p418bedc48c)">
     <use style="fill:#ffffff;stroke:#2f2f2f;stroke-width:0.24;" x="181.9405" xlink:href="#m021579426d" y="113.260154"/>
    </g>
   </g>
   <g id="PathCollection_4">
    <g clip-path="url(#p418bedc48c)">
     <use style="fill:#ffffff;stroke:#2f2f2f;stroke-width:0.24;" x="240.154" xlink:href="#m021579426d" y="106.737126"/>
    </g>
   </g>
   <g id="text_13">
    <!-- Total downloads: 5,935,767 -->
    <defs>
     <path d="M -0.296875 72.90625 
L 61.375 72.90625 
L 61.375 64.59375 
L 35.5 64.59375 
L 35.5 0 
L 25.59375 0 
L 25.59375 64.59375 
L -0.296875 64.59375 
z
" id="DejaVuSans-54"/>
     <path d="M 11.71875 12.40625 
L 22.015625 12.40625 
L 22.015625 0 
L 11.71875 0 
z
M 11.71875 51.703125 
L 22.015625 51.703125 
L 22.015625 39.3125 
L 11.71875 39.3125 
z
" id="DejaVuSans-3a"/>
     <path d="M 11.71875 12.40625 
L 22.015625 12.40625 
L 22.015625 4 
L 14.015625 -11.625 
L 7.71875 -11.625 
L 11.71875 4 
z
" id="DejaVuSans-2c"/>
     <path d="M 10.984375 1.515625 
L 10.984375 10.5 
Q 14.703125 8.734375 18.5 7.8125 
Q 22.3125 6.890625 25.984375 6.890625 
Q 35.75 6.890625 40.890625 13.453125 
Q 46.046875 20.015625 46.78125 33.40625 
Q 43.953125 29.203125 39.59375 26.953125 
Q 35.25 24.703125 29.984375 24.703125 
Q 19.046875 24.703125 12.671875 31.3125 
Q 6.296875 37.9375 6.296875 49.421875 
Q 6.296875 60.640625 12.9375 67.421875 
Q 19.578125 74.21875 30.609375 74.21875 
Q 43.265625 74.21875 49.921875 64.515625 
Q 56.59375 54.828125 56.59375 36.375 
Q 56.59375 19.140625 48.40625 8.859375 
Q 40.234375 -1.421875 26.421875 -1.421875 
Q 22.703125 -1.421875 18.890625 -0.6875 
Q 15.09375 0.046875 10.984375 1.515625 
z
M 30.609375 32.421875 
Q 37.25 32.421875 41.125 36.953125 
Q 45.015625 41.5 45.015625 49.421875 
Q 45.015625 57.28125 41.125 61.84375 
Q 37.25 66.40625 30.609375 66.40625 
Q 23.96875 66.40625 20.09375 61.84375 
Q 16.21875 57.28125 16.21875 49.421875 
Q 16.21875 41.5 20.09375 36.953125 
Q 23.96875 32.421875 30.609375 32.421875 
z
" id="DejaVuSans-39"/>
     <path d="M 8.203125 72.90625 
L 55.078125 72.90625 
L 55.078125 68.703125 
L 28.609375 0 
L 18.3125 0 
L 43.21875 64.59375 
L 8.203125 64.59375 
z
" id="DejaVuSans-37"/>
    </defs>
    <g style="fill:#262626;" transform="translate(86.0125 20.4945)scale(0.096 -0.096)">
     <use xlink:href="#DejaVuSans-54"/>
     <use x="60.818359" xlink:href="#DejaVuSans-6f"/>
     <use x="122" xlink:href="#DejaVuSans-74"/>
     <use x="161.208984" xlink:href="#DejaVuSans-61"/>
     <use x="222.488281" xlink:href="#DejaVuSans-6c"/>
     <use x="250.271484" xlink:href="#DejaVuSans-20"/>
     <use x="282.058594" xlink:href="#DejaVuSans-64"/>
     <use x="345.535156" xlink:href="#DejaVuSans-6f"/>
     <use x="406.716797" xlink:href="#DejaVuSans-77"/>
     <use x="488.503906" xlink:href="#DejaVuSans-6e"/>
     <use x="551.882812" xlink:href="#DejaVuSans-6c"/>
     <use x="579.666016" xlink:href="#DejaVuSans-6f"/>
     <use x="640.847656" xlink:href="#DejaVuSans-61"/>
     <use x="702.126953" xlink:href="#DejaVuSans-64"/>
     <use x="765.603516" xlink:href="#DejaVuSans-73"/>
     <use x="817.703125" xlink:href="#DejaVuSans-3a"/>
     <use x="851.394531" xlink:href="#DejaVuSans-20"/>
     <use x="883.181641" xlink:href="#DejaVuSans-35"/>
     <use x="946.804688" xlink:href="#DejaVuSans-2c"/>
     <use x="978.591797" xlink:href="#DejaVuSans-39"/>
     <use x="1042.214844" xlink:href="#DejaVuSans-33"/>
     <use x="1105.837891" xlink:href="#DejaVuSans-35"/>
     <use x="1169.460938" xlink:href="#DejaVuSans-2c"/>
     <use x="1201.248047" xlink:href="#DejaVuSans-37"/>
     <use x="1264.871094" xlink:href="#DejaVuSans-36"/>
     <use x="1328.494141" xlink:href="#DejaVuSans-37"/>
    </g>
   </g>
  </g>
 </g>
 <defs>
  <clipPath id="p418bedc48c">
   <rect height="172.144" width="232.854" x="36.40675" y="13.2"/>
  </clipPath>
 </defs>
</svg>
