<?xml version="1.0" encoding="utf-8" standalone="no"?>
<!DOCTYPE svg PUBLIC "-//W3C//DTD SVG 1.1//EN"
  "http://www.w3.org/Graphics/SVG/1.1/DTD/svg11.dtd">
<!-- Created with matplotlib (http://matplotlib.org/) -->
<svg height="162pt" version="1.1" viewBox="0 0 271 162" width="271pt" xmlns="http://www.w3.org/2000/svg" xmlns:xlink="http://www.w3.org/1999/xlink">
 <defs>
  <style type="text/css">
*{stroke-linecap:butt;stroke-linejoin:round;}
  </style>
 </defs>
 <g id="figure_1">
  <g id="patch_1">
   <path d="M 0 162.337875 
L 271.825875 162.337875 
L 271.825875 0 
L 0 0 
z
" style="fill:#ffffff;"/>
  </g>
  <g id="axes_1">
   <g id="patch_2">
    <path d="M 35.425875 124.08 
L 258.625875 124.08 
L 258.625875 13.2 
L 35.425875 13.2 
z
" style="fill:#ffffff;"/>
   </g>
   <g id="matplotlib.axis_1">
    <g id="xtick_1">
     <g id="line2d_1">
      <defs>
       <path d="M 0 0 
L 0 6 
" id="meac25677f1" style="stroke:#262626;stroke-width:0.8;"/>
      </defs>
      <g>
       <use style="fill:#262626;stroke:#262626;stroke-width:0.8;" x="63.325875" xlink:href="#meac25677f1" y="124.08"/>
      </g>
     </g>
     <g id="text_1">
      <!-- Other -->
      <defs>
       <path d="M 4.828125 34.859375 
Q 4.828125 52.6875 14.390625 62.765625 
Q 23.96875 72.859375 39.109375 72.859375 
Q 49.03125 72.859375 56.984375 68.109375 
Q 64.9375 63.375 69.109375 54.90625 
Q 73.296875 46.4375 73.296875 35.6875 
Q 73.296875 24.8125 68.890625 16.21875 
Q 64.5 7.625 56.4375 3.203125 
Q 48.390625 -1.21875 39.0625 -1.21875 
Q 28.953125 -1.21875 20.984375 3.65625 
Q 13.03125 8.546875 8.921875 16.984375 
Q 4.828125 25.4375 4.828125 34.859375 
z
M 14.59375 34.71875 
Q 14.59375 21.78125 21.546875 14.328125 
Q 28.515625 6.890625 39.015625 6.890625 
Q 49.703125 6.890625 56.609375 14.40625 
Q 63.53125 21.921875 63.53125 35.75 
Q 63.53125 44.484375 60.578125 51 
Q 57.625 57.515625 51.921875 61.109375 
Q 46.234375 64.703125 39.15625 64.703125 
Q 29.109375 64.703125 21.84375 57.78125 
Q 14.59375 50.875 14.59375 34.71875 
z
" id="ArialMT-4f"/>
       <path d="M 25.78125 7.859375 
L 27.046875 0.09375 
Q 23.34375 -0.6875 20.40625 -0.6875 
Q 15.625 -0.6875 12.984375 0.828125 
Q 10.359375 2.34375 9.28125 4.8125 
Q 8.203125 7.28125 8.203125 15.1875 
L 8.203125 45.015625 
L 1.765625 45.015625 
L 1.765625 51.859375 
L 8.203125 51.859375 
L 8.203125 64.703125 
L 16.9375 69.96875 
L 16.9375 51.859375 
L 25.78125 51.859375 
L 25.78125 45.015625 
L 16.9375 45.015625 
L 16.9375 14.703125 
Q 16.9375 10.9375 17.40625 9.859375 
Q 17.875 8.796875 18.921875 8.15625 
Q 19.96875 7.515625 21.921875 7.515625 
Q 23.390625 7.515625 25.78125 7.859375 
z
" id="ArialMT-74"/>
       <path d="M 6.59375 0 
L 6.59375 71.578125 
L 15.375 71.578125 
L 15.375 45.90625 
Q 21.53125 53.03125 30.90625 53.03125 
Q 36.671875 53.03125 40.921875 50.75 
Q 45.171875 48.484375 47 44.484375 
Q 48.828125 40.484375 48.828125 32.859375 
L 48.828125 0 
L 40.046875 0 
L 40.046875 32.859375 
Q 40.046875 39.453125 37.1875 42.453125 
Q 34.328125 45.453125 29.109375 45.453125 
Q 25.203125 45.453125 21.75 43.421875 
Q 18.3125 41.40625 16.84375 37.9375 
Q 15.375 34.46875 15.375 28.375 
L 15.375 0 
z
" id="ArialMT-68"/>
       <path d="M 42.09375 16.703125 
L 51.171875 15.578125 
Q 49.03125 7.625 43.21875 3.21875 
Q 37.40625 -1.171875 28.375 -1.171875 
Q 17 -1.171875 10.328125 5.828125 
Q 3.65625 12.84375 3.65625 25.484375 
Q 3.65625 38.578125 10.390625 45.796875 
Q 17.140625 53.03125 27.875 53.03125 
Q 38.28125 53.03125 44.875 45.953125 
Q 51.46875 38.875 51.46875 26.03125 
Q 51.46875 25.25 51.421875 23.6875 
L 12.75 23.6875 
Q 13.234375 15.140625 17.578125 10.59375 
Q 21.921875 6.0625 28.421875 6.0625 
Q 33.25 6.0625 36.671875 8.59375 
Q 40.09375 11.140625 42.09375 16.703125 
z
M 13.234375 30.90625 
L 42.1875 30.90625 
Q 41.609375 37.453125 38.875 40.71875 
Q 34.671875 45.796875 27.984375 45.796875 
Q 21.921875 45.796875 17.796875 41.75 
Q 13.671875 37.703125 13.234375 30.90625 
z
" id="ArialMT-65"/>
       <path d="M 6.5 0 
L 6.5 51.859375 
L 14.40625 51.859375 
L 14.40625 44 
Q 17.4375 49.515625 20 51.265625 
Q 22.5625 53.03125 25.640625 53.03125 
Q 30.078125 53.03125 34.671875 50.203125 
L 31.640625 42.046875 
Q 28.421875 43.953125 25.203125 43.953125 
Q 22.3125 43.953125 20.015625 42.21875 
Q 17.71875 40.484375 16.75 37.40625 
Q 15.28125 32.71875 15.28125 27.15625 
L 15.28125 0 
z
" id="ArialMT-72"/>
      </defs>
      <g style="fill:#262626;" transform="translate(53.32275 141.40625)scale(0.08 -0.08)">
       <use xlink:href="#ArialMT-4f"/>
       <use x="77.783203" xlink:href="#ArialMT-74"/>
       <use x="105.566406" xlink:href="#ArialMT-68"/>
       <use x="161.181641" xlink:href="#ArialMT-65"/>
       <use x="216.796875" xlink:href="#ArialMT-72"/>
      </g>
     </g>
    </g>
    <g id="xtick_2">
     <g id="line2d_2">
      <g>
       <use style="fill:#262626;stroke:#262626;stroke-width:0.8;" x="119.125875" xlink:href="#meac25677f1" y="124.08"/>
      </g>
     </g>
     <g id="text_2">
      <!-- Python -->
      <defs>
       <path d="M 7.71875 0 
L 7.71875 71.578125 
L 34.71875 71.578125 
Q 41.84375 71.578125 45.609375 70.90625 
Q 50.875 70.015625 54.4375 67.546875 
Q 58.015625 65.09375 60.1875 60.640625 
Q 62.359375 56.203125 62.359375 50.875 
Q 62.359375 41.75 56.546875 35.421875 
Q 50.734375 29.109375 35.546875 29.109375 
L 17.1875 29.109375 
L 17.1875 0 
z
M 17.1875 37.546875 
L 35.6875 37.546875 
Q 44.875 37.546875 48.734375 40.96875 
Q 52.59375 44.390625 52.59375 50.59375 
Q 52.59375 55.078125 50.3125 58.265625 
Q 48.046875 61.46875 44.34375 62.5 
Q 41.9375 63.140625 35.5 63.140625 
L 17.1875 63.140625 
z
" id="ArialMT-50"/>
       <path d="M 6.203125 -19.96875 
L 5.21875 -11.71875 
Q 8.109375 -12.5 10.25 -12.5 
Q 13.1875 -12.5 14.9375 -11.515625 
Q 16.703125 -10.546875 17.828125 -8.796875 
Q 18.65625 -7.46875 20.515625 -2.25 
Q 20.75 -1.515625 21.296875 -0.09375 
L 1.609375 51.859375 
L 11.078125 51.859375 
L 21.875 21.828125 
Q 23.96875 16.109375 25.640625 9.8125 
Q 27.15625 15.875 29.25 21.625 
L 40.328125 51.859375 
L 49.125 51.859375 
L 29.390625 -0.875 
Q 26.21875 -9.421875 24.46875 -12.640625 
Q 22.125 -17 19.09375 -19.015625 
Q 16.0625 -21.046875 11.859375 -21.046875 
Q 9.328125 -21.046875 6.203125 -19.96875 
z
" id="ArialMT-79"/>
       <path d="M 3.328125 25.921875 
Q 3.328125 40.328125 11.328125 47.265625 
Q 18.015625 53.03125 27.640625 53.03125 
Q 38.328125 53.03125 45.109375 46.015625 
Q 51.90625 39.015625 51.90625 26.65625 
Q 51.90625 16.65625 48.90625 10.90625 
Q 45.90625 5.171875 40.15625 2 
Q 34.421875 -1.171875 27.640625 -1.171875 
Q 16.75 -1.171875 10.03125 5.8125 
Q 3.328125 12.796875 3.328125 25.921875 
z
M 12.359375 25.921875 
Q 12.359375 15.96875 16.703125 11.015625 
Q 21.046875 6.0625 27.640625 6.0625 
Q 34.1875 6.0625 38.53125 11.03125 
Q 42.875 16.015625 42.875 26.21875 
Q 42.875 35.84375 38.5 40.796875 
Q 34.125 45.75 27.640625 45.75 
Q 21.046875 45.75 16.703125 40.8125 
Q 12.359375 35.890625 12.359375 25.921875 
z
" id="ArialMT-6f"/>
       <path d="M 6.59375 0 
L 6.59375 51.859375 
L 14.5 51.859375 
L 14.5 44.484375 
Q 20.21875 53.03125 31 53.03125 
Q 35.6875 53.03125 39.625 51.34375 
Q 43.5625 49.65625 45.515625 46.921875 
Q 47.46875 44.1875 48.25 40.4375 
Q 48.734375 37.984375 48.734375 31.890625 
L 48.734375 0 
L 39.9375 0 
L 39.9375 31.546875 
Q 39.9375 36.921875 38.90625 39.578125 
Q 37.890625 42.234375 35.28125 43.8125 
Q 32.671875 45.40625 29.15625 45.40625 
Q 23.53125 45.40625 19.453125 41.84375 
Q 15.375 38.28125 15.375 28.328125 
L 15.375 0 
z
" id="ArialMT-6e"/>
      </defs>
      <g style="fill:#262626;" transform="translate(106.673375 141.40625)scale(0.08 -0.08)">
       <use xlink:href="#ArialMT-50"/>
       <use x="66.699219" xlink:href="#ArialMT-79"/>
       <use x="116.699219" xlink:href="#ArialMT-74"/>
       <use x="144.482422" xlink:href="#ArialMT-68"/>
       <use x="200.097656" xlink:href="#ArialMT-6f"/>
       <use x="255.712891" xlink:href="#ArialMT-6e"/>
      </g>
     </g>
    </g>
    <g id="xtick_3">
     <g id="line2d_3">
      <g>
       <use style="fill:#262626;stroke:#262626;stroke-width:0.8;" x="174.925875" xlink:href="#meac25677f1" y="124.08"/>
      </g>
     </g>
     <g id="text_3">
      <!-- Perl -->
      <defs>
       <path d="M 6.390625 0 
L 6.390625 71.578125 
L 15.1875 71.578125 
L 15.1875 0 
z
" id="ArialMT-6c"/>
      </defs>
      <g style="fill:#262626;" transform="translate(167.81275 141.40625)scale(0.08 -0.08)">
       <use xlink:href="#ArialMT-50"/>
       <use x="66.699219" xlink:href="#ArialMT-65"/>
       <use x="122.314453" xlink:href="#ArialMT-72"/>
       <use x="155.615234" xlink:href="#ArialMT-6c"/>
      </g>
     </g>
    </g>
    <g id="xtick_4">
     <g id="line2d_4">
      <g>
       <use style="fill:#262626;stroke:#262626;stroke-width:0.8;" x="230.725875" xlink:href="#meac25677f1" y="124.08"/>
      </g>
     </g>
     <g id="text_4">
      <!-- Bioconductor/R -->
      <defs>
       <path d="M 7.328125 0 
L 7.328125 71.578125 
L 34.1875 71.578125 
Q 42.390625 71.578125 47.34375 69.40625 
Q 52.296875 67.234375 55.09375 62.71875 
Q 57.90625 58.203125 57.90625 53.265625 
Q 57.90625 48.6875 55.421875 44.625 
Q 52.9375 40.578125 47.90625 38.09375 
Q 54.390625 36.1875 57.875 31.59375 
Q 61.375 27 61.375 20.75 
Q 61.375 15.71875 59.25 11.390625 
Q 57.125 7.078125 54 4.734375 
Q 50.875 2.390625 46.15625 1.1875 
Q 41.453125 0 34.625 0 
z
M 16.796875 41.5 
L 32.28125 41.5 
Q 38.578125 41.5 41.3125 42.328125 
Q 44.921875 43.40625 46.75 45.890625 
Q 48.578125 48.390625 48.578125 52.15625 
Q 48.578125 55.71875 46.875 58.421875 
Q 45.171875 61.140625 41.984375 62.140625 
Q 38.8125 63.140625 31.109375 63.140625 
L 16.796875 63.140625 
z
M 16.796875 8.453125 
L 34.625 8.453125 
Q 39.203125 8.453125 41.0625 8.796875 
Q 44.34375 9.375 46.53125 10.734375 
Q 48.734375 12.109375 50.140625 14.71875 
Q 51.5625 17.328125 51.5625 20.75 
Q 51.5625 24.75 49.515625 27.703125 
Q 47.46875 30.671875 43.828125 31.859375 
Q 40.1875 33.0625 33.34375 33.0625 
L 16.796875 33.0625 
z
" id="ArialMT-42"/>
       <path d="M 6.640625 61.46875 
L 6.640625 71.578125 
L 15.4375 71.578125 
L 15.4375 61.46875 
z
M 6.640625 0 
L 6.640625 51.859375 
L 15.4375 51.859375 
L 15.4375 0 
z
" id="ArialMT-69"/>
       <path d="M 40.4375 19 
L 49.078125 17.875 
Q 47.65625 8.9375 41.8125 3.875 
Q 35.984375 -1.171875 27.484375 -1.171875 
Q 16.84375 -1.171875 10.375 5.78125 
Q 3.90625 12.75 3.90625 25.734375 
Q 3.90625 34.125 6.6875 40.421875 
Q 9.46875 46.734375 15.15625 49.875 
Q 20.84375 53.03125 27.546875 53.03125 
Q 35.984375 53.03125 41.359375 48.75 
Q 46.734375 44.484375 48.25 36.625 
L 39.703125 35.296875 
Q 38.484375 40.53125 35.375 43.15625 
Q 32.28125 45.796875 27.875 45.796875 
Q 21.234375 45.796875 17.078125 41.03125 
Q 12.9375 36.28125 12.9375 25.984375 
Q 12.9375 15.53125 16.9375 10.796875 
Q 20.953125 6.0625 27.390625 6.0625 
Q 32.5625 6.0625 36.03125 9.234375 
Q 39.5 12.40625 40.4375 19 
z
" id="ArialMT-63"/>
       <path d="M 40.234375 0 
L 40.234375 6.546875 
Q 35.296875 -1.171875 25.734375 -1.171875 
Q 19.53125 -1.171875 14.328125 2.25 
Q 9.125 5.671875 6.265625 11.796875 
Q 3.421875 17.921875 3.421875 25.875 
Q 3.421875 33.640625 6 39.96875 
Q 8.59375 46.296875 13.765625 49.65625 
Q 18.953125 53.03125 25.34375 53.03125 
Q 30.03125 53.03125 33.6875 51.046875 
Q 37.359375 49.078125 39.65625 45.90625 
L 39.65625 71.578125 
L 48.390625 71.578125 
L 48.390625 0 
z
M 12.453125 25.875 
Q 12.453125 15.921875 16.640625 10.984375 
Q 20.84375 6.0625 26.5625 6.0625 
Q 32.328125 6.0625 36.34375 10.765625 
Q 40.375 15.484375 40.375 25.140625 
Q 40.375 35.796875 36.265625 40.765625 
Q 32.171875 45.75 26.171875 45.75 
Q 20.3125 45.75 16.375 40.96875 
Q 12.453125 36.1875 12.453125 25.875 
z
" id="ArialMT-64"/>
       <path d="M 40.578125 0 
L 40.578125 7.625 
Q 34.515625 -1.171875 24.125 -1.171875 
Q 19.53125 -1.171875 15.546875 0.578125 
Q 11.578125 2.34375 9.640625 5 
Q 7.71875 7.671875 6.9375 11.53125 
Q 6.390625 14.109375 6.390625 19.734375 
L 6.390625 51.859375 
L 15.1875 51.859375 
L 15.1875 23.09375 
Q 15.1875 16.21875 15.71875 13.8125 
Q 16.546875 10.359375 19.234375 8.375 
Q 21.921875 6.390625 25.875 6.390625 
Q 29.828125 6.390625 33.296875 8.421875 
Q 36.765625 10.453125 38.203125 13.9375 
Q 39.65625 17.4375 39.65625 24.078125 
L 39.65625 51.859375 
L 48.4375 51.859375 
L 48.4375 0 
z
" id="ArialMT-75"/>
       <path d="M 0 -1.21875 
L 20.75 72.796875 
L 27.78125 72.796875 
L 7.078125 -1.21875 
z
" id="ArialMT-2f"/>
       <path d="M 7.859375 0 
L 7.859375 71.578125 
L 39.59375 71.578125 
Q 49.171875 71.578125 54.140625 69.640625 
Q 59.125 67.71875 62.109375 62.828125 
Q 65.09375 57.953125 65.09375 52.046875 
Q 65.09375 44.4375 60.15625 39.203125 
Q 55.21875 33.984375 44.921875 32.5625 
Q 48.6875 30.765625 50.640625 29 
Q 54.78125 25.203125 58.5 19.484375 
L 70.953125 0 
L 59.03125 0 
L 49.5625 14.890625 
Q 45.40625 21.34375 42.71875 24.75 
Q 40.046875 28.171875 37.921875 29.53125 
Q 35.796875 30.90625 33.59375 31.453125 
Q 31.984375 31.78125 28.328125 31.78125 
L 17.328125 31.78125 
L 17.328125 0 
z
M 17.328125 39.984375 
L 37.703125 39.984375 
Q 44.1875 39.984375 47.84375 41.328125 
Q 51.515625 42.671875 53.421875 45.625 
Q 55.328125 48.578125 55.328125 52.046875 
Q 55.328125 57.125 51.640625 60.390625 
Q 47.953125 63.671875 39.984375 63.671875 
L 17.328125 63.671875 
z
" id="ArialMT-52"/>
      </defs>
      <g style="fill:#262626;" transform="translate(203.379625 141.40625)scale(0.08 -0.08)">
       <use xlink:href="#ArialMT-42"/>
       <use x="66.699219" xlink:href="#ArialMT-69"/>
       <use x="88.916016" xlink:href="#ArialMT-6f"/>
       <use x="144.53125" xlink:href="#ArialMT-63"/>
       <use x="194.53125" xlink:href="#ArialMT-6f"/>
       <use x="250.146484" xlink:href="#ArialMT-6e"/>
       <use x="305.761719" xlink:href="#ArialMT-64"/>
       <use x="361.376953" xlink:href="#ArialMT-75"/>
       <use x="416.992188" xlink:href="#ArialMT-63"/>
       <use x="466.992188" xlink:href="#ArialMT-74"/>
       <use x="494.775391" xlink:href="#ArialMT-6f"/>
       <use x="550.390625" xlink:href="#ArialMT-72"/>
       <use x="583.691406" xlink:href="#ArialMT-2f"/>
       <use x="611.474609" xlink:href="#ArialMT-52"/>
      </g>
     </g>
    </g>
    <g id="text_5">
     <!-- ecosystem -->
     <defs>
      <path d="M 3.078125 15.484375 
L 11.765625 16.84375 
Q 12.5 11.625 15.84375 8.84375 
Q 19.1875 6.0625 25.203125 6.0625 
Q 31.25 6.0625 34.171875 8.515625 
Q 37.109375 10.984375 37.109375 14.3125 
Q 37.109375 17.28125 34.515625 19 
Q 32.71875 20.171875 25.53125 21.96875 
Q 15.875 24.421875 12.140625 26.203125 
Q 8.40625 27.984375 6.46875 31.125 
Q 4.546875 34.28125 4.546875 38.09375 
Q 4.546875 41.546875 6.125 44.5 
Q 7.71875 47.46875 10.453125 49.421875 
Q 12.5 50.921875 16.03125 51.96875 
Q 19.578125 53.03125 23.640625 53.03125 
Q 29.734375 53.03125 34.34375 51.265625 
Q 38.96875 49.515625 41.15625 46.5 
Q 43.359375 43.5 44.1875 38.484375 
L 35.59375 37.3125 
Q 35.015625 41.3125 32.203125 43.546875 
Q 29.390625 45.796875 24.265625 45.796875 
Q 18.21875 45.796875 15.625 43.796875 
Q 13.03125 41.796875 13.03125 39.109375 
Q 13.03125 37.40625 14.109375 36.03125 
Q 15.1875 34.625 17.484375 33.6875 
Q 18.796875 33.203125 25.25 31.453125 
Q 34.578125 28.953125 38.25 27.359375 
Q 41.9375 25.78125 44.03125 22.75 
Q 46.140625 19.734375 46.140625 15.234375 
Q 46.140625 10.84375 43.578125 6.953125 
Q 41.015625 3.078125 36.171875 0.953125 
Q 31.34375 -1.171875 25.25 -1.171875 
Q 15.140625 -1.171875 9.84375 3.03125 
Q 4.546875 7.234375 3.078125 15.484375 
z
" id="ArialMT-73"/>
      <path d="M 6.59375 0 
L 6.59375 51.859375 
L 14.453125 51.859375 
L 14.453125 44.578125 
Q 16.890625 48.390625 20.9375 50.703125 
Q 25 53.03125 30.171875 53.03125 
Q 35.9375 53.03125 39.625 50.640625 
Q 43.3125 48.25 44.828125 43.953125 
Q 50.984375 53.03125 60.84375 53.03125 
Q 68.5625 53.03125 72.703125 48.75 
Q 76.859375 44.484375 76.859375 35.59375 
L 76.859375 0 
L 68.109375 0 
L 68.109375 32.671875 
Q 68.109375 37.9375 67.25 40.25 
Q 66.40625 42.578125 64.15625 43.984375 
Q 61.921875 45.40625 58.890625 45.40625 
Q 53.421875 45.40625 49.796875 41.765625 
Q 46.1875 38.140625 46.1875 30.125 
L 46.1875 0 
L 37.40625 0 
L 37.40625 33.6875 
Q 37.40625 39.546875 35.25 42.46875 
Q 33.109375 45.40625 28.21875 45.40625 
Q 24.515625 45.40625 21.359375 43.453125 
Q 18.21875 41.5 16.796875 37.734375 
Q 15.375 33.984375 15.375 26.90625 
L 15.375 0 
z
" id="ArialMT-6d"/>
     </defs>
     <g style="fill:#262626;" transform="translate(125.998 153.28575)scale(0.088 -0.088)">
      <use xlink:href="#ArialMT-65"/>
      <use x="55.615234" xlink:href="#ArialMT-63"/>
      <use x="105.615234" xlink:href="#ArialMT-6f"/>
      <use x="161.230469" xlink:href="#ArialMT-73"/>
      <use x="211.230469" xlink:href="#ArialMT-79"/>
      <use x="261.230469" xlink:href="#ArialMT-73"/>
      <use x="311.230469" xlink:href="#ArialMT-74"/>
      <use x="339.013672" xlink:href="#ArialMT-65"/>
      <use x="394.628906" xlink:href="#ArialMT-6d"/>
     </g>
    </g>
   </g>
   <g id="matplotlib.axis_2">
    <g id="ytick_1">
     <g id="line2d_5">
      <defs>
       <path d="M 0 0 
L -6 0 
" id="m38290d5884" style="stroke:#262626;stroke-width:0.8;"/>
      </defs>
      <g>
       <use style="fill:#262626;stroke:#262626;stroke-width:0.8;" x="35.425875" xlink:href="#m38290d5884" y="119.04"/>
      </g>
     </g>
     <g id="text_6">
      <!-- 0 -->
      <defs>
       <path d="M 4.15625 35.296875 
Q 4.15625 48 6.765625 55.734375 
Q 9.375 63.484375 14.515625 67.671875 
Q 19.671875 71.875 27.484375 71.875 
Q 33.25 71.875 37.59375 69.546875 
Q 41.9375 67.234375 44.765625 62.859375 
Q 47.609375 58.5 49.21875 52.21875 
Q 50.828125 45.953125 50.828125 35.296875 
Q 50.828125 22.703125 48.234375 14.96875 
Q 45.65625 7.234375 40.5 3 
Q 35.359375 -1.21875 27.484375 -1.21875 
Q 17.140625 -1.21875 11.234375 6.203125 
Q 4.15625 15.140625 4.15625 35.296875 
z
M 13.1875 35.296875 
Q 13.1875 17.671875 17.3125 11.828125 
Q 21.4375 6 27.484375 6 
Q 33.546875 6 37.671875 11.859375 
Q 41.796875 17.71875 41.796875 35.296875 
Q 41.796875 52.984375 37.671875 58.78125 
Q 33.546875 64.59375 27.390625 64.59375 
Q 21.34375 64.59375 17.71875 59.46875 
Q 13.1875 52.9375 13.1875 35.296875 
z
" id="ArialMT-30"/>
      </defs>
      <g style="fill:#262626;" transform="translate(19.377125 121.903125)scale(0.08 -0.08)">
       <use xlink:href="#ArialMT-30"/>
      </g>
     </g>
    </g>
    <g id="ytick_2">
     <g id="line2d_6">
      <g>
       <use style="fill:#262626;stroke:#262626;stroke-width:0.8;" x="35.425875" xlink:href="#m38290d5884" y="99.499064"/>
      </g>
     </g>
     <g id="text_7">
      <!-- 1 -->
      <defs>
       <path d="M 37.25 0 
L 28.46875 0 
L 28.46875 56 
Q 25.296875 52.984375 20.140625 49.953125 
Q 14.984375 46.921875 10.890625 45.40625 
L 10.890625 53.90625 
Q 18.265625 57.375 23.78125 62.296875 
Q 29.296875 67.234375 31.59375 71.875 
L 37.25 71.875 
z
" id="ArialMT-31"/>
      </defs>
      <g style="fill:#262626;" transform="translate(19.377125 102.362189)scale(0.08 -0.08)">
       <use xlink:href="#ArialMT-31"/>
      </g>
     </g>
    </g>
    <g id="ytick_3">
     <g id="line2d_7">
      <g>
       <use style="fill:#262626;stroke:#262626;stroke-width:0.8;" x="35.425875" xlink:href="#m38290d5884" y="79.958127"/>
      </g>
     </g>
     <g id="text_8">
      <!-- 2 -->
      <defs>
       <path d="M 50.34375 8.453125 
L 50.34375 0 
L 3.03125 0 
Q 2.9375 3.171875 4.046875 6.109375 
Q 5.859375 10.9375 9.828125 15.625 
Q 13.8125 20.3125 21.34375 26.46875 
Q 33.015625 36.03125 37.109375 41.625 
Q 41.21875 47.21875 41.21875 52.203125 
Q 41.21875 57.421875 37.46875 61 
Q 33.734375 64.59375 27.734375 64.59375 
Q 21.390625 64.59375 17.578125 60.78125 
Q 13.765625 56.984375 13.71875 50.25 
L 4.6875 51.171875 
Q 5.609375 61.28125 11.65625 66.578125 
Q 17.71875 71.875 27.9375 71.875 
Q 38.234375 71.875 44.234375 66.15625 
Q 50.25 60.453125 50.25 52 
Q 50.25 47.703125 48.484375 43.546875 
Q 46.734375 39.40625 42.65625 34.8125 
Q 38.578125 30.21875 29.109375 22.21875 
Q 21.1875 15.578125 18.9375 13.203125 
Q 16.703125 10.84375 15.234375 8.453125 
z
" id="ArialMT-32"/>
      </defs>
      <g style="fill:#262626;" transform="translate(19.377125 82.821252)scale(0.08 -0.08)">
       <use xlink:href="#ArialMT-32"/>
      </g>
     </g>
    </g>
    <g id="ytick_4">
     <g id="line2d_8">
      <g>
       <use style="fill:#262626;stroke:#262626;stroke-width:0.8;" x="35.425875" xlink:href="#m38290d5884" y="60.417191"/>
      </g>
     </g>
     <g id="text_9">
      <!-- 3 -->
      <defs>
       <path d="M 4.203125 18.890625 
L 12.984375 20.0625 
Q 14.5 12.59375 18.140625 9.296875 
Q 21.78125 6 27 6 
Q 33.203125 6 37.46875 10.296875 
Q 41.75 14.59375 41.75 20.953125 
Q 41.75 27 37.796875 30.921875 
Q 33.84375 34.859375 27.734375 34.859375 
Q 25.25 34.859375 21.53125 33.890625 
L 22.515625 41.609375 
Q 23.390625 41.5 23.921875 41.5 
Q 29.546875 41.5 34.03125 44.421875 
Q 38.53125 47.359375 38.53125 53.46875 
Q 38.53125 58.296875 35.25 61.46875 
Q 31.984375 64.65625 26.8125 64.65625 
Q 21.6875 64.65625 18.265625 61.421875 
Q 14.84375 58.203125 13.875 51.765625 
L 5.078125 53.328125 
Q 6.6875 62.15625 12.390625 67.015625 
Q 18.109375 71.875 26.609375 71.875 
Q 32.46875 71.875 37.390625 69.359375 
Q 42.328125 66.84375 44.9375 62.5 
Q 47.5625 58.15625 47.5625 53.265625 
Q 47.5625 48.640625 45.0625 44.828125 
Q 42.578125 41.015625 37.703125 38.765625 
Q 44.046875 37.3125 47.5625 32.6875 
Q 51.078125 28.078125 51.078125 21.140625 
Q 51.078125 11.765625 44.234375 5.25 
Q 37.40625 -1.265625 26.953125 -1.265625 
Q 17.53125 -1.265625 11.296875 4.34375 
Q 5.078125 9.96875 4.203125 18.890625 
z
" id="ArialMT-33"/>
      </defs>
      <g style="fill:#262626;" transform="translate(19.377125 63.280316)scale(0.08 -0.08)">
       <use xlink:href="#ArialMT-33"/>
      </g>
     </g>
    </g>
    <g id="ytick_5">
     <g id="line2d_9">
      <g>
       <use style="fill:#262626;stroke:#262626;stroke-width:0.8;" x="35.425875" xlink:href="#m38290d5884" y="40.876254"/>
      </g>
     </g>
     <g id="text_10">
      <!-- 4 -->
      <defs>
       <path d="M 32.328125 0 
L 32.328125 17.140625 
L 1.265625 17.140625 
L 1.265625 25.203125 
L 33.9375 71.578125 
L 41.109375 71.578125 
L 41.109375 25.203125 
L 50.78125 25.203125 
L 50.78125 17.140625 
L 41.109375 17.140625 
L 41.109375 0 
z
M 32.328125 25.203125 
L 32.328125 57.46875 
L 9.90625 25.203125 
z
" id="ArialMT-34"/>
      </defs>
      <g style="fill:#262626;" transform="translate(19.377125 43.739379)scale(0.08 -0.08)">
       <use xlink:href="#ArialMT-34"/>
      </g>
     </g>
    </g>
    <g id="ytick_6">
     <g id="line2d_10">
      <g>
       <use style="fill:#262626;stroke:#262626;stroke-width:0.8;" x="35.425875" xlink:href="#m38290d5884" y="21.335318"/>
      </g>
     </g>
     <g id="text_11">
      <!-- 5 -->
      <defs>
       <path d="M 4.15625 18.75 
L 13.375 19.53125 
Q 14.40625 12.796875 18.140625 9.390625 
Q 21.875 6 27.15625 6 
Q 33.5 6 37.890625 10.78125 
Q 42.28125 15.578125 42.28125 23.484375 
Q 42.28125 31 38.0625 35.34375 
Q 33.84375 39.703125 27 39.703125 
Q 22.75 39.703125 19.328125 37.765625 
Q 15.921875 35.84375 13.96875 32.765625 
L 5.71875 33.84375 
L 12.640625 70.609375 
L 48.25 70.609375 
L 48.25 62.203125 
L 19.671875 62.203125 
L 15.828125 42.96875 
Q 22.265625 47.46875 29.34375 47.46875 
Q 38.71875 47.46875 45.15625 40.96875 
Q 51.609375 34.46875 51.609375 24.265625 
Q 51.609375 14.546875 45.953125 7.46875 
Q 39.0625 -1.21875 27.15625 -1.21875 
Q 17.390625 -1.21875 11.203125 4.25 
Q 5.03125 9.71875 4.15625 18.75 
z
" id="ArialMT-35"/>
      </defs>
      <g style="fill:#262626;" transform="translate(19.377125 24.198443)scale(0.08 -0.08)">
       <use xlink:href="#ArialMT-35"/>
      </g>
     </g>
    </g>
    <g id="text_12">
     <!-- log10 downloads -->
     <defs>
      <path d="M 4.984375 -4.296875 
L 13.53125 -5.5625 
Q 14.0625 -9.515625 16.5 -11.328125 
Q 19.78125 -13.765625 25.4375 -13.765625 
Q 31.546875 -13.765625 34.859375 -11.328125 
Q 38.1875 -8.890625 39.359375 -4.5 
Q 40.046875 -1.8125 39.984375 6.78125 
Q 34.234375 0 25.640625 0 
Q 14.9375 0 9.078125 7.71875 
Q 3.21875 15.4375 3.21875 26.21875 
Q 3.21875 33.640625 5.90625 39.90625 
Q 8.59375 46.1875 13.6875 49.609375 
Q 18.796875 53.03125 25.6875 53.03125 
Q 34.859375 53.03125 40.828125 45.609375 
L 40.828125 51.859375 
L 48.921875 51.859375 
L 48.921875 7.03125 
Q 48.921875 -5.078125 46.453125 -10.125 
Q 44 -15.1875 38.640625 -18.109375 
Q 33.296875 -21.046875 25.484375 -21.046875 
Q 16.21875 -21.046875 10.5 -16.875 
Q 4.78125 -12.703125 4.984375 -4.296875 
z
M 12.25 26.859375 
Q 12.25 16.65625 16.296875 11.96875 
Q 20.359375 7.28125 26.46875 7.28125 
Q 32.515625 7.28125 36.609375 11.9375 
Q 40.71875 16.609375 40.71875 26.5625 
Q 40.71875 36.078125 36.5 40.90625 
Q 32.28125 45.75 26.3125 45.75 
Q 20.453125 45.75 16.34375 40.984375 
Q 12.25 36.234375 12.25 26.859375 
z
" id="ArialMT-67"/>
      <path id="ArialMT-20"/>
      <path d="M 16.15625 0 
L 0.296875 51.859375 
L 9.375 51.859375 
L 17.625 21.921875 
L 20.703125 10.796875 
Q 20.90625 11.625 23.390625 21.484375 
L 31.640625 51.859375 
L 40.671875 51.859375 
L 48.4375 21.78125 
L 51.03125 11.859375 
L 54 21.875 
L 62.890625 51.859375 
L 71.4375 51.859375 
L 55.21875 0 
L 46.09375 0 
L 37.84375 31.0625 
L 35.84375 39.890625 
L 25.34375 0 
z
" id="ArialMT-77"/>
      <path d="M 40.4375 6.390625 
Q 35.546875 2.25 31.03125 0.53125 
Q 26.515625 -1.171875 21.34375 -1.171875 
Q 12.796875 -1.171875 8.203125 3 
Q 3.609375 7.171875 3.609375 13.671875 
Q 3.609375 17.484375 5.34375 20.625 
Q 7.078125 23.78125 9.890625 25.6875 
Q 12.703125 27.59375 16.21875 28.5625 
Q 18.796875 29.25 24.03125 29.890625 
Q 34.671875 31.15625 39.703125 32.90625 
Q 39.75 34.71875 39.75 35.203125 
Q 39.75 40.578125 37.25 42.78125 
Q 33.890625 45.75 27.25 45.75 
Q 21.046875 45.75 18.09375 43.578125 
Q 15.140625 41.40625 13.71875 35.890625 
L 5.125 37.0625 
Q 6.296875 42.578125 8.984375 45.96875 
Q 11.671875 49.359375 16.75 51.1875 
Q 21.828125 53.03125 28.515625 53.03125 
Q 35.15625 53.03125 39.296875 51.46875 
Q 43.453125 49.90625 45.40625 47.53125 
Q 47.359375 45.171875 48.140625 41.546875 
Q 48.578125 39.3125 48.578125 33.453125 
L 48.578125 21.734375 
Q 48.578125 9.46875 49.140625 6.21875 
Q 49.703125 2.984375 51.375 0 
L 42.1875 0 
Q 40.828125 2.734375 40.4375 6.390625 
z
M 39.703125 26.03125 
Q 34.90625 24.078125 25.34375 22.703125 
Q 19.921875 21.921875 17.671875 20.9375 
Q 15.4375 19.96875 14.203125 18.09375 
Q 12.984375 16.21875 12.984375 13.921875 
Q 12.984375 10.40625 15.640625 8.0625 
Q 18.3125 5.71875 23.4375 5.71875 
Q 28.515625 5.71875 32.46875 7.9375 
Q 36.421875 10.15625 38.28125 14.015625 
Q 39.703125 17 39.703125 22.796875 
z
" id="ArialMT-61"/>
     </defs>
     <g style="fill:#262626;" transform="translate(13.525 101.663375)rotate(-90)scale(0.088 -0.088)">
      <use xlink:href="#ArialMT-6c"/>
      <use x="22.216797" xlink:href="#ArialMT-6f"/>
      <use x="77.832031" xlink:href="#ArialMT-67"/>
      <use x="133.447266" xlink:href="#ArialMT-31"/>
      <use x="189.0625" xlink:href="#ArialMT-30"/>
      <use x="244.677734" xlink:href="#ArialMT-20"/>
      <use x="272.460938" xlink:href="#ArialMT-64"/>
      <use x="328.076172" xlink:href="#ArialMT-6f"/>
      <use x="383.691406" xlink:href="#ArialMT-77"/>
      <use x="455.908203" xlink:href="#ArialMT-6e"/>
      <use x="511.523438" xlink:href="#ArialMT-6c"/>
      <use x="533.740234" xlink:href="#ArialMT-6f"/>
      <use x="589.355469" xlink:href="#ArialMT-61"/>
      <use x="644.970703" xlink:href="#ArialMT-64"/>
      <use x="700.585938" xlink:href="#ArialMT-73"/>
     </g>
    </g>
   </g>
   <g id="PolyCollection_1">
    <defs>
     <path d="M 64.147302 -49.180283 
L 62.504448 -49.180283 
L 62.357042 -50.139047 
L 62.184192 -51.09781 
L 61.976705 -52.056574 
L 61.725942 -53.015337 
L 61.426225 -53.974101 
L 61.077093 -54.932864 
L 60.684814 -55.891628 
L 60.262614 -56.850391 
L 59.829382 -57.809155 
L 59.406941 -58.767919 
L 59.01635 -59.726682 
L 58.674009 -60.685446 
L 58.388435 -61.644209 
L 58.158484 -62.602973 
L 57.973408 -63.561736 
L 57.814704 -64.5205 
L 57.65919 -65.479263 
L 57.482609 -66.438027 
L 57.26303 -67.396791 
L 56.983686 -68.355554 
L 56.635174 -69.314318 
L 56.217114 -70.273081 
L 55.739232 -71.231845 
L 55.221498 -72.190608 
L 54.692665 -73.149372 
L 54.186581 -74.108135 
L 53.73614 -75.066899 
L 53.365554 -76.025663 
L 53.082478 -76.984426 
L 52.87198 -77.94319 
L 52.694268 -78.901953 
L 52.48739 -79.860717 
L 52.175171 -80.81948 
L 51.679589 -81.778244 
L 50.936001 -82.737007 
L 49.908915 -83.695771 
L 48.605527 -84.654535 
L 47.083974 -85.613298 
L 45.453447 -86.572062 
L 43.864307 -87.530825 
L 42.488316 -88.489589 
L 41.49165 -89.448352 
L 41.005875 -90.407116 
L 41.103485 -91.365879 
L 41.784126 -92.324643 
L 42.975241 -93.283407 
L 44.54708 -94.24217 
L 46.338154 -95.200934 
L 48.184583 -96.159697 
L 49.946149 -97.118461 
L 51.523444 -98.077224 
L 52.863531 -99.035988 
L 53.954874 -99.994751 
L 54.814994 -100.953515 
L 55.475535 -101.912279 
L 55.969195 -102.871042 
L 56.321567 -103.829806 
L 56.548986 -104.788569 
L 56.661587 -105.747333 
L 56.669436 -106.706096 
L 56.589008 -107.66486 
L 56.447459 -108.623623 
L 56.283058 -109.582387 
L 56.141401 -110.541151 
L 56.068383 -111.499914 
L 56.101952 -112.458678 
L 56.265018 -113.417441 
L 56.56157 -114.376205 
L 56.976995 -115.334968 
L 57.48232 -116.293732 
L 58.040987 -117.252495 
L 58.616187 -118.211259 
L 59.176898 -119.170023 
L 59.701414 -120.128786 
L 60.178072 -121.08755 
L 60.603674 -122.046313 
L 60.980596 -123.005077 
L 61.313656 -123.96384 
L 61.607636 -124.922604 
L 61.865892 -125.881367 
L 62.090131 -126.840131 
L 62.281044 -127.798895 
L 62.439317 -128.757658 
L 62.56655 -129.716422 
L 62.665734 -130.675185 
L 62.741154 -131.633949 
L 62.797849 -132.592712 
L 62.840855 -133.551476 
L 62.87454 -134.510239 
L 62.902231 -135.469003 
L 62.926192 -136.427767 
L 62.947886 -137.38653 
L 62.968346 -138.345294 
L 62.988483 -139.304057 
L 63.009226 -140.262821 
L 63.031472 -141.221584 
L 63.055904 -142.180348 
L 63.082795 -143.139111 
L 63.111886 -144.097875 
L 63.539864 -144.097875 
L 63.539864 -144.097875 
L 63.568955 -143.139111 
L 63.595846 -142.180348 
L 63.620278 -141.221584 
L 63.642524 -140.262821 
L 63.663267 -139.304057 
L 63.683404 -138.345294 
L 63.703864 -137.38653 
L 63.725558 -136.427767 
L 63.749519 -135.469003 
L 63.77721 -134.510239 
L 63.810895 -133.551476 
L 63.853901 -132.592712 
L 63.910596 -131.633949 
L 63.986016 -130.675185 
L 64.0852 -129.716422 
L 64.212433 -128.757658 
L 64.370706 -127.798895 
L 64.561619 -126.840131 
L 64.785858 -125.881367 
L 65.044114 -124.922604 
L 65.338094 -123.96384 
L 65.671154 -123.005077 
L 66.048076 -122.046313 
L 66.473678 -121.08755 
L 66.950336 -120.128786 
L 67.474852 -119.170023 
L 68.035563 -118.211259 
L 68.610763 -117.252495 
L 69.16943 -116.293732 
L 69.674755 -115.334968 
L 70.09018 -114.376205 
L 70.386732 -113.417441 
L 70.549798 -112.458678 
L 70.583367 -111.499914 
L 70.510349 -110.541151 
L 70.368692 -109.582387 
L 70.204291 -108.623623 
L 70.062742 -107.66486 
L 69.982314 -106.706096 
L 69.990163 -105.747333 
L 70.102764 -104.788569 
L 70.330183 -103.829806 
L 70.682555 -102.871042 
L 71.176215 -101.912279 
L 71.836756 -100.953515 
L 72.696876 -99.994751 
L 73.788219 -99.035988 
L 75.128306 -98.077224 
L 76.705601 -97.118461 
L 78.467167 -96.159697 
L 80.313596 -95.200934 
L 82.10467 -94.24217 
L 83.676509 -93.283407 
L 84.867624 -92.324643 
L 85.548265 -91.365879 
L 85.645875 -90.407116 
L 85.1601 -89.448352 
L 84.163434 -88.489589 
L 82.787443 -87.530825 
L 81.198303 -86.572062 
L 79.567776 -85.613298 
L 78.046223 -84.654535 
L 76.742835 -83.695771 
L 75.715749 -82.737007 
L 74.972161 -81.778244 
L 74.476579 -80.81948 
L 74.16436 -79.860717 
L 73.957482 -78.901953 
L 73.77977 -77.94319 
L 73.569272 -76.984426 
L 73.286196 -76.025663 
L 72.91561 -75.066899 
L 72.465169 -74.108135 
L 71.959085 -73.149372 
L 71.430252 -72.190608 
L 70.912518 -71.231845 
L 70.434636 -70.273081 
L 70.016576 -69.314318 
L 69.668064 -68.355554 
L 69.38872 -67.396791 
L 69.169141 -66.438027 
L 68.99256 -65.479263 
L 68.837046 -64.5205 
L 68.678342 -63.561736 
L 68.493266 -62.602973 
L 68.263315 -61.644209 
L 67.977741 -60.685446 
L 67.6354 -59.726682 
L 67.244809 -58.767919 
L 66.822368 -57.809155 
L 66.389136 -56.850391 
L 65.966936 -55.891628 
L 65.574657 -54.932864 
L 65.225525 -53.974101 
L 64.925808 -53.015337 
L 64.675045 -52.056574 
L 64.467558 -51.09781 
L 64.294708 -50.139047 
L 64.147302 -49.180283 
z
" id="m93a25b8eab" style="stroke:#3d3d3d;stroke-width:1.4;"/>
    </defs>
    <g clip-path="url(#pa6e7cfefd6)">
     <use style="fill:#3274a1;stroke:#3d3d3d;stroke-width:1.4;" x="0" xlink:href="#m93a25b8eab" y="162.337875"/>
    </g>
   </g>
   <g id="PolyCollection_2">
    <defs>
     <path d="M 119.520245 -43.297875 
L 118.731505 -43.297875 
L 118.619151 -44.267103 
L 118.48244 -45.236332 
L 118.319272 -46.20556 
L 118.128575 -47.174789 
L 117.910608 -48.144017 
L 117.667146 -49.113245 
L 117.401496 -50.082474 
L 117.118298 -51.051702 
L 116.82311 -52.020931 
L 116.521774 -52.990159 
L 116.219629 -53.959387 
L 115.920636 -54.928616 
L 115.626567 -55.897844 
L 115.336398 -56.867073 
L 115.046075 -57.836301 
L 114.748768 -58.805529 
L 114.435681 -59.774758 
L 114.097332 -60.743986 
L 113.725155 -61.713215 
L 113.313129 -62.682443 
L 112.859151 -63.651671 
L 112.365854 -64.6209 
L 111.840714 -65.590128 
L 111.29539 -66.559356 
L 110.744425 -67.528585 
L 110.203548 -68.497813 
L 109.687884 -69.467042 
L 109.210376 -70.43627 
L 108.780654 -71.405498 
L 108.404453 -72.374727 
L 108.08357 -73.343955 
L 107.816243 -74.313184 
L 107.597775 -75.282412 
L 107.421281 -76.25164 
L 107.278447 -77.220869 
L 107.160303 -78.190097 
L 107.058031 -79.159326 
L 106.963835 -80.128554 
L 106.871827 -81.097782 
L 106.778836 -82.067011 
L 106.684942 -83.036239 
L 106.593604 -84.005468 
L 106.511259 -84.974696 
L 106.446436 -85.943924 
L 106.408546 -86.913153 
L 106.40659 -87.882381 
L 106.44804 -88.85161 
L 106.538069 -89.820838 
L 106.679209 -90.790066 
L 106.871362 -91.759295 
L 107.112035 -92.728523 
L 107.396642 -93.697752 
L 107.718777 -94.66698 
L 108.070414 -95.636208 
L 108.44209 -96.605437 
L 108.823126 -97.574665 
L 109.201988 -98.543894 
L 109.566808 -99.513122 
L 109.906091 -100.48235 
L 110.209574 -101.451579 
L 110.469176 -102.420807 
L 110.679936 -103.390035 
L 110.84082 -104.359264 
L 110.955199 -105.328492 
L 111.030842 -106.297721 
L 111.079249 -107.266949 
L 111.114331 -108.236177 
L 111.150583 -109.205406 
L 111.201064 -110.174634 
L 111.275654 -111.143863 
L 111.380013 -112.113091 
L 111.515517 -113.082319 
L 111.680195 -114.051548 
L 111.870364 -115.020776 
L 112.082485 -115.990005 
L 112.314661 -116.959233 
L 112.567373 -117.928461 
L 112.843258 -118.89769 
L 113.146079 -119.866918 
L 113.479227 -120.836147 
L 113.844223 -121.805375 
L 114.239637 -122.774603 
L 114.660636 -123.743832 
L 115.099239 -124.71306 
L 115.545126 -125.682289 
L 115.986777 -126.651517 
L 116.412704 -127.620745 
L 116.812571 -128.589974 
L 117.17806 -129.559202 
L 117.50344 -130.528431 
L 117.785791 -131.497659 
L 118.024939 -132.466887 
L 118.22311 -133.436116 
L 118.384392 -134.405344 
L 118.514069 -135.374573 
L 118.617923 -136.343801 
L 118.701602 -137.313029 
L 118.770113 -138.282258 
L 118.827509 -139.251486 
L 119.424241 -139.251486 
L 119.424241 -139.251486 
L 119.481637 -138.282258 
L 119.550148 -137.313029 
L 119.633827 -136.343801 
L 119.737681 -135.374573 
L 119.867358 -134.405344 
L 120.02864 -133.436116 
L 120.226811 -132.466887 
L 120.465959 -131.497659 
L 120.74831 -130.528431 
L 121.07369 -129.559202 
L 121.439179 -128.589974 
L 121.839046 -127.620745 
L 122.264973 -126.651517 
L 122.706624 -125.682289 
L 123.152511 -124.71306 
L 123.591114 -123.743832 
L 124.012113 -122.774603 
L 124.407527 -121.805375 
L 124.772523 -120.836147 
L 125.105671 -119.866918 
L 125.408492 -118.89769 
L 125.684377 -117.928461 
L 125.937089 -116.959233 
L 126.169265 -115.990005 
L 126.381386 -115.020776 
L 126.571555 -114.051548 
L 126.736233 -113.082319 
L 126.871737 -112.113091 
L 126.976096 -111.143863 
L 127.050686 -110.174634 
L 127.101167 -109.205406 
L 127.137419 -108.236177 
L 127.172501 -107.266949 
L 127.220908 -106.297721 
L 127.296551 -105.328492 
L 127.41093 -104.359264 
L 127.571814 -103.390035 
L 127.782574 -102.420807 
L 128.042176 -101.451579 
L 128.345659 -100.48235 
L 128.684942 -99.513122 
L 129.049762 -98.543894 
L 129.428624 -97.574665 
L 129.80966 -96.605437 
L 130.181336 -95.636208 
L 130.532973 -94.66698 
L 130.855108 -93.697752 
L 131.139715 -92.728523 
L 131.380388 -91.759295 
L 131.572541 -90.790066 
L 131.713681 -89.820838 
L 131.80371 -88.85161 
L 131.84516 -87.882381 
L 131.843204 -86.913153 
L 131.805314 -85.943924 
L 131.740491 -84.974696 
L 131.658146 -84.005468 
L 131.566808 -83.036239 
L 131.472914 -82.067011 
L 131.379923 -81.097782 
L 131.287915 -80.128554 
L 131.193719 -79.159326 
L 131.091447 -78.190097 
L 130.973303 -77.220869 
L 130.830469 -76.25164 
L 130.653975 -75.282412 
L 130.435507 -74.313184 
L 130.16818 -73.343955 
L 129.847297 -72.374727 
L 129.471096 -71.405498 
L 129.041374 -70.43627 
L 128.563866 -69.467042 
L 128.048202 -68.497813 
L 127.507325 -67.528585 
L 126.95636 -66.559356 
L 126.411036 -65.590128 
L 125.885896 -64.6209 
L 125.392599 -63.651671 
L 124.938621 -62.682443 
L 124.526595 -61.713215 
L 124.154418 -60.743986 
L 123.816069 -59.774758 
L 123.502982 -58.805529 
L 123.205675 -57.836301 
L 122.915352 -56.867073 
L 122.625183 -55.897844 
L 122.331114 -54.928616 
L 122.032121 -53.959387 
L 121.729976 -52.990159 
L 121.42864 -52.020931 
L 121.133452 -51.051702 
L 120.850254 -50.082474 
L 120.584604 -49.113245 
L 120.341142 -48.144017 
L 120.123175 -47.174789 
L 119.932478 -46.20556 
L 119.76931 -45.236332 
L 119.632599 -44.267103 
L 119.520245 -43.297875 
z
" id="m0d6a2327de" style="stroke:#3d3d3d;stroke-width:1.4;"/>
    </defs>
    <g clip-path="url(#pa6e7cfefd6)">
     <use style="fill:#e1812c;stroke:#3d3d3d;stroke-width:1.4;" x="0" xlink:href="#m0d6a2327de" y="162.337875"/>
    </g>
   </g>
   <g id="PolyCollection_3">
    <defs>
     <path d="M 175.260686 -43.297875 
L 174.591064 -43.297875 
L 174.491441 -44.226593 
L 174.360259 -45.155312 
L 174.189271 -46.08403 
L 173.969955 -47.012748 
L 173.694468 -47.941466 
L 173.356846 -48.870185 
L 172.954342 -49.798903 
L 172.488694 -50.727621 
L 171.967073 -51.656339 
L 171.402472 -52.585058 
L 170.813337 -53.513776 
L 170.222388 -54.442494 
L 169.654677 -55.371212 
L 169.135151 -56.299931 
L 168.686053 -57.228649 
L 168.324578 -58.157367 
L 168.061169 -59.086085 
L 167.898697 -60.014804 
L 167.832656 -60.943522 
L 167.852252 -61.87224 
L 167.942177 -62.800958 
L 168.084718 -63.729677 
L 168.261844 -64.658395 
L 168.456973 -65.587113 
L 168.656192 -66.515831 
L 168.848838 -67.44455 
L 169.027457 -68.373268 
L 169.187236 -69.301986 
L 169.325085 -70.230704 
L 169.438529 -71.159423 
L 169.524621 -72.088141 
L 169.579024 -73.016859 
L 169.595425 -73.945577 
L 169.565364 -74.874296 
L 169.478583 -75.803014 
L 169.323874 -76.731732 
L 169.090404 -77.66045 
L 168.769391 -78.589169 
L 168.355925 -79.517887 
L 167.850663 -80.446605 
L 167.261127 -81.375323 
L 166.60228 -82.304042 
L 165.896219 -83.23276 
L 165.170875 -84.161478 
L 164.457841 -85.090196 
L 163.789577 -86.018915 
L 163.196397 -86.947633 
L 162.70368 -87.876351 
L 162.329726 -88.805069 
L 162.084548 -89.733788 
L 161.969692 -90.662506 
L 161.978994 -91.591224 
L 162.100014 -92.519942 
L 162.315772 -93.448661 
L 162.606445 -94.377379 
L 162.950721 -95.306097 
L 163.326696 -96.234815 
L 163.712307 -97.163534 
L 164.085472 -98.092252 
L 164.424165 -99.02097 
L 164.706687 -99.949688 
L 164.912336 -100.878407 
L 165.022602 -101.807125 
L 165.022861 -102.735843 
L 164.904409 -103.664561 
L 164.666553 -104.59328 
L 164.318367 -105.521998 
L 163.8797 -106.450716 
L 163.381053 -107.379434 
L 162.86209 -108.308153 
L 162.368757 -109.236871 
L 161.949246 -110.165589 
L 161.649293 -111.094307 
L 161.507485 -112.023026 
L 161.551274 -112.951744 
L 161.794336 -113.880462 
L 162.235633 -114.80918 
L 162.860242 -115.737899 
L 163.641697 -116.666617 
L 164.545349 -117.595335 
L 165.532143 -118.524053 
L 166.562254 -119.452772 
L 167.59814 -120.38149 
L 168.606798 -121.310208 
L 169.561163 -122.238926 
L 170.440754 -123.167645 
L 171.231715 -124.096363 
L 171.926425 -125.025081 
L 172.522816 -125.953799 
L 173.023492 -126.882518 
L 173.43474 -127.811236 
L 173.765484 -128.739954 
L 174.026241 -129.668672 
L 174.22817 -130.597391 
L 174.382246 -131.526109 
L 174.498624 -132.454827 
L 174.586208 -133.383545 
L 174.65243 -134.312264 
L 174.703199 -135.240982 
L 175.148551 -135.240982 
L 175.148551 -135.240982 
L 175.19932 -134.312264 
L 175.265542 -133.383545 
L 175.353126 -132.454827 
L 175.469504 -131.526109 
L 175.62358 -130.597391 
L 175.825509 -129.668672 
L 176.086266 -128.739954 
L 176.41701 -127.811236 
L 176.828258 -126.882518 
L 177.328934 -125.953799 
L 177.925325 -125.025081 
L 178.620035 -124.096363 
L 179.410996 -123.167645 
L 180.290587 -122.238926 
L 181.244952 -121.310208 
L 182.25361 -120.38149 
L 183.289496 -119.452772 
L 184.319607 -118.524053 
L 185.306401 -117.595335 
L 186.210053 -116.666617 
L 186.991508 -115.737899 
L 187.616117 -114.80918 
L 188.057414 -113.880462 
L 188.300476 -112.951744 
L 188.344265 -112.023026 
L 188.202457 -111.094307 
L 187.902504 -110.165589 
L 187.482993 -109.236871 
L 186.98966 -108.308153 
L 186.470697 -107.379434 
L 185.97205 -106.450716 
L 185.533383 -105.521998 
L 185.185197 -104.59328 
L 184.947341 -103.664561 
L 184.828889 -102.735843 
L 184.829148 -101.807125 
L 184.939414 -100.878407 
L 185.145063 -99.949688 
L 185.427585 -99.02097 
L 185.766278 -98.092252 
L 186.139443 -97.163534 
L 186.525054 -96.234815 
L 186.901029 -95.306097 
L 187.245305 -94.377379 
L 187.535978 -93.448661 
L 187.751736 -92.519942 
L 187.872756 -91.591224 
L 187.882058 -90.662506 
L 187.767202 -89.733788 
L 187.522024 -88.805069 
L 187.14807 -87.876351 
L 186.655353 -86.947633 
L 186.062173 -86.018915 
L 185.393909 -85.090196 
L 184.680875 -84.161478 
L 183.955531 -83.23276 
L 183.24947 -82.304042 
L 182.590623 -81.375323 
L 182.001087 -80.446605 
L 181.495825 -79.517887 
L 181.082359 -78.589169 
L 180.761346 -77.66045 
L 180.527876 -76.731732 
L 180.373167 -75.803014 
L 180.286386 -74.874296 
L 180.256325 -73.945577 
L 180.272726 -73.016859 
L 180.327129 -72.088141 
L 180.413221 -71.159423 
L 180.526665 -70.230704 
L 180.664514 -69.301986 
L 180.824293 -68.373268 
L 181.002912 -67.44455 
L 181.195558 -66.515831 
L 181.394777 -65.587113 
L 181.589906 -64.658395 
L 181.767032 -63.729677 
L 181.909573 -62.800958 
L 181.999498 -61.87224 
L 182.019094 -60.943522 
L 181.953053 -60.014804 
L 181.790581 -59.086085 
L 181.527172 -58.157367 
L 181.165697 -57.228649 
L 180.716599 -56.299931 
L 180.197073 -55.371212 
L 179.629362 -54.442494 
L 179.038413 -53.513776 
L 178.449278 -52.585058 
L 177.884677 -51.656339 
L 177.363056 -50.727621 
L 176.897408 -49.798903 
L 176.494904 -48.870185 
L 176.157282 -47.941466 
L 175.881795 -47.012748 
L 175.662479 -46.08403 
L 175.491491 -45.155312 
L 175.360309 -44.226593 
L 175.260686 -43.297875 
z
" id="m811a0499f3" style="stroke:#3d3d3d;stroke-width:1.4;"/>
    </defs>
    <g clip-path="url(#pa6e7cfefd6)">
     <use style="fill:#3a923a;stroke:#3d3d3d;stroke-width:1.4;" x="0" xlink:href="#m811a0499f3" y="162.337875"/>
    </g>
   </g>
   <g id="PolyCollection_4">
    <defs>
     <path d="M 231.486286 -43.297875 
L 229.965464 -43.297875 
L 229.824571 -44.184353 
L 229.677149 -45.070831 
L 229.527308 -45.957309 
L 229.379298 -46.843786 
L 229.236986 -47.730264 
L 229.103316 -48.616742 
L 228.97984 -49.50322 
L 228.866404 -50.389698 
L 228.761044 -51.276176 
L 228.660111 -52.162653 
L 228.55861 -53.049131 
L 228.450682 -53.935609 
L 228.330147 -54.822087 
L 228.191004 -55.708565 
L 228.027815 -56.595043 
L 227.835908 -57.48152 
L 227.611408 -58.367998 
L 227.351119 -59.254476 
L 227.052346 -60.140954 
L 226.712758 -61.027432 
L 226.330389 -61.91391 
L 225.903849 -62.800388 
L 225.432794 -63.686865 
L 224.918609 -64.573343 
L 224.365213 -65.459821 
L 223.77985 -66.346299 
L 223.173673 -67.232777 
L 222.561936 -68.119255 
L 221.963649 -69.005732 
L 221.400621 -69.89221 
L 220.895889 -70.778688 
L 220.471681 -71.665166 
L 220.147102 -72.551644 
L 219.935859 -73.438122 
L 219.844316 -74.324599 
L 219.870178 -75.211077 
L 220.002005 -76.097555 
L 220.219677 -76.984033 
L 220.49577 -77.870511 
L 220.797725 -78.756989 
L 221.090551 -79.643466 
L 221.339795 -80.529944 
L 221.514452 -81.416422 
L 221.589521 -82.3029 
L 221.547998 -83.189378 
L 221.382119 -84.075856 
L 221.093805 -84.962334 
L 220.694302 -85.848811 
L 220.203119 -86.735289 
L 219.646387 -87.621767 
L 219.054849 -88.508245 
L 218.461634 -89.394723 
L 217.900034 -90.281201 
L 217.401414 -91.167678 
L 216.99338 -92.054156 
L 216.69828 -92.940634 
L 216.532069 -93.827112 
L 216.50356 -94.71359 
L 216.614053 -95.600068 
L 216.857356 -96.486545 
L 217.220201 -97.373023 
L 217.683067 -98.259501 
L 218.221401 -99.145979 
L 218.807229 -100.032457 
L 219.411073 -100.918935 
L 220.004063 -101.805413 
L 220.560067 -102.69189 
L 221.057645 -103.578368 
L 221.481595 -104.464846 
L 221.823922 -105.351324 
L 222.084078 -106.237802 
L 222.268466 -107.12428 
L 222.389257 -108.010757 
L 222.462697 -108.897235 
L 222.507152 -109.783713 
L 222.541149 -110.670191 
L 222.581668 -111.556669 
L 222.642866 -112.443147 
L 222.735315 -113.329624 
L 222.865755 -114.216102 
L 223.037256 -115.10258 
L 223.249674 -115.989058 
L 223.500244 -116.875536 
L 223.784212 -117.762014 
L 224.095443 -118.648491 
L 224.426993 -119.534969 
L 224.771644 -120.421447 
L 225.122432 -121.307925 
L 225.473147 -122.194403 
L 225.818787 -123.080881 
L 226.155889 -123.967359 
L 226.48268 -124.853836 
L 226.798997 -125.740314 
L 227.10596 -126.626792 
L 227.40545 -127.51327 
L 227.699464 -128.399748 
L 227.989481 -129.286226 
L 228.275951 -130.172703 
L 228.558007 -131.059181 
L 232.893743 -131.059181 
L 232.893743 -131.059181 
L 233.175799 -130.172703 
L 233.462269 -129.286226 
L 233.752286 -128.399748 
L 234.0463 -127.51327 
L 234.34579 -126.626792 
L 234.652753 -125.740314 
L 234.96907 -124.853836 
L 235.295861 -123.967359 
L 235.632963 -123.080881 
L 235.978603 -122.194403 
L 236.329318 -121.307925 
L 236.680106 -120.421447 
L 237.024757 -119.534969 
L 237.356307 -118.648491 
L 237.667538 -117.762014 
L 237.951506 -116.875536 
L 238.202076 -115.989058 
L 238.414494 -115.10258 
L 238.585995 -114.216102 
L 238.716435 -113.329624 
L 238.808884 -112.443147 
L 238.870082 -111.556669 
L 238.910601 -110.670191 
L 238.944598 -109.783713 
L 238.989053 -108.897235 
L 239.062493 -108.010757 
L 239.183284 -107.12428 
L 239.367672 -106.237802 
L 239.627828 -105.351324 
L 239.970155 -104.464846 
L 240.394105 -103.578368 
L 240.891683 -102.69189 
L 241.447687 -101.805413 
L 242.040677 -100.918935 
L 242.644521 -100.032457 
L 243.230349 -99.145979 
L 243.768683 -98.259501 
L 244.231549 -97.373023 
L 244.594394 -96.486545 
L 244.837697 -95.600068 
L 244.94819 -94.71359 
L 244.919681 -93.827112 
L 244.75347 -92.940634 
L 244.45837 -92.054156 
L 244.050336 -91.167678 
L 243.551716 -90.281201 
L 242.990116 -89.394723 
L 242.396901 -88.508245 
L 241.805363 -87.621767 
L 241.248631 -86.735289 
L 240.757448 -85.848811 
L 240.357945 -84.962334 
L 240.069631 -84.075856 
L 239.903752 -83.189378 
L 239.862229 -82.3029 
L 239.937298 -81.416422 
L 240.111955 -80.529944 
L 240.361199 -79.643466 
L 240.654025 -78.756989 
L 240.95598 -77.870511 
L 241.232073 -76.984033 
L 241.449745 -76.097555 
L 241.581572 -75.211077 
L 241.607434 -74.324599 
L 241.515891 -73.438122 
L 241.304648 -72.551644 
L 240.980069 -71.665166 
L 240.555861 -70.778688 
L 240.051129 -69.89221 
L 239.488101 -69.005732 
L 238.889814 -68.119255 
L 238.278077 -67.232777 
L 237.6719 -66.346299 
L 237.086537 -65.459821 
L 236.533141 -64.573343 
L 236.018956 -63.686865 
L 235.547901 -62.800388 
L 235.121361 -61.91391 
L 234.738992 -61.027432 
L 234.399404 -60.140954 
L 234.100631 -59.254476 
L 233.840342 -58.367998 
L 233.615842 -57.48152 
L 233.423935 -56.595043 
L 233.260746 -55.708565 
L 233.121603 -54.822087 
L 233.001068 -53.935609 
L 232.89314 -53.049131 
L 232.791639 -52.162653 
L 232.690706 -51.276176 
L 232.585346 -50.389698 
L 232.47191 -49.50322 
L 232.348434 -48.616742 
L 232.214764 -47.730264 
L 232.072452 -46.843786 
L 231.924442 -45.957309 
L 231.774601 -45.070831 
L 231.627179 -44.184353 
L 231.486286 -43.297875 
z
" id="m4a69711dc8" style="stroke:#3d3d3d;stroke-width:1.4;"/>
    </defs>
    <g clip-path="url(#pa6e7cfefd6)">
     <use style="fill:#c03d3e;stroke:#3d3d3d;stroke-width:1.4;" x="0" xlink:href="#m4a69711dc8" y="162.337875"/>
    </g>
   </g>
   <g id="line2d_11">
    <path clip-path="url(#pa6e7cfefd6)" d="M 63.325875 113.157592 
L 63.325875 36.479564 
" style="fill:none;stroke:#3d3d3d;stroke-linecap:round;stroke-width:1.4;"/>
   </g>
   <g id="line2d_12">
    <path clip-path="url(#pa6e7cfefd6)" d="M 63.325875 83.879201 
L 63.325875 63.815852 
" style="fill:none;stroke:#3d3d3d;stroke-linecap:round;stroke-width:4.2;"/>
   </g>
   <g id="line2d_13">
    <path clip-path="url(#pa6e7cfefd6)" d="M 119.125875 119.04 
L 119.125875 23.086389 
" style="fill:none;stroke:#3d3d3d;stroke-linecap:round;stroke-width:1.4;"/>
   </g>
   <g id="line2d_14">
    <path clip-path="url(#pa6e7cfefd6)" d="M 119.125875 86.925396 
L 119.125875 58.465966 
" style="fill:none;stroke:#3d3d3d;stroke-linecap:round;stroke-width:4.2;"/>
   </g>
   <g id="line2d_15">
    <path clip-path="url(#pa6e7cfefd6)" d="M 174.925875 119.04 
L 174.925875 27.096893 
" style="fill:none;stroke:#3d3d3d;stroke-linecap:round;stroke-width:1.4;"/>
   </g>
   <g id="line2d_16">
    <path clip-path="url(#pa6e7cfefd6)" d="M 174.925875 83.780502 
L 174.925875 50.687157 
" style="fill:none;stroke:#3d3d3d;stroke-linecap:round;stroke-width:4.2;"/>
   </g>
   <g id="line2d_17">
    <path clip-path="url(#pa6e7cfefd6)" d="M 230.725875 119.04 
L 230.725875 31.278694 
" style="fill:none;stroke:#3d3d3d;stroke-linecap:round;stroke-width:1.4;"/>
   </g>
   <g id="line2d_18">
    <path clip-path="url(#pa6e7cfefd6)" d="M 230.725875 86.641417 
L 230.725875 57.363492 
" style="fill:none;stroke:#3d3d3d;stroke-linecap:round;stroke-width:4.2;"/>
   </g>
   <g id="patch_3">
    <path d="M 35.425875 124.08 
L 35.425875 13.2 
" style="fill:none;stroke:#262626;stroke-linecap:square;stroke-linejoin:miter;stroke-width:1.25;"/>
   </g>
   <g id="patch_4">
    <path d="M 35.425875 124.08 
L 258.625875 124.08 
" style="fill:none;stroke:#262626;stroke-linecap:square;stroke-linejoin:miter;stroke-width:1.25;"/>
   </g>
   <g id="PathCollection_1">
    <defs>
     <path d="M 0 1.4 
C 0.371284 1.4 0.727412 1.252487 0.989949 0.989949 
C 1.252487 0.727412 1.4 0.371284 1.4 0 
C 1.4 -0.371284 1.252487 -0.727412 0.989949 -0.989949 
C 0.727412 -1.252487 0.371284 -1.4 0 -1.4 
C -0.371284 -1.4 -0.727412 -1.252487 -0.989949 -0.989949 
C -1.252487 -0.727412 -1.4 -0.371284 -1.4 0 
C -1.4 0.371284 -1.252487 0.727412 -0.989949 0.989949 
C -0.727412 1.252487 -0.371284 1.4 0 1.4 
z
" id="m7cb20d3309" style="stroke:#3d3d3d;stroke-width:0.24;"/>
    </defs>
    <g clip-path="url(#pa6e7cfefd6)">
     <use style="fill:#ffffff;stroke:#3d3d3d;stroke-width:0.24;" x="63.325875" xlink:href="#m7cb20d3309" y="72.148128"/>
    </g>
   </g>
   <g id="PathCollection_2">
    <g clip-path="url(#pa6e7cfefd6)">
     <use style="fill:#ffffff;stroke:#3d3d3d;stroke-width:0.24;" x="119.125875" xlink:href="#m7cb20d3309" y="73.783771"/>
    </g>
   </g>
   <g id="PathCollection_3">
    <g clip-path="url(#pa6e7cfefd6)">
     <use style="fill:#ffffff;stroke:#3d3d3d;stroke-width:0.24;" x="174.925875" xlink:href="#m7cb20d3309" y="68.900962"/>
    </g>
   </g>
   <g id="PathCollection_4">
    <g clip-path="url(#pa6e7cfefd6)">
     <use style="fill:#ffffff;stroke:#3d3d3d;stroke-width:0.24;" x="230.725875" xlink:href="#m7cb20d3309" y="69.903382"/>
    </g>
   </g>
   <g id="text_13">
    <!-- total: 4689129 -->
    <defs>
     <path d="M 9.03125 41.84375 
L 9.03125 51.859375 
L 19.046875 51.859375 
L 19.046875 41.84375 
z
M 9.03125 0 
L 9.03125 10.015625 
L 19.046875 10.015625 
L 19.046875 0 
z
" id="ArialMT-3a"/>
     <path d="M 49.75 54.046875 
L 41.015625 53.375 
Q 39.84375 58.546875 37.703125 60.890625 
Q 34.125 64.65625 28.90625 64.65625 
Q 24.703125 64.65625 21.53125 62.3125 
Q 17.390625 59.28125 14.984375 53.46875 
Q 12.59375 47.65625 12.5 36.921875 
Q 15.671875 41.75 20.265625 44.09375 
Q 24.859375 46.4375 29.890625 46.4375 
Q 38.671875 46.4375 44.84375 39.96875 
Q 51.03125 33.5 51.03125 23.25 
Q 51.03125 16.5 48.125 10.71875 
Q 45.21875 4.9375 40.140625 1.859375 
Q 35.0625 -1.21875 28.609375 -1.21875 
Q 17.625 -1.21875 10.6875 6.859375 
Q 3.765625 14.9375 3.765625 33.5 
Q 3.765625 54.25 11.421875 63.671875 
Q 18.109375 71.875 29.4375 71.875 
Q 37.890625 71.875 43.28125 67.140625 
Q 48.6875 62.40625 49.75 54.046875 
z
M 13.875 23.1875 
Q 13.875 18.65625 15.796875 14.5 
Q 17.71875 10.359375 21.1875 8.171875 
Q 24.65625 6 28.46875 6 
Q 34.03125 6 38.03125 10.484375 
Q 42.046875 14.984375 42.046875 22.703125 
Q 42.046875 30.125 38.078125 34.390625 
Q 34.125 38.671875 28.125 38.671875 
Q 22.171875 38.671875 18.015625 34.390625 
Q 13.875 30.125 13.875 23.1875 
z
" id="ArialMT-36"/>
     <path d="M 17.671875 38.8125 
Q 12.203125 40.828125 9.5625 44.53125 
Q 6.9375 48.25 6.9375 53.421875 
Q 6.9375 61.234375 12.546875 66.546875 
Q 18.171875 71.875 27.484375 71.875 
Q 36.859375 71.875 42.578125 66.421875 
Q 48.296875 60.984375 48.296875 53.171875 
Q 48.296875 48.1875 45.671875 44.5 
Q 43.0625 40.828125 37.75 38.8125 
Q 44.34375 36.671875 47.78125 31.875 
Q 51.21875 27.09375 51.21875 20.453125 
Q 51.21875 11.28125 44.71875 5.03125 
Q 38.234375 -1.21875 27.640625 -1.21875 
Q 17.046875 -1.21875 10.546875 5.046875 
Q 4.046875 11.328125 4.046875 20.703125 
Q 4.046875 27.6875 7.59375 32.390625 
Q 11.140625 37.109375 17.671875 38.8125 
z
M 15.921875 53.71875 
Q 15.921875 48.640625 19.1875 45.40625 
Q 22.46875 42.1875 27.6875 42.1875 
Q 32.765625 42.1875 36.015625 45.375 
Q 39.265625 48.578125 39.265625 53.21875 
Q 39.265625 58.0625 35.90625 61.359375 
Q 32.5625 64.65625 27.59375 64.65625 
Q 22.5625 64.65625 19.234375 61.421875 
Q 15.921875 58.203125 15.921875 53.71875 
z
M 13.09375 20.65625 
Q 13.09375 16.890625 14.875 13.375 
Q 16.65625 9.859375 20.171875 7.921875 
Q 23.6875 6 27.734375 6 
Q 34.03125 6 38.125 10.046875 
Q 42.234375 14.109375 42.234375 20.359375 
Q 42.234375 26.703125 38.015625 30.859375 
Q 33.796875 35.015625 27.4375 35.015625 
Q 21.234375 35.015625 17.15625 30.90625 
Q 13.09375 26.8125 13.09375 20.65625 
z
" id="ArialMT-38"/>
     <path d="M 5.46875 16.546875 
L 13.921875 17.328125 
Q 14.984375 11.375 18.015625 8.6875 
Q 21.046875 6 25.78125 6 
Q 29.828125 6 32.875 7.859375 
Q 35.9375 9.71875 37.890625 12.8125 
Q 39.84375 15.921875 41.15625 21.1875 
Q 42.484375 26.46875 42.484375 31.9375 
Q 42.484375 32.515625 42.4375 33.6875 
Q 39.796875 29.5 35.234375 26.875 
Q 30.671875 24.265625 25.34375 24.265625 
Q 16.453125 24.265625 10.296875 30.703125 
Q 4.15625 37.15625 4.15625 47.703125 
Q 4.15625 58.59375 10.578125 65.234375 
Q 17 71.875 26.65625 71.875 
Q 33.640625 71.875 39.421875 68.109375 
Q 45.21875 64.359375 48.21875 57.390625 
Q 51.21875 50.4375 51.21875 37.25 
Q 51.21875 23.53125 48.234375 15.40625 
Q 45.265625 7.28125 39.375 3.03125 
Q 33.5 -1.21875 25.59375 -1.21875 
Q 17.1875 -1.21875 11.859375 3.4375 
Q 6.546875 8.109375 5.46875 16.546875 
z
M 41.453125 48.140625 
Q 41.453125 55.71875 37.421875 60.15625 
Q 33.40625 64.59375 27.734375 64.59375 
Q 21.875 64.59375 17.53125 59.8125 
Q 13.1875 55.03125 13.1875 47.40625 
Q 13.1875 40.578125 17.3125 36.296875 
Q 21.4375 32.03125 27.484375 32.03125 
Q 33.59375 32.03125 37.515625 36.296875 
Q 41.453125 40.578125 41.453125 48.140625 
z
" id="ArialMT-39"/>
    </defs>
    <g style="fill:#262626;" transform="translate(197.778375 20.0715)scale(0.096 -0.096)">
     <use xlink:href="#ArialMT-74"/>
     <use x="27.783203" xlink:href="#ArialMT-6f"/>
     <use x="83.398438" xlink:href="#ArialMT-74"/>
     <use x="111.181641" xlink:href="#ArialMT-61"/>
     <use x="166.796875" xlink:href="#ArialMT-6c"/>
     <use x="189.013672" xlink:href="#ArialMT-3a"/>
     <use x="216.796875" xlink:href="#ArialMT-20"/>
     <use x="244.580078" xlink:href="#ArialMT-34"/>
     <use x="300.195312" xlink:href="#ArialMT-36"/>
     <use x="355.810547" xlink:href="#ArialMT-38"/>
     <use x="411.425781" xlink:href="#ArialMT-39"/>
     <use x="467.041016" xlink:href="#ArialMT-31"/>
     <use x="522.65625" xlink:href="#ArialMT-32"/>
     <use x="578.271484" xlink:href="#ArialMT-39"/>
    </g>
   </g>
  </g>
 </g>
 <defs>
  <clipPath id="pa6e7cfefd6">
   <rect height="110.88" width="223.2" x="35.425875" y="13.2"/>
  </clipPath>
 </defs>
</svg>
