<?xml version="1.0" encoding="utf-8" standalone="no"?>
<!DOCTYPE svg PUBLIC "-//W3C//DTD SVG 1.1//EN"
  "http://www.w3.org/Graphics/SVG/1.1/DTD/svg11.dtd">
<!-- Created with matplotlib (http://matplotlib.org/) -->
<svg height="162pt" version="1.1" viewBox="0 0 271 162" width="271pt" xmlns="http://www.w3.org/2000/svg" xmlns:xlink="http://www.w3.org/1999/xlink">
 <defs>
  <style type="text/css">
*{stroke-linecap:butt;stroke-linejoin:round;}
  </style>
 </defs>
 <g id="figure_1">
  <g id="patch_1">
   <path d="M 0 162.337875 
L 271.825875 162.337875 
L 271.825875 0 
L 0 0 
z
" style="fill:#ffffff;"/>
  </g>
  <g id="axes_1">
   <g id="patch_2">
    <path d="M 35.425875 124.08 
L 258.625875 124.08 
L 258.625875 13.2 
L 35.425875 13.2 
z
" style="fill:#ffffff;"/>
   </g>
   <g id="matplotlib.axis_1">
    <g id="xtick_1">
     <g id="line2d_1">
      <defs>
       <path d="M 0 0 
L 0 6 
" id="mab593da70d" style="stroke:#262626;stroke-width:0.8;"/>
      </defs>
      <g>
       <use style="fill:#262626;stroke:#262626;stroke-width:0.8;" x="63.325875" xlink:href="#mab593da70d" y="124.08"/>
      </g>
     </g>
     <g id="text_1">
      <!-- Bioconductor/R -->
      <defs>
       <path d="M 7.328125 0 
L 7.328125 71.578125 
L 34.1875 71.578125 
Q 42.390625 71.578125 47.34375 69.40625 
Q 52.296875 67.234375 55.09375 62.71875 
Q 57.90625 58.203125 57.90625 53.265625 
Q 57.90625 48.6875 55.421875 44.625 
Q 52.9375 40.578125 47.90625 38.09375 
Q 54.390625 36.1875 57.875 31.59375 
Q 61.375 27 61.375 20.75 
Q 61.375 15.71875 59.25 11.390625 
Q 57.125 7.078125 54 4.734375 
Q 50.875 2.390625 46.15625 1.1875 
Q 41.453125 0 34.625 0 
z
M 16.796875 41.5 
L 32.28125 41.5 
Q 38.578125 41.5 41.3125 42.328125 
Q 44.921875 43.40625 46.75 45.890625 
Q 48.578125 48.390625 48.578125 52.15625 
Q 48.578125 55.71875 46.875 58.421875 
Q 45.171875 61.140625 41.984375 62.140625 
Q 38.8125 63.140625 31.109375 63.140625 
L 16.796875 63.140625 
z
M 16.796875 8.453125 
L 34.625 8.453125 
Q 39.203125 8.453125 41.0625 8.796875 
Q 44.34375 9.375 46.53125 10.734375 
Q 48.734375 12.109375 50.140625 14.71875 
Q 51.5625 17.328125 51.5625 20.75 
Q 51.5625 24.75 49.515625 27.703125 
Q 47.46875 30.671875 43.828125 31.859375 
Q 40.1875 33.0625 33.34375 33.0625 
L 16.796875 33.0625 
z
" id="ArialMT-42"/>
       <path d="M 6.640625 61.46875 
L 6.640625 71.578125 
L 15.4375 71.578125 
L 15.4375 61.46875 
z
M 6.640625 0 
L 6.640625 51.859375 
L 15.4375 51.859375 
L 15.4375 0 
z
" id="ArialMT-69"/>
       <path d="M 3.328125 25.921875 
Q 3.328125 40.328125 11.328125 47.265625 
Q 18.015625 53.03125 27.640625 53.03125 
Q 38.328125 53.03125 45.109375 46.015625 
Q 51.90625 39.015625 51.90625 26.65625 
Q 51.90625 16.65625 48.90625 10.90625 
Q 45.90625 5.171875 40.15625 2 
Q 34.421875 -1.171875 27.640625 -1.171875 
Q 16.75 -1.171875 10.03125 5.8125 
Q 3.328125 12.796875 3.328125 25.921875 
z
M 12.359375 25.921875 
Q 12.359375 15.96875 16.703125 11.015625 
Q 21.046875 6.0625 27.640625 6.0625 
Q 34.1875 6.0625 38.53125 11.03125 
Q 42.875 16.015625 42.875 26.21875 
Q 42.875 35.84375 38.5 40.796875 
Q 34.125 45.75 27.640625 45.75 
Q 21.046875 45.75 16.703125 40.8125 
Q 12.359375 35.890625 12.359375 25.921875 
z
" id="ArialMT-6f"/>
       <path d="M 40.4375 19 
L 49.078125 17.875 
Q 47.65625 8.9375 41.8125 3.875 
Q 35.984375 -1.171875 27.484375 -1.171875 
Q 16.84375 -1.171875 10.375 5.78125 
Q 3.90625 12.75 3.90625 25.734375 
Q 3.90625 34.125 6.6875 40.421875 
Q 9.46875 46.734375 15.15625 49.875 
Q 20.84375 53.03125 27.546875 53.03125 
Q 35.984375 53.03125 41.359375 48.75 
Q 46.734375 44.484375 48.25 36.625 
L 39.703125 35.296875 
Q 38.484375 40.53125 35.375 43.15625 
Q 32.28125 45.796875 27.875 45.796875 
Q 21.234375 45.796875 17.078125 41.03125 
Q 12.9375 36.28125 12.9375 25.984375 
Q 12.9375 15.53125 16.9375 10.796875 
Q 20.953125 6.0625 27.390625 6.0625 
Q 32.5625 6.0625 36.03125 9.234375 
Q 39.5 12.40625 40.4375 19 
z
" id="ArialMT-63"/>
       <path d="M 6.59375 0 
L 6.59375 51.859375 
L 14.5 51.859375 
L 14.5 44.484375 
Q 20.21875 53.03125 31 53.03125 
Q 35.6875 53.03125 39.625 51.34375 
Q 43.5625 49.65625 45.515625 46.921875 
Q 47.46875 44.1875 48.25 40.4375 
Q 48.734375 37.984375 48.734375 31.890625 
L 48.734375 0 
L 39.9375 0 
L 39.9375 31.546875 
Q 39.9375 36.921875 38.90625 39.578125 
Q 37.890625 42.234375 35.28125 43.8125 
Q 32.671875 45.40625 29.15625 45.40625 
Q 23.53125 45.40625 19.453125 41.84375 
Q 15.375 38.28125 15.375 28.328125 
L 15.375 0 
z
" id="ArialMT-6e"/>
       <path d="M 40.234375 0 
L 40.234375 6.546875 
Q 35.296875 -1.171875 25.734375 -1.171875 
Q 19.53125 -1.171875 14.328125 2.25 
Q 9.125 5.671875 6.265625 11.796875 
Q 3.421875 17.921875 3.421875 25.875 
Q 3.421875 33.640625 6 39.96875 
Q 8.59375 46.296875 13.765625 49.65625 
Q 18.953125 53.03125 25.34375 53.03125 
Q 30.03125 53.03125 33.6875 51.046875 
Q 37.359375 49.078125 39.65625 45.90625 
L 39.65625 71.578125 
L 48.390625 71.578125 
L 48.390625 0 
z
M 12.453125 25.875 
Q 12.453125 15.921875 16.640625 10.984375 
Q 20.84375 6.0625 26.5625 6.0625 
Q 32.328125 6.0625 36.34375 10.765625 
Q 40.375 15.484375 40.375 25.140625 
Q 40.375 35.796875 36.265625 40.765625 
Q 32.171875 45.75 26.171875 45.75 
Q 20.3125 45.75 16.375 40.96875 
Q 12.453125 36.1875 12.453125 25.875 
z
" id="ArialMT-64"/>
       <path d="M 40.578125 0 
L 40.578125 7.625 
Q 34.515625 -1.171875 24.125 -1.171875 
Q 19.53125 -1.171875 15.546875 0.578125 
Q 11.578125 2.34375 9.640625 5 
Q 7.71875 7.671875 6.9375 11.53125 
Q 6.390625 14.109375 6.390625 19.734375 
L 6.390625 51.859375 
L 15.1875 51.859375 
L 15.1875 23.09375 
Q 15.1875 16.21875 15.71875 13.8125 
Q 16.546875 10.359375 19.234375 8.375 
Q 21.921875 6.390625 25.875 6.390625 
Q 29.828125 6.390625 33.296875 8.421875 
Q 36.765625 10.453125 38.203125 13.9375 
Q 39.65625 17.4375 39.65625 24.078125 
L 39.65625 51.859375 
L 48.4375 51.859375 
L 48.4375 0 
z
" id="ArialMT-75"/>
       <path d="M 25.78125 7.859375 
L 27.046875 0.09375 
Q 23.34375 -0.6875 20.40625 -0.6875 
Q 15.625 -0.6875 12.984375 0.828125 
Q 10.359375 2.34375 9.28125 4.8125 
Q 8.203125 7.28125 8.203125 15.1875 
L 8.203125 45.015625 
L 1.765625 45.015625 
L 1.765625 51.859375 
L 8.203125 51.859375 
L 8.203125 64.703125 
L 16.9375 69.96875 
L 16.9375 51.859375 
L 25.78125 51.859375 
L 25.78125 45.015625 
L 16.9375 45.015625 
L 16.9375 14.703125 
Q 16.9375 10.9375 17.40625 9.859375 
Q 17.875 8.796875 18.921875 8.15625 
Q 19.96875 7.515625 21.921875 7.515625 
Q 23.390625 7.515625 25.78125 7.859375 
z
" id="ArialMT-74"/>
       <path d="M 6.5 0 
L 6.5 51.859375 
L 14.40625 51.859375 
L 14.40625 44 
Q 17.4375 49.515625 20 51.265625 
Q 22.5625 53.03125 25.640625 53.03125 
Q 30.078125 53.03125 34.671875 50.203125 
L 31.640625 42.046875 
Q 28.421875 43.953125 25.203125 43.953125 
Q 22.3125 43.953125 20.015625 42.21875 
Q 17.71875 40.484375 16.75 37.40625 
Q 15.28125 32.71875 15.28125 27.15625 
L 15.28125 0 
z
" id="ArialMT-72"/>
       <path d="M 0 -1.21875 
L 20.75 72.796875 
L 27.78125 72.796875 
L 7.078125 -1.21875 
z
" id="ArialMT-2f"/>
       <path d="M 7.859375 0 
L 7.859375 71.578125 
L 39.59375 71.578125 
Q 49.171875 71.578125 54.140625 69.640625 
Q 59.125 67.71875 62.109375 62.828125 
Q 65.09375 57.953125 65.09375 52.046875 
Q 65.09375 44.4375 60.15625 39.203125 
Q 55.21875 33.984375 44.921875 32.5625 
Q 48.6875 30.765625 50.640625 29 
Q 54.78125 25.203125 58.5 19.484375 
L 70.953125 0 
L 59.03125 0 
L 49.5625 14.890625 
Q 45.40625 21.34375 42.71875 24.75 
Q 40.046875 28.171875 37.921875 29.53125 
Q 35.796875 30.90625 33.59375 31.453125 
Q 31.984375 31.78125 28.328125 31.78125 
L 17.328125 31.78125 
L 17.328125 0 
z
M 17.328125 39.984375 
L 37.703125 39.984375 
Q 44.1875 39.984375 47.84375 41.328125 
Q 51.515625 42.671875 53.421875 45.625 
Q 55.328125 48.578125 55.328125 52.046875 
Q 55.328125 57.125 51.640625 60.390625 
Q 47.953125 63.671875 39.984375 63.671875 
L 17.328125 63.671875 
z
" id="ArialMT-52"/>
      </defs>
      <g style="fill:#262626;" transform="translate(35.979625 141.40625)scale(0.08 -0.08)">
       <use xlink:href="#ArialMT-42"/>
       <use x="66.699219" xlink:href="#ArialMT-69"/>
       <use x="88.916016" xlink:href="#ArialMT-6f"/>
       <use x="144.53125" xlink:href="#ArialMT-63"/>
       <use x="194.53125" xlink:href="#ArialMT-6f"/>
       <use x="250.146484" xlink:href="#ArialMT-6e"/>
       <use x="305.761719" xlink:href="#ArialMT-64"/>
       <use x="361.376953" xlink:href="#ArialMT-75"/>
       <use x="416.992188" xlink:href="#ArialMT-63"/>
       <use x="466.992188" xlink:href="#ArialMT-74"/>
       <use x="494.775391" xlink:href="#ArialMT-6f"/>
       <use x="550.390625" xlink:href="#ArialMT-72"/>
       <use x="583.691406" xlink:href="#ArialMT-2f"/>
       <use x="611.474609" xlink:href="#ArialMT-52"/>
      </g>
     </g>
    </g>
    <g id="xtick_2">
     <g id="line2d_2">
      <g>
       <use style="fill:#262626;stroke:#262626;stroke-width:0.8;" x="119.125875" xlink:href="#mab593da70d" y="124.08"/>
      </g>
     </g>
     <g id="text_2">
      <!-- Other -->
      <defs>
       <path d="M 4.828125 34.859375 
Q 4.828125 52.6875 14.390625 62.765625 
Q 23.96875 72.859375 39.109375 72.859375 
Q 49.03125 72.859375 56.984375 68.109375 
Q 64.9375 63.375 69.109375 54.90625 
Q 73.296875 46.4375 73.296875 35.6875 
Q 73.296875 24.8125 68.890625 16.21875 
Q 64.5 7.625 56.4375 3.203125 
Q 48.390625 -1.21875 39.0625 -1.21875 
Q 28.953125 -1.21875 20.984375 3.65625 
Q 13.03125 8.546875 8.921875 16.984375 
Q 4.828125 25.4375 4.828125 34.859375 
z
M 14.59375 34.71875 
Q 14.59375 21.78125 21.546875 14.328125 
Q 28.515625 6.890625 39.015625 6.890625 
Q 49.703125 6.890625 56.609375 14.40625 
Q 63.53125 21.921875 63.53125 35.75 
Q 63.53125 44.484375 60.578125 51 
Q 57.625 57.515625 51.921875 61.109375 
Q 46.234375 64.703125 39.15625 64.703125 
Q 29.109375 64.703125 21.84375 57.78125 
Q 14.59375 50.875 14.59375 34.71875 
z
" id="ArialMT-4f"/>
       <path d="M 6.59375 0 
L 6.59375 71.578125 
L 15.375 71.578125 
L 15.375 45.90625 
Q 21.53125 53.03125 30.90625 53.03125 
Q 36.671875 53.03125 40.921875 50.75 
Q 45.171875 48.484375 47 44.484375 
Q 48.828125 40.484375 48.828125 32.859375 
L 48.828125 0 
L 40.046875 0 
L 40.046875 32.859375 
Q 40.046875 39.453125 37.1875 42.453125 
Q 34.328125 45.453125 29.109375 45.453125 
Q 25.203125 45.453125 21.75 43.421875 
Q 18.3125 41.40625 16.84375 37.9375 
Q 15.375 34.46875 15.375 28.375 
L 15.375 0 
z
" id="ArialMT-68"/>
       <path d="M 42.09375 16.703125 
L 51.171875 15.578125 
Q 49.03125 7.625 43.21875 3.21875 
Q 37.40625 -1.171875 28.375 -1.171875 
Q 17 -1.171875 10.328125 5.828125 
Q 3.65625 12.84375 3.65625 25.484375 
Q 3.65625 38.578125 10.390625 45.796875 
Q 17.140625 53.03125 27.875 53.03125 
Q 38.28125 53.03125 44.875 45.953125 
Q 51.46875 38.875 51.46875 26.03125 
Q 51.46875 25.25 51.421875 23.6875 
L 12.75 23.6875 
Q 13.234375 15.140625 17.578125 10.59375 
Q 21.921875 6.0625 28.421875 6.0625 
Q 33.25 6.0625 36.671875 8.59375 
Q 40.09375 11.140625 42.09375 16.703125 
z
M 13.234375 30.90625 
L 42.1875 30.90625 
Q 41.609375 37.453125 38.875 40.71875 
Q 34.671875 45.796875 27.984375 45.796875 
Q 21.921875 45.796875 17.796875 41.75 
Q 13.671875 37.703125 13.234375 30.90625 
z
" id="ArialMT-65"/>
      </defs>
      <g style="fill:#262626;" transform="translate(109.12275 141.40625)scale(0.08 -0.08)">
       <use xlink:href="#ArialMT-4f"/>
       <use x="77.783203" xlink:href="#ArialMT-74"/>
       <use x="105.566406" xlink:href="#ArialMT-68"/>
       <use x="161.181641" xlink:href="#ArialMT-65"/>
       <use x="216.796875" xlink:href="#ArialMT-72"/>
      </g>
     </g>
    </g>
    <g id="xtick_3">
     <g id="line2d_3">
      <g>
       <use style="fill:#262626;stroke:#262626;stroke-width:0.8;" x="174.925875" xlink:href="#mab593da70d" y="124.08"/>
      </g>
     </g>
     <g id="text_3">
      <!-- Python -->
      <defs>
       <path d="M 7.71875 0 
L 7.71875 71.578125 
L 34.71875 71.578125 
Q 41.84375 71.578125 45.609375 70.90625 
Q 50.875 70.015625 54.4375 67.546875 
Q 58.015625 65.09375 60.1875 60.640625 
Q 62.359375 56.203125 62.359375 50.875 
Q 62.359375 41.75 56.546875 35.421875 
Q 50.734375 29.109375 35.546875 29.109375 
L 17.1875 29.109375 
L 17.1875 0 
z
M 17.1875 37.546875 
L 35.6875 37.546875 
Q 44.875 37.546875 48.734375 40.96875 
Q 52.59375 44.390625 52.59375 50.59375 
Q 52.59375 55.078125 50.3125 58.265625 
Q 48.046875 61.46875 44.34375 62.5 
Q 41.9375 63.140625 35.5 63.140625 
L 17.1875 63.140625 
z
" id="ArialMT-50"/>
       <path d="M 6.203125 -19.96875 
L 5.21875 -11.71875 
Q 8.109375 -12.5 10.25 -12.5 
Q 13.1875 -12.5 14.9375 -11.515625 
Q 16.703125 -10.546875 17.828125 -8.796875 
Q 18.65625 -7.46875 20.515625 -2.25 
Q 20.75 -1.515625 21.296875 -0.09375 
L 1.609375 51.859375 
L 11.078125 51.859375 
L 21.875 21.828125 
Q 23.96875 16.109375 25.640625 9.8125 
Q 27.15625 15.875 29.25 21.625 
L 40.328125 51.859375 
L 49.125 51.859375 
L 29.390625 -0.875 
Q 26.21875 -9.421875 24.46875 -12.640625 
Q 22.125 -17 19.09375 -19.015625 
Q 16.0625 -21.046875 11.859375 -21.046875 
Q 9.328125 -21.046875 6.203125 -19.96875 
z
" id="ArialMT-79"/>
      </defs>
      <g style="fill:#262626;" transform="translate(162.473375 141.40625)scale(0.08 -0.08)">
       <use xlink:href="#ArialMT-50"/>
       <use x="66.699219" xlink:href="#ArialMT-79"/>
       <use x="116.699219" xlink:href="#ArialMT-74"/>
       <use x="144.482422" xlink:href="#ArialMT-68"/>
       <use x="200.097656" xlink:href="#ArialMT-6f"/>
       <use x="255.712891" xlink:href="#ArialMT-6e"/>
      </g>
     </g>
    </g>
    <g id="xtick_4">
     <g id="line2d_4">
      <g>
       <use style="fill:#262626;stroke:#262626;stroke-width:0.8;" x="230.725875" xlink:href="#mab593da70d" y="124.08"/>
      </g>
     </g>
     <g id="text_4">
      <!-- Perl -->
      <defs>
       <path d="M 6.390625 0 
L 6.390625 71.578125 
L 15.1875 71.578125 
L 15.1875 0 
z
" id="ArialMT-6c"/>
      </defs>
      <g style="fill:#262626;" transform="translate(223.61275 141.40625)scale(0.08 -0.08)">
       <use xlink:href="#ArialMT-50"/>
       <use x="66.699219" xlink:href="#ArialMT-65"/>
       <use x="122.314453" xlink:href="#ArialMT-72"/>
       <use x="155.615234" xlink:href="#ArialMT-6c"/>
      </g>
     </g>
    </g>
    <g id="text_5">
     <!-- ecosystem -->
     <defs>
      <path d="M 3.078125 15.484375 
L 11.765625 16.84375 
Q 12.5 11.625 15.84375 8.84375 
Q 19.1875 6.0625 25.203125 6.0625 
Q 31.25 6.0625 34.171875 8.515625 
Q 37.109375 10.984375 37.109375 14.3125 
Q 37.109375 17.28125 34.515625 19 
Q 32.71875 20.171875 25.53125 21.96875 
Q 15.875 24.421875 12.140625 26.203125 
Q 8.40625 27.984375 6.46875 31.125 
Q 4.546875 34.28125 4.546875 38.09375 
Q 4.546875 41.546875 6.125 44.5 
Q 7.71875 47.46875 10.453125 49.421875 
Q 12.5 50.921875 16.03125 51.96875 
Q 19.578125 53.03125 23.640625 53.03125 
Q 29.734375 53.03125 34.34375 51.265625 
Q 38.96875 49.515625 41.15625 46.5 
Q 43.359375 43.5 44.1875 38.484375 
L 35.59375 37.3125 
Q 35.015625 41.3125 32.203125 43.546875 
Q 29.390625 45.796875 24.265625 45.796875 
Q 18.21875 45.796875 15.625 43.796875 
Q 13.03125 41.796875 13.03125 39.109375 
Q 13.03125 37.40625 14.109375 36.03125 
Q 15.1875 34.625 17.484375 33.6875 
Q 18.796875 33.203125 25.25 31.453125 
Q 34.578125 28.953125 38.25 27.359375 
Q 41.9375 25.78125 44.03125 22.75 
Q 46.140625 19.734375 46.140625 15.234375 
Q 46.140625 10.84375 43.578125 6.953125 
Q 41.015625 3.078125 36.171875 0.953125 
Q 31.34375 -1.171875 25.25 -1.171875 
Q 15.140625 -1.171875 9.84375 3.03125 
Q 4.546875 7.234375 3.078125 15.484375 
z
" id="ArialMT-73"/>
      <path d="M 6.59375 0 
L 6.59375 51.859375 
L 14.453125 51.859375 
L 14.453125 44.578125 
Q 16.890625 48.390625 20.9375 50.703125 
Q 25 53.03125 30.171875 53.03125 
Q 35.9375 53.03125 39.625 50.640625 
Q 43.3125 48.25 44.828125 43.953125 
Q 50.984375 53.03125 60.84375 53.03125 
Q 68.5625 53.03125 72.703125 48.75 
Q 76.859375 44.484375 76.859375 35.59375 
L 76.859375 0 
L 68.109375 0 
L 68.109375 32.671875 
Q 68.109375 37.9375 67.25 40.25 
Q 66.40625 42.578125 64.15625 43.984375 
Q 61.921875 45.40625 58.890625 45.40625 
Q 53.421875 45.40625 49.796875 41.765625 
Q 46.1875 38.140625 46.1875 30.125 
L 46.1875 0 
L 37.40625 0 
L 37.40625 33.6875 
Q 37.40625 39.546875 35.25 42.46875 
Q 33.109375 45.40625 28.21875 45.40625 
Q 24.515625 45.40625 21.359375 43.453125 
Q 18.21875 41.5 16.796875 37.734375 
Q 15.375 33.984375 15.375 26.90625 
L 15.375 0 
z
" id="ArialMT-6d"/>
     </defs>
     <g style="fill:#262626;" transform="translate(125.998 153.28575)scale(0.088 -0.088)">
      <use xlink:href="#ArialMT-65"/>
      <use x="55.615234" xlink:href="#ArialMT-63"/>
      <use x="105.615234" xlink:href="#ArialMT-6f"/>
      <use x="161.230469" xlink:href="#ArialMT-73"/>
      <use x="211.230469" xlink:href="#ArialMT-79"/>
      <use x="261.230469" xlink:href="#ArialMT-73"/>
      <use x="311.230469" xlink:href="#ArialMT-74"/>
      <use x="339.013672" xlink:href="#ArialMT-65"/>
      <use x="394.628906" xlink:href="#ArialMT-6d"/>
     </g>
    </g>
   </g>
   <g id="matplotlib.axis_2">
    <g id="ytick_1">
     <g id="line2d_5">
      <defs>
       <path d="M 0 0 
L -6 0 
" id="mbb03e0de50" style="stroke:#262626;stroke-width:0.8;"/>
      </defs>
      <g>
       <use style="fill:#262626;stroke:#262626;stroke-width:0.8;" x="35.425875" xlink:href="#mbb03e0de50" y="119.04"/>
      </g>
     </g>
     <g id="text_6">
      <!-- 0 -->
      <defs>
       <path d="M 4.15625 35.296875 
Q 4.15625 48 6.765625 55.734375 
Q 9.375 63.484375 14.515625 67.671875 
Q 19.671875 71.875 27.484375 71.875 
Q 33.25 71.875 37.59375 69.546875 
Q 41.9375 67.234375 44.765625 62.859375 
Q 47.609375 58.5 49.21875 52.21875 
Q 50.828125 45.953125 50.828125 35.296875 
Q 50.828125 22.703125 48.234375 14.96875 
Q 45.65625 7.234375 40.5 3 
Q 35.359375 -1.21875 27.484375 -1.21875 
Q 17.140625 -1.21875 11.234375 6.203125 
Q 4.15625 15.140625 4.15625 35.296875 
z
M 13.1875 35.296875 
Q 13.1875 17.671875 17.3125 11.828125 
Q 21.4375 6 27.484375 6 
Q 33.546875 6 37.671875 11.859375 
Q 41.796875 17.71875 41.796875 35.296875 
Q 41.796875 52.984375 37.671875 58.78125 
Q 33.546875 64.59375 27.390625 64.59375 
Q 21.34375 64.59375 17.71875 59.46875 
Q 13.1875 52.9375 13.1875 35.296875 
z
" id="ArialMT-30"/>
      </defs>
      <g style="fill:#262626;" transform="translate(19.377125 121.903125)scale(0.08 -0.08)">
       <use xlink:href="#ArialMT-30"/>
      </g>
     </g>
    </g>
    <g id="ytick_2">
     <g id="line2d_6">
      <g>
       <use style="fill:#262626;stroke:#262626;stroke-width:0.8;" x="35.425875" xlink:href="#mbb03e0de50" y="99.499064"/>
      </g>
     </g>
     <g id="text_7">
      <!-- 1 -->
      <defs>
       <path d="M 37.25 0 
L 28.46875 0 
L 28.46875 56 
Q 25.296875 52.984375 20.140625 49.953125 
Q 14.984375 46.921875 10.890625 45.40625 
L 10.890625 53.90625 
Q 18.265625 57.375 23.78125 62.296875 
Q 29.296875 67.234375 31.59375 71.875 
L 37.25 71.875 
z
" id="ArialMT-31"/>
      </defs>
      <g style="fill:#262626;" transform="translate(19.377125 102.362189)scale(0.08 -0.08)">
       <use xlink:href="#ArialMT-31"/>
      </g>
     </g>
    </g>
    <g id="ytick_3">
     <g id="line2d_7">
      <g>
       <use style="fill:#262626;stroke:#262626;stroke-width:0.8;" x="35.425875" xlink:href="#mbb03e0de50" y="79.958127"/>
      </g>
     </g>
     <g id="text_8">
      <!-- 2 -->
      <defs>
       <path d="M 50.34375 8.453125 
L 50.34375 0 
L 3.03125 0 
Q 2.9375 3.171875 4.046875 6.109375 
Q 5.859375 10.9375 9.828125 15.625 
Q 13.8125 20.3125 21.34375 26.46875 
Q 33.015625 36.03125 37.109375 41.625 
Q 41.21875 47.21875 41.21875 52.203125 
Q 41.21875 57.421875 37.46875 61 
Q 33.734375 64.59375 27.734375 64.59375 
Q 21.390625 64.59375 17.578125 60.78125 
Q 13.765625 56.984375 13.71875 50.25 
L 4.6875 51.171875 
Q 5.609375 61.28125 11.65625 66.578125 
Q 17.71875 71.875 27.9375 71.875 
Q 38.234375 71.875 44.234375 66.15625 
Q 50.25 60.453125 50.25 52 
Q 50.25 47.703125 48.484375 43.546875 
Q 46.734375 39.40625 42.65625 34.8125 
Q 38.578125 30.21875 29.109375 22.21875 
Q 21.1875 15.578125 18.9375 13.203125 
Q 16.703125 10.84375 15.234375 8.453125 
z
" id="ArialMT-32"/>
      </defs>
      <g style="fill:#262626;" transform="translate(19.377125 82.821252)scale(0.08 -0.08)">
       <use xlink:href="#ArialMT-32"/>
      </g>
     </g>
    </g>
    <g id="ytick_4">
     <g id="line2d_8">
      <g>
       <use style="fill:#262626;stroke:#262626;stroke-width:0.8;" x="35.425875" xlink:href="#mbb03e0de50" y="60.417191"/>
      </g>
     </g>
     <g id="text_9">
      <!-- 3 -->
      <defs>
       <path d="M 4.203125 18.890625 
L 12.984375 20.0625 
Q 14.5 12.59375 18.140625 9.296875 
Q 21.78125 6 27 6 
Q 33.203125 6 37.46875 10.296875 
Q 41.75 14.59375 41.75 20.953125 
Q 41.75 27 37.796875 30.921875 
Q 33.84375 34.859375 27.734375 34.859375 
Q 25.25 34.859375 21.53125 33.890625 
L 22.515625 41.609375 
Q 23.390625 41.5 23.921875 41.5 
Q 29.546875 41.5 34.03125 44.421875 
Q 38.53125 47.359375 38.53125 53.46875 
Q 38.53125 58.296875 35.25 61.46875 
Q 31.984375 64.65625 26.8125 64.65625 
Q 21.6875 64.65625 18.265625 61.421875 
Q 14.84375 58.203125 13.875 51.765625 
L 5.078125 53.328125 
Q 6.6875 62.15625 12.390625 67.015625 
Q 18.109375 71.875 26.609375 71.875 
Q 32.46875 71.875 37.390625 69.359375 
Q 42.328125 66.84375 44.9375 62.5 
Q 47.5625 58.15625 47.5625 53.265625 
Q 47.5625 48.640625 45.0625 44.828125 
Q 42.578125 41.015625 37.703125 38.765625 
Q 44.046875 37.3125 47.5625 32.6875 
Q 51.078125 28.078125 51.078125 21.140625 
Q 51.078125 11.765625 44.234375 5.25 
Q 37.40625 -1.265625 26.953125 -1.265625 
Q 17.53125 -1.265625 11.296875 4.34375 
Q 5.078125 9.96875 4.203125 18.890625 
z
" id="ArialMT-33"/>
      </defs>
      <g style="fill:#262626;" transform="translate(19.377125 63.280316)scale(0.08 -0.08)">
       <use xlink:href="#ArialMT-33"/>
      </g>
     </g>
    </g>
    <g id="ytick_5">
     <g id="line2d_9">
      <g>
       <use style="fill:#262626;stroke:#262626;stroke-width:0.8;" x="35.425875" xlink:href="#mbb03e0de50" y="40.876254"/>
      </g>
     </g>
     <g id="text_10">
      <!-- 4 -->
      <defs>
       <path d="M 32.328125 0 
L 32.328125 17.140625 
L 1.265625 17.140625 
L 1.265625 25.203125 
L 33.9375 71.578125 
L 41.109375 71.578125 
L 41.109375 25.203125 
L 50.78125 25.203125 
L 50.78125 17.140625 
L 41.109375 17.140625 
L 41.109375 0 
z
M 32.328125 25.203125 
L 32.328125 57.46875 
L 9.90625 25.203125 
z
" id="ArialMT-34"/>
      </defs>
      <g style="fill:#262626;" transform="translate(19.377125 43.739379)scale(0.08 -0.08)">
       <use xlink:href="#ArialMT-34"/>
      </g>
     </g>
    </g>
    <g id="ytick_6">
     <g id="line2d_10">
      <g>
       <use style="fill:#262626;stroke:#262626;stroke-width:0.8;" x="35.425875" xlink:href="#mbb03e0de50" y="21.335318"/>
      </g>
     </g>
     <g id="text_11">
      <!-- 5 -->
      <defs>
       <path d="M 4.15625 18.75 
L 13.375 19.53125 
Q 14.40625 12.796875 18.140625 9.390625 
Q 21.875 6 27.15625 6 
Q 33.5 6 37.890625 10.78125 
Q 42.28125 15.578125 42.28125 23.484375 
Q 42.28125 31 38.0625 35.34375 
Q 33.84375 39.703125 27 39.703125 
Q 22.75 39.703125 19.328125 37.765625 
Q 15.921875 35.84375 13.96875 32.765625 
L 5.71875 33.84375 
L 12.640625 70.609375 
L 48.25 70.609375 
L 48.25 62.203125 
L 19.671875 62.203125 
L 15.828125 42.96875 
Q 22.265625 47.46875 29.34375 47.46875 
Q 38.71875 47.46875 45.15625 40.96875 
Q 51.609375 34.46875 51.609375 24.265625 
Q 51.609375 14.546875 45.953125 7.46875 
Q 39.0625 -1.21875 27.15625 -1.21875 
Q 17.390625 -1.21875 11.203125 4.25 
Q 5.03125 9.71875 4.15625 18.75 
z
" id="ArialMT-35"/>
      </defs>
      <g style="fill:#262626;" transform="translate(19.377125 24.198443)scale(0.08 -0.08)">
       <use xlink:href="#ArialMT-35"/>
      </g>
     </g>
    </g>
    <g id="text_12">
     <!-- log10 downloads -->
     <defs>
      <path d="M 4.984375 -4.296875 
L 13.53125 -5.5625 
Q 14.0625 -9.515625 16.5 -11.328125 
Q 19.78125 -13.765625 25.4375 -13.765625 
Q 31.546875 -13.765625 34.859375 -11.328125 
Q 38.1875 -8.890625 39.359375 -4.5 
Q 40.046875 -1.8125 39.984375 6.78125 
Q 34.234375 0 25.640625 0 
Q 14.9375 0 9.078125 7.71875 
Q 3.21875 15.4375 3.21875 26.21875 
Q 3.21875 33.640625 5.90625 39.90625 
Q 8.59375 46.1875 13.6875 49.609375 
Q 18.796875 53.03125 25.6875 53.03125 
Q 34.859375 53.03125 40.828125 45.609375 
L 40.828125 51.859375 
L 48.921875 51.859375 
L 48.921875 7.03125 
Q 48.921875 -5.078125 46.453125 -10.125 
Q 44 -15.1875 38.640625 -18.109375 
Q 33.296875 -21.046875 25.484375 -21.046875 
Q 16.21875 -21.046875 10.5 -16.875 
Q 4.78125 -12.703125 4.984375 -4.296875 
z
M 12.25 26.859375 
Q 12.25 16.65625 16.296875 11.96875 
Q 20.359375 7.28125 26.46875 7.28125 
Q 32.515625 7.28125 36.609375 11.9375 
Q 40.71875 16.609375 40.71875 26.5625 
Q 40.71875 36.078125 36.5 40.90625 
Q 32.28125 45.75 26.3125 45.75 
Q 20.453125 45.75 16.34375 40.984375 
Q 12.25 36.234375 12.25 26.859375 
z
" id="ArialMT-67"/>
      <path id="ArialMT-20"/>
      <path d="M 16.15625 0 
L 0.296875 51.859375 
L 9.375 51.859375 
L 17.625 21.921875 
L 20.703125 10.796875 
Q 20.90625 11.625 23.390625 21.484375 
L 31.640625 51.859375 
L 40.671875 51.859375 
L 48.4375 21.78125 
L 51.03125 11.859375 
L 54 21.875 
L 62.890625 51.859375 
L 71.4375 51.859375 
L 55.21875 0 
L 46.09375 0 
L 37.84375 31.0625 
L 35.84375 39.890625 
L 25.34375 0 
z
" id="ArialMT-77"/>
      <path d="M 40.4375 6.390625 
Q 35.546875 2.25 31.03125 0.53125 
Q 26.515625 -1.171875 21.34375 -1.171875 
Q 12.796875 -1.171875 8.203125 3 
Q 3.609375 7.171875 3.609375 13.671875 
Q 3.609375 17.484375 5.34375 20.625 
Q 7.078125 23.78125 9.890625 25.6875 
Q 12.703125 27.59375 16.21875 28.5625 
Q 18.796875 29.25 24.03125 29.890625 
Q 34.671875 31.15625 39.703125 32.90625 
Q 39.75 34.71875 39.75 35.203125 
Q 39.75 40.578125 37.25 42.78125 
Q 33.890625 45.75 27.25 45.75 
Q 21.046875 45.75 18.09375 43.578125 
Q 15.140625 41.40625 13.71875 35.890625 
L 5.125 37.0625 
Q 6.296875 42.578125 8.984375 45.96875 
Q 11.671875 49.359375 16.75 51.1875 
Q 21.828125 53.03125 28.515625 53.03125 
Q 35.15625 53.03125 39.296875 51.46875 
Q 43.453125 49.90625 45.40625 47.53125 
Q 47.359375 45.171875 48.140625 41.546875 
Q 48.578125 39.3125 48.578125 33.453125 
L 48.578125 21.734375 
Q 48.578125 9.46875 49.140625 6.21875 
Q 49.703125 2.984375 51.375 0 
L 42.1875 0 
Q 40.828125 2.734375 40.4375 6.390625 
z
M 39.703125 26.03125 
Q 34.90625 24.078125 25.34375 22.703125 
Q 19.921875 21.921875 17.671875 20.9375 
Q 15.4375 19.96875 14.203125 18.09375 
Q 12.984375 16.21875 12.984375 13.921875 
Q 12.984375 10.40625 15.640625 8.0625 
Q 18.3125 5.71875 23.4375 5.71875 
Q 28.515625 5.71875 32.46875 7.9375 
Q 36.421875 10.15625 38.28125 14.015625 
Q 39.703125 17 39.703125 22.796875 
z
" id="ArialMT-61"/>
     </defs>
     <g style="fill:#262626;" transform="translate(13.525 101.663375)rotate(-90)scale(0.088 -0.088)">
      <use xlink:href="#ArialMT-6c"/>
      <use x="22.216797" xlink:href="#ArialMT-6f"/>
      <use x="77.832031" xlink:href="#ArialMT-67"/>
      <use x="133.447266" xlink:href="#ArialMT-31"/>
      <use x="189.0625" xlink:href="#ArialMT-30"/>
      <use x="244.677734" xlink:href="#ArialMT-20"/>
      <use x="272.460938" xlink:href="#ArialMT-64"/>
      <use x="328.076172" xlink:href="#ArialMT-6f"/>
      <use x="383.691406" xlink:href="#ArialMT-77"/>
      <use x="455.908203" xlink:href="#ArialMT-6e"/>
      <use x="511.523438" xlink:href="#ArialMT-6c"/>
      <use x="533.740234" xlink:href="#ArialMT-6f"/>
      <use x="589.355469" xlink:href="#ArialMT-61"/>
      <use x="644.970703" xlink:href="#ArialMT-64"/>
      <use x="700.585938" xlink:href="#ArialMT-73"/>
     </g>
    </g>
   </g>
   <g id="PolyCollection_1">
    <defs>
     <path d="M 63.729713 -43.297875 
L 62.922037 -43.297875 
L 62.831567 -44.184353 
L 62.734811 -45.070831 
L 62.635285 -45.957309 
L 62.536888 -46.843786 
L 62.443264 -47.730264 
L 62.357035 -48.616742 
L 62.279018 -49.50322 
L 62.207518 -50.389698 
L 62.137765 -51.276176 
L 62.061509 -52.162653 
L 61.966734 -53.049131 
L 61.83741 -53.935609 
L 61.653248 -54.822087 
L 61.389503 -55.708565 
L 61.017007 -56.595043 
L 60.502772 -57.48152 
L 59.811632 -58.367998 
L 58.909338 -59.254476 
L 57.767374 -60.140954 
L 56.369301 -61.027432 
L 54.717902 -61.91391 
L 52.841789 -62.800388 
L 50.799742 -63.686865 
L 48.68104 -64.573343 
L 46.600544 -65.459821 
L 44.688351 -66.346299 
L 43.075116 -67.232777 
L 41.875412 -68.119255 
L 41.172251 -69.005732 
L 41.005875 -69.89221 
L 41.369113 -70.778688 
L 42.210097 -71.665166 
L 43.441499 -72.551644 
L 44.954046 -73.438122 
L 46.631374 -74.324599 
L 48.363355 -75.211077 
L 50.05584 -76.097555 
L 51.635911 -76.984033 
L 53.052878 -77.870511 
L 54.276126 -78.756989 
L 55.291243 -79.643466 
L 56.09579 -80.529944 
L 56.695664 -81.416422 
L 57.102495 -82.3029 
L 57.332071 -83.189378 
L 57.40351 -84.075856 
L 57.338784 -84.962334 
L 57.162276 -85.848811 
L 56.900184 -86.735289 
L 56.579698 -87.621767 
L 56.228035 -88.508245 
L 55.871435 -89.394723 
L 55.534223 -90.281201 
L 55.238023 -91.167678 
L 55.001153 -92.054156 
L 54.838162 -92.940634 
L 54.759489 -93.827112 
L 54.771173 -94.71359 
L 54.874626 -95.600068 
L 55.066455 -96.486545 
L 55.338432 -97.373023 
L 55.677684 -98.259501 
L 56.067202 -99.145979 
L 56.486764 -100.032457 
L 56.914264 -100.918935 
L 57.327399 -101.805413 
L 57.705572 -102.69189 
L 58.03179 -103.578368 
L 58.2943 -104.464846 
L 58.487697 -105.351324 
L 58.613302 -106.237802 
L 58.678711 -107.12428 
L 58.696547 -108.010757 
L 58.682608 -108.897235 
L 58.653731 -109.783713 
L 58.625742 -110.670191 
L 58.611826 -111.556669 
L 58.621565 -112.443147 
L 58.660707 -113.329624 
L 58.731548 -114.216102 
L 58.833697 -115.10258 
L 58.964942 -115.989058 
L 59.121965 -116.875536 
L 59.300788 -117.762014 
L 59.496957 -118.648491 
L 59.705584 -119.534969 
L 59.921411 -120.421447 
L 60.139025 -121.307925 
L 60.353291 -122.194403 
L 60.559925 -123.080881 
L 60.756076 -123.967359 
L 60.940732 -124.853836 
L 61.114808 -125.740314 
L 61.280836 -126.626792 
L 61.442306 -127.51327 
L 61.602797 -128.399748 
L 61.765086 -129.286226 
L 61.930459 -130.172703 
L 62.098359 -131.059181 
L 64.553391 -131.059181 
L 64.553391 -131.059181 
L 64.721291 -130.172703 
L 64.886664 -129.286226 
L 65.048953 -128.399748 
L 65.209444 -127.51327 
L 65.370914 -126.626792 
L 65.536942 -125.740314 
L 65.711018 -124.853836 
L 65.895674 -123.967359 
L 66.091825 -123.080881 
L 66.298459 -122.194403 
L 66.512725 -121.307925 
L 66.730339 -120.421447 
L 66.946166 -119.534969 
L 67.154793 -118.648491 
L 67.350962 -117.762014 
L 67.529785 -116.875536 
L 67.686808 -115.989058 
L 67.818053 -115.10258 
L 67.920202 -114.216102 
L 67.991043 -113.329624 
L 68.030185 -112.443147 
L 68.039924 -111.556669 
L 68.026008 -110.670191 
L 67.998019 -109.783713 
L 67.969142 -108.897235 
L 67.955203 -108.010757 
L 67.973039 -107.12428 
L 68.038448 -106.237802 
L 68.164053 -105.351324 
L 68.35745 -104.464846 
L 68.61996 -103.578368 
L 68.946178 -102.69189 
L 69.324351 -101.805413 
L 69.737486 -100.918935 
L 70.164986 -100.032457 
L 70.584548 -99.145979 
L 70.974066 -98.259501 
L 71.313318 -97.373023 
L 71.585295 -96.486545 
L 71.777124 -95.600068 
L 71.880577 -94.71359 
L 71.892261 -93.827112 
L 71.813588 -92.940634 
L 71.650597 -92.054156 
L 71.413727 -91.167678 
L 71.117527 -90.281201 
L 70.780315 -89.394723 
L 70.423715 -88.508245 
L 70.072052 -87.621767 
L 69.751566 -86.735289 
L 69.489474 -85.848811 
L 69.312966 -84.962334 
L 69.24824 -84.075856 
L 69.319679 -83.189378 
L 69.549255 -82.3029 
L 69.956086 -81.416422 
L 70.55596 -80.529944 
L 71.360507 -79.643466 
L 72.375624 -78.756989 
L 73.598872 -77.870511 
L 75.015839 -76.984033 
L 76.59591 -76.097555 
L 78.288395 -75.211077 
L 80.020376 -74.324599 
L 81.697704 -73.438122 
L 83.210251 -72.551644 
L 84.441653 -71.665166 
L 85.282637 -70.778688 
L 85.645875 -69.89221 
L 85.479499 -69.005732 
L 84.776338 -68.119255 
L 83.576634 -67.232777 
L 81.963399 -66.346299 
L 80.051206 -65.459821 
L 77.97071 -64.573343 
L 75.852008 -63.686865 
L 73.809961 -62.800388 
L 71.933848 -61.91391 
L 70.282449 -61.027432 
L 68.884376 -60.140954 
L 67.742412 -59.254476 
L 66.840118 -58.367998 
L 66.148978 -57.48152 
L 65.634743 -56.595043 
L 65.262247 -55.708565 
L 64.998502 -54.822087 
L 64.81434 -53.935609 
L 64.685016 -53.049131 
L 64.590241 -52.162653 
L 64.513985 -51.276176 
L 64.444232 -50.389698 
L 64.372732 -49.50322 
L 64.294715 -48.616742 
L 64.208486 -47.730264 
L 64.114862 -46.843786 
L 64.016465 -45.957309 
L 63.916939 -45.070831 
L 63.820183 -44.184353 
L 63.729713 -43.297875 
z
" id="md55410e2ac" style="stroke:#2f2f2f;stroke-width:1.4;"/>
    </defs>
    <g clip-path="url(#pf58dbdae56)">
     <use style="fill:#166c9c;stroke:#2f2f2f;stroke-width:1.4;" x="0" xlink:href="#md55410e2ac" y="162.337875"/>
    </g>
   </g>
   <g id="PolyCollection_2">
    <defs>
     <path d="M 119.38317 -43.297875 
L 118.86858 -43.297875 
L 118.799181 -44.316057 
L 118.719174 -45.334239 
L 118.628638 -46.35242 
L 118.527051 -47.370602 
L 118.412347 -48.388784 
L 118.279978 -49.406966 
L 118.122392 -50.425148 
L 117.929344 -51.44333 
L 117.689282 -52.461511 
L 117.391724 -53.479693 
L 117.030209 -54.497875 
L 116.605086 -55.516057 
L 116.125331 -56.534239 
L 115.608673 -57.55242 
L 115.079717 -58.570602 
L 114.566253 -59.588784 
L 114.094464 -60.606966 
L 113.684157 -61.625148 
L 113.345127 -62.64333 
L 113.075526 -63.661511 
L 112.86252 -64.679693 
L 112.684918 -65.697875 
L 112.517084 -66.716057 
L 112.333343 -67.734239 
L 112.11226 -68.75242 
L 111.840436 -69.770602 
L 111.515461 -70.788784 
L 111.147508 -71.806966 
L 110.758801 -72.825148 
L 110.380208 -73.84333 
L 110.044714 -74.861511 
L 109.778532 -75.879693 
L 109.591678 -76.897875 
L 109.470517 -77.916057 
L 109.374743 -78.934239 
L 109.240382 -79.95242 
L 108.989133 -80.970602 
L 108.54295 -81.988784 
L 107.84167 -83.006966 
L 106.860564 -84.025148 
L 105.624152 -85.04333 
L 104.212466 -86.061511 
L 102.756621 -87.079693 
L 101.422413 -88.097875 
L 100.383604 -89.116057 
L 99.789891 -90.134239 
L 99.737072 -91.15242 
L 100.247303 -92.170602 
L 101.265061 -93.188784 
L 102.670115 -94.206966 
L 104.30375 -95.225148 
L 106.000814 -96.24333 
L 107.618902 -97.261511 
L 109.057719 -98.279693 
L 110.265323 -99.297875 
L 111.232208 -100.316057 
L 111.977487 -101.334239 
L 112.532867 -102.35242 
L 112.929557 -103.370602 
L 113.191274 -104.388784 
L 113.33396 -105.406966 
L 113.370557 -106.425148 
L 113.317791 -107.44333 
L 113.201646 -108.461511 
L 113.059043 -109.479693 
L 112.934715 -110.497875 
L 112.874132 -111.516057 
L 112.914701 -112.534239 
L 113.078135 -113.55242 
L 113.366452 -114.570602 
L 113.762752 -115.588784 
L 114.236353 -116.606966 
L 114.750426 -117.625148 
L 115.26978 -118.64333 
L 115.766689 -119.661511 
L 116.223633 -120.679693 
L 116.632976 -121.697875 
L 116.99446 -122.716057 
L 117.311831 -123.734239 
L 117.589787 -124.75242 
L 117.832043 -125.770602 
L 118.040731 -126.788784 
L 118.21688 -127.806966 
L 118.361432 -128.825148 
L 118.476217 -129.84333 
L 118.564443 -130.861511 
L 118.630566 -131.879693 
L 118.679672 -132.897875 
L 118.716679 -133.916057 
L 118.745693 -134.934239 
L 118.769716 -135.95242 
L 118.790744 -136.970602 
L 118.8101 -137.988784 
L 118.828807 -139.006966 
L 118.847821 -140.025148 
L 118.868055 -141.04333 
L 118.890228 -142.061511 
L 118.914664 -143.079693 
L 118.941146 -144.097875 
L 119.310604 -144.097875 
L 119.310604 -144.097875 
L 119.337086 -143.079693 
L 119.361522 -142.061511 
L 119.383695 -141.04333 
L 119.403929 -140.025148 
L 119.422943 -139.006966 
L 119.44165 -137.988784 
L 119.461006 -136.970602 
L 119.482034 -135.95242 
L 119.506057 -134.934239 
L 119.535071 -133.916057 
L 119.572078 -132.897875 
L 119.621184 -131.879693 
L 119.687307 -130.861511 
L 119.775533 -129.84333 
L 119.890318 -128.825148 
L 120.03487 -127.806966 
L 120.211019 -126.788784 
L 120.419707 -125.770602 
L 120.661963 -124.75242 
L 120.939919 -123.734239 
L 121.25729 -122.716057 
L 121.618774 -121.697875 
L 122.028117 -120.679693 
L 122.485061 -119.661511 
L 122.98197 -118.64333 
L 123.501324 -117.625148 
L 124.015397 -116.606966 
L 124.488998 -115.588784 
L 124.885298 -114.570602 
L 125.173615 -113.55242 
L 125.337049 -112.534239 
L 125.377618 -111.516057 
L 125.317035 -110.497875 
L 125.192707 -109.479693 
L 125.050104 -108.461511 
L 124.933959 -107.44333 
L 124.881193 -106.425148 
L 124.91779 -105.406966 
L 125.060476 -104.388784 
L 125.322193 -103.370602 
L 125.718883 -102.35242 
L 126.274263 -101.334239 
L 127.019542 -100.316057 
L 127.986427 -99.297875 
L 129.194031 -98.279693 
L 130.632848 -97.261511 
L 132.250936 -96.24333 
L 133.948 -95.225148 
L 135.581635 -94.206966 
L 136.986689 -93.188784 
L 138.004447 -92.170602 
L 138.514678 -91.15242 
L 138.461859 -90.134239 
L 137.868146 -89.116057 
L 136.829337 -88.097875 
L 135.495129 -87.079693 
L 134.039284 -86.061511 
L 132.627598 -85.04333 
L 131.391186 -84.025148 
L 130.41008 -83.006966 
L 129.7088 -81.988784 
L 129.262617 -80.970602 
L 129.011368 -79.95242 
L 128.877007 -78.934239 
L 128.781233 -77.916057 
L 128.660072 -76.897875 
L 128.473218 -75.879693 
L 128.207036 -74.861511 
L 127.871542 -73.84333 
L 127.492949 -72.825148 
L 127.104242 -71.806966 
L 126.736289 -70.788784 
L 126.411314 -69.770602 
L 126.13949 -68.75242 
L 125.918407 -67.734239 
L 125.734666 -66.716057 
L 125.566832 -65.697875 
L 125.38923 -64.679693 
L 125.176224 -63.661511 
L 124.906623 -62.64333 
L 124.567593 -61.625148 
L 124.157286 -60.606966 
L 123.685497 -59.588784 
L 123.172033 -58.570602 
L 122.643077 -57.55242 
L 122.126419 -56.534239 
L 121.646664 -55.516057 
L 121.221541 -54.497875 
L 120.860026 -53.479693 
L 120.562468 -52.461511 
L 120.322406 -51.44333 
L 120.129358 -50.425148 
L 119.971772 -49.406966 
L 119.839403 -48.388784 
L 119.724699 -47.370602 
L 119.623112 -46.35242 
L 119.532576 -45.334239 
L 119.452569 -44.316057 
L 119.38317 -43.297875 
z
" id="m6cc5c26994" style="stroke:#2f2f2f;stroke-width:1.4;"/>
    </defs>
    <g clip-path="url(#pf58dbdae56)">
     <use style="fill:#148a6a;stroke:#2f2f2f;stroke-width:1.4;" x="0" xlink:href="#m6cc5c26994" y="162.337875"/>
    </g>
   </g>
   <g id="PolyCollection_3">
    <defs>
     <path d="M 175.249951 -43.297875 
L 174.601799 -43.297875 
L 174.507313 -44.267103 
L 174.391244 -45.236332 
L 174.251209 -46.20556 
L 174.085523 -47.174789 
L 173.893436 -48.144017 
L 173.675271 -49.113245 
L 173.432435 -50.082474 
L 173.167272 -51.051702 
L 172.882773 -52.020931 
L 172.58215 -52.990159 
L 172.268318 -53.959387 
L 171.943363 -54.928616 
L 171.608063 -55.897844 
L 171.261578 -56.867073 
L 170.901407 -57.836301 
L 170.523682 -58.805529 
L 170.123811 -59.774758 
L 169.697409 -60.743986 
L 169.241376 -61.713215 
L 168.754942 -62.682443 
L 168.240474 -63.651671 
L 167.70388 -64.6209 
L 167.154526 -65.590128 
L 166.604642 -66.559356 
L 166.068312 -67.528585 
L 165.560169 -68.497813 
L 165.093999 -69.467042 
L 164.681425 -70.43627 
L 164.330834 -71.405498 
L 164.046686 -72.374727 
L 163.829233 -73.343955 
L 163.674674 -74.313184 
L 163.575669 -75.282412 
L 163.522139 -76.25164 
L 163.502278 -77.220869 
L 163.503697 -78.190097 
L 163.514638 -79.159326 
L 163.525181 -80.128554 
L 163.528324 -81.097782 
L 163.520788 -82.067011 
L 163.503389 -83.036239 
L 163.480854 -84.005468 
L 163.461063 -84.974696 
L 163.453826 -85.943924 
L 163.469425 -86.913153 
L 163.517196 -87.882381 
L 163.604413 -88.85161 
L 163.735636 -89.820838 
L 163.912536 -90.790066 
L 164.134094 -91.759295 
L 164.396995 -92.728523 
L 164.696058 -93.697752 
L 165.024592 -94.66698 
L 165.37465 -95.636208 
L 165.737241 -96.605437 
L 166.102562 -97.574665 
L 166.460331 -98.543894 
L 166.800235 -99.513122 
L 167.112511 -100.48235 
L 167.388635 -101.451579 
L 167.622066 -102.420807 
L 167.809019 -103.390035 
L 167.949142 -104.359264 
L 168.045951 -105.328492 
L 168.106867 -106.297721 
L 168.142664 -107.266949 
L 168.166296 -108.236177 
L 168.191209 -109.205406 
L 168.229441 -110.174634 
L 168.289948 -111.143863 
L 168.377592 -112.113091 
L 168.493102 -113.082319 
L 168.634006 -114.051548 
L 168.796279 -115.020776 
L 168.976183 -115.990005 
L 169.171767 -116.959233 
L 169.383556 -117.928461 
L 169.614308 -118.89769 
L 169.867951 -119.866918 
L 170.148087 -120.836147 
L 170.456536 -121.805375 
L 170.792291 -122.774603 
L 171.15114 -123.743832 
L 171.525948 -124.71306 
L 171.907451 -125.682289 
L 172.285346 -126.651517 
L 172.649417 -127.620745 
L 172.990542 -128.589974 
L 173.301453 -129.559202 
L 173.577211 -130.528431 
L 173.815396 -131.497659 
L 174.016022 -132.466887 
L 174.181225 -133.436116 
L 174.314768 -134.405344 
L 174.421437 -135.374573 
L 174.50641 -136.343801 
L 174.574683 -137.313029 
L 174.630626 -138.282258 
L 174.677708 -139.251486 
L 175.174042 -139.251486 
L 175.174042 -139.251486 
L 175.221124 -138.282258 
L 175.277067 -137.313029 
L 175.34534 -136.343801 
L 175.430313 -135.374573 
L 175.536982 -134.405344 
L 175.670525 -133.436116 
L 175.835728 -132.466887 
L 176.036354 -131.497659 
L 176.274539 -130.528431 
L 176.550297 -129.559202 
L 176.861208 -128.589974 
L 177.202333 -127.620745 
L 177.566404 -126.651517 
L 177.944299 -125.682289 
L 178.325802 -124.71306 
L 178.70061 -123.743832 
L 179.059459 -122.774603 
L 179.395214 -121.805375 
L 179.703663 -120.836147 
L 179.983799 -119.866918 
L 180.237442 -118.89769 
L 180.468194 -117.928461 
L 180.679983 -116.959233 
L 180.875567 -115.990005 
L 181.055471 -115.020776 
L 181.217744 -114.051548 
L 181.358648 -113.082319 
L 181.474158 -112.113091 
L 181.561802 -111.143863 
L 181.622309 -110.174634 
L 181.660541 -109.205406 
L 181.685454 -108.236177 
L 181.709086 -107.266949 
L 181.744883 -106.297721 
L 181.805799 -105.328492 
L 181.902608 -104.359264 
L 182.042731 -103.390035 
L 182.229684 -102.420807 
L 182.463115 -101.451579 
L 182.739239 -100.48235 
L 183.051515 -99.513122 
L 183.391419 -98.543894 
L 183.749188 -97.574665 
L 184.114509 -96.605437 
L 184.4771 -95.636208 
L 184.827158 -94.66698 
L 185.155692 -93.697752 
L 185.454755 -92.728523 
L 185.717656 -91.759295 
L 185.939214 -90.790066 
L 186.116114 -89.820838 
L 186.247337 -88.85161 
L 186.334554 -87.882381 
L 186.382325 -86.913153 
L 186.397924 -85.943924 
L 186.390687 -84.974696 
L 186.370896 -84.005468 
L 186.348361 -83.036239 
L 186.330962 -82.067011 
L 186.323426 -81.097782 
L 186.326569 -80.128554 
L 186.337112 -79.159326 
L 186.348053 -78.190097 
L 186.349472 -77.220869 
L 186.329611 -76.25164 
L 186.276081 -75.282412 
L 186.177076 -74.313184 
L 186.022517 -73.343955 
L 185.805064 -72.374727 
L 185.520916 -71.405498 
L 185.170325 -70.43627 
L 184.757751 -69.467042 
L 184.291581 -68.497813 
L 183.783438 -67.528585 
L 183.247108 -66.559356 
L 182.697224 -65.590128 
L 182.14787 -64.6209 
L 181.611276 -63.651671 
L 181.096808 -62.682443 
L 180.610374 -61.713215 
L 180.154341 -60.743986 
L 179.727939 -59.774758 
L 179.328068 -58.805529 
L 178.950343 -57.836301 
L 178.590172 -56.867073 
L 178.243687 -55.897844 
L 177.908387 -54.928616 
L 177.583432 -53.959387 
L 177.2696 -52.990159 
L 176.968977 -52.020931 
L 176.684478 -51.051702 
L 176.419315 -50.082474 
L 176.176479 -49.113245 
L 175.958314 -48.144017 
L 175.766227 -47.174789 
L 175.600541 -46.20556 
L 175.460506 -45.236332 
L 175.344437 -44.267103 
L 175.249951 -43.297875 
z
" id="m5daabe5737" style="stroke:#2f2f2f;stroke-width:1.4;"/>
    </defs>
    <g clip-path="url(#pf58dbdae56)">
     <use style="fill:#ba611b;stroke:#2f2f2f;stroke-width:1.4;" x="0" xlink:href="#m5daabe5737" y="162.337875"/>
    </g>
   </g>
   <g id="PolyCollection_4">
    <defs>
     <path d="M 231.020953 -43.297875 
L 230.430797 -43.297875 
L 230.342474 -44.226593 
L 230.225836 -45.155312 
L 230.073307 -46.08403 
L 229.87695 -47.012748 
L 229.629283 -47.941466 
L 229.324339 -48.870185 
L 228.958852 -49.798903 
L 228.533408 -50.727621 
L 228.05334 -51.656339 
L 227.529159 -52.585058 
L 226.976341 -53.513776 
L 226.414405 -54.442494 
L 225.865322 -55.371212 
L 225.351463 -56.299931 
L 224.893359 -57.228649 
L 224.50763 -58.157367 
L 224.205396 -59.086085 
L 223.991411 -60.014804 
L 223.864025 -60.943522 
L 223.815913 -61.87224 
L 223.835417 -62.800958 
L 223.908241 -63.729677 
L 224.019209 -64.658395 
L 224.153859 -65.587113 
L 224.299647 -66.515831 
L 224.446676 -67.44455 
L 224.587898 -68.373268 
L 224.718829 -69.301986 
L 224.836863 -70.230704 
L 224.940318 -71.159423 
L 225.02737 -72.088141 
L 225.095047 -73.016859 
L 225.13846 -73.945577 
L 225.150427 -74.874296 
L 225.121602 -75.803014 
L 225.041159 -76.731732 
L 224.898007 -77.66045 
L 224.682402 -78.589169 
L 224.38776 -79.517887 
L 224.012378 -80.446605 
L 223.560775 -81.375323 
L 223.044366 -82.304042 
L 222.481276 -83.23276 
L 221.895233 -84.161478 
L 221.313626 -85.090196 
L 220.764986 -86.018915 
L 220.27625 -86.947633 
L 219.870219 -87.876351 
L 219.563593 -88.805069 
L 219.365839 -89.733788 
L 219.278976 -90.662506 
L 219.298217 -91.591224 
L 219.413196 -92.519942 
L 219.609496 -93.448661 
L 219.870127 -94.377379 
L 220.176727 -95.306097 
L 220.510341 -96.234815 
L 220.85181 -97.163534 
L 221.181892 -98.092252 
L 221.481333 -99.02097 
L 221.731103 -99.949688 
L 221.913002 -100.878407 
L 222.010715 -101.807125 
L 222.011318 -102.735843 
L 221.907087 -103.664561 
L 221.697356 -104.59328 
L 221.390081 -105.521998 
L 221.002744 -106.450716 
L 220.562256 -107.379434 
L 220.103645 -108.308153 
L 219.667513 -109.236871 
L 219.296467 -110.165589 
L 219.030949 -111.094307 
L 218.905079 -112.023026 
L 218.943126 -112.951744 
L 219.157166 -113.880462 
L 219.546254 -114.80918 
L 220.097162 -115.737899 
L 220.786464 -116.666617 
L 221.583511 -117.595335 
L 222.453787 -118.524053 
L 223.362112 -119.452772 
L 224.275352 -120.38149 
L 225.164399 -121.310208 
L 226.005401 -122.238926 
L 226.780325 -123.167645 
L 227.476986 -124.096363 
L 228.088701 -125.025081 
L 228.61368 -125.953799 
L 229.054255 -126.882518 
L 229.415999 -127.811236 
L 229.706804 -128.739954 
L 229.93597 -129.668672 
L 230.113349 -130.597391 
L 230.248627 -131.526109 
L 230.350762 -132.454827 
L 230.427601 -133.383545 
L 230.485688 -134.312264 
L 230.530222 -135.240982 
L 230.921528 -135.240982 
L 230.921528 -135.240982 
L 230.966062 -134.312264 
L 231.024149 -133.383545 
L 231.100988 -132.454827 
L 231.203123 -131.526109 
L 231.338401 -130.597391 
L 231.51578 -129.668672 
L 231.744946 -128.739954 
L 232.035751 -127.811236 
L 232.397495 -126.882518 
L 232.83807 -125.953799 
L 233.363049 -125.025081 
L 233.974764 -124.096363 
L 234.671425 -123.167645 
L 235.446349 -122.238926 
L 236.287351 -121.310208 
L 237.176398 -120.38149 
L 238.089638 -119.452772 
L 238.997963 -118.524053 
L 239.868239 -117.595335 
L 240.665286 -116.666617 
L 241.354588 -115.737899 
L 241.905496 -114.80918 
L 242.294584 -113.880462 
L 242.508624 -112.951744 
L 242.546671 -112.023026 
L 242.420801 -111.094307 
L 242.155283 -110.165589 
L 241.784237 -109.236871 
L 241.348105 -108.308153 
L 240.889494 -107.379434 
L 240.449006 -106.450716 
L 240.061669 -105.521998 
L 239.754394 -104.59328 
L 239.544663 -103.664561 
L 239.440432 -102.735843 
L 239.441035 -101.807125 
L 239.538748 -100.878407 
L 239.720647 -99.949688 
L 239.970417 -99.02097 
L 240.269858 -98.092252 
L 240.59994 -97.163534 
L 240.941409 -96.234815 
L 241.275023 -95.306097 
L 241.581623 -94.377379 
L 241.842254 -93.448661 
L 242.038554 -92.519942 
L 242.153533 -91.591224 
L 242.172774 -90.662506 
L 242.085911 -89.733788 
L 241.888157 -88.805069 
L 241.581531 -87.876351 
L 241.1755 -86.947633 
L 240.686764 -86.018915 
L 240.138124 -85.090196 
L 239.556517 -84.161478 
L 238.970474 -83.23276 
L 238.407384 -82.304042 
L 237.890975 -81.375323 
L 237.439372 -80.446605 
L 237.06399 -79.517887 
L 236.769348 -78.589169 
L 236.553743 -77.66045 
L 236.410591 -76.731732 
L 236.330148 -75.803014 
L 236.301323 -74.874296 
L 236.31329 -73.945577 
L 236.356703 -73.016859 
L 236.42438 -72.088141 
L 236.511432 -71.159423 
L 236.614887 -70.230704 
L 236.732921 -69.301986 
L 236.863852 -68.373268 
L 237.005074 -67.44455 
L 237.152103 -66.515831 
L 237.297891 -65.587113 
L 237.432541 -64.658395 
L 237.543509 -63.729677 
L 237.616333 -62.800958 
L 237.635837 -61.87224 
L 237.587725 -60.943522 
L 237.460339 -60.014804 
L 237.246354 -59.086085 
L 236.94412 -58.157367 
L 236.558391 -57.228649 
L 236.100287 -56.299931 
L 235.586428 -55.371212 
L 235.037345 -54.442494 
L 234.475409 -53.513776 
L 233.922591 -52.585058 
L 233.39841 -51.656339 
L 232.918342 -50.727621 
L 232.492898 -49.798903 
L 232.127411 -48.870185 
L 231.822467 -47.941466 
L 231.5748 -47.012748 
L 231.378443 -46.08403 
L 231.225914 -45.155312 
L 231.109276 -44.226593 
L 231.020953 -43.297875 
z
" id="m465a1600b2" style="stroke:#2f2f2f;stroke-width:1.4;"/>
    </defs>
    <g clip-path="url(#pf58dbdae56)">
     <use style="fill:#c283a6;stroke:#2f2f2f;stroke-width:1.4;" x="0" xlink:href="#m465a1600b2" y="162.337875"/>
    </g>
   </g>
   <g id="line2d_11">
    <path clip-path="url(#pf58dbdae56)" d="M 63.325875 119.04 
L 63.325875 31.278694 
" style="fill:none;stroke:#2f2f2f;stroke-linecap:round;stroke-width:1.4;"/>
   </g>
   <g id="line2d_12">
    <path clip-path="url(#pf58dbdae56)" d="M 63.325875 93.616655 
L 63.325875 66.164889 
" style="fill:none;stroke:#2f2f2f;stroke-linecap:round;stroke-width:4.2;"/>
   </g>
   <g id="line2d_13">
    <path clip-path="url(#pf58dbdae56)" d="M 119.125875 113.157592 
L 119.125875 36.479564 
" style="fill:none;stroke:#2f2f2f;stroke-linecap:round;stroke-width:1.4;"/>
   </g>
   <g id="line2d_14">
    <path clip-path="url(#pf58dbdae56)" d="M 119.125875 85.507688 
L 119.125875 65.166943 
" style="fill:none;stroke:#2f2f2f;stroke-linecap:round;stroke-width:4.2;"/>
   </g>
   <g id="line2d_15">
    <path clip-path="url(#pf58dbdae56)" d="M 174.925875 119.04 
L 174.925875 23.086389 
" style="fill:none;stroke:#2f2f2f;stroke-linecap:round;stroke-width:1.4;"/>
   </g>
   <g id="line2d_16">
    <path clip-path="url(#pf58dbdae56)" d="M 174.925875 88.628392 
L 174.925875 60.571339 
" style="fill:none;stroke:#2f2f2f;stroke-linecap:round;stroke-width:4.2;"/>
   </g>
   <g id="line2d_17">
    <path clip-path="url(#pf58dbdae56)" d="M 230.725875 119.04 
L 230.725875 27.096893 
" style="fill:none;stroke:#2f2f2f;stroke-linecap:round;stroke-width:1.4;"/>
   </g>
   <g id="line2d_18">
    <path clip-path="url(#pf58dbdae56)" d="M 230.725875 86.641417 
L 230.725875 50.781373 
" style="fill:none;stroke:#2f2f2f;stroke-linecap:round;stroke-width:4.2;"/>
   </g>
   <g id="patch_3">
    <path d="M 35.425875 124.08 
L 35.425875 13.2 
" style="fill:none;stroke:#262626;stroke-linecap:square;stroke-linejoin:miter;stroke-width:1.25;"/>
   </g>
   <g id="patch_4">
    <path d="M 35.425875 124.08 
L 258.625875 124.08 
" style="fill:none;stroke:#262626;stroke-linecap:square;stroke-linejoin:miter;stroke-width:1.25;"/>
   </g>
   <g id="PathCollection_1">
    <defs>
     <path d="M 0 1.4 
C 0.371284 1.4 0.727412 1.252487 0.989949 0.989949 
C 1.252487 0.727412 1.4 0.371284 1.4 0 
C 1.4 -0.371284 1.252487 -0.727412 0.989949 -0.989949 
C 0.727412 -1.252487 0.371284 -1.4 0 -1.4 
C -0.371284 -1.4 -0.727412 -1.252487 -0.989949 -0.989949 
C -1.252487 -0.727412 -1.4 -0.371284 -1.4 0 
C -1.4 0.371284 -1.252487 0.727412 -0.989949 0.989949 
C -0.727412 1.252487 -0.371284 1.4 0 1.4 
z
" id="m888b8b7016" style="stroke:#2f2f2f;stroke-width:0.24;"/>
    </defs>
    <g clip-path="url(#pf58dbdae56)">
     <use style="fill:#ffffff;stroke:#2f2f2f;stroke-width:0.24;" x="63.325875" xlink:href="#m888b8b7016" y="87.320189"/>
    </g>
   </g>
   <g id="PathCollection_2">
    <g clip-path="url(#pf58dbdae56)">
     <use style="fill:#ffffff;stroke:#2f2f2f;stroke-width:0.24;" x="119.125875" xlink:href="#m888b8b7016" y="72.458015"/>
    </g>
   </g>
   <g id="PathCollection_3">
    <g clip-path="url(#pf58dbdae56)">
     <use style="fill:#ffffff;stroke:#2f2f2f;stroke-width:0.24;" x="174.925875" xlink:href="#m888b8b7016" y="75.505007"/>
    </g>
   </g>
   <g id="PathCollection_4">
    <g clip-path="url(#pf58dbdae56)">
     <use style="fill:#ffffff;stroke:#2f2f2f;stroke-width:0.24;" x="230.725875" xlink:href="#m888b8b7016" y="70.247656"/>
    </g>
   </g>
   <g id="text_13">
    <!-- total: 4,702,321 -->
    <defs>
     <path d="M 9.03125 41.84375 
L 9.03125 51.859375 
L 19.046875 51.859375 
L 19.046875 41.84375 
z
M 9.03125 0 
L 9.03125 10.015625 
L 19.046875 10.015625 
L 19.046875 0 
z
" id="ArialMT-3a"/>
     <path d="M 8.890625 0 
L 8.890625 10.015625 
L 18.890625 10.015625 
L 18.890625 0 
Q 18.890625 -5.515625 16.9375 -8.90625 
Q 14.984375 -12.3125 10.75 -14.15625 
L 8.296875 -10.40625 
Q 11.078125 -9.1875 12.390625 -6.8125 
Q 13.71875 -4.4375 13.875 0 
z
" id="ArialMT-2c"/>
     <path d="M 4.734375 62.203125 
L 4.734375 70.65625 
L 51.078125 70.65625 
L 51.078125 63.8125 
Q 44.234375 56.546875 37.515625 44.484375 
Q 30.8125 32.421875 27.15625 19.671875 
Q 24.515625 10.6875 23.78125 0 
L 14.75 0 
Q 14.890625 8.453125 18.0625 20.40625 
Q 21.234375 32.375 27.171875 43.484375 
Q 33.109375 54.59375 39.796875 62.203125 
z
" id="ArialMT-37"/>
    </defs>
    <g style="fill:#262626;" transform="translate(192.444375 20.0715)scale(0.096 -0.096)">
     <use xlink:href="#ArialMT-74"/>
     <use x="27.783203" xlink:href="#ArialMT-6f"/>
     <use x="83.398438" xlink:href="#ArialMT-74"/>
     <use x="111.181641" xlink:href="#ArialMT-61"/>
     <use x="166.796875" xlink:href="#ArialMT-6c"/>
     <use x="189.013672" xlink:href="#ArialMT-3a"/>
     <use x="216.796875" xlink:href="#ArialMT-20"/>
     <use x="244.580078" xlink:href="#ArialMT-34"/>
     <use x="300.195312" xlink:href="#ArialMT-2c"/>
     <use x="327.978516" xlink:href="#ArialMT-37"/>
     <use x="383.59375" xlink:href="#ArialMT-30"/>
     <use x="439.208984" xlink:href="#ArialMT-32"/>
     <use x="494.824219" xlink:href="#ArialMT-2c"/>
     <use x="522.607422" xlink:href="#ArialMT-33"/>
     <use x="578.222656" xlink:href="#ArialMT-32"/>
     <use x="633.837891" xlink:href="#ArialMT-31"/>
    </g>
   </g>
  </g>
 </g>
 <defs>
  <clipPath id="pf58dbdae56">
   <rect height="110.88" width="223.2" x="35.425875" y="13.2"/>
  </clipPath>
 </defs>
</svg>
