<?xml version="1.0" encoding="UTF-8" standalone="no"?>
<!DOCTYPE svg PUBLIC "-//W3C//DTD SVG 1.0//EN" "http://www.w3.org/TR/2001/PR-SVG-20010719/DTD/svg10.dtd">
<svg width="32cm" height="4cm" viewBox="45 17 621 68" xmlns="http://www.w3.org/2000/svg" xmlns:xlink="http://www.w3.org/1999/xlink">
  <text font-size="12.8" style="fill: #000000;text-anchor:start;font-family:sans-serif;font-style:normal;font-weight:normal" x="45" y="82">
    <tspan x="45" y="82"></tspan>
  </text>
  <g>
    <rect style="fill: #ffffff" x="73.425" y="18.867" width="60.05" height="38"/>
    <path style="fill: #ffffff" d="M 73.425,18.867 A 19,19 0 0 0 54.425,37.867 L 73.425,37.867 z"/>
    <path style="fill: #ffffff" d="M 152.475,37.867 A 19,19 0 0 0 133.475,18.867 L 133.475,37.867 z"/>
    <rect style="fill: #ffffff" x="54.425" y="37.867" width="98.05" height="0"/>
    <path style="fill: #ffffff" d="M 54.425,37.867 A 19,19 0 0 0 73.425,56.867 L 73.425,37.867 z"/>
    <path style="fill: #ffffff" d="M 133.475,56.867 A 19,19 0 0 0 152.475,37.867 L 133.475,37.867 z"/>
    <line style="fill: none; fill-opacity:0; stroke-width: 2; stroke: #000000" x1="73.425" y1="18.867" x2="133.475" y2="18.867"/>
    <line style="fill: none; fill-opacity:0; stroke-width: 2; stroke: #000000" x1="73.425" y1="56.867" x2="133.475" y2="56.867"/>
    <path style="fill: none; fill-opacity:0; stroke-width: 2; stroke: #000000" d="M 73.425,18.867 A 19,19 0 0 0 54.425,37.867"/>
    <path style="fill: none; fill-opacity:0; stroke-width: 2; stroke: #000000" d="M 152.475,37.867 A 19,19 0 0 0 133.475,18.867"/>
    <line style="fill: none; fill-opacity:0; stroke-width: 2; stroke: #000000" x1="54.425" y1="37.867" x2="54.425" y2="37.867"/>
    <line style="fill: none; fill-opacity:0; stroke-width: 2; stroke: #000000" x1="152.475" y1="37.867" x2="152.475" y2="37.867"/>
    <path style="fill: none; fill-opacity:0; stroke-width: 2; stroke: #000000" d="M 54.425,37.867 A 19,19 0 0 0 73.425,56.867"/>
    <path style="fill: none; fill-opacity:0; stroke-width: 2; stroke: #000000" d="M 133.475,56.867 A 19,19 0 0 0 152.475,37.867"/>
    <text font-size="12.8" style="fill: #000000;text-anchor:middle;font-family:sans-serif;font-style:normal;font-weight:normal" x="103.45" y="41.767">
      <tspan x="103.45" y="41.767">pull request</tspan>
    </text>
  </g>
  <g>
    <rect style="fill: #ffffff" x="198.738" y="18.867" width="10.55" height="38"/>
    <path style="fill: #ffffff" d="M 198.738,18.867 A 19,19 0 0 0 179.738,37.867 L 198.738,37.867 z"/>
    <path style="fill: #ffffff" d="M 228.288,37.867 A 19,19 0 0 0 209.287,18.867 L 209.287,37.867 z"/>
    <rect style="fill: #ffffff" x="179.738" y="37.867" width="48.55" height="0"/>
    <path style="fill: #ffffff" d="M 179.738,37.867 A 19,19 0 0 0 198.738,56.867 L 198.738,37.867 z"/>
    <path style="fill: #ffffff" d="M 209.287,56.867 A 19,19 0 0 0 228.288,37.867 L 209.287,37.867 z"/>
    <line style="fill: none; fill-opacity:0; stroke-width: 2; stroke: #000000" x1="198.738" y1="18.867" x2="209.287" y2="18.867"/>
    <line style="fill: none; fill-opacity:0; stroke-width: 2; stroke: #000000" x1="198.738" y1="56.867" x2="209.287" y2="56.867"/>
    <path style="fill: none; fill-opacity:0; stroke-width: 2; stroke: #000000" d="M 198.738,18.867 A 19,19 0 0 0 179.738,37.867"/>
    <path style="fill: none; fill-opacity:0; stroke-width: 2; stroke: #000000" d="M 228.288,37.867 A 19,19 0 0 0 209.287,18.867"/>
    <line style="fill: none; fill-opacity:0; stroke-width: 2; stroke: #000000" x1="179.738" y1="37.867" x2="179.738" y2="37.867"/>
    <line style="fill: none; fill-opacity:0; stroke-width: 2; stroke: #000000" x1="228.288" y1="37.867" x2="228.288" y2="37.867"/>
    <path style="fill: none; fill-opacity:0; stroke-width: 2; stroke: #000000" d="M 179.738,37.867 A 19,19 0 0 0 198.738,56.867"/>
    <path style="fill: none; fill-opacity:0; stroke-width: 2; stroke: #000000" d="M 209.287,56.867 A 19,19 0 0 0 228.288,37.867"/>
    <text font-size="12.8" style="fill: #000000;text-anchor:middle;font-family:sans-serif;font-style:normal;font-weight:normal" x="204.013" y="41.767">
      <tspan x="204.013" y="41.767">lint</tspan>
    </text>
  </g>
  <g>
    <rect style="fill: #ffffff" x="274.55" y="18.867" width="15.5" height="38"/>
    <path style="fill: #ffffff" d="M 274.55,18.867 A 19,19 0 0 0 255.55,37.867 L 274.55,37.867 z"/>
    <path style="fill: #ffffff" d="M 309.05,37.867 A 19,19 0 0 0 290.05,18.867 L 290.05,37.867 z"/>
    <rect style="fill: #ffffff" x="255.55" y="37.867" width="53.5" height="0"/>
    <path style="fill: #ffffff" d="M 255.55,37.867 A 19,19 0 0 0 274.55,56.867 L 274.55,37.867 z"/>
    <path style="fill: #ffffff" d="M 290.05,56.867 A 19,19 0 0 0 309.05,37.867 L 290.05,37.867 z"/>
    <line style="fill: none; fill-opacity:0; stroke-width: 2; stroke: #000000" x1="274.55" y1="18.867" x2="290.05" y2="18.867"/>
    <line style="fill: none; fill-opacity:0; stroke-width: 2; stroke: #000000" x1="274.55" y1="56.867" x2="290.05" y2="56.867"/>
    <path style="fill: none; fill-opacity:0; stroke-width: 2; stroke: #000000" d="M 274.55,18.867 A 19,19 0 0 0 255.55,37.867"/>
    <path style="fill: none; fill-opacity:0; stroke-width: 2; stroke: #000000" d="M 309.05,37.867 A 19,19 0 0 0 290.05,18.867"/>
    <line style="fill: none; fill-opacity:0; stroke-width: 2; stroke: #000000" x1="255.55" y1="37.867" x2="255.55" y2="37.867"/>
    <line style="fill: none; fill-opacity:0; stroke-width: 2; stroke: #000000" x1="309.05" y1="37.867" x2="309.05" y2="37.867"/>
    <path style="fill: none; fill-opacity:0; stroke-width: 2; stroke: #000000" d="M 255.55,37.867 A 19,19 0 0 0 274.55,56.867"/>
    <path style="fill: none; fill-opacity:0; stroke-width: 2; stroke: #000000" d="M 290.05,56.867 A 19,19 0 0 0 309.05,37.867"/>
    <text font-size="12.8" style="fill: #000000;text-anchor:middle;font-family:sans-serif;font-style:normal;font-weight:normal" x="282.3" y="41.767">
      <tspan x="282.3" y="41.767">build</tspan>
    </text>
  </g>
  <g>
    <rect style="fill: #ffffff" x="355.313" y="18.867" width="14.725" height="38"/>
    <path style="fill: #ffffff" d="M 355.313,18.867 A 19,19 0 0 0 336.312,37.867 L 355.313,37.867 z"/>
    <path style="fill: #ffffff" d="M 389.038,37.867 A 19,19 0 0 0 370.037,18.867 L 370.037,37.867 z"/>
    <rect style="fill: #ffffff" x="336.312" y="37.867" width="52.725" height="0"/>
    <path style="fill: #ffffff" d="M 336.312,37.867 A 19,19 0 0 0 355.313,56.867 L 355.313,37.867 z"/>
    <path style="fill: #ffffff" d="M 370.037,56.867 A 19,19 0 0 0 389.038,37.867 L 370.037,37.867 z"/>
    <line style="fill: none; fill-opacity:0; stroke-width: 2; stroke: #000000" x1="355.313" y1="18.867" x2="370.037" y2="18.867"/>
    <line style="fill: none; fill-opacity:0; stroke-width: 2; stroke: #000000" x1="355.313" y1="56.867" x2="370.037" y2="56.867"/>
    <path style="fill: none; fill-opacity:0; stroke-width: 2; stroke: #000000" d="M 355.313,18.867 A 19,19 0 0 0 336.312,37.867"/>
    <path style="fill: none; fill-opacity:0; stroke-width: 2; stroke: #000000" d="M 389.038,37.867 A 19,19 0 0 0 370.037,18.867"/>
    <line style="fill: none; fill-opacity:0; stroke-width: 2; stroke: #000000" x1="336.312" y1="37.867" x2="336.312" y2="37.867"/>
    <line style="fill: none; fill-opacity:0; stroke-width: 2; stroke: #000000" x1="389.038" y1="37.867" x2="389.038" y2="37.867"/>
    <path style="fill: none; fill-opacity:0; stroke-width: 2; stroke: #000000" d="M 336.312,37.867 A 19,19 0 0 0 355.313,56.867"/>
    <path style="fill: none; fill-opacity:0; stroke-width: 2; stroke: #000000" d="M 370.037,56.867 A 19,19 0 0 0 389.038,37.867"/>
    <text font-size="12.8" style="fill: #000000;text-anchor:middle;font-family:sans-serif;font-style:normal;font-weight:normal" x="362.675" y="41.767">
      <tspan x="362.675" y="41.767">test</tspan>
    </text>
  </g>
  <g>
    <rect style="fill: #ffffff" x="435.3" y="18.867" width="26.35" height="38"/>
    <path style="fill: #ffffff" d="M 435.3,18.867 A 19,19 0 0 0 416.3,37.867 L 435.3,37.867 z"/>
    <path style="fill: #ffffff" d="M 480.65,37.867 A 19,19 0 0 0 461.65,18.867 L 461.65,37.867 z"/>
    <rect style="fill: #ffffff" x="416.3" y="37.867" width="64.35" height="0"/>
    <path style="fill: #ffffff" d="M 416.3,37.867 A 19,19 0 0 0 435.3,56.867 L 435.3,37.867 z"/>
    <path style="fill: #ffffff" d="M 461.65,56.867 A 19,19 0 0 0 480.65,37.867 L 461.65,37.867 z"/>
    <line style="fill: none; fill-opacity:0; stroke-width: 2; stroke: #000000" x1="435.3" y1="18.867" x2="461.65" y2="18.867"/>
    <line style="fill: none; fill-opacity:0; stroke-width: 2; stroke: #000000" x1="435.3" y1="56.867" x2="461.65" y2="56.867"/>
    <path style="fill: none; fill-opacity:0; stroke-width: 2; stroke: #000000" d="M 435.3,18.867 A 19,19 0 0 0 416.3,37.867"/>
    <path style="fill: none; fill-opacity:0; stroke-width: 2; stroke: #000000" d="M 480.65,37.867 A 19,19 0 0 0 461.65,18.867"/>
    <line style="fill: none; fill-opacity:0; stroke-width: 2; stroke: #000000" x1="416.3" y1="37.867" x2="416.3" y2="37.867"/>
    <line style="fill: none; fill-opacity:0; stroke-width: 2; stroke: #000000" x1="480.65" y1="37.867" x2="480.65" y2="37.867"/>
    <path style="fill: none; fill-opacity:0; stroke-width: 2; stroke: #000000" d="M 416.3,37.867 A 19,19 0 0 0 435.3,56.867"/>
    <path style="fill: none; fill-opacity:0; stroke-width: 2; stroke: #000000" d="M 461.65,56.867 A 19,19 0 0 0 480.65,37.867"/>
    <text font-size="12.8" style="fill: #000000;text-anchor:middle;font-family:sans-serif;font-style:normal;font-weight:normal" x="448.475" y="41.767">
      <tspan x="448.475" y="41.767">review</tspan>
    </text>
  </g>
  <g>
    <rect style="fill: #ffffff" x="526.913" y="18.867" width="25.45" height="38"/>
    <path style="fill: #ffffff" d="M 526.913,18.867 A 19,19 0 0 0 507.912,37.867 L 526.913,37.867 z"/>
    <path style="fill: #ffffff" d="M 571.363,37.867 A 19,19 0 0 0 552.363,18.867 L 552.363,37.867 z"/>
    <rect style="fill: #ffffff" x="507.912" y="37.867" width="63.45" height="0"/>
    <path style="fill: #ffffff" d="M 507.912,37.867 A 19,19 0 0 0 526.913,56.867 L 526.913,37.867 z"/>
    <path style="fill: #ffffff" d="M 552.363,56.867 A 19,19 0 0 0 571.363,37.867 L 552.363,37.867 z"/>
    <line style="fill: none; fill-opacity:0; stroke-width: 2; stroke: #000000" x1="526.913" y1="18.867" x2="552.363" y2="18.867"/>
    <line style="fill: none; fill-opacity:0; stroke-width: 2; stroke: #000000" x1="526.913" y1="56.867" x2="552.363" y2="56.867"/>
    <path style="fill: none; fill-opacity:0; stroke-width: 2; stroke: #000000" d="M 526.913,18.867 A 19,19 0 0 0 507.912,37.867"/>
    <path style="fill: none; fill-opacity:0; stroke-width: 2; stroke: #000000" d="M 571.363,37.867 A 19,19 0 0 0 552.363,18.867"/>
    <line style="fill: none; fill-opacity:0; stroke-width: 2; stroke: #000000" x1="507.912" y1="37.867" x2="507.912" y2="37.867"/>
    <line style="fill: none; fill-opacity:0; stroke-width: 2; stroke: #000000" x1="571.363" y1="37.867" x2="571.363" y2="37.867"/>
    <path style="fill: none; fill-opacity:0; stroke-width: 2; stroke: #000000" d="M 507.912,37.867 A 19,19 0 0 0 526.913,56.867"/>
    <path style="fill: none; fill-opacity:0; stroke-width: 2; stroke: #000000" d="M 552.363,56.867 A 19,19 0 0 0 571.363,37.867"/>
    <text font-size="12.8" style="fill: #000000;text-anchor:middle;font-family:sans-serif;font-style:normal;font-weight:normal" x="539.638" y="41.767">
      <tspan x="539.638" y="41.767">merge</tspan>
    </text>
  </g>
  <g>
    <rect style="fill: #ffffff" x="617.625" y="18.867" width="27.65" height="38"/>
    <path style="fill: #ffffff" d="M 617.625,18.867 A 19,19 0 0 0 598.625,37.867 L 617.625,37.867 z"/>
    <path style="fill: #ffffff" d="M 664.275,37.867 A 19,19 0 0 0 645.275,18.867 L 645.275,37.867 z"/>
    <rect style="fill: #ffffff" x="598.625" y="37.867" width="65.65" height="0"/>
    <path style="fill: #ffffff" d="M 598.625,37.867 A 19,19 0 0 0 617.625,56.867 L 617.625,37.867 z"/>
    <path style="fill: #ffffff" d="M 645.275,56.867 A 19,19 0 0 0 664.275,37.867 L 645.275,37.867 z"/>
    <line style="fill: none; fill-opacity:0; stroke-width: 2; stroke: #000000" x1="617.625" y1="18.867" x2="645.275" y2="18.867"/>
    <line style="fill: none; fill-opacity:0; stroke-width: 2; stroke: #000000" x1="617.625" y1="56.867" x2="645.275" y2="56.867"/>
    <path style="fill: none; fill-opacity:0; stroke-width: 2; stroke: #000000" d="M 617.625,18.867 A 19,19 0 0 0 598.625,37.867"/>
    <path style="fill: none; fill-opacity:0; stroke-width: 2; stroke: #000000" d="M 664.275,37.867 A 19,19 0 0 0 645.275,18.867"/>
    <line style="fill: none; fill-opacity:0; stroke-width: 2; stroke: #000000" x1="598.625" y1="37.867" x2="598.625" y2="37.867"/>
    <line style="fill: none; fill-opacity:0; stroke-width: 2; stroke: #000000" x1="664.275" y1="37.867" x2="664.275" y2="37.867"/>
    <path style="fill: none; fill-opacity:0; stroke-width: 2; stroke: #000000" d="M 598.625,37.867 A 19,19 0 0 0 617.625,56.867"/>
    <path style="fill: none; fill-opacity:0; stroke-width: 2; stroke: #000000" d="M 645.275,56.867 A 19,19 0 0 0 664.275,37.867"/>
    <text font-size="12.8" style="fill: #000000;text-anchor:middle;font-family:sans-serif;font-style:normal;font-weight:normal" x="631.45" y="41.767">
      <tspan x="631.45" y="41.767">upload</tspan>
    </text>
  </g>
  <g>
    <line style="fill: none; fill-opacity:0; stroke-width: 2; stroke: #000000" x1="153.461" y1="37.867" x2="169.013" y2="37.867"/>
    <polygon style="fill: #000000" points="176.513,37.867 166.513,42.867 169.013,37.867 166.513,32.867 "/>
    <polygon style="fill: none; fill-opacity:0; stroke-width: 2; stroke: #000000" points="176.513,37.867 166.513,42.867 169.013,37.867 166.513,32.867 "/>
  </g>
  <g>
    <line style="fill: none; fill-opacity:0; stroke-width: 2; stroke: #000000" x1="229.29" y1="37.867" x2="244.85" y2="37.867"/>
    <polygon style="fill: #000000" points="252.35,37.867 242.35,42.867 244.85,37.867 242.35,32.867 "/>
    <polygon style="fill: none; fill-opacity:0; stroke-width: 2; stroke: #000000" points="252.35,37.867 242.35,42.867 244.85,37.867 242.35,32.867 "/>
  </g>
  <g>
    <line style="fill: none; fill-opacity:0; stroke-width: 2; stroke: #000000" x1="310.056" y1="37.867" x2="325.575" y2="37.867"/>
    <polygon style="fill: #000000" points="333.075,37.867 323.075,42.867 325.575,37.867 323.075,32.867 "/>
    <polygon style="fill: none; fill-opacity:0; stroke-width: 2; stroke: #000000" points="333.075,37.867 323.075,42.867 325.575,37.867 323.075,32.867 "/>
  </g>
  <g>
    <line style="fill: none; fill-opacity:0; stroke-width: 2; stroke: #000000" x1="390.043" y1="37.867" x2="405.726" y2="37.867"/>
    <polygon style="fill: #000000" points="413.226,37.867 403.226,42.867 405.726,37.867 403.226,32.867 "/>
    <polygon style="fill: none; fill-opacity:0; stroke-width: 2; stroke: #000000" points="413.226,37.867 403.226,42.867 405.726,37.867 403.226,32.867 "/>
  </g>
  <g>
    <line style="fill: none; fill-opacity:0; stroke-width: 2; stroke: #000000" x1="481.648" y1="37.867" x2="497.173" y2="37.867"/>
    <polygon style="fill: #000000" points="504.673,37.867 494.673,42.867 497.173,37.867 494.673,32.867 "/>
    <polygon style="fill: none; fill-opacity:0; stroke-width: 2; stroke: #000000" points="504.673,37.867 494.673,42.867 497.173,37.867 494.673,32.867 "/>
  </g>
  <g>
    <line style="fill: none; fill-opacity:0; stroke-width: 2; stroke: #000000" x1="571.363" y1="37.867" x2="587.9" y2="37.867"/>
    <polygon style="fill: #000000" points="595.4,37.867 585.4,42.867 587.9,37.867 585.4,32.867 "/>
    <polygon style="fill: none; fill-opacity:0; stroke-width: 2; stroke: #000000" points="595.4,37.867 585.4,42.867 587.9,37.867 585.4,32.867 "/>
  </g>
  <g>
    <polyline style="fill: none; fill-opacity:0; stroke-width: 2; stroke: #ff0000" points="282.3,56.867 282.3,77.867 103.45,77.867 103.45,66.6031 "/>
    <polygon style="fill: #ff0000" points="103.45,59.1031 108.45,69.1031 103.45,66.6031 98.45,69.1031 "/>
    <polygon style="fill: none; fill-opacity:0; stroke-width: 2; stroke: #ff0000" points="103.45,59.1031 108.45,69.1031 103.45,66.6031 98.45,69.1031 "/>
  </g>
  <polyline style="fill: none; fill-opacity:0; stroke-width: 2; stroke: #ff0000" points="362.675,56.867 362.675,77.3958 282.632,77.3958 282.632,75.9816 "/>
  <polyline style="fill: none; fill-opacity:0; stroke-width: 2; stroke: #ff0000" points="448.475,56.867 448.475,77.3958 362.535,77.3958 362.535,77.3958 "/>
  <line style="fill: none; fill-opacity:0; stroke-width: 2; stroke: #ff0000" x1="204.511" y1="57.8337" x2="205" y2="77.4142"/>
  <text font-size="12.7998" style="fill: #000000;text-anchor:start;font-family:sans-serif;font-style:normal;font-weight:normal" x="204.013" y="37.867">
    <tspan x="204.013" y="37.867"></tspan>
  </text>
</svg>
